<svg xmlns="http://www.w3.org/2000/svg" width="21.18" height="32" viewBox="0 0 21.18 32">
  <g id="Group_1837" data-name="Group 1837" transform="translate(-0.001 0)">
    <g id="Group_1836" data-name="Group 1836" transform="translate(5.795 2.926)">
      <path id="Path_55985" data-name="Path 55985" d="M213.74,203.149l0,0a1.329,1.329,0,0,1-.682-.983,3.939,3.939,0,0,1,.027-1.229v-.146l.123-.073a6.207,6.207,0,0,0,1.848-1.649l.5-.686-.052.849a7.006,7.006,0,0,1-.936,3.326,5.54,5.54,0,0,1-.434.6l-.2.247Zm0,0" transform="translate(-205.496 -188.907)" fill="#644c4c"/>
      <path id="Path_55986" data-name="Path 55986" d="M109.53,53.138a3.6,3.6,0,0,1-2.147-.8,4.911,4.911,0,0,1-1.511-2.173,2.2,2.2,0,0,0-.277,1.77l.1.367-.376-.054a2.8,2.8,0,0,1-2.345-1.921l-.039-.1.032-.089c.03-.083.055-.15.08-.212a5.044,5.044,0,0,1,1.356-1.9,4.394,4.394,0,0,1,2.82-1.21,2.771,2.771,0,0,1,.933.157,5.637,5.637,0,0,1,3.028,2.852,8.591,8.591,0,0,1,.608,1.638l.055.206-.195.087a1.482,1.482,0,0,1-1.422-.129.89.89,0,0,0-.417-.192.2.2,0,0,0-.135.052.4.4,0,0,0-.086.355,5.273,5.273,0,0,0,.186.971l.1.326Zm0,0" transform="translate(-102.294 -46.821)" fill="#644c4c"/>
      <path id="Path_55987" data-name="Path 55987" d="M94.156,206.252a4.218,4.218,0,0,1-.859-.988,4.858,4.858,0,0,1-.6-2.572c0-.109,0-.224.009-.343l.033-.731.421.6a5.623,5.623,0,0,0,1.785,1.62l.1.059.021.127h0a2.323,2.323,0,0,1-.57,2.217l-.165.169Zm0,0" transform="translate(-92.697 -191.942)" fill="#644c4c"/>
    </g>
    <path id="Path_55988" data-name="Path 55988" d="M19.865,35.543l-.012-.237a34.066,34.066,0,0,1,.333-6.747,33.8,33.8,0,0,0-.338,6.721l.013.263L8.624,35.516l.021-.268A42.176,42.176,0,0,0,8.631,28.7a42.62,42.62,0,0,1,.007,6.582l-.018.231-3.1-.008A1.6,1.6,0,0,1,4.4,35.223a1.625,1.625,0,0,1-.3-1.375L4.5,29.409a12.171,12.171,0,0,1,.829-4.053A4.088,4.088,0,0,1,8.4,22.832h0l0,0,.141-.052.112.1a2.2,2.2,0,0,0,.191.154,4.094,4.094,0,0,0,1.011.468c.167.059.314.112.464.174a1.759,1.759,0,0,1,1.132,1.066,1.745,1.745,0,0,0-1.131-1.07c-.146-.061-.3-.116-.446-.168L9.86,23.5a4.075,4.075,0,0,1-1.014-.47A2.822,2.822,0,0,1,7.8,21.064,8.843,8.843,0,0,1,7.835,19.1l.005-.055c.008-.09.016-.178.024-.268.092-1.062.122-2.144.15-3.191A24.529,24.529,0,0,1,8.833,8.8,7.087,7.087,0,0,1,11.047,5.29a6.125,6.125,0,0,1,3.862-1.231c.227,0,.459.01.69.03a6.694,6.694,0,0,1,3.161,1.04,4.528,4.528,0,0,1,1.92,2.664,7.642,7.642,0,0,1,.023,2.515,8.2,8.2,0,0,0-.005,2.406,8.216,8.216,0,0,0,.521,1.528,6.649,6.649,0,0,1,.566,1.835,6.657,6.657,0,0,1-.345,2.456l0,.008a7.663,7.663,0,0,0-.369,2.227c.007.2.031.411.054.611a3.571,3.571,0,0,1,0,1.25,2.473,2.473,0,0,1-1.156,1.455,7.244,7.244,0,0,1-1.769.692,7.074,7.074,0,0,0,1.771-.689,2.812,2.812,0,0,0,.816-.732l.135-.184.208.125h0a7.048,7.048,0,0,1,3.363,4.89,18.62,18.62,0,0,1,0,6.12,1.5,1.5,0,0,1-.369.984,1.472,1.472,0,0,1-1.009.261Zm-7.5-5.792.9-.213-.109.022-.333.081h0Zm4.032-.391a2.043,2.043,0,0,1,.709.126,1.794,1.794,0,0,0-.407-.107l-.209-.031,0-.211a20.788,20.788,0,0,1,.554-5.263,20.587,20.587,0,0,0-.557,5.233l.005.239-.238.016-.1.009c.081-.006.162-.011.243-.011Zm-3.56.09.011-.151a18.359,18.359,0,0,0-.411-5.39v0h0a18.421,18.421,0,0,1,.4,5.514Zm2.1-5.938a1.119,1.119,0,0,0,.6-.252,10.435,10.435,0,0,0,3.163-2.878,9.415,9.415,0,0,0,.909-5.606A13.108,13.108,0,0,0,18.51,9.738a5.644,5.644,0,0,0-3.031-2.854,2.773,2.773,0,0,0-.931-.156,4.4,4.4,0,0,0-2.825,1.21,5.051,5.051,0,0,0-1.356,1.9,10.226,10.226,0,0,0-.505,3.644c-.007.414-.015.884-.044,1.333-.021.338-.056.681-.089,1.013l-.012.119q-.015.144-.028.289l0,.039-.015.036.009.039,0,.038c-.04.442-.058.78-.06,1.1a4.861,4.861,0,0,0,.6,2.574,6.776,6.776,0,0,0,2.238,1.981l1.939,1.256a1.1,1.1,0,0,0,.519.219h.025Zm0,0" transform="translate(-3.824 -3.805)" fill="#3a6082"/>
    <path id="Path_55989" data-name="Path 55989" d="M98.547,108.545a5.58,5.58,0,0,1-4.771-2.964l-.033-.065.007-.073c.013-.141.027-.282.041-.422.034-.338.068-.682.09-1.021.027-.428.036-.857.044-1.333a14.343,14.343,0,0,1,.205-2.622l.132-.645.33.57a2.949,2.949,0,0,0,2.519,1.409A2.217,2.217,0,0,1,97,99.8l.187-.613.278.577a4.765,4.765,0,0,0,1.3,1.668,3.591,3.591,0,0,0,2.209.8c.1,0,.192,0,.287-.014a5.417,5.417,0,0,1-.285-1.281.759.759,0,0,1,0-.185l.043-.283.274.08a1.229,1.229,0,0,1,.317.177,1.5,1.5,0,0,0,1.353.156l.271-.1.062.283a19.4,19.4,0,0,1,.362,2.892c.031.5.048.908.051,1.292v.107l-.081.079a6.094,6.094,0,0,1-5.031,3.1Zm0,0" transform="translate(-87.882 -92.993)" fill="#ffdac4"/>
    <path id="Path_55990" data-name="Path 55990" d="M122.648,241.988a1.086,1.086,0,0,1-.521-.218l-1.938-1.256c-.285-.184-.639-.414-.969-.662l-.223-.167.19-.2a2.351,2.351,0,0,0,.607-1.845l-.048-.431.4.175a5.311,5.311,0,0,0,2.079.462h.055a5.368,5.368,0,0,0,2.265-.547l.4-.191-.047.443a3.229,3.229,0,0,0,.01.92,1.343,1.343,0,0,0,.672.979l.307.15-.237.247a14.742,14.742,0,0,1-2.386,1.891,1.1,1.1,0,0,1-.6.252Zm0,0" transform="translate(-111.558 -222.287)" fill="#ffdac4"/>
    <path id="Path_55991" data-name="Path 55991" d="M98.18,56.794a9.629,9.629,0,0,0,.946-5.754,13.311,13.311,0,0,0-1.118-5.132,5.9,5.9,0,0,0-3.17-2.978,4.107,4.107,0,0,0-4.006,1.1,5.306,5.306,0,0,0-1.424,1.993,10.419,10.419,0,0,0-.523,3.733c-.008.436-.016.886-.044,1.321-.021.336-.056.68-.089,1.012q-.02.2-.04.4a.25.25,0,0,0-.014.152c-.033.369-.059.742-.061,1.116a5.106,5.106,0,0,0,.636,2.705,6.959,6.959,0,0,0,2.315,2.061l1.939,1.256a1.306,1.306,0,0,0,.648.259h.031a1.333,1.333,0,0,0,.739-.3,10.608,10.608,0,0,0,3.232-2.951Zm-.428-.265a5.335,5.335,0,0,1-.415.576.251.251,0,0,0-.095-.079,1.084,1.084,0,0,1-.544-.8,3.779,3.779,0,0,1,.031-1.162c0-.008,0-.016,0-.024a6.479,6.479,0,0,0,1.922-1.716A6.8,6.8,0,0,1,97.751,56.529ZM91.165,44.41a4.146,4.146,0,0,1,2.655-1.147,2.516,2.516,0,0,1,.848.143,5.389,5.389,0,0,1,2.888,2.728,8.407,8.407,0,0,1,.59,1.59,1.232,1.232,0,0,1-1.178-.106c-.193-.133-.552-.381-.856-.125a.64.64,0,0,0-.174.57,5.555,5.555,0,0,0,.195,1.016,3.355,3.355,0,0,1-2-.747A4.666,4.666,0,0,1,92.7,46.268a.252.252,0,0,0-.447-.052,2.463,2.463,0,0,0-.305,1.973,2.563,2.563,0,0,1-2.145-1.758c0-.006-.005-.012-.008-.018q.036-.1.076-.2a4.8,4.8,0,0,1,1.289-1.8Zm-1.82,6.7c.028-.447.037-.9.044-1.344a14.31,14.31,0,0,1,.2-2.577,3.184,3.184,0,0,0,2.731,1.535.249.249,0,0,0,.217-.116.252.252,0,0,0,.015-.245,1.945,1.945,0,0,1-.1-1.392,4.977,4.977,0,0,0,1.368,1.755,3.852,3.852,0,0,0,2.365.857c.1,0,.208-.005.311-.015a.252.252,0,0,0,.213-.336,5.046,5.046,0,0,1-.273-1.218.536.536,0,0,1,0-.124,1.23,1.23,0,0,1,.244.142,1.75,1.75,0,0,0,1.584.185,19.167,19.167,0,0,1,.356,2.854c.027.424.047.852.051,1.278a.256.256,0,0,0-.051.066,5.8,5.8,0,0,1-4.857,2.973,5.306,5.306,0,0,1-4.552-2.828c.013-.141.027-.281.041-.421.034-.336.069-.685.091-1.03Zm.361,5.094a4.618,4.618,0,0,1-.563-2.441c0-.111,0-.222.008-.333a5.847,5.847,0,0,0,1.865,1.693.259.259,0,0,0,.006.033,2.077,2.077,0,0,1-.507,1.978,4.026,4.026,0,0,1-.809-.93Zm4.958,3.125a.883.883,0,0,1-.467.209.9.9,0,0,1-.394-.178L91.864,58.1c-.312-.2-.641-.416-.955-.652a2.608,2.608,0,0,0,.673-2.043,5.6,5.6,0,0,0,2.177.484h.059a5.615,5.615,0,0,0,2.371-.571,3.415,3.415,0,0,0,.013.993,1.59,1.59,0,0,0,.807,1.158,14.552,14.552,0,0,1-2.346,1.857Zm0,0" transform="translate(-83.098 -40.087)"/>
    <path id="Path_55992" data-name="Path 55992" d="M133.681,323.268l-.108.026a18.583,18.583,0,0,0-.417-5.464.252.252,0,0,0-.491.112,18.08,18.08,0,0,1,.4,5.445.251.251,0,0,0,0,.03l-.28.067a.252.252,0,0,0,.059.5.248.248,0,0,0,.059-.007l.9-.217a.252.252,0,1,0-.118-.49Zm0,0" transform="translate(-124.301 -297.783)"/>
    <path id="Path_55993" data-name="Path 55993" d="M194.49,322.692a2.3,2.3,0,0,0-.459-.116,20.528,20.528,0,0,1,.547-5.2.252.252,0,0,0-.49-.116,21.032,21.032,0,0,0-.561,5.3c-.036,0-.072.005-.108.01a.252.252,0,1,0,.06.5,1.8,1.8,0,0,1,.836.1.255.255,0,0,0,.087.016.252.252,0,0,0,.087-.489Zm0,0" transform="translate(-181.121 -297.25)"/>
    <path id="Path_55994" data-name="Path 55994" d="M20.918,24.328a7.292,7.292,0,0,0-3.5-5.065,2.144,2.144,0,0,0,.13-.38,3.831,3.831,0,0,0,0-1.338c-.023-.2-.046-.4-.053-.59A7.357,7.357,0,0,1,17.86,14.8a6.971,6.971,0,0,0,.355-2.557,6.964,6.964,0,0,0-.584-1.906,7.912,7.912,0,0,1-.506-1.48,7.9,7.9,0,0,1,.008-2.329,7.944,7.944,0,0,0-.028-2.6,4.79,4.79,0,0,0-2.026-2.818A6.95,6.95,0,0,0,11.8.03,6.647,6.647,0,0,0,7.065,1.285a7.341,7.341,0,0,0-2.3,3.637,24.768,24.768,0,0,0-.83,6.852c-.028,1.046-.058,2.127-.149,3.177-.009.107-.019.214-.029.321a9.089,9.089,0,0,0-.036,2.021,3.461,3.461,0,0,0,.555,1.525A4.477,4.477,0,0,0,1.27,21.445a12.56,12.56,0,0,0-.852,4.137L.026,30.021A1.884,1.884,0,0,0,.4,31.6a1.824,1.824,0,0,0,1.294.353L19.242,32H19.3a1.7,1.7,0,0,0,1.174-.327,1.727,1.727,0,0,0,.451-1.142,18.839,18.839,0,0,0,0-6.2Zm-.5,6.143a1.319,1.319,0,0,1-.289.829,1.33,1.33,0,0,1-.889.2l-2.964-.007a33.868,33.868,0,0,1,.331-6.7.252.252,0,0,0-.5-.075,34.372,34.372,0,0,0-.337,6.771l-10.7-.026a42.376,42.376,0,0,0-.013-6.584.252.252,0,1,0-.5.041,41.871,41.871,0,0,1,.01,6.543L1.7,31.453a1.418,1.418,0,0,1-.954-.219,1.44,1.44,0,0,1-.219-1.169l.393-4.44a12,12,0,0,1,.808-3.971A3.84,3.84,0,0,1,4.6,19.274a.243.243,0,0,0,.059-.015,2.377,2.377,0,0,0,.213.172,4.286,4.286,0,0,0,1.076.5c.156.056.3.108.448.168a1.581,1.581,0,0,1,.987.9.252.252,0,0,0,.487-.131,2,2,0,0,0-1.28-1.234c-.157-.065-.317-.123-.472-.178a3.832,3.832,0,0,1-.953-.438,2.576,2.576,0,0,1-.946-1.793,8.708,8.708,0,0,1,.038-1.909c.01-.108.02-.216.029-.324.093-1.064.122-2.153.151-3.206a24.392,24.392,0,0,1,.806-6.714A6.85,6.85,0,0,1,7.378,1.68,6.149,6.149,0,0,1,11.754.532a6.445,6.445,0,0,1,3.043,1,4.283,4.283,0,0,1,1.816,2.513,7.467,7.467,0,0,1,.017,2.437,8.406,8.406,0,0,0,0,2.477,8.426,8.426,0,0,0,.535,1.575,6.489,6.489,0,0,1,.549,1.766,6.5,6.5,0,0,1-.341,2.372,7.842,7.842,0,0,0-.377,2.3c.008.213.032.425.056.63a3.4,3.4,0,0,1,.006,1.164,2.227,2.227,0,0,1-1.043,1.3,7.076,7.076,0,0,1-1.712.667.252.252,0,0,0,.071.494.256.256,0,0,0,.071-.01,7.464,7.464,0,0,0,1.833-.72,3.081,3.081,0,0,0,.887-.8l.01.007a6.79,6.79,0,0,1,3.251,4.729,18.42,18.42,0,0,1,0,6.037Zm0,0" transform="translate(0 0)"/>
  </g>
</svg>
