<svg xmlns="http://www.w3.org/2000/svg" width="32" height="32" viewBox="0 0 32 32">
  <g id="Group_1835" data-name="Group 1835" transform="translate(-148 -192)">
    <circle id="Ellipse_59" data-name="Ellipse 59" cx="16" cy="16" r="16" transform="translate(148 192)" fill="#d8a235"/>
    <g id="Group_1834" data-name="Group 1834" transform="translate(156 184.5)">
      <path id="Path_55984" data-name="Path 55984" d="M12.25,30.531H3.75A3.754,3.754,0,0,1,0,26.781V21.75A3.754,3.754,0,0,1,3.75,18H5.358l.242-.749A2.524,2.524,0,0,1,8.008,15.5h3.075a2.524,2.524,0,0,1,2.407,1.751l.347,1.09A3.758,3.758,0,0,1,16,21.75v5.031A3.754,3.754,0,0,1,12.25,30.531ZM3.75,19.25a2.5,2.5,0,0,0-2.5,2.5v5.031a2.5,2.5,0,0,0,2.5,2.5h8.5a2.5,2.5,0,0,0,2.5-2.5V21.75A2.5,2.5,0,0,0,13.118,19.4a.625.625,0,0,1-.384-.4L12.3,17.633a1.276,1.276,0,0,0-1.217-.883H8.008a1.277,1.277,0,0,0-1.218.886l-.382,1.181a.625.625,0,0,1-.595.432Zm7.781-.625A.625.625,0,0,0,10.906,18H8.184a.625.625,0,0,0,0,1.25h2.722A.625.625,0,0,0,11.531,18.625ZM2.438,21.594a.781.781,0,1,0,.781-.781A.781.781,0,0,0,2.438,21.594Zm0,2.5a.781.781,0,1,0,.781-.781A.781.781,0,0,0,2.438,24.094Zm7.063,4a3.75,3.75,0,1,1,3.75-3.75A3.754,3.754,0,0,1,9.5,28.094Zm0-6.25a2.5,2.5,0,1,0,2.5,2.5A2.5,2.5,0,0,0,9.5,21.844Z"/>
    </g>
  </g>
</svg>
