<svg xmlns="http://www.w3.org/2000/svg" width="17" height="15.938" viewBox="0 0 17 15.938">
  <g id="Group_353" data-name="Group 353" transform="translate(0 -16)">
    <g id="Group_88" data-name="Group 88" transform="translate(0 16)">
      <path id="Path_71" data-name="Path 71" d="M16.336,136H.664a.664.664,0,1,0,0,1.328H.752l1.084,7.586a2,2,0,0,0,1.972,1.71h.158a1.992,1.992,0,0,0,3.756,0H9.278a1.992,1.992,0,0,0,3.756,0h.158a2,2,0,0,0,1.972-1.71l1.084-7.586h.088a.664.664,0,0,0,0-1.328ZM5.844,146.625a.664.664,0,1,1,.664-.664A.665.665,0,0,1,5.844,146.625Zm5.313,0a.664.664,0,1,1,.664-.664A.665.665,0,0,1,11.156,146.625Zm2.693-1.9a.667.667,0,0,1-.657.57h-.158a1.992,1.992,0,0,0-3.756,0H7.722a1.992,1.992,0,0,0-3.756,0H3.808a.667.667,0,0,1-.657-.57l-1.057-7.4H14.906Z" transform="translate(0 -132.016)" fill="#d8a235"/>
      <path id="Path_72" data-name="Path 72" d="M236.664,219.984a.664.664,0,0,0,.664-.664v-2.656a.664.664,0,0,0-1.328,0v2.656A.664.664,0,0,0,236.664,219.984Z" transform="translate(-228.164 -209.359)" fill="#d8a235"/>
      <path id="Path_73" data-name="Path 73" d="M356.664,219.984a.664.664,0,0,0,.664-.664v-2.656a.664.664,0,1,0-1.328,0v2.656A.664.664,0,0,0,356.664,219.984Z" transform="translate(-344.18 -209.359)" fill="#d8a235"/>
      <path id="Path_74" data-name="Path 74" d="M116.664,219.984a.664.664,0,0,0,.664-.664v-2.656a.664.664,0,0,0-1.328,0v2.656A.664.664,0,0,0,116.664,219.984Z" transform="translate(-112.148 -209.359)" fill="#d8a235"/>
      <path id="Path_75" data-name="Path 75" d="M124.962,17.773a3.32,3.32,0,0,0-1.661-.445,3.32,3.32,0,0,0-5.313,0,3.32,3.32,0,0,0-1.661.445.664.664,0,1,0,.665,1.15,1.99,1.99,0,0,1,1-.266h.355a.664.664,0,0,0,.575-.332,1.993,1.993,0,0,1,3.452,0,.664.664,0,0,0,.575.332h.355a1.99,1.99,0,0,1,1,.266.664.664,0,1,0,.665-1.15Z" transform="translate(-112.145 -16)" fill="#d8a235"/>
    </g>
  </g>
</svg>
