<svg xmlns="http://www.w3.org/2000/svg" width="24" height="22.5" viewBox="0 0 24 22.5">
  <g id="Group_89" data-name="Group 89" transform="translate(0 -16)">
    <g id="Group_88" data-name="Group 88" transform="translate(0 16)">
      <path id="Path_71" data-name="Path 71" d="M23.063,136H.938a.938.938,0,0,0,0,1.875h.124l1.53,10.71A2.826,2.826,0,0,0,5.376,151H5.6a2.812,2.812,0,0,0,5.3,0h2.2a2.812,2.812,0,0,0,5.3,0h.223a2.826,2.826,0,0,0,2.784-2.415l1.53-10.71h.124a.938.938,0,0,0,0-1.875ZM8.25,151a.938.938,0,1,1,.938-.937A.939.939,0,0,1,8.25,151Zm7.5,0a.938.938,0,1,1,.938-.937A.939.939,0,0,1,15.75,151Zm3.8-2.68a.942.942,0,0,1-.928.8H18.4a2.812,2.812,0,0,0-5.3,0H10.9a2.812,2.812,0,0,0-5.3,0H5.376a.942.942,0,0,1-.928-.8L2.956,137.875H21.044Z" transform="translate(0 -130.375)"/>
      <path id="Path_72" data-name="Path 72" d="M236.938,221.625a.938.938,0,0,0,.938-.937v-3.75a.938.938,0,0,0-1.875,0v3.75A.938.938,0,0,0,236.938,221.625Z" transform="translate(-224.938 -206.625)"/>
      <path id="Path_73" data-name="Path 73" d="M356.938,221.625a.938.938,0,0,0,.938-.937v-3.75a.938.938,0,0,0-1.875,0v3.75A.938.938,0,0,0,356.938,221.625Z" transform="translate(-339.313 -206.625)"/>
      <path id="Path_74" data-name="Path 74" d="M116.938,221.625a.938.938,0,0,0,.938-.937v-3.75a.938.938,0,0,0-1.875,0v3.75A.938.938,0,0,0,116.938,221.625Z" transform="translate(-110.563 -206.625)"/>
      <path id="Path_75" data-name="Path 75" d="M128.654,18.5a4.687,4.687,0,0,0-2.344-.628,4.688,4.688,0,0,0-7.5,0,4.687,4.687,0,0,0-2.344.628.938.938,0,1,0,.939,1.623,2.809,2.809,0,0,1,1.406-.376h.5a.937.937,0,0,0,.811-.468,2.814,2.814,0,0,1,4.874,0,.938.938,0,0,0,.812.468h.5a2.81,2.81,0,0,1,1.406.376.937.937,0,1,0,.939-1.623Z" transform="translate(-110.559 -16)"/>
    </g>
  </g>
</svg>
