<svg xmlns="http://www.w3.org/2000/svg" width="32" height="29.583" viewBox="0 0 32 29.583">
  <g id="Group_1826" data-name="Group 1826" transform="translate(0.001 -0.498)">
    <path id="Path_55963" data-name="Path 55963" d="M35.382,27.014,23.345,17.979l-2.75-2.637.393-2.217.168-2.329a24.253,24.253,0,0,0-1.15-3.171C19.445,6.5,17,5.689,14.759,4.9A6.562,6.562,0,0,0,7.519,7.4c-.505.7-2.469,2.469-2.974,5.051a9.259,9.259,0,0,0,1.263,6,10.7,10.7,0,0,0,4.686,3.423c2.16.673,6.089-1.8,6.089-1.8l.842-.421,1.684,1.515,1.684,1.4,1.964-.2s-.168,1.8-.14,1.88,2.637,1.964,2.637,1.964l1.038-.421,1.656.758-.674,1.291,1.543,1.431.87-.87,1.094.533-.617,1.178,1.291,1.15,1.291-.7.2,1.6,2.189,1.178.7-3.255ZM13.835,12.564a2.5,2.5,0,0,1-1.027,1.618,3.375,3.375,0,0,1-2.228.209A2.7,2.7,0,0,1,8.6,11.785a3.156,3.156,0,0,1,.45-1.688,1.681,1.681,0,0,1,1.068-1.22,2.628,2.628,0,0,1,2.242.032,3.134,3.134,0,0,1,1.478,3.655Zm0,0" transform="translate(-4.153 -3.851)" fill="#d8deec"/>
    <path id="Path_55964" data-name="Path 55964" d="M31.934,24.316a2.876,2.876,0,0,0-.163-1.02,1.851,1.851,0,0,0-.689-.733c-.674-.485-1.352-.963-2.025-1.449q-4.1-2.964-8.067-6.1-1.125-.888-2.241-1.787-.535-.429-1.067-.861a7.009,7.009,0,0,0-1.027-.773,10.1,10.1,0,0,0,.774-3.514A6.961,6.961,0,0,0,15,2.535,8.808,8.808,0,0,0,9.013.5,8.944,8.944,0,0,0,3.354,2.988,9.155,9.155,0,0,0,.124,8.209a4.834,4.834,0,0,0-.046.773,8.617,8.617,0,0,0,.47,4.2,8.337,8.337,0,0,0,3.46,4.21,6.319,6.319,0,0,0,3.135.928,8.889,8.889,0,0,0,3.239-.656A11.122,11.122,0,0,0,13.169,16.1a15.96,15.96,0,0,1,2.069,2.062,2.59,2.59,0,0,0,1.539.972c.5.059,1-.136,1.512-.128.068.52-.312,1.058-.123,1.547a1.432,1.432,0,0,0,.55.585l2.15,1.553a.575.575,0,0,0,.422.156c.177-.035.275-.22.411-.34a.85.85,0,0,1,.889-.078,1.375,1.375,0,0,1,.62.478.264.264,0,0,1-.026.334c-.147.2-.286.413-.425.623a.5.5,0,0,0-.111.28.482.482,0,0,0,.162.29,7.674,7.674,0,0,0,1.352,1.139.778.778,0,0,0,.525.178c.385-.06.48-.583.785-.825l.634.374c-.054.308-.4.51-.433.821a.869.869,0,0,0,.345.66,9.613,9.613,0,0,0,.878.762.759.759,0,0,0,.459.2c.346-.01.552-.453.9-.485.181.383-.042.878.175,1.241a1.164,1.164,0,0,0,.439.368l1.894,1.114c.766.45.872-.82,1-1.337a15.5,15.5,0,0,0,.177-4.334ZM31.1,26.494c-.023.494-.069.986-.124,1.477-.023.208.016,1.2-.326,1.02l-1.327-.7a.562.562,0,0,1-.172-.121.226.226,0,0,1-.029-.043.464.464,0,0,1-.035-.219,5.486,5.486,0,0,0-.066-.825.964.964,0,0,0-.16-.454.719.719,0,0,0-.816-.163,2.1,2.1,0,0,0-.7.536l-.906-.654a5.721,5.721,0,0,0,.549-.955.541.541,0,0,0,.068-.284c-.021-.168-.181-.279-.327-.366q-.409-.244-.825-.474a1.079,1.079,0,0,0-.418-.159c-.413-.035-.71.375-.915.736l-.953-.806a8.487,8.487,0,0,0,.564-.9.529.529,0,0,0,.088-.282A.534.534,0,0,0,24,22.507a8.042,8.042,0,0,0-1.072-.656,1.726,1.726,0,0,0-.868-.245.637.637,0,0,0-.5.272c-.136.175-.332.125-.491.007l-.662-.491-1.325-.982a.436.436,0,0,1-.176-.2.456.456,0,0,1,.021-.252,4.511,4.511,0,0,0,.153-1.131.651.651,0,0,0-.123-.459.544.544,0,0,0-.3-.144,3.73,3.73,0,0,0-1.252.135c-.831.134-1.177-.343-1.741-.85-.379-.341-.755-.685-1.137-1.022s-.733-.886-1.279-.973a1.006,1.006,0,0,0-.8.235,10.376,10.376,0,0,1-1.032.649,7.565,7.565,0,0,1-5.845.943,7.175,7.175,0,0,1-3.9-3.333A8.022,8.022,0,0,1,.7,9.006,8.864,8.864,0,0,1,1.3,6.8,10.634,10.634,0,0,1,2.95,4.521a9.649,9.649,0,0,1,4.589-3c3.728-.945,8.314,1.17,9.043,5.17a7.194,7.194,0,0,1,.029,2.271c-.1.728-.4,1.4-.526,2.113-.2,1.163,1.144,1.808,1.874,2.41q.913.753,1.835,1.493,1.912,1.535,3.854,3.034,1.917,1.481,3.86,2.928.974.727,1.954,1.445.478.35.957.7c.3.219.6.378.659.775a14.4,14.4,0,0,1,.017,2.636Zm0,0"/>
    <path id="Path_55965" data-name="Path 55965" d="M67.528,60.943a2.64,2.64,0,0,0-2.448.845c-1.544,1.672-1.159,4.815,1.036,5.722A3.171,3.171,0,0,0,69.893,66.4a3.532,3.532,0,0,0-.144-3.948A3.819,3.819,0,0,0,67.528,60.943Zm1.6,5.5a2.578,2.578,0,0,1-4.051-.514,3.09,3.09,0,0,1-.321-.8,3.89,3.89,0,0,1,.464-2.552,2.227,2.227,0,0,1,1.762-1.09,2.84,2.84,0,0,1,1.99.953A2.9,2.9,0,0,1,69.127,66.444Zm0,0" transform="translate(-60.137 -56.621)"/>
    <path id="Path_55966" data-name="Path 55966" d="M38.041,29.105a6.364,6.364,0,0,0-2.971.148,7.569,7.569,0,0,0-4.453,3.708,8.742,8.742,0,0,0,.071,7,4.708,4.708,0,0,0,3.2,2.852,7.076,7.076,0,0,0,4.306-.272,8.084,8.084,0,0,0,5.286-6.962,6.348,6.348,0,0,0-1.336-4.3,6.2,6.2,0,0,0-4.1-2.173Zm4.871,5.476a7.359,7.359,0,0,1-3.964,7.03c-2.232,1.2-5.754,1.438-7.317-.965a7.54,7.54,0,0,1-.951-2.49,8.693,8.693,0,0,1-.014-3.742,5.668,5.668,0,0,1,1.978-3.143,6.624,6.624,0,0,1,4.118-1.7c2.991.01,5.762,1.758,6.139,4.905,0,.035.008.069.011.1Zm0,0" transform="translate(-28.048 -26.72)"/>
  </g>
</svg>
