<svg xmlns="http://www.w3.org/2000/svg" width="14.059" height="24" viewBox="0 0 14.059 24">
  <g id="Group_375" data-name="Group 375" transform="translate(-106.033 0)">
    <path id="Path_8629" data-name="Path 8629" d="M111.421,16.221a10.191,10.191,0,0,1,.747-1.7c.171-.3.414-.56.581-.866.123-.225.234-.544.574-.375.5.252,1.864,1.425,2.239.559.554-1.28-.551-2.787-1.46-3.575a3.088,3.088,0,0,0-4.646,1.247,3.8,3.8,0,0,0,.084,3.642,2.969,2.969,0,0,0,1.121.942C111.1,16.319,111.3,16.317,111.421,16.221Z" transform="translate(-2.857 -9.194)" fill="#f3703a"/>
    <path id="Path_8630" data-name="Path 8630" d="M152.521,74.623a13.213,13.213,0,0,0,2,.2,3.625,3.625,0,0,1,1.06.342c.785.392.977,1.414,1.317,2.175.215.482.439.95.621,1.446a11.267,11.267,0,0,1,.5,2.4,8.1,8.1,0,0,1-.985,5.265c-.839,1.311-2.474,1.879-3.3,3.191a1.416,1.416,0,0,0,.359,2.085c.822.5,1.627,1.024,2.449,1.51a.517.517,0,0,1,.008.95,5.879,5.879,0,0,1-2.188.66,15.834,15.834,0,0,1-2.669.044,9.96,9.96,0,0,1-1.387-.119,8.566,8.566,0,0,1-1.424-.286c-.393-.137-1.349-.233-1.362-.761s.6-.856,1.021-1.06a11.2,11.2,0,0,0,1.69-.817,1.616,1.616,0,0,0,.555-1.87,2.131,2.131,0,0,0-.609-.863,9.928,9.928,0,0,0-1.293-.867A7.082,7.082,0,0,1,147.606,87a5.9,5.9,0,0,1-1.181-3.217,11.822,11.822,0,0,1,.124-4.192,12.736,12.736,0,0,1,1.141-3.034,5.2,5.2,0,0,1,.713-1.134c.254-.257.416-.2.693-.026.38.233,1.123.84,1.624.723.529-.123.193-1.094.651-1.345A2.624,2.624,0,0,1,152.521,74.623Z" transform="translate(-38.378 -71.121)" fill="#b3e2ee"/>
    <path id="Path_8631" data-name="Path 8631" d="M177.62,157.881c-.72,0-1.4-.044-2.1-.025-.389.01-.773.082-1.154.1a5.755,5.755,0,0,0-.971.075,1.83,1.83,0,0,0-.994.419,2.7,2.7,0,0,0-.464,1.184,11.346,11.346,0,0,0-.07,2.867,5.537,5.537,0,0,0,3.7,4.959,3.222,3.222,0,0,0,2.744-.172,6.391,6.391,0,0,0,2.341-3.6,9.315,9.315,0,0,0,.247-2.508,7.159,7.159,0,0,0-.2-1.927c-.285-.977-1.445-1.315-2.346-1.394A3.54,3.54,0,0,0,177.62,157.881Z" transform="translate(-62.691 -150.448)" fill="#ffc94e"/>
    <path id="Path_8632" data-name="Path 8632" d="M230.093,4.441a7.869,7.869,0,0,1-.824.368c-.13.049-.317.021-.432.086s-.14.213-.246.3c-.167-.039-.129.139-.2.231-.043.058-.006.1-.082.148-.049.031-.114-.084-.173-.047-.149.094-.127.309-.145.463a5.715,5.715,0,0,1-.189.932c-.221.753-.438,1.494-.726,2.221a25.673,25.673,0,0,0-.771,2.478c-.255.9-.625,1.77-.887,2.676-.229.793-.86,1.846-.685,2.688a.565.565,0,0,0,.677.438c.458-.106.517-.772.635-1.153.391-1.264.665-2.577,1.076-3.837.5-1.533,1.061-3.057,1.548-4.6A7.9,7.9,0,0,0,229,6.724c.019-.126-.029-.244.035-.345.052-.083.18-.128.248-.211a1.081,1.081,0,0,1,.626-.484c.513-.163,1.019-.36,1.524-.545.433-.159.91-.246,1.331-.432.211-.093.259-.158.19-.417-.036-.139-.166-.506-.316-.558-.1-.035-.416.12-.52.152-.265.082-.525.185-.793.255C230.8,4.275,230.3,4.377,230.093,4.441Z" transform="translate(-113.11 -3.552)" fill="#f05161"/>
    <g id="Group_373" data-name="Group 373" transform="translate(106.874 1.126)">
      <path id="Path_8633" data-name="Path 8633" d="M190.658,32.149a3.181,3.181,0,0,0,.068-.59c.008-.174.023-.352.039-.526a.7.7,0,0,1,.134-.406.4.4,0,0,1,.344-.093,1.36,1.36,0,0,1,.451.169,1.1,1.1,0,0,1,.445.353.968.968,0,0,1,.12.512.43.43,0,0,1-.209.393,3.027,3.027,0,0,1-.524.225,3.672,3.672,0,0,1-.682.215C190.628,32.438,190.637,32.241,190.658,32.149Z" transform="translate(-187.523 -30.223)" fill="#ffc94e"/>
      <path id="Path_8634" data-name="Path 8634" d="M197.32,69.105a.945.945,0,0,1,.408-.28c.122-.058.247-.109.366-.172.223-.119.623-.353.878-.2.215.132.185.459.206.675a1.557,1.557,0,0,1-.008.492c-.045.189-.1.4-.337.318-.418-.152-.8-.407-1.211-.563-.08-.03-.252-.069-.306-.143C197.283,69.188,197.3,69.1,197.32,69.105Z" transform="translate(-193.861 -66.323)" fill="#ffc94e"/>
      <path id="Path_8635" data-name="Path 8635" d="M143.259,87.053c-.328.285-.652.574-.983.856-.259.221-.618.509-.62.888a.516.516,0,0,0,.237.379,2.71,2.71,0,0,0,.446.272c.137.065.323.116.434-.024a.589.589,0,0,0,.081-.189c.042-.13.094-.255.148-.381.075-.178.151-.357.219-.538a2.989,2.989,0,0,0,.122-.362,2.916,2.916,0,0,0,.043-.413,1.846,1.846,0,0,0,.008-.415C143.38,87.021,143.359,86.993,143.259,87.053Z" transform="translate(-140.828 -84.069)" fill="#ffc94e"/>
      <path id="Path_8636" data-name="Path 8636" d="M126.142,67.7a2.223,2.223,0,0,1-.28.211c-.146.106-.3.208-.435.323-.216.179-.424.363-.623.561a.868.868,0,0,1-.494.307c-.121,0-.213-.226-.24-.33a4.6,4.6,0,0,1-.084-.739,1.417,1.417,0,0,1,.1-.75c.107-.2.333-.158.521-.126a4.981,4.981,0,0,1,.655.139,6,6,0,0,0,.607.144.562.562,0,0,1,.193.048A.211.211,0,0,1,126.142,67.7Z" transform="translate(-123.977 -65.113)" fill="#ffc94e"/>
      <path id="Path_8637" data-name="Path 8637" d="M142.9,25.82c-.011-.122.025-.249.018-.374s-.027-.264-.044-.4c-.027-.216-.049-.436-.089-.649a.541.541,0,0,0-.176-.323.525.525,0,0,0-.494.019c-.393.179-.977.354-1.133.815-.186.551.6.721.945.876a4.414,4.414,0,0,0,.584.292.275.275,0,0,0,.241-.023A.338.338,0,0,0,142.9,25.82Z" transform="translate(-140.155 -24.021)" fill="#ffc94e"/>
    </g>
    <g id="Group_374" data-name="Group 374" transform="translate(113.452 5.069)">
      <path id="Path_8638" data-name="Path 8638" d="M300.587,225.026c-.808-.355-1.24.8-1.088,1.425a2.293,2.293,0,0,1,.093.711,2.252,2.252,0,0,1-.233.827,7.245,7.245,0,0,0-.523,1.174.587.587,0,0,0,.336.73.549.549,0,0,0,.432-.128,1.062,1.062,0,0,0,.392-.379,6.238,6.238,0,0,0,.392-.734,4.81,4.81,0,0,0,.229-.76c.064-.234.135-.462.181-.7.023-.12.063-.238.091-.357a1.357,1.357,0,0,0,.091-.292,1.732,1.732,0,0,0,.043-.584C300.975,225.609,300.958,225.189,300.587,225.026Z" transform="translate(-297.196 -219.484)" fill="#fff"/>
      <path id="Path_8639" data-name="Path 8639" d="M266.687,405.319c-.167-.183-.324-.368-.5-.545a2.665,2.665,0,0,1-.825-1.236c-.051-.249.022-.51-.041-.76a.446.446,0,0,0-.214-.277.44.44,0,0,0-.455,0,1.019,1.019,0,0,0-.353.845,1.3,1.3,0,0,0,.344.967,5.386,5.386,0,0,1,.457.36,1.169,1.169,0,0,1,.281.663c.093.556.609,1.3,1.271,1.041a.509.509,0,0,0,.273-.622A.919.919,0,0,0,266.687,405.319Z" transform="translate(-264.302 -388.644)" fill="#fff"/>
      <path id="Path_8640" data-name="Path 8640" d="M314.869,109.794a2.285,2.285,0,0,0-.236-.8,2.072,2.072,0,0,0-.567-.7.738.738,0,0,0-.356-.156.3.3,0,0,0-.2.036.877.877,0,0,0-.319.074,1.2,1.2,0,0,0-.6.535.363.363,0,0,0,.245.5c.144.051.309.064.457.109a.521.521,0,0,1,.243.129.8.8,0,0,1,.1.288,1.26,1.26,0,0,0,.371.692.47.47,0,0,0,.582,0A.752.752,0,0,0,314.869,109.794Z" transform="translate(-310.289 -108.136)" fill="#fff"/>
    </g>
    <path id="Path_8641" data-name="Path 8641" d="M119.957.592c-.058-.169-.139-.473-.306-.563a.462.462,0,0,0-.349.019c-.173.044-.342.1-.512.151-.331.1-.656.219-.99.311s-.661.232-1,.338a3.4,3.4,0,0,0-.39.14c-.13.059-.226.173-.355.228s-.232-.015-.355.018a.317.317,0,0,0-.192.176c-.053.092-.016.053-.119.074a.216.216,0,0,0-.158.164c-.018.06-.018.126-.039.187h0a.458.458,0,0,0-.054-.014.229.229,0,0,0-.255.1,3.5,3.5,0,0,0-.236.921c-.036.155-.079.308-.123.46a1.149,1.149,0,0,0-.233-.014.6.6,0,0,0-.26.033c-.2.007-.407.046-.532.049a2.012,2.012,0,0,0-.567.113,4.6,4.6,0,0,0-.377-1.38,2.773,2.773,0,0,0-.982-1.12,3.638,3.638,0,0,0-.633-.378,2.821,2.821,0,0,0-.827-.248c-.155-.014-.309,0-.465-.017a2.606,2.606,0,0,0-.438-.008,3.478,3.478,0,0,0-.808.119A3.1,3.1,0,0,0,107,1.409a3.052,3.052,0,0,0-.492.658,7.1,7.1,0,0,0-.332.848,2.644,2.644,0,0,0-.134.793c0,.343-.025.7.006,1.04a2.635,2.635,0,0,0,.171.91,3.389,3.389,0,0,0,.574.854,1.925,1.925,0,0,0,.729.481c.158.06.323.1.485.146a2.325,2.325,0,0,0,.347.093q-.212.59-.376,1.2a6.889,6.889,0,0,0-.235,1.385c-.012.212-.037.415-.035.63,0,.278,0,.557-.005.835a10.007,10.007,0,0,0,.419,2.814,4.7,4.7,0,0,0,1.445,2.372c.359.3.752.555,1.1.863a9.588,9.588,0,0,0,.929.707,1.672,1.672,0,0,1,.709,1.127,1.027,1.027,0,0,1-.068.664,1.73,1.73,0,0,1-.387.542,8.126,8.126,0,0,1-1.115.684c-.383.235-.792.433-1.159.689-.3.207-.812.6-.655,1.027.073.2.34.344.515.446a2.452,2.452,0,0,0,.645.233,8.953,8.953,0,0,0,1.446.357c.229.016.454.084.684.108a1.148,1.148,0,0,0,.206,0c.07.01.139.02.2.033a1.779,1.779,0,0,0,.264.01c.1,0,.2.028.3.031.261.006.522,0,.783.006.142,0,.283-.007.423-.018l.114.009a2.051,2.051,0,0,0,.642-.024c.077-.018.153-.03.229-.047h.015c.23-.025.455-.092.684-.108a8.955,8.955,0,0,0,1.446-.357,2.451,2.451,0,0,0,.645-.233c.174-.1.442-.246.515-.446.157-.43-.358-.82-.655-1.027-.367-.256-.776-.454-1.159-.689a8.119,8.119,0,0,1-1.115-.684,1.731,1.731,0,0,1-.387-.542,1.027,1.027,0,0,1-.068-.664,1.673,1.673,0,0,1,.709-1.127,9.594,9.594,0,0,0,.929-.707c.351-.308.744-.565,1.1-.863a4.7,4.7,0,0,0,1.445-2.372,10.007,10.007,0,0,0,.419-2.814c0-.278-.007-.557-.005-.835,0-.215-.024-.418-.035-.63a6.889,6.889,0,0,0-.235-1.385,15.625,15.625,0,0,0-.9-2.491c-.187-.407-.426-.788-.633-1.184-.107-.2-.241-.369-.366-.56a1.535,1.535,0,0,0-.247-.259.155.155,0,0,0-.152-.095l-.029.005a.16.16,0,0,0-.018-.017,1.841,1.841,0,0,0-.78-.206,2.328,2.328,0,0,0-.231-.038.727.727,0,0,0-.373-.026.908.908,0,0,0,.09-.365c-.005-.106-.008-.135.074-.2a.355.355,0,0,0,.093-.086A.771.771,0,0,0,116.2,2.8c.006-.013,0-.052.008-.062s.075-.022.1-.034a.278.278,0,0,0,.159-.171.412.412,0,0,0,.016-.082l.02,0a.648.648,0,0,0,.113-.018,7.307,7.307,0,0,0,.889-.3,8.226,8.226,0,0,0,.943-.375,6.1,6.1,0,0,1,.97-.322c.134-.037.264-.088.4-.127a.35.35,0,0,0,.246-.15C120.149.991,120.012.753,119.957.592ZM114.533,4.4c.113-.3.174-.615.278-.919a7.708,7.708,0,0,0,.26-.94c.025-.119.045-.238.062-.358l.021-.011c.036-.019.073-.033.106-.052a.2.2,0,0,0,.014.023c.063.082.144.149.211.228.111.131.191.3.313.419a.13.13,0,0,0,.048.029.427.427,0,0,0-.043.038.362.362,0,0,0-.1.294,2.2,2.2,0,0,1-.245.834,4.042,4.042,0,0,0-.221.7.154.154,0,0,0-.007.041c-.1.009-.193.018-.29.023-.181.009-.369.025-.555.033C114.446,4.654,114.491,4.51,114.533,4.4Zm-4.746,3.987a.887.887,0,0,0,.514.5,5.9,5.9,0,0,0,2.018.5q.171.015.342.026c-.145.451-.281.9-.445,1.346-.22.595-.394,1.2-.557,1.818-.106.4-.283,1.182.279,1.348.185.055.478.1.622-.06a2.149,2.149,0,0,0,.342-.7,6.014,6.014,0,0,0,.249-.895c.071-.341.191-.67.287-1,.179-.616.335-1.239.52-1.853.157-.01.314-.025.472-.046.337-.044.677-.065,1.013-.11.358-.047.7-.113,1.055-.185a2.763,2.763,0,0,0,1.009-.377.524.524,0,0,0,.168-.172c.014.031.027.063.04.1a6.978,6.978,0,0,1,.38,1.352,7.575,7.575,0,0,1,.027,1.407,3.131,3.131,0,0,1-.079.639,4.064,4.064,0,0,1-.146.66c-.169.386-.192.823-.345,1.215a5.765,5.765,0,0,1-.592,1.119,11.111,11.111,0,0,1-.737,1.05,3.5,3.5,0,0,1-.891.768,2.037,2.037,0,0,1-.566.184,3.57,3.57,0,0,1-.669.119,3.667,3.667,0,0,1-.679-.089,2.978,2.978,0,0,1-.614-.16,8.4,8.4,0,0,1-1.195-.6,2.248,2.248,0,0,1-.51-.385c-.064-.063-.137-.111-.2-.17a3.327,3.327,0,0,1-.215-.274,5.256,5.256,0,0,1-.746-1.054,6.889,6.889,0,0,1-.439-1.129,4.7,4.7,0,0,1-.226-1.4c0-.458-.029-.926,0-1.382a6.182,6.182,0,0,1,.222-1.482,3.741,3.741,0,0,1,.256-.732q.014-.023.029-.046A.435.435,0,0,0,109.787,8.386Zm2.954.779-.114-.01c-.374-.036-.742-.063-1.114-.132a5.31,5.31,0,0,1-1.073-.29,1.19,1.19,0,0,1-.405-.254c-.167-.2-.043-.383.064-.567a1.055,1.055,0,0,1,.3-.139,8.437,8.437,0,0,1,1.455-.239c.254-.024.514-.021.77-.04a4.087,4.087,0,0,1,.7-.027c-.141.442-.292.882-.447,1.316C112.826,8.909,112.783,9.037,112.741,9.165Zm.979.26c-.238.808-.449,1.625-.683,2.433a6.762,6.762,0,0,1-.567,1.77c-.175.278-.648.093-.712-.2a2.272,2.272,0,0,1,.141-1,17.092,17.092,0,0,1,.51-1.664c.163-.442.288-.9.428-1.349C113.132,9.433,113.425,9.436,113.72,9.425Zm3.663-.944a1.683,1.683,0,0,1-.463.219,5.488,5.488,0,0,1-.993.245c-.36.065-.727.067-1.088.116-.269.037-.534.077-.8.1.1-.327.205-.655.32-.977.073-.205.13-.414.192-.622a7.13,7.13,0,0,1,2.011.175l.126.035a.094.094,0,0,0,.074.048,1.8,1.8,0,0,1,.527.266.907.907,0,0,1,.132.087C117.468,8.277,117.518,8.369,117.383,8.481Zm-3.3-.213c-.1.3-.2.6-.291.9h-.006c-.188,0-.369.046-.558.034-.105-.006-.212-.014-.318-.023.021-.065.043-.129.065-.193q.355-1.012.67-2.038c.105-.343.214-.691.31-1.036.047-.169.1-.334.153-.5.02-.067.045-.133.07-.2a9.444,9.444,0,0,0,.955-.048c-.058.152-.1.312-.151.46-.108.329-.2.672-.338.99C114.419,7.155,114.279,7.716,114.087,8.268ZM112.85,4.583a2.8,2.8,0,0,0,.1-.742c0-.01,0-.019,0-.029a2.76,2.76,0,0,0,.489-.05,5.48,5.48,0,0,1,.853-.005.251.251,0,0,0,.11,0c-.017.069-.033.139-.047.209-.032.165-.081.328-.126.49-.024.085-.061.166-.085.251a.386.386,0,0,0-.011.083c-.052,0-.1,0-.156,0-.159-.009-.311-.033-.472-.033a3.637,3.637,0,0,1-.491-.007,2.31,2.31,0,0,0-.232-.012A.527.527,0,0,0,112.85,4.583Zm-4.721,2.122c-.118-.032-.238-.062-.355-.1a1.517,1.517,0,0,1-.666-.407,2.565,2.565,0,0,1-.407-.564,1.415,1.415,0,0,1-.154-.336c-.04-.157-.05-.323-.075-.483a4.9,4.9,0,0,1-.019-.77,3.371,3.371,0,0,1,.058-.789,5.506,5.506,0,0,1,.261-.747,2.267,2.267,0,0,1,.432-.7,2.8,2.8,0,0,1,1.178-.907,3.735,3.735,0,0,1,1.425-.129,1.9,1.9,0,0,1,.405.021c.121.031.242.074.361.111a2.87,2.87,0,0,1,.633.326,2.56,2.56,0,0,1,.917.9,3.576,3.576,0,0,1,.479,1.706c.008.238-.039.467-.045.7,0,.054-.009.106-.012.158-.075-.013-.149-.026-.226-.036-.027,0-.054-.008-.08-.014a2.031,2.031,0,0,0,.023-.9c-.037-.247-.075-.59-.389-.631-.3-.039-.546.175-.8.286a2.148,2.148,0,0,0-.732.409.329.329,0,0,0-.338.125,1.307,1.307,0,0,0-.2.363,4.627,4.627,0,0,0-.272.417c.009-.147,0-.291,0-.438a.484.484,0,0,0-.052-.314.083.083,0,0,0-.109-.029,1.276,1.276,0,0,0-.349.258c-.138.144-.285.264-.433.4a4.088,4.088,0,0,0-.789.794c-.172.272-.293.517-.039.776a1.9,1.9,0,0,0,.428.29,1.242,1.242,0,0,0,.185.123.373.373,0,0,0,.122.017l.026.008a.565.565,0,0,1,.055.023c-.026.064-.052.128-.077.192a.228.228,0,0,0-.123-.043A1.514,1.514,0,0,1,108.129,6.705Zm3.942-2.1c-.058-.018-.115-.037-.174-.054a4.352,4.352,0,0,1-.486-.151,5.614,5.614,0,0,1-.674-.4,1.814,1.814,0,0,0-.287-.15.387.387,0,0,1,.045-.031,3.6,3.6,0,0,1,.338-.165c.113-.05.229-.092.341-.143a2.519,2.519,0,0,1,.432-.2c.143-.035.329-.068.42.082a1.124,1.124,0,0,1,.079.4A1.862,1.862,0,0,1,112.07,4.607Zm-2.691-.254a3.593,3.593,0,0,1-.006.38,3.446,3.446,0,0,1-.109.484c-.133.237-.265.474-.379.721-.082.177-.159.356-.234.535l-.025-.011a.5.5,0,0,0-.127-.024h-.021a.909.909,0,0,1-.12-.067c-.1-.071-.213-.121-.314-.193a.8.8,0,0,1-.241-.226.385.385,0,0,1,.049-.334,1.886,1.886,0,0,1,.276-.385,6.012,6.012,0,0,1,.658-.592,5.141,5.141,0,0,1,.594-.516A1.393,1.393,0,0,1,109.379,4.353Zm8.046-.09a.232.232,0,0,0,.02-.022c.04.067.082.133.121.194.059.094.126.176.177.275s.1.228.155.338a11.5,11.5,0,0,1,.623,1.307c.082.228.188.445.281.67s.152.486.232.728a10.806,10.806,0,0,1,.346,1.392,10.466,10.466,0,0,1,.062,2.68,8.636,8.636,0,0,1-.622,2.821,3.947,3.947,0,0,1-.721,1.141,10.686,10.686,0,0,1-1.042.86c-.306.247-.6.507-.917.74a4,4,0,0,0-.9.759,2.259,2.259,0,0,0-.43,1.22,1.665,1.665,0,0,0,.44,1.136,1.754,1.754,0,0,0,.46.4,4.349,4.349,0,0,0,.524.327c.393.174.757.442,1.132.653a3.818,3.818,0,0,1,.533.328c.075.06.4.3.353.416a1.227,1.227,0,0,1-.272.192,1.384,1.384,0,0,1-.318.134c-.176.056-.367.08-.538.149a6.222,6.222,0,0,1-1.24.281c-.2.036-.406.106-.611.124-.224.02-.463.02-.689.022s-.48-.022-.721-.021a3.551,3.551,0,0,1-.375-.023c-.125-.012-.251,0-.375-.015-.1-.014-.2-.039-.3-.056s-.226-.01-.34-.022c-.207-.022-.416-.005-.627-.012l-.17-.006a5.793,5.793,0,0,1-1.183-.271c-.171-.068-.361-.093-.538-.149a1.384,1.384,0,0,1-.318-.134,1.224,1.224,0,0,1-.272-.192c-.047-.12.279-.357.353-.416a3.822,3.822,0,0,1,.533-.328c.375-.211.739-.48,1.132-.653a4.353,4.353,0,0,0,.524-.327,1.753,1.753,0,0,0,.46-.4,1.665,1.665,0,0,0,.44-1.136,2.258,2.258,0,0,0-.43-1.22,4,4,0,0,0-.9-.759c-.314-.233-.611-.493-.917-.74a10.661,10.661,0,0,1-1.042-.86,3.948,3.948,0,0,1-.721-1.141,8.636,8.636,0,0,1-.622-2.821,10.466,10.466,0,0,1,.062-2.68,10.787,10.787,0,0,1,.346-1.392c.08-.242.135-.492.232-.728s.2-.441.281-.67a11.512,11.512,0,0,1,.623-1.307c.056-.11.1-.229.155-.338.008-.016.017-.031.026-.046.038-.05.072-.1.106-.157.005-.008.013-.021.021-.037l.024-.035c.048-.076.1-.159.149-.244a.108.108,0,0,1,.064-.042,2.331,2.331,0,0,1,.216.155c.071.045.137.1.207.144.135.089.273.175.41.258a2.181,2.181,0,0,0,.542.2,4.486,4.486,0,0,0,.568.163c.151.021.3.043.454.061a9.324,9.324,0,0,0,1.267.078h.1a1.07,1.07,0,0,0-.054.123c-.054.154-.113.307-.154.465-.087.331-.2.661-.3.991q-.077.26-.158.519a.07.07,0,0,0-.022-.007,10.863,10.863,0,0,0-1.394-.008,7.589,7.589,0,0,0-1.428.193,1.4,1.4,0,0,0-1.06.787,6.162,6.162,0,0,0-.359,1.36,8.123,8.123,0,0,0-.1,1.447,9.261,9.261,0,0,0,.049,1.481,8.585,8.585,0,0,0,.395,1.44,3.92,3.92,0,0,0,.268.561,5.447,5.447,0,0,0,.346.58c.149.206.343.381.488.589a3.587,3.587,0,0,0,.439.467,2.59,2.59,0,0,0,.532.372,6.241,6.241,0,0,0,.654.374c.2.092.407.186.617.264a3.791,3.791,0,0,0,.75.178,2.511,2.511,0,0,0,.633.061,5.746,5.746,0,0,0,.745-.139,2.233,2.233,0,0,0,1.1-.576,5.032,5.032,0,0,0,.862-1.005c.238-.412.531-.8.769-1.21a5.992,5.992,0,0,0,.443-1.328,4.377,4.377,0,0,0,.221-.795,3.372,3.372,0,0,1,.076-.351c.029-.138.032-.283.054-.422.042-.272.023-.552.039-.827a4.057,4.057,0,0,0-.042-.878,6.112,6.112,0,0,0-.37-1.375l0,0a.1.1,0,0,0,.013-.011c-.025-.053-.042-.108-.063-.163a.194.194,0,0,1-.013-.063,1.732,1.732,0,0,0-.129-.249,1.48,1.48,0,0,0-.329-.225,4.071,4.071,0,0,0-1.022-.369,6.747,6.747,0,0,0-1.023-.143,5.1,5.1,0,0,0-.882-.007c.022-.063.044-.126.069-.189.135-.341.254-.684.375-1.031a7.985,7.985,0,0,1,.332-.96c.124-.019.249-.041.373-.068a7.25,7.25,0,0,0,.862-.3A2.237,2.237,0,0,0,117.425,4.263Zm-1.07-.237c.175.033.345.072.519.1a1.058,1.058,0,0,1-.188.141,3.581,3.581,0,0,1-.932.346c-.08.019-.151.044-.225.064a1.515,1.515,0,0,1,.089-.276c.058-.149.09-.307.147-.456l.048-.129.018.01A1.283,1.283,0,0,0,116.355,4.026Zm-.382-1.445,0,.009a3.992,3.992,0,0,0-.324-.382c-.071-.076-.152-.142-.227-.214a.636.636,0,0,0,.041-.188.546.546,0,0,1,.011-.128c.015-.017.039,0,.058-.006l.006,0c.027.056.062.106.093.162a1.5,1.5,0,0,0,.137.235c.106.128.182.3.3.417A.248.248,0,0,0,115.973,2.581Zm.311-.4a.155.155,0,0,0-.069.08l-.014-.019c-.059-.078-.111-.172-.178-.243a2.668,2.668,0,0,1-.224-.269.6.6,0,0,0-.15-.148.2.2,0,0,1,.058-.088c.074-.049.211.01.3.007l0,.013c.033.09.075.18.113.268.055.128.124.258.172.391Zm3.387-1.161c-.267.08-.532.173-.8.247a7.13,7.13,0,0,0-.909.373c-.294.126-.61.194-.907.311a2.9,2.9,0,0,1-.374.14,1.2,1.2,0,0,1-.134.022,3.314,3.314,0,0,0-.245-.494,1.24,1.24,0,0,0-.1-.172.99.99,0,0,0,.133-.081,3.087,3.087,0,0,1,.868-.351c.631-.2,1.273-.372,1.907-.568.073-.023.145-.047.218-.067A1.422,1.422,0,0,1,119.5.331c.041.02.1.239.12.285.046.1.091.22.129.316a.2.2,0,0,1,.009.065Z" transform="translate(0 0)"/>
    <path id="Path_8642" data-name="Path 8642" d="M124.916,66.042c.105-.047.2-.11.179-.25-.034-.289-.353-.308-.578-.348-.333-.059-.655-.145-.985-.218-.247-.055-.507-.085-.673.145-.073.1-.049.219-.067.337a3.153,3.153,0,0,0-.023.543c.007.367.025,1.379.64,1.036a4.433,4.433,0,0,0,.672-.586C124.348,66.471,124.656,66.278,124.916,66.042Zm-.883.488c-.079.063-.156.128-.23.195-.052.046-.1.1-.15.144s-.141.1-.206.148-.127.139-.227.149c-.2.02-.192-.317-.211-.438a3.234,3.234,0,0,1-.046-.972c.022-.146-.012-.3.148-.373a.8.8,0,0,1,.516.048c.278.078.558.138.842.191.1.018.542.072.392.238-.05.055-.177.07-.243.113a4.869,4.869,0,0,0-.574.537A.038.038,0,0,0,124.033,66.529Z" transform="translate(-15.95 -62.131)"/>
    <path id="Path_8643" data-name="Path 8643" d="M140.322,24.745a4.041,4.041,0,0,0,.381.177l.1.035a1.739,1.739,0,0,0,.219.143.322.322,0,0,0,.459-.146,1.416,1.416,0,0,0,.045-.843,7.469,7.469,0,0,0-.132-.862c-.164-.588-.759-.265-1.141-.088s-1.032.66-.739,1.149C139.677,24.582,140.07,24.6,140.322,24.745Zm-.4-1.222a2.252,2.252,0,0,1,.761-.394c.152-.05.385-.163.515,0a.869.869,0,0,1,.095.44,4.179,4.179,0,0,0,.06.742,1.269,1.269,0,0,1,0,.431c-.018.1-.008.1-.109.164-.121.075-.153.029-.263-.039a1.555,1.555,0,0,0-.546-.254,1.91,1.91,0,0,0-.185-.089c-.143-.056-.3-.1-.438-.171C139.4,24.155,139.679,23.732,139.917,23.523Z" transform="translate(-31.843 -21.839)"/>
    <path id="Path_8644" data-name="Path 8644" d="M189,30.967c.2.048.449-.107.629-.165a5.673,5.673,0,0,0,.74-.275c.389-.188.275-.724.1-1.035a1.339,1.339,0,0,0-.624-.462.757.757,0,0,0-.647-.038c-.232.116-.231.433-.235.659,0,.119-.01.234-.02.351a.35.35,0,0,0-.023.08c-.022.15-.049.3-.071.45S188.8,30.919,189,30.967Zm.062-.865a5.556,5.556,0,0,1,.092-.822c.114-.387.671-.118.893.03a.883.883,0,0,1,.4.618.4.4,0,0,1-.079.406,1.251,1.251,0,0,1-.3.138c-.229.1-.471.175-.709.255-.133.045-.317.148-.368-.047a.23.23,0,0,1-.006-.057A2.346,2.346,0,0,0,189.064,30.1Z" transform="translate(-78.918 -27.577)"/>
  </g>
</svg>
