<svg xmlns="http://www.w3.org/2000/svg" width="24" height="19.827" viewBox="0 0 24 19.827">
  <g id="Group_28" data-name="Group 28" transform="translate(0 -0.499)">
    <path id="Path_21" data-name="Path 21" d="M26.239,11.3l-.364-.327-.026.489v.008a3.255,3.255,0,0,0-.12-1.121A3.8,3.8,0,0,0,23.76,8.17a9.513,9.513,0,0,0-2.466-.791l-.448-.095.185.419c.065.147.121.295.171.443a4.14,4.14,0,0,0-1.711-2.272A3.359,3.359,0,0,0,17.841,5.5a5.7,5.7,0,0,0-.659.04c-.323.038-.643.083-.952.134s-.617.111-.906.175c-.159.035-.319.073-.475.113a3.56,3.56,0,0,0-1.786,1,2.784,2.784,0,0,0-.433.686L12.8,7.26l-.447.093a9.992,9.992,0,0,0-2.592.817A3.806,3.806,0,0,0,7.8,10.345a3.259,3.259,0,0,0-.12,1.121s0-.006,0-.008l-.026-.489-.364.328a7.074,7.074,0,0,0-2.159,3.689,3.763,3.763,0,0,0,.034,2.087,2.875,2.875,0,0,0,.5.875L5.368,17.6l-.074.51a3.458,3.458,0,0,0,2.739,3.912l-.481-.1.27.454a3.8,3.8,0,0,0,1.387,1.39,3.034,3.034,0,0,0,1.476.389,2.745,2.745,0,0,0,.342-.021l.016,0c.075-.01.148-.023.22-.038l-.281.075.406.289a2.119,2.119,0,0,0,1.222.387,1.923,1.923,0,0,0,.755-.15,1.808,1.808,0,0,0,.96-.931,1.491,1.491,0,0,0-.066-1.319,1.276,1.276,0,0,0-.906-.616l-.258-.038-.009.226a1.924,1.924,0,0,0-.85-1.659c-.068-.043-.141-.081-.211-.118L12,20.236c-.089-.047-.181-.1-.266-.151l-.283-.187-.074.331c0,.019-.009.037-.014.055a2.035,2.035,0,0,0-.225-1.574l-.155-.243-.2.191a2.195,2.195,0,0,0,.653-1.9l.038-.242-.195-.022c.094.009.19.014.285.014H11.6a3.094,3.094,0,0,0,1.937-.718l.225-.187-.216-.166a4.733,4.733,0,0,0,2.541.754c.217.016.547.037.9.037a6.424,6.424,0,0,0,1.527-.163,4.02,4.02,0,0,0,1.419-.641l-.206.154.224.191a3.093,3.093,0,0,0,1.965.739h.033a2.985,2.985,0,0,0,.348-.021l-.014,0-.243.03.038.24a2.2,2.2,0,0,0,.653,1.9l-.2-.191-.155.243a2.069,2.069,0,0,0-.134,1.855,2.183,2.183,0,0,1-.105-.337l-.074-.331-.283.187a3.054,3.054,0,0,1-.267.152l-.024.012c-.07.037-.143.076-.211.118a1.924,1.924,0,0,0-.85,1.659l-.009-.227-.259.038a1.278,1.278,0,0,0-.906.615,1.49,1.49,0,0,0-.066,1.319,1.807,1.807,0,0,0,.96.931,1.92,1.92,0,0,0,.755.15,2.119,2.119,0,0,0,1.221-.387l.4-.29-.284-.076c.048.011.1.02.146.028l0,0,.079.01a2.754,2.754,0,0,0,.356.023,3.033,3.033,0,0,0,1.477-.39,3.8,3.8,0,0,0,1.387-1.39l.27-.453-.488.1a3.459,3.459,0,0,0,2.745-3.914l-.074-.51-.294.343a2.875,2.875,0,0,0,.5-.875,3.764,3.764,0,0,0,.034-2.088A7.073,7.073,0,0,0,26.239,11.3ZM8.786,19.43h0a3.5,3.5,0,0,1-.522-.04A3.5,3.5,0,0,0,8.786,19.43Zm.971-3.515-.05-.037Zm-.108-.082L9.6,15.8Zm-.1-.086-.044-.04ZM8.1,13.292v0Zm-.092-.257,0-.007ZM7.7,11.759V11.75S7.7,11.756,7.7,11.759ZM5.945,18.25l0,0Zm.582.46L6.5,18.69Zm-.149-.1-.036-.027ZM6.232,18.5,6.2,18.473Zm-.142-.117-.021-.018Zm2.3,3.7h0Zm.162.013h0Zm.18,0h0a3.153,3.153,0,0,0,.794-.105,3.149,3.149,0,0,1-.794.105Zm1.3-2.934h0Zm.1-.05.016-.008Zm.115-.061.016-.008Zm2.793,3.317c0,.016-.006.032-.01.048a2.1,2.1,0,0,1-.359.764,2.114,2.114,0,0,0,.359-.764C13.04,22.4,13.044,22.389,13.047,22.373Zm.023-.139,0,.02Zm-.011.075c0,.012,0,.023-.006.035C13.055,22.332,13.057,22.32,13.059,22.308Zm-1.438,1.685c-.047.018-.1.036-.144.051l-.009,0,.012,0C11.527,24.029,11.574,24.012,11.621,23.994Zm-.258-3.709a2.163,2.163,0,0,1-.091.281A2.151,2.151,0,0,0,11.363,20.285Zm-.1.3-.025.059C11.248,20.623,11.256,20.6,11.264,20.583Zm-.034.077c-.014.029-.028.059-.043.088C11.2,20.719,11.217,20.69,11.231,20.66Zm-.065.13-.019.034Zm-.115.186v0L11.032,21l.018-.024Zm.065-.1L11.1,20.9Zm-1.3-4.918.053.035Zm.113.074.055.033Zm.116.069.061.033Zm.176.091.056.027Zm.126.057.054.023Zm.127.051.051.019Zm.129.046.046.015Zm.131.04.034.009Zm.5.1-.014,0,.028,0Zm1.124-8.022-.006.024Zm.195-.631-.006.016Zm-.215.716-.018.083Zm-.026.119-.019.092Zm-.023.112-.016.083Zm-.182,2.986q.033.462.1.922a6.27,6.27,0,0,0,.367,1.408,6.269,6.269,0,0,1-.367-1.407q-.071-.46-.1-.923Zm1.366,3.609.031.025Zm7.781-7.063-.013-.043ZM19.97,15.4h0Zm.181-.145-.036.03Zm.055-.049.043-.04Zm.09-.084c.027-.027.054-.054.08-.081C20.35,15.068,20.323,15.1,20.3,15.122Zm.258-.289q-.029.038-.061.075Zm-.092.112-.053.06Zm.5-.809a7.274,7.274,0,0,0,.451-2.2c.005-.062.011-.125.016-.187-.005.063-.011.125-.016.187a7.267,7.267,0,0,1-.451,2.2Zm3.777,5.295a3.481,3.481,0,0,0,.506-.038,3.481,3.481,0,0,1-.506.038h0Zm1.084-7.671v0Zm-.405,1.54,0-.011Zm.093-.262,0-.011Zm.046-.137h0ZM24.03,15.7l-.051.047Zm-.106.092-.05.041Zm-.107.084-.051.038Zm-1.026.509-.035.01Zm.916-.43-.054.036Zm-.113.074-.057.034Zm-.116.069-.064.035Zm-.174.091-.058.028Zm-.127.058-.055.023Zm-.127.052L23,16.32Zm-.129.046-.047.015Zm.976,2.968-.042-.012Zm-.086-.026-.083-.027Zm-.1-.034-.1-.039Zm-.116-.044c-.037-.015-.073-.03-.109-.047C23.52,19.181,23.556,19.2,23.593,19.211Zm-.131-.057-.1-.046Zm-.146-.073-.064-.035Zm-.161-.093-.012-.007Zm-.872,1.654c-.009-.02-.017-.039-.025-.059C22.267,20.6,22.275,20.623,22.284,20.642Zm.093.182-.019-.034Zm-.042-.077c-.015-.029-.029-.058-.043-.088C22.306,20.689,22.32,20.719,22.335,20.748ZM21.5,23.79h0Zm-1.013-1.37c0-.017-.007-.034-.01-.05,0,.017.007.034.011.05a2.2,2.2,0,0,0,.659,1.1A2.2,2.2,0,0,1,20.486,22.421Zm-.033-.187,0,.02Zm.011.075c0,.012,0,.024.006.035C20.468,22.332,20.466,22.32,20.464,22.308Zm1.58,1.736a2.387,2.387,0,0,1-.525-.242,2.393,2.393,0,0,0,.524.242l.012,0Zm.364-3.168.016.026Zm.066.1h0l.018.024ZM24.79,22.1a3.145,3.145,0,0,1-.833-.115,3.15,3.15,0,0,0,.834.115Zm.158,0h0Zm.171-.012h0ZM27,18.71l.028-.019Zm.149-.1.036-.026Zm.145-.109.031-.025Zm.142-.117.021-.018Zm.141-.127,0,0Zm0,0" transform="translate(-4.762 -4.763)" fill="#f7b36f"/>
    <path id="Path_22" data-name="Path 22" d="M23.865,10.171a7.271,7.271,0,0,0-2.506-4.048.226.226,0,0,0-.053-.031,3.258,3.258,0,0,0-.115-.577A3.986,3.986,0,0,0,19.106,3.2a11.113,11.113,0,0,0-2.9-.889,3.767,3.767,0,0,0-1.367-1.4A4.023,4.023,0,0,0,12.394.54c-.647.075-1.3.184-1.883.313-.164.036-.326.075-.482.115a3.793,3.793,0,0,0-1.9,1.076,2.7,2.7,0,0,0-.2.26.231.231,0,0,0-.1,0,11.243,11.243,0,0,0-2.934.9A3.986,3.986,0,0,0,2.809,5.515a3.227,3.227,0,0,0-.115.576.237.237,0,0,0-.053.031A7.272,7.272,0,0,0,.134,10.17a3.984,3.984,0,0,0,.041,2.216,2.932,2.932,0,0,0,.244.519.233.233,0,0,0-.061.109,3.782,3.782,0,0,0,.7,3.155,3.753,3.753,0,0,0,1.594,1.155.235.235,0,0,0,.022.078,4.156,4.156,0,0,0,1.657,1.813,3.258,3.258,0,0,0,1.584.422c.089,0,.177,0,.264-.012a2.3,2.3,0,0,0,1.66.7,2.184,2.184,0,0,0,.854-.171A2.042,2.042,0,0,0,9.778,19.1a1.73,1.73,0,0,0-.079-1.53,1.523,1.523,0,0,0-1.175-.739A2.12,2.12,0,0,0,7.6,15.406c-.084-.052-.169-.1-.251-.14a1.678,1.678,0,0,1-.368-.234.232.232,0,0,0-.077-.048,2.139,2.139,0,0,0-.411-1.28,2.39,2.39,0,0,0,.419-1.73,3.343,3.343,0,0,0,2.126-.864,5.634,5.634,0,0,0,2.274.549c.278.02.591.038.922.038a6.747,6.747,0,0,0,1.582-.17,4.427,4.427,0,0,0,1.125-.438,3.342,3.342,0,0,0,2.148.884,2.389,2.389,0,0,0,.419,1.73,2.139,2.139,0,0,0-.411,1.28.235.235,0,0,0-.077.048,1.68,1.68,0,0,1-.368.234c-.082.043-.168.088-.251.14a2.12,2.12,0,0,0-.925,1.426,1.521,1.521,0,0,0-1.175.739,1.73,1.73,0,0,0-.079,1.53A2.042,2.042,0,0,0,15.3,20.155a2.185,2.185,0,0,0,.854.171,2.3,2.3,0,0,0,1.66-.7c.088.008.176.012.264.012a3.258,3.258,0,0,0,1.584-.422A4.155,4.155,0,0,0,21.324,17.4a.237.237,0,0,0,.022-.078,3.683,3.683,0,0,0,2.3-4.31.233.233,0,0,0-.061-.109,2.928,2.928,0,0,0,.244-.519,3.983,3.983,0,0,0,.041-2.216Zm-.457.1a3.536,3.536,0,0,1-.026,1.959,3.255,3.255,0,0,1-1.581,1.7,3.826,3.826,0,0,1-1.9.5,2.62,2.62,0,0,1-1.755-.7,1.96,1.96,0,0,1-.592-1.707.231.231,0,0,0,0-.074,3.344,3.344,0,0,0,1.921-.888,5.74,5.74,0,0,0,1.261-2.093,7.3,7.3,0,0,0,.585-2.268,6.8,6.8,0,0,1,2.086,3.566Zm-22.816,0A6.8,6.8,0,0,1,2.678,6.707a7.3,7.3,0,0,0,.585,2.268,5.739,5.739,0,0,0,1.261,2.093,3.343,3.343,0,0,0,1.921.888.236.236,0,0,0,0,.074,1.96,1.96,0,0,1-.592,1.707,2.62,2.62,0,0,1-1.755.7,3.826,3.826,0,0,1-1.9-.5,3.255,3.255,0,0,1-1.581-1.7,3.536,3.536,0,0,1-.026-1.959Zm.835,5.606a3.314,3.314,0,0,1-.663-2.493,4.28,4.28,0,0,0,1.211.96,4.331,4.331,0,0,0,2.049.556h.086a3.093,3.093,0,0,0,2.069-.827A1.875,1.875,0,0,1,6.1,16.081,2.6,2.6,0,0,1,3.97,17.1H3.962a3.3,3.3,0,0,1-2.535-1.225Zm7.868,1.93a1.254,1.254,0,0,1,.052,1.108,1.57,1.57,0,0,1-.836.807,1.847,1.847,0,0,1-1.749-.212l.026-.008A2.564,2.564,0,0,0,8.5,17.711a2.112,2.112,0,0,0,.054-.405,1.049,1.049,0,0,1,.738.5ZM7.13,15.681c.078.041.152.08.22.122a1.7,1.7,0,0,1,.7,1.8,2.088,2.088,0,0,1-1.4,1.454,2.265,2.265,0,0,1-.4.087h0a2.772,2.772,0,0,1-1.689-.339,3.589,3.589,0,0,1-1.3-1.305,3.567,3.567,0,0,0,.7.071h.01A3.071,3.071,0,0,0,6.48,16.349a2.363,2.363,0,0,0,.363-.831,3.247,3.247,0,0,0,.286.163Zm-.292-4.173H6.8a2.869,2.869,0,0,1-1.958-.78A5.2,5.2,0,0,1,3.7,8.8a4.949,4.949,0,0,1-.441-3.152A3.572,3.572,0,0,1,5.109,3.615a9.645,9.645,0,0,1,2.532-.8,5.616,5.616,0,0,0-.363,1.252A11.617,11.617,0,0,0,7.217,7.96a4.355,4.355,0,0,0,1.326,2.816l.085.068a2.871,2.871,0,0,1-1.79.663Zm6.867-.436a7.769,7.769,0,0,1-2.359.12,4.366,4.366,0,0,1-2.5-.775A3.924,3.924,0,0,1,7.68,7.889a11.15,11.15,0,0,1,.059-3.732,3.768,3.768,0,0,1,.739-1.8,3.333,3.333,0,0,1,1.668-.931c.15-.039.307-.076.467-.111.569-.126,1.2-.231,1.836-.3A5.471,5.471,0,0,1,13.08.967a3.124,3.124,0,0,1,1.535.348,4.049,4.049,0,0,1,1.7,2.47,10.225,10.225,0,0,1,.1,3.37,5.27,5.27,0,0,1-.794,2.752A3.391,3.391,0,0,1,13.7,11.071Zm2.289-.879A5.647,5.647,0,0,0,16.882,7.2a10.608,10.608,0,0,0-.113-3.526,5.146,5.146,0,0,0-.285-.826,9.281,9.281,0,0,1,2.407.77,3.574,3.574,0,0,1,1.851,2.033A4.95,4.95,0,0,1,20.3,8.8a5.2,5.2,0,0,1-1.148,1.926,2.869,2.869,0,0,1-1.958.78h-.033a2.87,2.87,0,0,1-1.813-.683,3.254,3.254,0,0,0,.645-.632Zm-.506,9.532a1.57,1.57,0,0,1-.836-.807,1.254,1.254,0,0,1,.052-1.108,1.05,1.05,0,0,1,.738-.5,2.109,2.109,0,0,0,.054.4A2.565,2.565,0,0,0,17.21,19.5l.026.008a1.846,1.846,0,0,1-1.749.212Zm3.95-.918a2.771,2.771,0,0,1-1.689.339h0a2.276,2.276,0,0,1-.4-.087,2.088,2.088,0,0,1-1.4-1.454,1.7,1.7,0,0,1,.7-1.8c.068-.043.142-.081.22-.122a3.279,3.279,0,0,0,.287-.163,2.36,2.36,0,0,0,.363.832,3.072,3.072,0,0,0,2.508,1.222h.01a3.552,3.552,0,0,0,.7-.071A3.588,3.588,0,0,1,19.438,18.806Zm3.134-2.928A3.3,3.3,0,0,1,20.037,17.1h-.009A2.6,2.6,0,0,1,17.9,16.081a1.875,1.875,0,0,1-.083-2.008,3.093,3.093,0,0,0,2.069.827h.086a4.33,4.33,0,0,0,2.048-.556,4.281,4.281,0,0,0,1.211-.96,3.313,3.313,0,0,1-.663,2.493Zm0,0" transform="translate(0 0)"/>
  </g>
</svg>
