<svg xmlns="http://www.w3.org/2000/svg" width="16" height="18.618" viewBox="0 0 16 18.618">
  <g id="Group_64" data-name="Group 64" transform="translate(-36)">
    <g id="Group_63" data-name="Group 63" transform="translate(36)">
      <path id="Path_65" data-name="Path 65" d="M51.273,80H36.727a.727.727,0,1,0,0,1.455h.727V92.073a3.641,3.641,0,0,0,3.636,3.636h5.818a3.64,3.64,0,0,0,3.636-3.636V81.455h.727a.727.727,0,1,0,0-1.455ZM49.091,92.073a2.184,2.184,0,0,1-2.182,2.182H41.091a2.184,2.184,0,0,1-2.182-2.182V81.455H49.091Z" transform="translate(-36 -77.091)" fill="#ef0000"/>
      <path id="Path_66" data-name="Path 66" d="M199.636,1.455h-2.909a.727.727,0,0,1,0-1.455h2.909a.727.727,0,0,1,0,1.455Z" transform="translate(-190.182)" fill="#ef0000"/>
      <path id="Path_67" data-name="Path 67" d="M236.727,206.982a.727.727,0,0,1-.727-.727v-5.527a.727.727,0,1,1,1.455,0v5.527A.727.727,0,0,1,236.727,206.982Z" transform="translate(-228.727 -192.727)" fill="#ef0000"/>
      <path id="Path_68" data-name="Path 68" d="M316.727,206.982a.727.727,0,0,1-.727-.727v-5.527a.727.727,0,1,1,1.455,0v5.527A.727.727,0,0,1,316.727,206.982Z" transform="translate(-305.818 -192.727)" fill="#ef0000"/>
      <path id="Path_69" data-name="Path 69" d="M156.727,206.982a.727.727,0,0,1-.727-.727v-5.527a.727.727,0,1,1,1.455,0v5.527A.727.727,0,0,1,156.727,206.982Z" transform="translate(-151.636 -192.727)" fill="#ef0000"/>
    </g>
  </g>
</svg>
