<svg xmlns="http://www.w3.org/2000/svg" width="16" height="15.16" viewBox="0 0 16 15.16">
  <g id="Group_1859" data-name="Group 1859" transform="translate(0 -10.437)">
    <g id="Group_1858" data-name="Group 1858" transform="translate(0 10.437)">
      <path id="Path_56008" data-name="Path 56008" d="M15.938,19.467a.847.847,0,0,1,.054.43c-.08.571-.175,1.14-.276,1.708a1.637,1.637,0,0,1-.272.739c-.094.125-.056.366-.041.552.026.338.078.675.119,1.012a.677.677,0,0,1,.017.132c-.056.823,0,.789-.705,1.014a7.618,7.618,0,0,1-2.488.387c-1.42-.032-2.84-.092-4.259-.156a9.906,9.906,0,0,1-.989-.142,2.512,2.512,0,0,1-.078.282.241.241,0,0,1-.316.16c-.514-.127-1.031-.242-1.544-.374A10.621,10.621,0,0,1,4.142,24.9a.463.463,0,0,1-.265-.265c-.058-.235-.207-.321-.407-.411-.606-.274-1.2-.576-1.8-.858a.693.693,0,0,1-.412-.492c-.121-.548-.241-1.1-.333-1.65a.665.665,0,0,0-.239-.441.906.906,0,0,1-.312-.463,13.908,13.908,0,0,1-.368-3.166A3.218,3.218,0,0,1,1.78,14.364a5.369,5.369,0,0,1,3.38-.671.424.424,0,0,0,.116-.014c.021-.019.041-.027.043-.038a3.682,3.682,0,0,1,2.861-3A3.668,3.668,0,0,1,10.06,10.5a3.328,3.328,0,0,1,2.38,1.947.118.118,0,0,1,.016.041c.033.553.452.867.766,1.248.2.238.355.506.542.751.162.211.34.41.512.613.279.33.27.412-.078.667l-.151.111c.412.708.831,1.388,1.209,2.09C15.514,18.454,15.724,18.963,15.938,19.467Zm-.795,2.421c.1-.6.219-1.276.341-1.99-.815.187-1.563.363-2.313.529a14,14,0,0,1-1.956.4c-1.121.083-2.249.078-3.374.08-.434,0-.869-.078-1.345-.125.1.467.193.914.294,1.357.045.2.17.3.418.244v-.926l.09-.007c.031.342.063.684.1,1.05l.377-.022c.032-.33.061-.635.09-.94l.1,0,.051.97h.35c.038-.34.074-.657.118-1.053.217.4.013.766.113,1.11H8.94l.15-.805.088.013v.852c.432-.111.161-.491.36-.728v.677h1.233l.129-.717.058,0v.7l.471-.056.165-.526.042.012-.039.535c.68-.11,1.319-.206,1.954-.319C14.059,22.12,14.562,22.007,15.143,21.888ZM14.936,24.5a5,5,0,0,0-.107-2.065,17.851,17.851,0,0,1-7.865.321c.039.666.078,1.314.118,1.994l.434.077c.042-.251.076-.467.115-.683s.006-.445.195-.617c-.039.42-.078.839-.12,1.29h.453a2.3,2.3,0,0,1,.312-1.2c-.038.4-.076.807-.115,1.225h.451c.157-.368.05-.8.358-1.219-.038.488-.068.877-.1,1.25.3.085.416,0,.456-.252.043-.272.128-.536.2-.8l.091.015c-.033.344-.066.688-.1,1.042.242.076.319,0,.363-.186.072-.3.177-.591.268-.886l.1.027-.182,1.057h.364a3.412,3.412,0,0,1,.409-1.143c-.053.375-.106.749-.163,1.153l.321.027c.05-.2.085-.374.137-.542s.117-.323.176-.484l.094.032-.209.97c.234.081.327.024.373-.191.068-.316.177-.624.268-.935l.087.023c-.064.37-.129.741-.193,1.107.21.072.273-.005.313-.164.071-.282.164-.558.248-.837l.089.024-.179.968h.425c.06-.241.119-.478.178-.715l.063.012c-.014.236-.027.471-.045.772Zm.389-5.043a22.239,22.239,0,0,0-1.688-3.39A4.432,4.432,0,0,1,10.8,17.225c-.094.889-.867.967-1.416,1.191A8.212,8.212,0,0,1,8.751,19.5a1.983,1.983,0,0,1-1.715.856.991.991,0,0,0-.341.109C8.115,21.043,13.773,20.328,15.325,19.46ZM13.713,15.6l.348-.209c-.611-.569-.825-1.4-1.509-1.894l-.358.257c.279.3.552.568.792.862S13.459,15.252,13.713,15.6Zm-.789.523c.289-.209.34-.36.168-.634a4.365,4.365,0,0,0-1.942-1.822.763.763,0,0,0-1.133.326,3.179,3.179,0,0,0-.311.682c-.1.306-.171.623-.26.955l.5.132.574-.908.1.045c-.1.27-.2.545-.315.807-.089.2-.049.3.142.354.231-.17.381-.476.818-.346l-.64.649.165.473c.239-.044.43-.071.616-.115A4.094,4.094,0,0,0,12.924,16.122ZM11.9,13.585c.266-.22.264-.22.236-.409a2.762,2.762,0,0,0-2.333-2.3,3.893,3.893,0,0,0-1.275.084,3.372,3.372,0,0,0-2.853,2.747.909.909,0,0,1-.115.225c-.254.021-.489.054-.725.057a6.047,6.047,0,0,0-2.575.6A2.987,2.987,0,0,0,.487,16.928a.821.821,0,0,0,.111.589A3.8,3.8,0,0,0,2.157,19c.251.126.507.247.747.392a.469.469,0,0,0,.572-.022c.373-.266.751-.524,1.147-.8-.044-.129-.068-.2-.091-.268a.587.587,0,0,1,.323-.844,2.68,2.68,0,0,1,.656-.268c.558-.132,1.122-.233,1.708-.351a2.1,2.1,0,0,1,1.969-1.146,2.549,2.549,0,0,1,.482-2,1.122,1.122,0,0,1,1.47-.456C11.4,13.336,11.649,13.468,11.9,13.585Zm-1.557,3.74a1.049,1.049,0,0,0-.913-1.36,3.188,3.188,0,0,0-.336-.043,1.912,1.912,0,0,0-1.357.6.694.694,0,0,0,0,1.089,1.947,1.947,0,0,0,2.484-.013A.5.5,0,0,0,10.346,17.325Zm-2.79,2.533a2.15,2.15,0,0,0,1.25-1.434l-.732-.177c-.229.177-.376.478-.735.408.016-.3.233-.412.445-.557l-.278-.262c-.284.042-.506.257-.816.187.044-.072.053-.1.074-.119.171-.114.345-.224.536-.348l-.126-.4c-.6.14-1.173.227-1.714.411-.848.289-.7.421-.416,1.008.032.066.066.132.1.2a2.3,2.3,0,0,0,2.02,1.155A.843.843,0,0,0,7.556,19.858ZM6.58,25.09a5.579,5.579,0,0,0,.051-1.941c-.128-.683-.262-1.366-.42-2.042a.726.726,0,0,1,.191-.831,6.449,6.449,0,0,1-.967-.559,6.181,6.181,0,0,1-.713-.824l-1.348.918a1.085,1.085,0,0,0,0,.185c.245,1.34.506,2.677.731,4.02a.743.743,0,0,0,.774.7q.062-.739.124-1.482a.975.975,0,0,1,.082.487c-.007.267-.025.534-.026.8,0,.309,0,.309.365.275a7.07,7.07,0,0,1,.239-1.583,7.9,7.9,0,0,1-.014.932c-.01.207-.028.414-.025.621,0,.161.1.191.266.13.047-.4.093-.809.14-1.215l.106,0c-.025.438-.051.877-.077,1.324ZM3.65,23.719l-.244-1.675-2.1-.74a6.2,6.2,0,0,0,.471,1.529c.034.06.128.086.241.157V22.5a.863.863,0,0,1,.127.42c.012.2.126.261.316.276-.025-.335-.046-.635-.068-.936.282.335.111.8.369,1.132l.1-.01v-.818l.087-.012.181.994Zm-.327-2.3c-.091-.453-.2-.9-.263-1.346a.523.523,0,0,0-.322-.434,6.043,6.043,0,0,1-2.29-1.8A8.4,8.4,0,0,0,.776,19.65q.033-.255.065-.51A5.621,5.621,0,0,1,.9,20.164c0,.17.029.313.252.331.082-.333-.036-.681.162-.978.033.312.029.622.034.932.006.34.01.34.455.477V19.914l.113,0c.014.156.035.311.042.468.01.192,0,.387.02.577.008.062.1.113.212.226.022-.423.038-.744.054-1.064.23.35.067.748.177,1.13l.459.148c-.031-.366-.057-.673-.083-.98l.093-.011a1.8,1.8,0,0,1,.132.882C3.024,21.5,3.135,21.483,3.323,21.418Z" transform="translate(0 -10.437)"/>
      <path id="Path_56009" data-name="Path 56009" d="M170.49,245.634c-.122.713-.237,1.386-.341,1.99-.581.119-1.084.232-1.591.322-.636.114-1.274.209-1.954.319l.039-.535-.042-.012-.165.526-.471.056v-.7l-.058,0-.129.717h-1.233v-.677c-.2.237.072.617-.36.728v-.852l-.088-.013-.15.805H163.6c-.1-.345.1-.712-.113-1.11-.045.4-.08.713-.118,1.053h-.35l-.051-.97-.1,0c-.029.3-.058.609-.09.94l-.377.022c-.033-.366-.065-.708-.1-1.05l-.09.007v.926c-.248.053-.372-.045-.418-.244-.1-.444-.193-.89-.294-1.357.476.047.91.126,1.345.125,1.125,0,2.253,0,3.374-.08a14,14,0,0,0,1.956-.4C168.928,246,169.675,245.821,170.49,245.634Z" transform="translate(-155.006 -236.172)" fill="#ff96bd"/>
      <path id="Path_56010" data-name="Path 56010" d="M181.009,308.794a5,5,0,0,1,.107,2.065l-1.921.458c.017-.3.031-.536.045-.772l-.063-.012c-.059.237-.117.473-.178.715h-.425l.179-.968-.089-.024c-.084.279-.177.555-.248.837-.04.159-.1.237-.313.164.064-.366.128-.737.193-1.107l-.087-.023c-.091.311-.2.618-.268.934-.046.215-.139.272-.373.191l.209-.97-.094-.032c-.06.161-.126.32-.176.484s-.087.341-.137.542l-.321-.027c.057-.4.109-.778.163-1.153a3.412,3.412,0,0,0-.409,1.143h-.364l.182-1.057-.1-.027c-.091.295-.2.587-.268.886-.044.185-.121.262-.363.186.034-.354.066-.7.1-1.042l-.091-.015c-.067.268-.152.532-.2.8-.04.249-.154.337-.456.252.029-.373.059-.762.1-1.25-.307.418-.2.85-.358,1.219h-.451c.039-.418.077-.822.115-1.225a2.3,2.3,0,0,0-.312,1.2h-.453c.042-.451.081-.871.12-1.29-.188.172-.156.405-.195.617s-.073.433-.115.683l-.434-.077c-.04-.68-.078-1.328-.118-1.994A17.851,17.851,0,0,0,181.009,308.794Z" transform="translate(-166.179 -296.792)" fill="#ff96bd"/>
      <path id="Path_56011" data-name="Path 56011" d="M173.375,150.474a22.237,22.237,0,0,1,1.688,3.39c-1.552.868-7.21,1.583-8.63,1a.991.991,0,0,1,.341-.109,1.983,1.983,0,0,0,1.715-.856,8.213,8.213,0,0,0,.637-1.082c.549-.224,1.322-.3,1.416-1.191A4.432,4.432,0,0,0,173.375,150.474Z" transform="translate(-159.738 -144.841)" fill="#ff96bd"/>
      <path id="Path_56012" data-name="Path 56012" d="M305.02,88.388l-.348.209c-.254-.347-.475-.678-.726-.984s-.514-.562-.793-.862l.358-.257C304.195,86.993,304.409,87.82,305.02,88.388Z" transform="translate(-290.958 -83.434)" fill="#c1272d"/>
      <path id="Path_56013" data-name="Path 56013" d="M238.48,89.559c.171.274.121.425-.168.634a4.094,4.094,0,0,1-1.515.6c-.187.044-.377.071-.616.115l-.165-.473.64-.649c-.437-.13-.587.175-.818.346-.192-.05-.232-.158-.142-.354.119-.262.211-.537.315-.807l-.1-.045-.574.908-.5-.132c.089-.333.157-.65.26-.955a3.179,3.179,0,0,1,.311-.682.763.763,0,0,1,1.133-.326A4.366,4.366,0,0,1,238.48,89.559Z" transform="translate(-225.387 -84.508)" fill="#c1272d"/>
      <path id="Path_56014" data-name="Path 56014" d="M23.469,23.224c.028.189.029.189-.236.409-.254-.117-.5-.249-.763-.348a1.122,1.122,0,0,0-1.47.456,2.549,2.549,0,0,0-.482,2,2.1,2.1,0,0,0-1.969,1.146c-.587.118-1.151.219-1.708.351a2.68,2.68,0,0,0-.656.268.587.587,0,0,0-.323.844c.023.07.047.139.091.268-.4.274-.774.533-1.147.8a.469.469,0,0,1-.572.022c-.24-.145-.5-.266-.747-.392a3.8,3.8,0,0,1-1.558-1.48.821.821,0,0,1-.111-.589,2.987,2.987,0,0,1,1.776-2.341,6.047,6.047,0,0,1,2.575-.6c.235,0,.471-.036.725-.057a.909.909,0,0,0,.115-.225,3.372,3.372,0,0,1,2.853-2.747,3.893,3.893,0,0,1,1.275-.084A2.762,2.762,0,0,1,23.469,23.224Z" transform="translate(-11.33 -20.485)" fill="#ff96bd"/>
      <path id="Path_56015" data-name="Path 56015" d="M187.867,146.855a1.049,1.049,0,0,1,.913,1.36.5.5,0,0,1-.118.274,1.947,1.947,0,0,1-2.484.013.694.694,0,0,1,0-1.089,1.912,1.912,0,0,1,1.357-.6A3.186,3.186,0,0,1,187.867,146.855Z" transform="translate(-178.434 -141.326)" fill="#c1272d"/>
      <path id="Path_56016" data-name="Path 56016" d="M123.906,178.713a2.15,2.15,0,0,1-1.25,1.434.843.843,0,0,1-.387.067,2.3,2.3,0,0,1-2.02-1.155c-.037-.064-.071-.13-.1-.2-.283-.587-.432-.719.416-1.008.54-.184,1.113-.271,1.714-.411l.126.4c-.191.124-.365.234-.536.348-.021.014-.03.047-.074.119.31.07.532-.145.816-.187l.278.262c-.212.145-.43.259-.445.557.359.07.506-.231.735-.408Z" transform="translate(-115.099 -170.726)" fill="#c1272d"/>
      <path id="Path_56017" data-name="Path 56017" d="M87.076,224.891a5.579,5.579,0,0,1-.051,1.941l-.519-.084c.026-.447.051-.885.077-1.324l-.106,0c-.047.406-.094.813-.14,1.215-.161.061-.262.031-.266-.13,0-.207.014-.414.025-.621a7.9,7.9,0,0,0,.014-.932,7.07,7.07,0,0,0-.239,1.583c-.361.034-.366.034-.365-.275,0-.267.019-.533.026-.8a.975.975,0,0,0-.082-.487q-.062.742-.124,1.482a.743.743,0,0,1-.774-.7c-.225-1.343-.486-2.68-.731-4.02a1.085,1.085,0,0,1,0-.185l1.348-.918a6.181,6.181,0,0,0,.713.824,6.448,6.448,0,0,0,.967.559.726.726,0,0,0-.191.831C86.814,223.524,86.948,224.208,87.076,224.891Zm-2.922-3.283c1.216.718,1.331.76,1.793.64l-1.765-.739Z" transform="translate(-80.444 -212.178)" fill="#c1272d"/>
      <path id="Path_56018" data-name="Path 56018" d="M94.016,243.093c-.462.121-.577.079-1.793-.64l.029-.1Z" transform="translate(-88.513 -233.024)"/>
      <path id="Path_56019" data-name="Path 56019" d="M34.64,281.314l.244,1.675-.515-.171-.181-.994-.087.012v.818l-.1.01c-.258-.331-.087-.8-.369-1.132.022.3.044.6.068.936-.19-.015-.3-.071-.316-.276a.863.863,0,0,0-.127-.42v.488c-.113-.071-.207-.1-.241-.157a6.2,6.2,0,0,1-.471-1.529Z" transform="translate(-31.234 -269.707)" fill="#ff96bd"/>
      <path id="Path_56020" data-name="Path 56020" d="M13.755,196.686c.067.45.172.894.263,1.346-.187.066-.3.084-.3-.13a1.8,1.8,0,0,0-.132-.882l-.093.011c.026.307.052.614.083.98l-.459-.148c-.11-.382.053-.78-.177-1.13-.016.321-.033.641-.054,1.064-.11-.113-.2-.164-.212-.226-.024-.19-.01-.385-.02-.577-.008-.156-.028-.312-.042-.468l-.113,0v1.011c-.445-.138-.449-.137-.455-.477-.006-.31,0-.62-.034-.932-.2.3-.08.645-.162.978-.223-.018-.253-.161-.252-.331a5.621,5.621,0,0,0-.062-1.024q-.032.255-.065.51a8.4,8.4,0,0,1-.329-1.811,6.043,6.043,0,0,0,2.29,1.8A.523.523,0,0,1,13.755,196.686Z" transform="translate(-10.695 -187.051)" fill="#ff96bd"/>
    </g>
  </g>
</svg>
