<svg id="Group_121" data-name="Group 121" xmlns="http://www.w3.org/2000/svg" width="23.723" height="24" viewBox="0 0 23.723 24">
  <path id="Path_81" data-name="Path 81" d="M30.328,231.4a14.466,14.466,0,0,1,3.154-.026c2.056.1,4.136-.033,6.2-.04,2.51-.009,5.02,0,7.529.1.4.015.856-.065,1.156.172a5.263,5.263,0,0,1,.818,1.145c.256.372.521.739.777,1.109a7,7,0,0,1,.7.992,5.828,5.828,0,0,1,.166,2.735c-.038.534-.03,1.06-.041,1.595,0,.169.047.689-.1.823-.239.218-1.066.122-1.391.149a1.988,1.988,0,0,1-.9.017c-.3-.13-.54-.451-.837-.608a2.856,2.856,0,0,0-1-.3,2.508,2.508,0,0,0-2.4,1.784c-.175.447-.044.939-.588.994-.988.1-2-.043-3,.037a34.456,34.456,0,0,1-4.6-.009c-.078-1.194-.642-2.743-1.986-2.914a2.186,2.186,0,0,0-1.372.331c-.511.3-.465.7-.739,1.144-.261.424-.866.139-1.3.084-.226-.029-.687.075-.877-.05-.228-.15-.127-.569-.137-.852-.024-.72-.094-1.438-.094-2.158,0-.642.032-1.274.063-1.911a16.234,16.234,0,0,0,0-1.92,5.05,5.05,0,0,1-.051-2.342C29.608,231.172,29.871,231.351,30.328,231.4Z" transform="translate(-28.415 -220.456)" fill="#ef477f"/>
  <g id="Group_112" data-name="Group 112" transform="translate(0.23 19.751)">
    <path id="Path_82" data-name="Path 82" d="M12.2,421.4a4.6,4.6,0,0,1,1.39.027c.369.018,1.231.015,1.508.335a.8.8,0,0,1-.007,1.006,2.249,2.249,0,0,1-1.232.4,10.387,10.387,0,0,1-1.132.024c-.168,0-.35.047-.473-.08-.155-.159-.148-.7-.184-.907C12.035,422.02,11.83,421.44,12.2,421.4Z" transform="translate(7.801 -421.353)" fill="#e4edf1"/>
    <path id="Path_83" data-name="Path 83" d="M444.735,426.113a4,4,0,0,1,.907.112c.143.027.809.069.9.192s-.214,1.024-.268,1.212c-.124.429-.611.276-1.006.274-.522,0-1.3,0-1.487-.578C443.539,426.58,444.2,426.189,444.735,426.113Z" transform="translate(-443.732 -425.888)" fill="#e4edf1"/>
  </g>
  <g id="Group_113" data-name="Group 113" transform="translate(2.877 18.713)">
    <path id="Path_84" data-name="Path 84" d="M77.146,399.41c.362-.032.872.674,1.045.944a2.8,2.8,0,0,1,.347,1.477,2.127,2.127,0,0,1-1.337,2.154,3.321,3.321,0,0,1-1.9.049,1.954,1.954,0,0,1-1.076-.87,2.672,2.672,0,0,1-.308-2.041,2.732,2.732,0,0,1,.46-.846,1.932,1.932,0,0,1,.693-.774,2.275,2.275,0,0,1,.854-.267A2.3,2.3,0,0,1,77.146,399.41Z" transform="translate(-61.014 -399.216)" fill="#7c8b96"/>
    <path id="Path_85" data-name="Path 85" d="M352.4,401.948c.536.052.986.8,1.159,1.245a3.415,3.415,0,0,1,.177,1.766,1.882,1.882,0,0,1-2.012,1.439,2.49,2.49,0,0,1-2.173-1.061,2.188,2.188,0,0,1-.07-2.361,2.24,2.24,0,0,1,1-1.1A3.229,3.229,0,0,1,352.4,401.948Z" transform="translate(-349.167 -401.63)" fill="#7c8b96"/>
  </g>
  <g id="Group_114" data-name="Group 114" transform="translate(3.748 19.266)">
    <path id="Path_86" data-name="Path 86" d="M78.408,416.794a1.864,1.864,0,0,0,1.223-3.357c-.151-.072-.037-.279.107-.253,1.037.187,1.431,1.657,1.228,2.551-.26,1.148-1.531,2.218-2.71,1.622C77.973,417.214,78.128,416.808,78.408,416.794Z" transform="translate(-64.564 -413.079)" fill="#637079"/>
    <path id="Path_87" data-name="Path 87" d="M122.275,425.956a.077.077,0,0,1-.015.12,2.219,2.219,0,0,1-.478.136.911.911,0,0,0-.433.3,1.254,1.254,0,0,0-.176.869.272.272,0,0,1-.5.136C119.978,426.571,121.423,425.012,122.275,425.956Z" transform="translate(-107.831 -424.976)" fill="#637079"/>
    <path id="Path_88" data-name="Path 88" d="M349.785,414.719c.584-.4,1.13-.694,1.218-1.466a2.284,2.284,0,0,0-.147-1.066,8.105,8.105,0,0,1-.546-1.071.093.093,0,0,1,.155-.09,2.768,2.768,0,0,1,1.309,2.552,2.212,2.212,0,0,1-1.7,1.831A.38.38,0,0,1,349.785,414.719Z" transform="translate(-348.066 -411.004)" fill="#637079"/>
    <path id="Path_89" data-name="Path 89" d="M394.284,427.976a1.273,1.273,0,0,1,1.365-.461c.1.018.095.147.025.194-.283.19-.746.266-.878.619-.109.291.017.589-.137.877a.241.241,0,0,1-.376.048A1.119,1.119,0,0,1,394.284,427.976Z" transform="translate(-394.083 -426.709)" fill="#637079"/>
  </g>
  <g id="Group_115" data-name="Group 115" transform="translate(4.392 20.402)">
    <path id="Path_90" data-name="Path 90" d="M108.9,435.841a.877.877,0,0,1,.8-.6c.857.021,1.042,1.538.172,1.715a.87.87,0,0,1-.9-.386.946.946,0,0,1-.073-.726Z" transform="translate(-96.071 -435.238)" fill="#e4edf1"/>
    <path id="Path_91" data-name="Path 91" d="M383.254,436.525a.791.791,0,0,1,.121-.291.63.63,0,0,1,.365-.309.694.694,0,0,1,.743.243l0,.005a1.014,1.014,0,0,1,.245.562c0,.016,0,.032,0,.047a.724.724,0,0,1-.8.822A.874.874,0,0,1,383.254,436.525Z" transform="translate(-383.229 -435.863)" fill="#e4edf1"/>
  </g>
  <g id="Group_116" data-name="Group 116" transform="translate(5.052 20.44)">
    <path id="Path_92" data-name="Path 92" d="M110.317,437.943a.458.458,0,0,0,.055-.261.806.806,0,0,0-.023-.132c-.007-.027-.068-.117-.016-.053a.19.19,0,0,1,.038-.295c.425-.188.655.275.683.635a.946.946,0,0,1-.762.987.245.245,0,0,1-.233-.178C109.966,438.348,110.19,438.177,110.317,437.943Z" transform="translate(-97.403 -437.106)" fill="#cad6dd"/>
    <path id="Path_93" data-name="Path 93" d="M381.613,437.3c.047-.186.174-.282.16-.456a1.552,1.552,0,0,0-.065-.3c-.01-.035-.02-.067-.033-.1s-.094-.136-.008-.042a.174.174,0,0,1-.027-.208c.3-.418.67.166.788.433a.807.807,0,0,1,.024.716.58.58,0,0,1-.641.306A.29.29,0,0,1,381.613,437.3Z" transform="translate(-381.605 -436.045)" fill="#cad6dd"/>
  </g>
  <path id="Path_94" data-name="Path 94" d="M69.678,187.822c.537.019.866.994.589,1.387a1.432,1.432,0,0,1-1.14.423c-.825.039-1.647.117-2.473.149-2.218.084-4.4.087-6.617-.044-1.873-.111-3.763-.175-5.64-.174a44.684,44.684,0,0,1-4.575.025c-.287-.029-.572-.075-.7-.376a1.91,1.91,0,0,1,.027-1.109c.132-.321.43-.287.731-.335a19.9,19.9,0,0,1,2.648-.214c.933-.025,1.867-.056,2.8-.055,1.145,0,2.27.106,3.412.156,1.062.047,2.08-.068,3.139-.047q1.748.034,3.5.038c.723,0,1.414.054,2.135.016a9.886,9.886,0,0,1,1.153-.007C69,187.676,69.349,187.811,69.678,187.822Z" transform="translate(-48.805 -178.71)" fill="#e4edf1"/>
  <g id="Group_117" data-name="Group 117" transform="translate(0.203 9.676)">
    <path id="Path_95" data-name="Path 95" d="M13.583,441.251c.4-.089.845-.046,1.256-.1a3.185,3.185,0,0,1,1.284-.062.233.233,0,0,1,0,.446,7.379,7.379,0,0,1-1.461.4c-.42.074-.886.2-1.231-.109A.348.348,0,0,1,13.583,441.251Z" transform="translate(6.746 -430.041)" fill="#cad6dd"/>
    <path id="Path_96" data-name="Path 96" d="M449.369,444.649c.636.192,1.389-.065,2,.241a.225.225,0,0,1,.045.35c-.32.345-.857.265-1.283.273a2.126,2.126,0,0,1-1.077-.123A.408.408,0,0,1,449.369,444.649Z" transform="translate(-448.86 -433.465)" fill="#cad6dd"/>
    <path id="Path_97" data-name="Path 97" d="M49.412,206.662c.451-.365,1-.2,1.534-.2q1.373.014,2.746.038c1.83.03,3.659.1,5.488.154s3.644.037,5.468.01a41.05,41.05,0,0,1,5.314.3.239.239,0,0,1,0,.479c-.23.021-.46.035-.69.046a.265.265,0,0,1-.123.064,17.354,17.354,0,0,1-2.6.21c-.835.055-1.667.119-2.5.127-1.735.017-3.472-.08-5.2-.192s-3.466-.257-5.2-.262c-.832,0-1.667,0-2.5.029a2.989,2.989,0,0,1-1.649-.149A.419.419,0,0,1,49.412,206.662Z" transform="translate(-48.845 -206.425)" fill="#cad6dd"/>
  </g>
  <path id="Path_98" data-name="Path 98" d="M63.845,256.844a8.406,8.406,0,0,1,1.335,1.739,4.142,4.142,0,0,1,.714,1.068,3.157,3.157,0,0,1,.064,1.115c-.012.184,0,.286-.183.365a3.211,3.211,0,0,1-1.012.014c-.993,0-1.974.132-2.969.075-.233-.013-.261-.005-.3-.261a14.758,14.758,0,0,1-.06-1.5,13.062,13.062,0,0,1-.176-2.155c.037-.308.172-.4.463-.473a6.85,6.85,0,0,1,.824-.125,6.685,6.685,0,0,1,.774-.009C63.517,256.7,63.723,256.611,63.845,256.844Z" transform="translate(-44.986 -244.649)" fill="#10537e"/>
  <g id="Group_118" data-name="Group 118" transform="translate(2.63 13.986)">
    <path id="Path_99" data-name="Path 99" d="M130.964,300.929a14.959,14.959,0,0,0-.254-1.485c-.059-.284-.063-.713-.3-.914-.126-.1-.723-.254-.853-.082-.1.131.06.706.081.872a10.492,10.492,0,0,0,.194,1.075c.046.2.047.367.192.484C130.3,301.1,130.637,300.806,130.964,300.929Z" transform="translate(-115.803 -298.37)" fill="#e4edf1"/>
    <path id="Path_100" data-name="Path 100" d="M63.837,310.3a6.348,6.348,0,0,1,.205-1.187c.038-.183.1-.735.232-.852s.656-.044.707.124c.056.186-.156.558-.188.746-.038.221-.033.2.156.3A10.434,10.434,0,0,0,66,309.78c-.1.479-.413.476-.862.492A5.594,5.594,0,0,0,63.837,310.3Z" transform="translate(-47.756 -307.738)" fill="#e4edf1"/>
    <path id="Path_101" data-name="Path 101" d="M185.186,353.225c2.047,0,4.092.1,6.14.108,1.024,0,2.042-.018,3.065-.072a9.732,9.732,0,0,1,2.862.033.222.222,0,0,1,0,.425,19.252,19.252,0,0,1-2.862.24c-1.022.067-2.041.07-3.065.065-2.048-.01-4.092-.1-6.14-.086A.356.356,0,0,1,185.186,353.225Z" transform="translate(-184.842 -350.599)" fill="#e4edf1"/>
  </g>
  <path id="Path_102" data-name="Path 102" d="M188.815,359.273a19.691,19.691,0,0,1,3.143.074c.982.036,1.964.071,2.947.08q1.443.012,2.886-.037c.507-.018,1.012-.029,1.52-.03a4.527,4.527,0,0,0,1.439-.065c.092-.033.156.117.067.159a2.285,2.285,0,0,1-.939.146c-.536.019-1.072.027-1.608.054-1.055.052-2.112.073-3.169.072s-2.1-.034-3.143-.067a30.289,30.289,0,0,1-3.184-.082C188.584,359.551,188.66,359.293,188.815,359.273Z" transform="translate(-185.841 -342.385)" fill="#cad6dd"/>
  <path id="Path_103" data-name="Path 103" d="M205.578,256.6a2.731,2.731,0,0,1,.3,1.644,9.37,9.37,0,0,1-.142,1.8c-.241.914-1.385.792-2.149.837a45.634,45.634,0,0,1-4.919-.05c-1.139-.056-2.3.031-3.434-.1-.544-.063-.7-.339-.767-.871a12.972,12.972,0,0,1-.031-2.241,2.651,2.651,0,0,1,.1-.967c.118-.214.372-.209.6-.222,1.084-.061,2.178,0,3.267,0,1.285,0,2.569.089,3.852.024.561-.029,1.132-.043,1.695-.018.345.015.69.032,1.036.045A3.425,3.425,0,0,1,205.578,256.6Z" transform="translate(-191.144 -244.377)" fill="#10537e"/>
  <g id="Group_119" data-name="Group 119" transform="translate(1.308 17.903)">
    <path id="Path_104" data-name="Path 104" d="M31.161,381.981a1.119,1.119,0,0,0-.6-.026c-.34.065-.394.588-.434.866-.021.145-.158.719.027.82.037.02.115-.016.16-.02a1.644,1.644,0,0,1,.328.04,4.329,4.329,0,0,0,.781.069c0-.239-.138-.484-.151-.735C31.249,382.62,31.153,382.222,31.161,381.981Z" transform="translate(-10.276 -381.926)" fill="#eb3840"/>
    <path id="Path_105" data-name="Path 105" d="M456.048,388.8c.244.007.586-.08.8.063.423.286.263,1.053.233,1.472-.007.093.015.167-.059.21s-.306-.019-.385-.024a2.08,2.08,0,0,1-.5-.029c-.206-.067-.163-.335-.165-.538A2.95,2.95,0,0,1,456.048,388.8Z" transform="translate(-455.952 -388.457)" fill="#eb3840"/>
  </g>
  <path id="Path_106" data-name="Path 106" d="M168.544,11.452a4.7,4.7,0,0,1,2.871-2.206,6.8,6.8,0,0,1,2.446-.038,7.21,7.21,0,0,1,1.317.287,3.694,3.694,0,0,1,1.35,1.121c1.214,1.106,1.223,3.438.432,4.79a4.38,4.38,0,0,1-3.437,1.88,5.289,5.289,0,0,1-3.776-.912A3.831,3.831,0,0,1,168.544,11.452Zm2.865,2a1.393,1.393,0,0,0,.818.992,1.48,1.48,0,0,0,1.442-.118,1.122,1.122,0,0,0,.433-.612.417.417,0,0,0,.149-.412,1.551,1.551,0,0,0-.149-.426,3.724,3.724,0,0,0-.206-.314,1.053,1.053,0,0,0-.814-.511.378.378,0,0,0-.139.028,1.072,1.072,0,0,0-.838.087A1.233,1.233,0,0,0,171.409,13.447Z" transform="translate(-161.523 -8.688)" fill="#d8a235"/>
  <path id="Path_107" data-name="Path 107" d="M170.332,42.472a4.846,4.846,0,0,0,1.457.2,18.621,18.621,0,0,0,2.7-.069,2.868,2.868,0,0,0,1.7-.527,2.935,2.935,0,0,0,.83-1.7c.09-.488-.229-2.844.85-2.581a1.156,1.156,0,0,1,.707.835,9.321,9.321,0,0,1,.394,1.108,5.371,5.371,0,0,1-.352,2.57,2.917,2.917,0,0,1-1.649,1.72,5.38,5.38,0,0,1-1.163.358,9.126,9.126,0,0,1-1.137.28,4.667,4.667,0,0,1-2.462-.486,4.718,4.718,0,0,1-1.046-.731C170.945,43.248,170.573,42.565,170.332,42.472Z" transform="translate(-163.149 -36.004)" fill="#d8a235"/>
  <path id="Path_108" data-name="Path 108" d="M191.2,34.472a1.336,1.336,0,0,1,.3-.572,2.347,2.347,0,0,1,.525-1.772.956.956,0,0,1,.4-.537c.3-.192.756-.035.96-.2.126-.1.167-.248.32-.333a.666.666,0,0,1,.461-.068,12.8,12.8,0,0,0,1.336.336.938.938,0,0,1,1.075.456c.169.271.232.594.4.864.218.343.589.556.805.9.389.619.063,1.186-.357,1.676a2.012,2.012,0,0,0-.444.792,1.079,1.079,0,0,1-.481.681,1.417,1.417,0,0,1-.936.027,4.189,4.189,0,0,0-.638-.106,2.017,2.017,0,0,0-.856.28,1.672,1.672,0,0,1-1.875-.553C191.706,35.872,191.05,35.224,191.2,34.472Zm1.74-.184a1.244,1.244,0,0,0,.255.555c0,.031-.007.063-.014.094.078.047.156.092.236.132a1.517,1.517,0,0,0,.341.211,1.48,1.48,0,0,0,1.442-.118,1.137,1.137,0,0,0,.18-.16.75.75,0,0,0,.227-.215c.013-.019.024-.04.035-.061-.009-.048-.014-.1-.019-.145,0-.01,0-.02.007-.029a.417.417,0,0,0,.152-.413,2.681,2.681,0,0,0-.088-.3c.01-.036.019-.073.031-.108-.022-.08-.042-.16-.058-.239-.187-.169-.356-.375-.542-.536-.092-.079-.187-.153-.281-.227a1.015,1.015,0,0,0-.577-.034,1.426,1.426,0,0,0-.513.252,1.268,1.268,0,0,0-.119.054A1.233,1.233,0,0,0,192.941,34.288Z" transform="translate(-183.054 -29.529)" fill="#ad514a"/>
  <g id="Group_120" data-name="Group 120" transform="translate(8.593 2.449)">
    <path id="Path_109" data-name="Path 109" d="M195.671,94.324c.455.2.809.91,1.35.742a4.845,4.845,0,0,1,.885-.283,5.444,5.444,0,0,1,1,.014c.156.01.717.128.842.027.069-.056.114-.428.176-.55a12.484,12.484,0,0,1,1.008-1.283.233.233,0,0,1,.431.117,1.358,1.358,0,0,1-.313.866,2.5,2.5,0,0,0-.446.978c-.145.708-.79.762-1.408.721a4.78,4.78,0,0,0-1.336-.019,4.921,4.921,0,0,1-1.008.311c-.8.014-1.061-.7-1.519-1.2A.281.281,0,0,1,195.671,94.324Z" transform="translate(-195.25 -90.977)" fill="#9c413e"/>
    <path id="Path_110" data-name="Path 110" d="M258.783,53.625c.224-.88,1.837-2.027,2.45-.929a.244.244,0,0,1-.331.331c-.274-.164-.553.005-.786.241h0a1.326,1.326,0,0,0-.668.787.458.458,0,0,1-.451.093A.416.416,0,0,1,258.783,53.625Z" transform="translate(-258.125 -52.246)" fill="#9c413e"/>
  </g>
  <path id="Path_111" data-name="Path 111" d="M51.57,364.025a2.841,2.841,0,0,0-1.912-.78,2.088,2.088,0,0,0-.978.273,3.238,3.238,0,0,0-.724.634,2.828,2.828,0,0,0-.634.888,1.1,1.1,0,0,0-.122.484.75.75,0,0,1-.1.5c-.185.221-.576.034-.807.007a5.7,5.7,0,0,0-1.189.1c-.327.031-.652-.01-.979.011-.3.019-.6.052-.906.059a24.742,24.742,0,0,1-2.711-.07c-.29-.025-.567-.08-.859-.08-.145,0-.278.027-.393-.066-.189-.153-.164-.417-.189-.63A2.209,2.209,0,0,0,38.02,363.5a3.043,3.043,0,0,0-.8-.132,2.158,2.158,0,0,0-1.314.208,2.592,2.592,0,0,0-.673.359,2.665,2.665,0,0,0-.338.49c-.154.215-.353.145-.607.076-.228-.062-.2-.19-.207-.428-.014-.418.15-1.355-.507-1.4-.141-.009-.43.139-.549.081-.1-.049-.1-.284-.115-.37-.027-.164-.114-.554,0-.7.087-.1.2-.033.314.013a2.173,2.173,0,0,1,.506.294,2.647,2.647,0,0,0,.457.348,1.365,1.365,0,0,0,.656.1,2.984,2.984,0,0,1,.821-.065,9.627,9.627,0,0,1,1.022.342,2.885,2.885,0,0,0,1.127.071,8.6,8.6,0,0,1,1.391-.117c1.125.065,1.666,1.048,2.628,1.456a3.762,3.762,0,0,0,1.663.234,1.415,1.415,0,0,0,.567-.157,1.308,1.308,0,0,0,.31-.24c.1-.1.24-.17.341-.275a2.8,2.8,0,0,0,.243-.358,2.782,2.782,0,0,1,.651-.672c.623-.447,1.449-.039,2.125.057a1.22,1.22,0,0,0,.834-.145,4.349,4.349,0,0,0,.779-.645,1.878,1.878,0,0,1,1.717-.1,2.918,2.918,0,0,0,.95.233,2.7,2.7,0,0,0,.868-.171,2.369,2.369,0,0,0,.436-.2c.083-.052.339-.33.438-.311.188.037.137.709.117.85-.043.293-.135.15-.339.08-.494-.17-.626.413-.662.781q-.028.291-.045.583c-.006.1.028.308-.048.395s-.3.063-.391.065A1.272,1.272,0,0,1,51.57,364.025Z" transform="translate(-31.576 -344.447)" fill="#d8a235"/>
  <path id="Path_112" data-name="Path 112" d="M204.648,255.943c.247.2.293.749.313,1.043s-.015.646-.354.732a.636.636,0,0,1-.635-.279c-.088-.127-.109-.293-.2-.406-.238.246-.306.62-.714.651-.5.038-.776-.485-.847-.913-.185.27-.109.8-.525.914-.5.141-.687-.57-.8-.9-.093.074-.117.315-.175.429a.791.791,0,0,1-.446.458c-.513.146-.816-.387-.9-.821-.17.293-.139.683-.534.825-.486.175-.768-.443-.837-.816-.148.3-.169.867-.585.95-.518.1-.673-.6-.824-.942-.114.074-.11.3-.181.424a.629.629,0,0,1-.472.29c-.392.031-.658-.426-.774-.743-.119.43-.215.636-.665.8a.687.687,0,0,1-.934-.345,1.411,1.411,0,0,1-.02-.869c.038-.285-.04-.5.285-.6a14.722,14.722,0,0,1,3.307-.112c.7-.032,1.419.011,2.13-.018,1.023-.042,2.048-.009,3.07.025.383.013.764.044,1.147.054A11.228,11.228,0,0,1,204.648,255.943Z" transform="translate(-190.172 -243.69)" fill="#ffc950"/>
  <path id="Path_113" data-name="Path 113" d="M379.085,431.01a1.17,1.17,0,0,1-.18,1.638,1.022,1.022,0,0,1-1.461-.264c-.014-.025-.025-.051-.036-.077a1.144,1.144,0,0,1,.177-1.3A.941.941,0,0,1,379.085,431.01Zm-1.229,1.369a.066.066,0,0,1,.025.055.648.648,0,0,0,.107.048.749.749,0,0,0,1-.755c-.026-.574-.619-1.026-1.1-.557A.8.8,0,0,0,377.856,432.379Z" transform="translate(-373.159 -410.45)"/>
  <path id="Path_114" data-name="Path 114" d="M3.852,19.864a8.1,8.1,0,0,1-.011-1.771c-.036-1.225-.086-2.451-.085-3.677a28.478,28.478,0,0,1,.057-3.245.926.926,0,0,1-.674-.407A1.447,1.447,0,0,1,3.29,9.135,2.834,2.834,0,0,1,5.309,8.57c.912-.037,1.823.047,2.734.06.988.014,1.978-.009,2.966-.017q.728-.006,1.457-.009a4.5,4.5,0,0,1-2.88-2.291,4.421,4.421,0,0,1,1.593-5.281,5.339,5.339,0,0,1,5.7-.39,4.575,4.575,0,0,1,2.269,4.825,4.186,4.186,0,0,1-2.759,3.14l.7,0c.334,0,.666.014,1,.031a36.17,36.17,0,0,1,5.143.061c.533.064,1.126.13,1.4.663a1.677,1.677,0,0,1-.106,1.656,1.613,1.613,0,0,1-1.17.348,8.46,8.46,0,0,1,.817,1.266A7.2,7.2,0,0,1,25.6,14.713a9.346,9.346,0,0,1,0,2.629c-.014.447-.011.888.007,1.334a1.843,1.843,0,0,1-.1.9,1.111,1.111,0,0,1,.324,2.191,3.748,3.748,0,0,1-2.282.065,2.456,2.456,0,0,1-2.191,2.15,2.681,2.681,0,0,1-2.97-2.114,1.7,1.7,0,0,1-.679.053c-.352-.008-.705,0-1.058,0-.774,0-1.548,0-2.323,0-.731.008-1.464,0-2.2.016a3.312,3.312,0,0,1-1.357-.137,2.461,2.461,0,0,1-2.2,2.18A2.705,2.705,0,0,1,5.66,22.074,3.855,3.855,0,0,1,3.681,21.9.984.984,0,0,1,3.046,20.7,1.057,1.057,0,0,1,3.852,19.864ZM18.39,5.882A3.963,3.963,0,0,0,17.047,1.5,4.757,4.757,0,0,0,12.1,1.162,3.983,3.983,0,0,0,9.973,5.693,3.514,3.514,0,0,0,11.82,7.717a5.551,5.551,0,0,0,2.49.784A4.223,4.223,0,0,0,18.39,5.882Zm4.97,4.772c.146-.009.491.021.607-.1s.081-.519.065-.667a.434.434,0,0,0-.306-.427,4.933,4.933,0,0,0-1.574-.248c-1.62.07-3.259-.068-4.878-.053q-2.841.027-5.683.07c-1.651.027-3.3.065-4.949.019A8.42,8.42,0,0,0,4.2,9.391a.7.7,0,0,0-.557.725c0,.374.182.448.522.463,3.326.142,6.655.135,9.984.147,1.732.007,3.464.041,5.2.037.881,0,1.763-.014,2.644-.045C22.448,10.7,22.9,10.682,23.359,10.653ZM24.936,14.9A7.113,7.113,0,0,0,23.62,12.95a8.533,8.533,0,0,1-.508-.877,4.042,4.042,0,0,1-.358-.691c-1,.043-2.01.059-3.015.059-2.026,0-4.051-.058-6.077-.07-2.046-.012-4.092-.026-6.137-.074-.981-.023-1.963-.079-2.944-.093-.11,0-.224,0-.34,0a17.5,17.5,0,0,1,.124,2.73q.024,1.532.077,3.062c0,.025,0,.049,0,.074a2.769,2.769,0,0,1,.653.4,1.615,1.615,0,0,0,1.393.311c.78-.1,1.393.356,2.144.431.841.084,1.592-.323,2.438-.053a7.842,7.842,0,0,1,1.833,1.152,2.7,2.7,0,0,0,2.236.346c.75-.24.981-.855,1.491-1.362a1.6,1.6,0,0,1,1.544-.285,2.536,2.536,0,0,0,1.286.139,3.686,3.686,0,0,0,1.049-.651,2.293,2.293,0,0,1,2.126-.163,2.614,2.614,0,0,0,1.475.174,1.777,1.777,0,0,0,.843-.566A6.968,6.968,0,0,0,24.936,14.9Zm-.666,4.616c.23.011.46.018.689.028,0,0,0-.006,0-.009-.021-.333.023-.669,0-1.007-.012-.178-.018-.357-.021-.535-.34.033-.532.218-.613.616a3.556,3.556,0,0,0-.055.61C24.268,19.312,24.277,19.415,24.271,19.514ZM23.6,21.342c.494-.094,1.02-.024,1.519-.082a1.035,1.035,0,0,0,.824-.409.422.422,0,0,0-.235-.663A3.787,3.787,0,0,0,24.5,20.06c-.365-.02-.793,0-1.194-.026A2.983,2.983,0,0,1,23.6,21.342Zm-4.5.868a2.2,2.2,0,0,0,2.767,1,1.909,1.909,0,0,0,1.087-1.784,2.233,2.233,0,0,0-.963-1.936,2.336,2.336,0,0,0-2.007-.157,2.249,2.249,0,0,0-.766.913A2.337,2.337,0,0,0,19.094,22.21Zm-12.778,0a2.2,2.2,0,0,0,2.767,1,1.909,1.909,0,0,0,1.087-1.784,2.233,2.233,0,0,0-.963-1.936A2.336,2.336,0,0,0,7.2,19.332a2.249,2.249,0,0,0-.766.913A2.337,2.337,0,0,0,6.316,22.21Zm-.374-2.15a2.736,2.736,0,0,1,.614-.8,1.984,1.984,0,0,1,1.2-.676,2.628,2.628,0,0,1,2,.5A2.825,2.825,0,0,1,10.82,21.4c1.2-.112,2.41-.121,3.613-.137.742-.01,1.485-.009,2.227-.01a9.748,9.748,0,0,1,1.712.026,3.072,3.072,0,0,1,.963-2.022,1.984,1.984,0,0,1,1.2-.676,2.577,2.577,0,0,1,2.406.892,3.715,3.715,0,0,1,.92.012,3.071,3.071,0,0,1,.039-.534,2.279,2.279,0,0,1,.181-.717.714.714,0,0,1,.855-.448q0-.222,0-.444c0-.015,0-.031,0-.047a1.872,1.872,0,0,1-.82.49c-.763.219-1.5-.223-2.239-.331-.991-.144-1.417.67-2.255.957s-1.6-.4-2.408-.17c-.628.178-.9,1.037-1.419,1.4a2.558,2.558,0,0,1-1.848.392,4.143,4.143,0,0,1-1.9-.976,3.827,3.827,0,0,0-1.055-.6,3.308,3.308,0,0,0-1.658.017,2.525,2.525,0,0,1-1.215-.069,4.023,4.023,0,0,0-1.431-.4,2.86,2.86,0,0,1-1.191.018,9.153,9.153,0,0,1-1.04-.64q.01.375.014.749a.845.845,0,0,1,.927.137c.375.4.271,1.136.255,1.645.056.016.109.032.159.049A.322.322,0,0,1,5.942,20.06Zm-1.408-.292a3.932,3.932,0,0,1,.741.066A5.533,5.533,0,0,0,5.268,18.7c-.117-.391-.465-.376-.8-.338q0,.471,0,.942A.871.871,0,0,0,4.533,19.768Zm-.318,1.669a2.863,2.863,0,0,0,1.314.068.316.316,0,0,1,.057-.012,8.414,8.414,0,0,1,.119-.867c-.5-.094-1.677-.495-2.033.052C3.349,21.175,3.829,21.37,4.215,21.438Z" transform="translate(-2.954 0)"/>
  <path id="Path_115" data-name="Path 115" d="M106.484,431.01a1.17,1.17,0,0,1-.18,1.638,1.022,1.022,0,0,1-1.461-.264c-.014-.025-.025-.051-.036-.077a1.144,1.144,0,0,1,.177-1.3A.941.941,0,0,1,106.484,431.01Zm-1.229,1.369a.065.065,0,0,1,.025.055.648.648,0,0,0,.107.048.749.749,0,0,0,1-.755c-.026-.574-.619-1.026-1.1-.557A.8.8,0,0,0,105.255,432.379Z" transform="translate(-87.78 -410.45)"/>
  <path id="Path_116" data-name="Path 116" d="M61.587,257.262a3.543,3.543,0,0,1-.8.033c-.438.015-.875.041-1.314.054-.413.012-.828.006-1.241.028a1.34,1.34,0,0,1-.763-.081c-.4-.245-.3-.984-.349-1.38a10.276,10.276,0,0,1-.192-2.615c.085-.566.335-.7.871-.754.293-.031.591-.069.889-.084l.248-.018a1.626,1.626,0,0,1,.843.045,1.767,1.767,0,0,1,.577.664c.289.432.59.856.9,1.276A3.035,3.035,0,0,1,62,256.045C62.024,256.46,62.1,257.122,61.587,257.262Zm-1.741-.332c.368-.013.737-.042,1.106-.046.26,0,.452.011.563-.158a1.752,1.752,0,0,1-1.1-.387c-.242-.292-.026-.728.115-1.064-.153-.008-.306-.01-.46-.005-.044.387-.157.761-.216,1.146a2.2,2.2,0,0,1-.1.516Zm-2.49-2.173c.051.419.113.836.163,1.255.035.294-.036.862.321.974a1.348,1.348,0,0,0,.523,0,6.542,6.542,0,0,1-.265-1.432,1.079,1.079,0,0,0-.354-.738.683.683,0,0,0-.391-.086Zm3.67.021c-.242-.329-.482-.658-.717-.992a5.34,5.34,0,0,0-.6-.843c-.248-.231-.659-.149-.973-.151H58.7c-.257.026-.514.06-.768.09-.191.023-.381.006-.519.148a.92.92,0,0,0-.149.651,5.837,5.837,0,0,0,.056.808.672.672,0,0,1,.921.377,15,15,0,0,1,.489,2.048.179.179,0,0,1,.007.041q.374-.006.749-.015a9.789,9.789,0,0,1,.265-1.83.172.172,0,0,1,.167-.167,3.758,3.758,0,0,1,.859.06.147.147,0,0,1,.1.18c-.09.246-.418.789-.16.978.231.169.615.146.89.233A2.245,2.245,0,0,0,61.025,254.778Z" transform="translate(-40.822 -240.579)"/>
  <path id="Path_117" data-name="Path 117" d="M190.323,257.557a6.35,6.35,0,0,1-2.149.121c-.9,0-1.81.053-2.714.077-1.874.051-3.745-.075-5.618-.088-.454,0-.907-.026-1.361-.032a1.092,1.092,0,0,1-.653-.122.447.447,0,0,1-.145-.627,1.183,1.183,0,0,1,1-.322.613.613,0,0,1-.1-.146,3.912,3.912,0,0,1-.167-1.131,14.572,14.572,0,0,1-.119-1.928,1.521,1.521,0,0,1,.254-1.049,1.5,1.5,0,0,1,1.142-.256c.517.02,1.026.041,1.545.032,1.849-.032,3.744-.153,5.61-.04.662-.039,1.327-.057,1.988-.035a1.372,1.372,0,0,1,1.1.375,2.685,2.685,0,0,1,.287,1.579,8.246,8.246,0,0,1-.169,1.9,1.59,1.59,0,0,1-.194.493,1.052,1.052,0,0,1,.745.229A.591.591,0,0,1,190.323,257.557Zm-10.339-5.08a4.525,4.525,0,0,0-.684-.014c-.627.052-.588.564-.585,1.068,0,.064,0,.128,0,.192a.226.226,0,0,1,.024.026.7.7,0,0,0,1.193-.227,1.106,1.106,0,0,0,.085-.372A4.368,4.368,0,0,1,179.984,252.478Zm.362.019c.007.1.014.208.018.315.056.558.246,1.464.747,1.009a1.6,1.6,0,0,0,.294-1.065c0-.1,0-.184,0-.259,0,0,0-.008,0-.012C181.052,252.5,180.7,252.5,180.345,252.5Zm2.448-.063-.791.03-.231.008a.2.2,0,0,1,0,.024c0,.018,0,.036,0,.055,0,.435.059,1.986.734,1.439a1.306,1.306,0,0,0,.3-1C182.793,252.782,182.791,252.587,182.793,252.433Zm1.33-.046q-.477.013-.954.032c.009.359.068,1.956.721,1.5a.971.971,0,0,0,.263-.787A3.125,3.125,0,0,1,184.123,252.387Zm1.426-.015q-.529-.005-1.059.006s0,0,0,.005c0,.089,0,.193,0,.306.035.557.206,1.531.736,1.236.4-.223.333-1.146.316-1.525A.223.223,0,0,1,185.549,252.372Zm1.5.384c-.008-.1-.012-.2-.012-.291a.207.207,0,0,1,0-.04c-.375-.021-.751-.038-1.128-.047a.214.214,0,0,1,.005.023c.047.361.088,1.73.724,1.549C187.015,253.843,187.057,253.2,187.048,252.756Zm1.482-.236c-.374-.024-.747-.05-1.12-.073,0,.006,0,.012,0,.018,0,.025,0,.052,0,.079.017.447.151,1.559.762,1.375C188.643,253.78,188.54,252.893,188.53,252.521Zm.227,1.319a.694.694,0,0,1-.624.461.858.858,0,0,1-.851-.575.78.78,0,0,1-.668.607.805.805,0,0,1-.827-.6.736.736,0,0,1-1.411.116.7.7,0,0,1-.558.491.715.715,0,0,1-.808-.48.8.8,0,0,1-.578.563.716.716,0,0,1-.883-.575.754.754,0,0,1-.514.447.708.708,0,0,1-.837-.474,1.021,1.021,0,0,1-.385.4,1.051,1.051,0,0,1-1.079.024c.012.231.03.462.057.693.032.276.082.551.109.828a1.377,1.377,0,0,0,.05.442c.2.391,1.256.271,1.631.265,1.063-.017,2.121.029,3.184.047q1.7.029,3.393.023c.563,0,1.139.009,1.7-.049.541-.056.695-.377.782-.864a8.723,8.723,0,0,0,.126-1.333.613.613,0,0,1-.361.065A.7.7,0,0,1,188.757,253.839Zm.737-1.262c-.192-.009-.384-.02-.575-.032.11.417-.012.978.284,1.311.383.432.513-.041.573-.481A1.067,1.067,0,0,0,189.494,252.577Zm.708,4.334c-.158-.156-.58-.1-.788-.087-.53.023-1.083.137-1.594.147-1.381.026-2.768,0-4.149-.025-.737-.016-1.475-.06-2.212-.065a19.056,19.056,0,0,1-1.937-.02l-.148-.017c-.223.029-.445.065-.669.088a2.474,2.474,0,0,0-.54.09c-.344.117-.06.269.2.278,1.522.052,3.045.033,4.567.1,1.59.071,3.176-.038,4.765-.083.7-.02,1.414.023,2.114-.062a2.738,2.738,0,0,0,.287-.042C190.323,257.185,190.366,257.074,190.2,256.91Z" transform="translate(-175.234 -240.187)"/>
  <path id="Path_118" data-name="Path 118" d="M189.507,32.623a2.02,2.02,0,0,1-1.127-.53,8.229,8.229,0,0,1-.857-1.2,1.4,1.4,0,0,1-.285-1.121c.115-.514.449-.938.553-1.463a2.479,2.479,0,0,1,.493-1.359c.333-.325.682-.143,1.054-.287.217-.084.331-.369.552-.473a.668.668,0,0,1,.433-.038,4.337,4.337,0,0,0,.662.185c.051,0,.1,0,.152,0a1.813,1.813,0,0,1,1.579.24,1.476,1.476,0,0,1,.574.588,1.008,1.008,0,0,1,.091.365,2.082,2.082,0,0,0,0,.281c.045.195.23.317.368.439.569.5,1.04,1.226.56,1.951a3.452,3.452,0,0,0-.559.844c-.117.38-.129.72-.448,1a1.792,1.792,0,0,1-1.032.411c-.529.028-1.024-.241-1.553-.1A2.907,2.907,0,0,1,189.507,32.623Zm1.747-.694a4.287,4.287,0,0,0,1.137.114,1.072,1.072,0,0,0,.894-.667,3.638,3.638,0,0,1,.248-.773c.135-.227.333-.408.471-.633a.946.946,0,0,0-.228-1.153c-.221-.242-.593-.435-.721-.747-.116-.282.045-.576-.108-.857a1.11,1.11,0,0,0-.217-.271,2.372,2.372,0,0,0-.908-.25c-.333-.027-.666.052-1,.014a2.387,2.387,0,0,1-.432-.119c-.253-.077-.356,0-.537.17a1,1,0,0,1-.552.344c-.428.069-.725-.009-.919.485-.172.439-.163.924-.332,1.364a5.547,5.547,0,0,0-.412.936c-.09.494.294.858.551,1.225a2.335,2.335,0,0,0,.888.955,1.525,1.525,0,0,0,1.256.015A2.1,2.1,0,0,1,191.254,31.929Z" transform="translate(-179.423 -24.911)"/>
  <path id="Path_119" data-name="Path 119" d="M237.034,64.927a1.441,1.441,0,0,1,1.172-.391,1.326,1.326,0,0,1,.861.67,1.281,1.281,0,0,1,.147,1.718,1.5,1.5,0,1,1-2.18-2Zm-.055,1.741a1.168,1.168,0,0,0,1.8.156,1.059,1.059,0,0,0,.033-1.552,2.022,2.022,0,0,0-.383-.282.974.974,0,0,0-.993.119A1.294,1.294,0,0,0,236.978,66.668Z" transform="translate(-226.702 -61.497)"/>
</svg>
