<svg xmlns="http://www.w3.org/2000/svg" width="24" height="22.186" viewBox="0 0 24 22.186">
  <g id="Group_33" data-name="Group 33" transform="translate(-0.001 -0.001)">
    <path id="Path_35" data-name="Path 35" d="M72.056,197.577a5.436,5.436,0,0,0-2.779-1.685l-.148-.045a4.03,4.03,0,0,1-.9-.35,1.608,1.608,0,0,1-.381-.309l-.1-.106-.138.036c-.365.095-.732.192-1.1.289l-.277.073.075.235a1.771,1.771,0,0,1-1.711,2.339,1.7,1.7,0,0,1-.421-.053,1.844,1.844,0,0,1-1.295-1.346l-.055-.239-.237.067c-.53.15-1.1.314-1.753.5l-.2.057.031.2a1.362,1.362,0,0,1-.18.929,1.4,1.4,0,0,1-1.169.635,1.266,1.266,0,0,1-.319-.04,1.382,1.382,0,0,1-.9-.773l-.085-.187-.2.06c-.687.209-1.3.4-1.946.61l-.217.069-.528.168c-.42.133-.826.307-.947.678a.666.666,0,0,0,.1.579,1.088,1.088,0,0,0,.786.465c.041,0,.083.005.125.005a3.074,3.074,0,0,0,1.2-.34l.005,0,.17-.073a2.732,2.732,0,0,1,1.01-.248,1.206,1.206,0,0,1,.51.105,2.316,2.316,0,0,1,.638.514,1.416,1.416,0,0,0,.913.56h.026a1.61,1.61,0,0,0,.994-.554l.042-.039a1.411,1.411,0,0,1,.886-.447.644.644,0,0,1,.227.041.974.974,0,0,1,.536.871c.014.141.015.284.017.411a2.75,2.75,0,0,0,.062.665,1.4,1.4,0,0,0,.94.968,1.341,1.341,0,0,0,.376.053,1.4,1.4,0,0,0,.937-.36,2.63,2.63,0,0,0,.654-1.428l.01-.045a3.142,3.142,0,0,1,.57-1.426,1.216,1.216,0,0,1,.832-.4H66.8a.774.774,0,0,1,.541.2,1.626,1.626,0,0,1,.344.658,1.12,1.12,0,0,0,.485.73.58.58,0,0,0,.248.055,1.318,1.318,0,0,0,.957-.7l.053-.085c.249-.4.531-.857,1-.9a.732.732,0,0,1,.075,0,1.47,1.47,0,0,1,.633.2,2.676,2.676,0,0,0,.326.144,4.945,4.945,0,0,0,1.185.25l.306.026-.055-.3a4.353,4.353,0,0,0-.834-1.966Zm0,0" transform="translate(-51.625 -185.937)" fill="#ff8984"/>
    <path id="Path_36" data-name="Path 36" d="M70.589,32.33l.088.044.092-.032A53.191,53.191,0,0,1,77.29,30.57L74.947,32.6l.489.083a15,15,0,0,0,6.729-.394,3.541,3.541,0,0,0,1.135-.506,1.456,1.456,0,0,0,.623-1.078,1.481,1.481,0,0,0-.689-1.2,3.69,3.69,0,0,0-1.3-.489,21.8,21.8,0,0,0-4.747-.511,26.549,26.549,0,0,0-5.619.628,2.669,2.669,0,0,0-1.751.918,1.438,1.438,0,0,0-.148,1.29,2.107,2.107,0,0,0,.922.991Zm0,0" transform="translate(-66.314 -27.167)" fill="#ff8984"/>
    <path id="Path_37" data-name="Path 37" d="M91.089,284.038l-.2-.012a4.971,4.971,0,0,1-1.289-.257,2.8,2.8,0,0,1-.326-.145,1.469,1.469,0,0,0-.635-.2c-.025,0-.05,0-.074,0-.464.047-.746.5-1,.905l-.053.084a1.31,1.31,0,0,1-.961.7.571.571,0,0,1-.244-.055c-.278-.13-.378-.422-.485-.73a1.6,1.6,0,0,0-.345-.658.764.764,0,0,0-.542-.205h-.04a1.214,1.214,0,0,0-.832.4,3.1,3.1,0,0,0-.57,1.427l-.009.042a2.639,2.639,0,0,1-.654,1.43,1.4,1.4,0,0,1-.94.359,1.317,1.317,0,0,1-.374-.053,1.4,1.4,0,0,1-.94-.969,2.713,2.713,0,0,1-.062-.664c0-.135,0-.274-.017-.411-.017-.164-.106-.712-.536-.872a.644.644,0,0,0-.224-.039,1.407,1.407,0,0,0-.888.445l-.043.039a1.614,1.614,0,0,1-.993.554H77.8a1.44,1.44,0,0,1-.914-.561,2.308,2.308,0,0,0-.637-.513,1.209,1.209,0,0,0-.511-.105,2.721,2.721,0,0,0-1.008.248l-.176.075a3.577,3.577,0,0,1-1.05.332l-.293.028.1.285,1.02,5.237s-.012.255-.012.255l13.009-.158a4.138,4.138,0,0,0,2.937-.789,4.2,4.2,0,0,0,.89-2.949,15.691,15.691,0,0,0-.036-2.312Zm0,0" transform="translate(-69.775 -270.136)" fill="#ffdac4"/>
    <path id="Path_38" data-name="Path 38" d="M92.213,82.145a.331.331,0,0,0,.151.034.758.758,0,0,0,.333-.105l1.874-.975.166-.06-.01-.175c0-.049,0-.1-.006-.161a2.155,2.155,0,0,1,.32-1.229,3.278,3.278,0,0,1,.595-.617l2.1-1.82-.2-.406a53.3,53.3,0,0,0-5.61,1.576l-.171.058.24,3.4a.535.535,0,0,0,.224.481Zm0,0" transform="translate(-87.448 -73.04)" fill="#ffdac4"/>
    <path id="Path_39" data-name="Path 39" d="M242.775,183.822a1.7,1.7,0,0,0-1.535-.967,1.918,1.918,0,0,0-.706.137,1.732,1.732,0,0,0-1.13,1.719,1.847,1.847,0,0,0,1.336,1.635,1.667,1.667,0,0,0,.416.052,1.773,1.773,0,0,0,1.626-2.561Zm0,0" transform="translate(-228.178 -174.284)" fill="#ed6d66"/>
    <path id="Path_40" data-name="Path 40" d="M137.3,217.207a1.458,1.458,0,0,0-.536.1,1.315,1.315,0,0,0-.858,1.305,1.4,1.4,0,0,0,1.014,1.242,1.273,1.273,0,0,0,.317.04,1.352,1.352,0,0,0,1.049-2.234A1.267,1.267,0,0,0,137.3,217.207Zm0,0" transform="translate(-129.531 -207.025)" fill="#ed6d66"/>
    <path id="Path_41" data-name="Path 41" d="M28.029,16.073l.03.011-.241-.51a6.389,6.389,0,0,0-2.045-2.47,5.429,5.429,0,0,0-2.715-1.026,5.151,5.151,0,0,1,1.423.326l.275.105.041-.292a11.918,11.918,0,0,0,.16-2.388c-.006-.1-.016-.208-.03-.321l-.066-.542-.023.028a3.8,3.8,0,0,0-.71-1.555,5.571,5.571,0,0,0-2.969-1.652,21.727,21.727,0,0,0-13.5.617A4.451,4.451,0,0,0,5.715,7.609a2.657,2.657,0,0,0-.344.554l-.033-.069-.166.616a6.689,6.689,0,0,0-.166,1.858,7.119,7.119,0,0,0,.705,3.3,3.3,3.3,0,0,0,2.233,1.686l.29.046v-.006l.233-.015a4.658,4.658,0,0,0,2.386-1.148l0,0a10.136,10.136,0,0,1,1.191-.788l.157-.083-.017-.077.011.048.015.028.125,1.157c0,.008,0,.017,0,.028l.023.2.2.006a1.293,1.293,0,0,1,.952.456,1.26,1.26,0,0,1,.184.285l.085.181.192-.056c.587-.171,1.205-.348,1.839-.527l.167-.047,0-.174a1.743,1.743,0,0,1,1.131-1.592,1.867,1.867,0,0,1,.7-.137,1.714,1.714,0,0,1,1.469.823l.091.15.17-.045c.355-.1.713-.189,1.069-.282l.257-.067-.082-.206a1.413,1.413,0,0,0,.584.615,4.04,4.04,0,0,0,.9.35l.148.045A5.437,5.437,0,0,1,25.2,16.4c.054.068.105.14.159.218l.154.228,0,.011.048.088a8.212,8.212,0,0,1,.586,4.224,4.2,4.2,0,0,1-.891,2.949,4.2,4.2,0,0,1-2.937.789L9.024,25.07l-.043.177a1.188,1.188,0,0,0,.645,1.225,2.644,2.644,0,0,0,1.237.242c.14,0,.277,0,.41-.009l11.191-.367a6.7,6.7,0,0,0,3.907-.934,5.6,5.6,0,0,0,1.875-3.6,10.506,10.506,0,0,0-.213-5.713l-.005-.015ZM7.987,10.618l.065-.092a.632.632,0,0,0-.051.09.662.662,0,0,0-.045.138l0-.012Zm-.045.216a1.212,1.212,0,0,0-.008.143A1.246,1.246,0,0,1,7.942,10.833Zm.011-.069c0,.021-.008.041-.01.062C7.946,10.805,7.949,10.784,7.954,10.764Zm-.011.423c0-.018,0-.037,0-.057l0,.06.066,1Zm-.009-.2c0,.018,0,.037,0,.055C7.935,11.024,7.934,11.005,7.934,10.987Zm0,.078c0,.015,0,.029,0,.044C7.937,11.094,7.937,11.079,7.936,11.065Zm4.094,1.525L9.95,13.671a.636.636,0,0,1-.269.09.192.192,0,0,1-.086-.019c-.111-.056-.136-.216-.146-.366L9.207,9.941l-.468.162-.054.019.053-.019.507-.177-.357-.263a2,2,0,0,1-.637-.78,1.294,1.294,0,0,1,.133-1.161,2.554,2.554,0,0,1,1.664-.859,26.406,26.406,0,0,1,5.589-.625,21.655,21.655,0,0,1,4.716.508,3.622,3.622,0,0,1,1.255.468A1.326,1.326,0,0,1,22.236,8.3a1.315,1.315,0,0,1-.567.969,3.411,3.411,0,0,1-1.091.484,14.805,14.805,0,0,1-4.185.6,14.77,14.77,0,0,1-2.6-.23l-.139-.147-.7.61a3.193,3.193,0,0,0-.591.613,1.543,1.543,0,0,0-.1.173l-.076.151h0l0,.015-.06.118.026,0-.019.068a2.563,2.563,0,0,0-.085.7,3.58,3.58,0,0,0,.044.518l0-.029ZM8.59,10.158l.015-.006Zm.046-.018.035-.013Zm3.488,3.027-.01-.054Zm-.021-.11c-.005-.028-.01-.057-.014-.086C12.093,13,12.1,13.029,12.1,13.057Zm8.624.452v0Zm1.5-1.432a1.952,1.952,0,0,0-1.317.618l-.016.023.016-.023a1.926,1.926,0,0,1,1.318-.619c.137-.011.276-.017.413-.017.066,0,.131,0,.2,0-.065,0-.131,0-.2,0-.137,0-.276.006-.413.017Zm.819,0q-.1-.008-.2-.012Q22.952,12.069,23.05,12.077Zm0,0" transform="translate(-4.767 -4.761)" fill="#f7b36f"/>
    <path id="Path_42" data-name="Path 42" d="M23.487,11.242a6.674,6.674,0,0,0-2.344-3.09,6.121,6.121,0,0,0-.9-.536,12.69,12.69,0,0,0,.179-2.563,4.473,4.473,0,0,0-.879-2.521A5.777,5.777,0,0,0,16.454.8,21.97,21.97,0,0,0,2.8,1.424,4.651,4.651,0,0,0,.766,2.7,4.654,4.654,0,0,0,.005,5.813,6.937,6.937,0,0,0,.74,9.218a3.343,3.343,0,0,0,2.812,1.837c.048,0,.1,0,.143,0A4.868,4.868,0,0,0,6.226,9.857a11.285,11.285,0,0,1,1.027-.7l.089.827c0,.005,0,.01,0,.015a1.708,1.708,0,0,0-.2.065,1.558,1.558,0,0,0-1,1.535c0,.034.005.068.009.1-.689.21-1.307.406-1.958.614l-.745.237c-.3.1-.924.293-1.1.829a.893.893,0,0,0,.123.781,1.337,1.337,0,0,0,.838.552.233.233,0,0,0-.012.131l1.018,5.225H4.278a.234.234,0,0,0-.2.126,1.118,1.118,0,0,0,0,.994,1.559,1.559,0,0,0,.676.724,2.853,2.853,0,0,0,1.351.269c.144,0,.283,0,.415-.009l11.191-.367a7.01,7.01,0,0,0,4.039-.98,6.032,6.032,0,0,0,1.965-3.745,10.737,10.737,0,0,0-.223-5.844ZM20.869,8.533a6.07,6.07,0,0,1,1.31,1.286,7.141,7.141,0,0,1,.521.817c.024.043.046.086.069.129a3.416,3.416,0,0,0-2.014.945,5.872,5.872,0,0,0-3.034-1.978l-.149-.046a3.821,3.821,0,0,1-.845-.328,1.051,1.051,0,0,1-.545-.7.714.714,0,0,1,.148-.583,1.728,1.728,0,0,1,1.152-.53,5.06,5.06,0,0,1,3.387.983Zm-5.15.2a1.2,1.2,0,0,0,.072.255l-1.07.282a1.913,1.913,0,0,0-.183-.252A2.036,2.036,0,0,0,10.99,10.3c-.612.173-1.229.35-1.84.528a1.515,1.515,0,0,0-.218-.338A1.532,1.532,0,0,0,7.809,9.95s0-.008,0-.012L7.682,8.767a.236.236,0,0,0-.027-.086l-.008-.037a4.459,4.459,0,0,1-.14-.983,1.79,1.79,0,0,1,.108-.649,16.087,16.087,0,0,0,1.894.107A36.186,36.186,0,0,0,14.335,6.7,18.712,18.712,0,0,0,17.4,6.1a6.852,6.852,0,0,0,2.524-1.354c.005.053.01.106.014.159a8.73,8.73,0,0,1,.007,1.179c-.008.119-.177,1.328-.151,1.338a5.341,5.341,0,0,0-2.353-.34,2.162,2.162,0,0,0-1.483.708,1.192,1.192,0,0,0-.242.946Zm-1.4,2.419a1.549,1.549,0,0,1-2.863-.739,1.565,1.565,0,0,1,2.723-1.089,1.43,1.43,0,0,1,.2.313l0,.01a1.613,1.613,0,0,1-.068,1.505ZM2.97,1.862a21.5,21.5,0,0,1,13.358-.61,5.367,5.367,0,0,1,2.849,1.572A3.538,3.538,0,0,1,19.832,4.2l0,0a6.17,6.17,0,0,1-2.564,1.454,18.359,18.359,0,0,1-2.991.58,26.939,26.939,0,0,1-6.417.334,4.842,4.842,0,0,1,.937-.9l.009.005a3.881,3.881,0,0,0,1.523.29q.28.01.56.01a15.657,15.657,0,0,0,4.792-.75,6.618,6.618,0,0,0,1.4-.6,1.427,1.427,0,0,0,.54-.506,1.278,1.278,0,0,0-.109-1.253A3.606,3.606,0,0,0,15.213,1.38,15.1,15.1,0,0,0,11.456.9a19.079,19.079,0,0,0-6.173.754A2.954,2.954,0,0,0,3.4,2.955a1.726,1.726,0,0,0-.069,1.319A1.784,1.784,0,0,0,3.9,5.09a2.342,2.342,0,0,0-.6.318c-.034.025-.064.05-.092.075a.24.24,0,0,0-.035-.013,3.656,3.656,0,0,1-2.3-1.912A.236.236,0,0,0,.827,3.5c.02-.038.04-.075.062-.112A3.749,3.749,0,0,1,2.97,1.862ZM11.185,3.3a.234.234,0,0,0-.257-.126q-2.169.442-4.3,1.066c-.717.21-1.423.488-2.145.675l-.013,0a.235.235,0,0,0-.076-.06,1.256,1.256,0,0,1-.619-.734,1.256,1.256,0,0,1,.044-.959A2.553,2.553,0,0,1,5.423,2.1a18.628,18.628,0,0,1,6.023-.733,14.651,14.651,0,0,1,3.641.461A3.177,3.177,0,0,1,17.1,3.106a.877.877,0,0,1,.1.79.99.99,0,0,1-.371.33,6.186,6.186,0,0,1-1.3.554,15.2,15.2,0,0,1-5.192.718A3.936,3.936,0,0,1,9.2,5.332c.045-.04.09-.08.133-.121.242-.226.455-.47.71-.691l1.085-.94a.234.234,0,0,0,.057-.281ZM1.15,8.991A6.911,6.911,0,0,1,.474,5.8,6.239,6.239,0,0,1,.61,4.065,4.144,4.144,0,0,0,2.947,5.894l-.005.027a2.312,2.312,0,0,0,0,.524c0,.034.273,4.115.273,4.115A3.076,3.076,0,0,1,1.15,8.991ZM7.025,7.668a5.585,5.585,0,0,0,.148,1,10.187,10.187,0,0,0-1.224.81,4.5,4.5,0,0,1-2.263,1.1L3.41,6.414a1.013,1.013,0,0,1,.037-.461c.179-.386.753-.394,1.079-.543a14.525,14.525,0,0,1,1.84-.6q.945-.285,1.9-.534.477-.125.957-.24c.214-.052.751-.072.912-.211l-2.1,1.82a3.452,3.452,0,0,0-.636.663A2.507,2.507,0,0,0,7.014,7.5c0,.019,0,.083.01.172ZM7.318,10.5a1.086,1.086,0,0,1,1.257.288,1.12,1.12,0,0,1-1.13,1.814,1.16,1.16,0,0,1-.839-1.027A1.085,1.085,0,0,1,7.318,10.5ZM3.472,14.269a.858.858,0,0,1-.611-.361.436.436,0,0,1-.068-.377c.088-.27.434-.413.794-.527l.745-.237c.647-.206,1.261-.4,1.943-.609a1.624,1.624,0,0,0,1.053.9,1.511,1.511,0,0,0,.378.047,1.63,1.63,0,0,0,1.368-.746,1.6,1.6,0,0,0,.212-1.089c.582-.169,1.168-.337,1.751-.5a2.071,2.071,0,0,0,1.464,1.52,1.922,1.922,0,0,0,.48.06,2,2,0,0,0,1.934-2.644c.379-.1.759-.2,1.136-.3a1.827,1.827,0,0,0,.436.354,4.236,4.236,0,0,0,.947.373l.146.045a5.215,5.215,0,0,1,2.664,1.606,4.14,4.14,0,0,1,.787,1.863,4.736,4.736,0,0,1-1.128-.238,2.588,2.588,0,0,1-.3-.133,1.517,1.517,0,0,0-.836-.221c-.579.06-.907.589-1.171,1.015l-.052.084c-.228.365-.609.695-.906.556-.188-.088-.269-.323-.362-.594a1.807,1.807,0,0,0-.4-.75,1.012,1.012,0,0,0-.755-.269,1.456,1.456,0,0,0-1,.483,3.322,3.322,0,0,0-.623,1.53l-.01.044a2.455,2.455,0,0,1-.583,1.308,1.136,1.136,0,0,1-1.869-.549,2.543,2.543,0,0,1-.054-.608c0-.14,0-.285-.018-.432a1.2,1.2,0,0,0-.688-1.068,1.338,1.338,0,0,0-1.352.453l-.042.039c-.271.247-.553.5-.853.493-.281-.009-.5-.233-.755-.491a2.5,2.5,0,0,0-.706-.561,2.16,2.16,0,0,0-1.708.139l-.179.077a2.6,2.6,0,0,1-1.211.316Zm.284.491a.209.209,0,0,0-.008-.026,3.757,3.757,0,0,0,1.12-.35l.174-.075a1.754,1.754,0,0,1,1.33-.146,2.129,2.129,0,0,1,.568.464,1.636,1.636,0,0,0,1.074.631A1.768,1.768,0,0,0,9.2,14.643l.042-.038c.244-.222.594-.464.874-.36a.784.784,0,0,1,.384.676c.013.125.014.254.016.389a2.935,2.935,0,0,0,.069.721,1.634,1.634,0,0,0,1.1,1.134,1.556,1.556,0,0,0,.44.062,1.636,1.636,0,0,0,1.1-.421,2.829,2.829,0,0,0,.724-1.551l.01-.044a2.934,2.934,0,0,1,.517-1.322.987.987,0,0,1,.666-.323.55.55,0,0,1,.411.139,1.423,1.423,0,0,1,.285.565,1.31,1.31,0,0,0,.607.866c.558.261,1.157-.179,1.5-.732L18,14.319c.231-.374.471-.76.82-.8a1.137,1.137,0,0,1,.581.175,2.987,2.987,0,0,0,.354.156,5.207,5.207,0,0,0,1.349.269,15.334,15.334,0,0,1,.035,2.276,4.017,4.017,0,0,1-.819,2.79,3.96,3.96,0,0,1-2.777.723l-12.76.156a.241.241,0,0,0,0-.059ZM23.25,16.993a5.381,5.381,0,0,1-1.785,3.462,6.522,6.522,0,0,1-3.775.888L6.5,21.71a3.078,3.078,0,0,1-1.53-.206.958.958,0,0,1-.527-.963l13.105-.16a4.382,4.382,0,0,0,3.1-.854,4.377,4.377,0,0,0,.963-3.109c.008-.2.015-.4.02-.606a7.354,7.354,0,0,0-.609-3.7,2.937,2.937,0,0,1,1.963-.892h0a10.109,10.109,0,0,1,.267,5.776Zm0,0" transform="translate(0)"/>
  </g>
</svg>
