<svg xmlns="http://www.w3.org/2000/svg" width="89.821" height="112" viewBox="0 0 89.821 112">
  <g id="Group_3224" data-name="Group 3224" transform="translate(-41.496 0)">
    <g id="Group_3223" data-name="Group 3223" transform="translate(41.496 0)">
      <path id="Path_67045" data-name="Path 67045" d="M129.183,31.848a4.2,4.2,0,0,1,2.068,4.63c-.48,3.608-.986,7.216-1.349,10.839-.722,7.155-1.443,14.313-2,21.481-.771,9.9-1.745,19.761-3.414,29.548-.383,2.24-.607,4.509-.923,6.762a12.215,12.215,0,0,1-.421,2.135c-.525,1.59-1.249,2.152-2.812,1.781-1.58-.371-2.964.131-4.465.338-6.135.845-12.165,2.468-18.429,2.377-4.318-.063-8.641.341-12.954.247a220.005,220.005,0,0,1-31.427-2.473c-2.212-.368-2.665-.727-2.994-3.126Q48.674,96.252,47.409,86.1c-1.172-9.388-2.28-18.787-3.437-28.18-.779-6.325-1.558-12.648-2.412-18.963-.3-2.228.436-3.674,2.5-4.529a18.867,18.867,0,0,0,2.409-1.355c-.279-5.238-.538-10.117-.8-15.151,6.58-2.69,13.417-1.176,20.079-1.726.179-.878.4-1.668.5-2.475C67.376,4.178,76.53-1.246,84.887.245c1.944.346,3.865.848,5.776,1.357a10.355,10.355,0,0,1,7.675,10.322c-.047.987-.007,1.978-.007,3.124a18.736,18.736,0,0,0,2.272.2q10.109-.4,20.213-.855a13.918,13.918,0,0,1,1.608-.124c1.832.134,2.476.9,2.436,2.818-.062,3.1-.082,6.2-.234,9.3a3.063,3.063,0,0,0,1.538,3.171C127.239,30.2,128.108,31.2,129.183,31.848Zm-1.941,14.364c.4-3.2,1.008-6.376,1.545-9.711-10.848.283-21.405.56-32.376.848.361,2.387.575,4.443,1.008,6.449a3.739,3.739,0,0,1-.849,3.288,2.824,2.824,0,0,1-3.395.881c-1.107-.54-1.481-1.751-.988-3.3.137-.431.336-.843.51-1.264a11.264,11.264,0,0,0,.418-6.214c-7.123.31-14.1.613-21.361.931.291,2.094-.371,3.979.874,5.755A3.494,3.494,0,0,1,72.884,46a2.2,2.2,0,0,1-1.857,2.074,2.282,2.282,0,0,1-2.641-1.413,2.953,2.953,0,0,1,.4-3.343c1.448-1.741.739-3.313.082-5.137-3.419.452-6.807-.656-9.756.575-5.015-1.473-9.927-.275-15.136-.9.557,3.623,1.023,6.933,1.61,10.223.1.555.714,1.014,1.1,1.519-1.55,1.236-.324,2.521-.2,4.284,1.242-1.955,2.222-3.5,3.2-5.046l.455.283c-.871,1.544-1.64,3.161-2.638,4.615-1.145,1.665-1.1,3.288-.289,5.3,1.921-2.864,3.736-5.563,5.547-8.26.157.108.316.217.475.323-1.687,2.876-3.362,5.758-5.065,8.621a3.226,3.226,0,0,0-.184,3.747c1.6-2.306,2.683-4.794,4.6-6.648a23.71,23.71,0,0,1-2.86,5.553C47.678,65,48.216,67.7,48.868,71.024c1.349-2.119,2.454-3.853,3.556-5.586a13.7,13.7,0,0,1-2.046,4.706,5.745,5.745,0,0,0-.48,6.287c.727-.961,1.409-1.862,2.091-2.765-1.441,2.818-2.78,5.536-1.518,8.818.4-.187.762-.361,1.312-.623-1.433,3.343-1.451,5.064-.147,7.589,1.451-2.432,2.882-4.834,4.315-7.234-1.083,3.906-3.922,6.956-4.671,10.935.172.093.343.189.513.283q2.18-3.293,4.355-6.59a33.73,33.73,0,0,1-3.509,6.974,5.015,5.015,0,0,0-.095,5.508c1.309-1.933,2.506-3.7,3.7-5.462l.458.318c-1.058,1.776-2.083,3.575-3.183,5.324a4.407,4.407,0,0,0-.714,3.838c.311,1.022.47,2.092.714,3.224l4.315.719c1.742-2.556,3.288-4.832,4.836-7.1.182.114.366.227.55.341-1.374,2.215-2.745,4.43-4.375,7.057l14.989.964c1.03-1.04,1.864-1.88,2.685-2.71-.348.823-.7,1.665-1.175,2.783a7.087,7.087,0,0,0,2.641.25c.789-.257,1.394-1.092,2.227-1.8-.246.686-.416,1.156-.582,1.617.266.121.436.278.577.252,3.141-.532,6.408.928,9.482-.611,1.638,1.32,3.5.489,5.229.449a89.863,89.863,0,0,0,10.191-.724c4.878-.674,9.713-1.637,14.708-2.5.48-3.184,1.018-6.308,1.416-9.451.993-7.854,1.931-15.716,2.874-23.578C125.156,63.75,126.149,54.975,127.242,46.212Zm-4.734-19.5V18.978l-.445-.285c-1.59,1.761-3.178,3.522-4.9,5.43C119.076,25.145,120.274,26.775,122.508,26.717Zm-7.1,7.476c3.84-.192,7.277-.366,10.978-.553-1.747-2.122-8.9-6.658-10.978-7.165Zm.271-12.3a57.542,57.542,0,0,0,3.895-4.438l-21.425.737a11.819,11.819,0,0,1,.916,2.581,7.556,7.556,0,0,1-.194,3.368c-.458,1.173-1.742,1.219-2.827.83a2.384,2.384,0,0,1-1.468-2.659c.077-1.4.231-2.8.376-4.486-8.788.457-17.217-.333-25.7.83.274,1.62.6,3.045.734,4.491a2.236,2.236,0,0,1-1.364,2.442,2.16,2.16,0,0,1-2.72-.5,4.88,4.88,0,0,1-.694-2.432c-.032-.459.5-.936.66-1.441.229-.7.348-1.438.585-2.46H50.376a6.783,6.783,0,0,0,2.519,1.993c1.747.941,3.487,1.9,5.256,2.793a3.73,3.73,0,0,1,2.158,3.767c-.032.911-.139,1.817-.2,2.725-.129,1.877-.249,3.754-.376,5.682h8.932c.373-2.276.552-4.287,1.055-6.209A10.074,10.074,0,0,1,75.6,22.483c3.375-1.529,6.8-1.446,10.328-1.214A10.557,10.557,0,0,1,96.019,29.28c.478,1.643.657,3.373,1.02,5.316,5.557.434,11.115-.156,16.829-.573,0-2.649.015-4.928,0-7.2A6.116,6.116,0,0,1,115.684,21.892ZM94.879,15.211a43.657,43.657,0,0,0-.032-4.875,6.441,6.441,0,0,0-3.686-5.4c-3.818-1.7-7.78-2.818-12.053-1.794A12.106,12.106,0,0,0,69.753,15.86ZM93.244,34.745a12.023,12.023,0,0,0-1-6.161,6.276,6.276,0,0,0-5.047-4.05,23.31,23.31,0,0,0-5.358-.462c-3,.2-5.923.926-7.77,3.663-1.545,2.291-2,4.943-2.215,7.943C79.053,35.363,86.039,35.06,93.244,34.745ZM57.817,35.88c.159-2.773.306-5.359.493-8.609L46.371,35.88ZM49.684,30.6c2.593-1.754,5.2-3.156,7.605-5.42L47.663,20.02C48.39,23.823,49.012,27.082,49.684,30.6Z" transform="translate(-41.496 0)"/>
      <path id="Path_67046" data-name="Path 67046" d="M54.181,157.772q.586-1.643,1.175-3.285c-.991.916-1.747,1.9-1.175,3.285-.381-.5-1-.964-1.1-1.519-.587-3.29-1.053-6.6-1.61-10.223,5.209.621,10.122-.578,15.136.9,2.949-1.231,6.336-.124,9.756-.575.657,1.824,1.366,3.4-.082,5.137a2.953,2.953,0,0,0-.4,3.343,2.281,2.281,0,0,0,2.641,1.413,2.2,2.2,0,0,0,1.857-2.074,3.494,3.494,0,0,0-.254-2.122c-1.244-1.776-.582-3.661-.874-5.755,7.262-.318,14.238-.621,21.361-.931a11.265,11.265,0,0,1-.418,6.214c-.174.421-.373.833-.51,1.264-.493,1.544-.119,2.755.988,3.3a2.824,2.824,0,0,0,3.395-.881,3.739,3.739,0,0,0,.849-3.288c-.433-2.006-.647-4.062-1.008-6.449,10.97-.288,21.527-.565,32.376-.848-.538,3.335-1.147,6.509-1.545,9.711-1.093,8.763-2.086,17.538-3.133,26.305-.943,7.862-1.881,15.724-2.874,23.578-.4,3.144-.936,6.267-1.416,9.451-4.995.865-9.83,1.829-14.708,2.5a89.867,89.867,0,0,1-10.191.724c-1.73.04-3.591.87-5.229-.449-3.074,1.539-6.341.078-9.482.611-.142.025-.311-.131-.577-.252.167-.462.336-.931.582-1.617-.834.706-1.438,1.542-2.227,1.8a7.088,7.088,0,0,1-2.641-.25c.47-1.118.826-1.96,1.175-2.783l.137-.139.107-.207c.448-.421.9-.84,1.341-1.262l-.493-.389c-.284.55-.565,1.1-.849,1.65l-.164.154c-.027.063-.055.126-.08.192-.821.83-1.655,1.67-2.685,2.71-4.654-.3-9.562-.616-14.989-.964,1.63-2.627,3-4.842,4.375-7.057-.184-.114-.368-.227-.55-.341-1.548,2.273-3.093,4.549-4.836,7.1l-4.315-.719c-.244-1.133-.4-2.2-.714-3.224a4.407,4.407,0,0,1,.714-3.838c1.1-1.748,2.125-3.547,3.183-5.324l-.458-.318c-1.195,1.766-2.392,3.53-3.7,5.462a5.015,5.015,0,0,1,.095-5.508,33.73,33.73,0,0,0,3.509-6.974q-2.176,3.3-4.355,6.59c-.169-.093-.341-.189-.513-.283.749-3.979,3.589-7.029,4.671-10.935-1.433,2.4-2.864,4.8-4.315,7.234-1.3-2.526-1.287-4.246.147-7.589-.55.262-.916.436-1.312.623-1.262-3.283.077-6,1.518-8.818-.682.9-1.364,1.8-2.091,2.765a5.745,5.745,0,0,1,.48-6.287,13.7,13.7,0,0,0,2.046-4.705c-1.1,1.733-2.207,3.467-3.556,5.586-.652-3.328-1.19-6.023.859-8.649a23.71,23.71,0,0,0,2.86-5.553c-1.916,1.854-3,4.342-4.6,6.648a3.226,3.226,0,0,1,.184-3.747c1.7-2.864,3.377-5.745,5.065-8.621-.159-.106-.319-.214-.475-.323-1.812,2.7-3.626,5.4-5.547,8.26-.814-2.013-.856-3.636.289-5.3,1-1.453,1.767-3.071,2.638-4.615l-.455-.283c-.981,1.544-1.961,3.091-3.2,5.046C53.858,160.293,52.631,159.009,54.181,157.772Zm60.1,21.037c.423-4.3-1.01-7.615-4.761-9.916-5.809-3.563-14.218-1.526-18.282,4.62a17.316,17.316,0,0,0-2.3-1.756,16.843,16.843,0,0,0-16.535.108c-3.713,1.988-4.848,5.162-4.248,9.431.607,4.3,2.884,7.665,5.729,10.6a54.743,54.743,0,0,0,12.478,9.9c2.832,1.579,5.607,3.265,8.394,4.928,2.426,1.446,3.449,1.759,5.677-.517a16.2,16.2,0,0,0,1.386-1.653c1.249-1.663,2.364-3.444,3.733-5A35.793,35.793,0,0,0,114.286,178.809ZM76.973,214.251l1.687-2.823C77.575,212.073,76.751,212.866,76.973,214.251Zm-6.319,1.019q.489-.844.973-1.693c-.122-.068-.244-.136-.366-.207-.358.54-.714,1.077-1.073,1.615C70.343,215.081,70.5,215.177,70.654,215.27Zm-8.332-1.925q2.244-3.66,4.482-7.322l-.48-.3c-1.588,2.384-3.524,4.549-4.562,7.274C61.948,213.113,62.135,213.229,62.322,213.345ZM56.4,152.7q.534-.855,1.068-1.716c-.122-.106-.244-.212-.366-.32l-.971,1.895C56.217,152.6,56.307,152.653,56.4,152.7Z" transform="translate(-48.992 -108.169)" fill="#e8c695"/>
      <path id="Path_67047" data-name="Path 67047" d="M350.882,74.375v7.738c-2.235.058-3.432-1.572-5.346-2.594l4.9-5.43Z" transform="translate(-269.869 -55.397)" fill="#e8c695"/>
      <path id="Path_67048" data-name="Path 67048" d="M349.484,112.1c-3.7.187-7.138.361-10.978.553V104.93C340.584,105.437,347.737,109.974,349.484,112.1Z" transform="translate(-264.589 -78.456)" fill="#ccab7c"/>
      <path id="Path_67049" data-name="Path 67049" d="M146.379,69.18a57.543,57.543,0,0,1-3.895,4.438,6.116,6.116,0,0,0-1.822,4.928c.02,2.276,0,4.554,0,7.2-5.714.416-11.271,1.007-16.829.573-.363-1.943-.543-3.674-1.02-5.316a10.557,10.557,0,0,0-10.092-8.011c-3.526-.232-6.953-.315-10.328,1.214a10.074,10.074,0,0,0-5.881,7.024c-.5,1.923-.682,3.933-1.055,6.209H86.531c.127-1.928.246-3.8.376-5.682.062-.908.169-1.814.2-2.725a3.73,3.73,0,0,0-2.158-3.767c-1.769-.9-3.509-1.852-5.256-2.793a6.783,6.783,0,0,1-2.519-1.993H93.26c-.236,1.022-.356,1.759-.585,2.46-.162.5-.692.981-.66,1.441a4.88,4.88,0,0,0,.694,2.432,2.16,2.16,0,0,0,2.72.5,2.236,2.236,0,0,0,1.364-2.442c-.137-1.446-.46-2.871-.734-4.491,8.479-1.163,16.908-.373,25.7-.83-.144,1.683-.3,3.083-.376,4.486a2.384,2.384,0,0,0,1.468,2.659c1.085.389,2.369.343,2.827-.83a7.556,7.556,0,0,0,.194-3.368,11.821,11.821,0,0,0-.916-2.581Z" transform="translate(-68.296 -51.725)" fill="#e8c695"/>
      <path id="Path_67050" data-name="Path 67050" d="M159.431,235.49c3.751,2.3,5.184,5.619,4.761,9.916a35.793,35.793,0,0,1-8.725,20.747c-1.369,1.554-2.484,3.335-3.733,5a16.208,16.208,0,0,1-1.386,1.653c-2.227,2.276-3.25,1.963-5.677.517-2.787-1.663-5.562-3.348-8.394-4.928a54.743,54.743,0,0,1-12.478-9.9c-2.845-2.932-5.122-6.3-5.729-10.6-.6-4.269.535-7.443,4.248-9.431a16.843,16.843,0,0,1,16.535-.109,17.317,17.317,0,0,1,2.3,1.756C145.213,233.963,153.623,231.927,159.431,235.49Z" transform="translate(-98.898 -174.765)" fill="#c1272d"/>
      <path id="Path_67051" data-name="Path 67051" d="M183.866,99.837a12.023,12.023,0,0,1,1,6.161c-7.2.315-14.191.618-21.39.934.219-3,.669-5.652,2.215-7.943,1.847-2.738,4.773-3.459,7.77-3.663a23.31,23.31,0,0,1,5.358.462A6.276,6.276,0,0,1,183.866,99.837Z" transform="translate(-133.119 -71.253)" fill="#ccab7c"/>
      <path id="Path_67052" data-name="Path 67052" d="M184.547,411.938c-.445.421-.893.84-1.341,1.262.284-.55.565-1.1.849-1.65Z" transform="translate(-147.939 -307.713)"/>
      <path id="Path_67053" data-name="Path 67053" d="M182.71,418.09l-.107.207-.057-.053Z" transform="translate(-147.443 -312.603)"/>
      <path id="Path_67054" data-name="Path 67054" d="M182.363,418.753l-.137.139c.025-.066.052-.129.08-.192Z" transform="translate(-147.202 -313.059)"/>
      <path id="Path_67055" data-name="Path 67055" d="M155.5,409.26l-1.687,2.823C153.6,410.7,154.419,409.906,155.5,409.26Z" transform="translate(-125.836 -306.001)"/>
      <path id="Path_67056" data-name="Path 67056" d="M128.1,417.167q-.485.848-.973,1.693c-.154-.093-.311-.189-.465-.285.358-.537.714-1.075,1.073-1.615C127.861,417.031,127.983,417.1,128.1,417.167Z" transform="translate(-105.47 -311.758)"/>
      <path id="Path_67057" data-name="Path 67057" d="M97.848,386.958q-2.24,3.66-4.482,7.322c-.187-.116-.373-.232-.56-.346,1.038-2.725,2.974-4.89,4.562-7.274Z" transform="translate(-80.036 -289.103)"/>
      <path id="Path_67058" data-name="Path 67058" d="M73.024,108.09c-.187,3.25-.333,5.836-.493,8.609H61.086Z" transform="translate(-56.211 -80.818)" fill="#ccab7c"/>
      <path id="Path_67059" data-name="Path 67059" d="M75.9,84.512c-2.409,2.263-5.012,3.666-7.605,5.42-.672-3.52-1.294-6.779-2.021-10.582Z" transform="translate(-60.109 -59.329)" fill="#e8c695"/>
      <path id="Path_67060" data-name="Path 67060" d="M71.5,168.74q-.534.859-1.068,1.716c-.09-.045-.179-.093-.269-.141l.971-1.895C71.259,168.528,71.38,168.634,71.5,168.74Z" transform="translate(-63.031 -125.927)"/>
      <path id="Path_67061" data-name="Path 67061" d="M62.924,183.58q-.586,1.643-1.175,3.285C61.177,185.485,61.934,184.5,62.924,183.58Z" transform="translate(-56.561 -137.262)"/>
    </g>
  </g>
</svg>
