<svg xmlns="http://www.w3.org/2000/svg" width="11.25" height="16" viewBox="0 0 11.25 16">
  <g id="Group_361" data-name="Group 361" transform="translate(-76.003)">
    <g id="Group_355" data-name="Group 355" transform="translate(76.003)">
      <path id="Path_8607" data-name="Path 8607" d="M164.092,121.72l-1.179-.62-1.179.62a.625.625,0,0,1-.907-.659l.225-1.312-.954-.929a.625.625,0,0,1,.346-1.066l1.318-.191.589-1.194a.625.625,0,0,1,1.121,0l.589,1.194,1.318.191a.625.625,0,0,1,.346,1.066l-.954.929.225,1.312A.625.625,0,0,1,164.092,121.72Zm-2.213-2.912.282.275a.625.625,0,0,1,.18.553l-.067.388.349-.183a.625.625,0,0,1,.582,0l.349.183-.067-.388a.625.625,0,0,1,.18-.553l.282-.275-.39-.057a.625.625,0,0,1-.471-.342l-.174-.353-.174.353a.625.625,0,0,1-.471.342Z" transform="translate(-157.289 -112.394)" fill="#898989"/>
      <path id="Path_8608" data-name="Path 8608" d="M84.128,15.523l-2.084-1.864a.625.625,0,0,0-.833,0l-2.084,1.864A1.875,1.875,0,0,1,76,14.125v-11A3.129,3.129,0,0,1,79.128,0h5a3.129,3.129,0,0,1,3.125,3.125v11A1.878,1.878,0,0,1,84.128,15.523Zm-1.251-2.8,2.084,1.864A.626.626,0,0,0,86,14.125v-11A1.877,1.877,0,0,0,84.128,1.25h-5a1.877,1.877,0,0,0-1.875,1.875v11a.626.626,0,0,0,.625.625c.417,0,.407-.218,2.5-2.023A1.875,1.875,0,0,1,82.878,12.727Z" transform="translate(-76.003)" fill="#898989"/>
    </g>
  </g>
</svg>
