<svg xmlns="http://www.w3.org/2000/svg" width="32" height="32" viewBox="0 0 32 32">
  <g id="Group_128" data-name="Group 128" transform="translate(-24 -136)">
    <rect id="Rectangle_55" data-name="Rectangle 55" width="32" height="32" rx="6" transform="translate(24 136)" fill="#faf6f1"/>
    <g id="Group_125" data-name="Group 125" transform="translate(32 148)">
      <path id="Path_134" data-name="Path 134" d="M14.731,1.393A4.3,4.3,0,0,0,11.531,0,4.025,4.025,0,0,0,9.017.868,5.143,5.143,0,0,0,8,1.929,5.141,5.141,0,0,0,6.984.868,4.025,4.025,0,0,0,4.47,0a4.3,4.3,0,0,0-3.2,1.393A5,5,0,0,0,0,4.808a5.955,5.955,0,0,0,1.587,3.9A33.839,33.839,0,0,0,5.56,12.435c.55.469,1.174,1,1.822,1.567a.939.939,0,0,0,1.237,0c.648-.567,1.272-1.1,1.823-1.568a33.82,33.82,0,0,0,3.972-3.728A5.955,5.955,0,0,0,16,4.808a5,5,0,0,0-1.269-3.415Zm0,0" transform="translate(0 -3)" fill="#d8a235"/>
    </g>
  </g>
</svg>
