<svg xmlns="http://www.w3.org/2000/svg" width="24" height="23.558" viewBox="0 0 24 23.558">
  <g id="Group_346" data-name="Group 346" transform="translate(0 -4.717)">
    <path id="Path_8577" data-name="Path 8577" d="M20.607,184.948l.345,1.488.307,7.147.656,4.937.687.645,1.483.156,6.317.34h5.264l4.435-.687.925-.989.383-1.769.154-2.411.42-6.183v-2.87Z" transform="translate(-19.641 -171.596)" fill="#f95252"/>
    <path id="Path_8578" data-name="Path 8578" d="M29.4,107.52l-22.644.3-.447.819v2.3l.67.4.8.145,20.579-.34L29.4,110.5l.136-1.3.128-1.2Z" transform="translate(-6.018 -97.984)" fill="#f95252"/>
    <g id="Group_345" data-name="Group 345" transform="translate(1.373 13.078)">
      <path id="Path_8579" data-name="Path 8579" d="M29.307,193.882a5.668,5.668,0,0,1,1.013-1.008c.215-.195.438-.385.647-.587.526-.51.952-1.12,1.481-1.626.132-.126.292-.371.451-.454a.494.494,0,0,1,.192-.013q.486,0,.971-.016c.9-.034,1.794.058,2.693.046-.207.195-.376.437-.593.635-.427.391-.854.8-1.254,1.216-.771.805-1.59,1.563-2.381,2.348-.6.6-1.162,1.245-1.726,1.883-.337.38-.73.742-1.071,1.093a1.128,1.128,0,0,1-.094-.43c-.051-.342-.084-.686-.129-1.028s-.082-.685-.125-1.028A2.556,2.556,0,0,1,29.307,193.882Z" transform="translate(-29.273 -189.839)" fill="#fff"/>
      <path id="Path_8580" data-name="Path 8580" d="M44,252.04a2.379,2.379,0,0,0,.4-.4c.254-.285.516-.563.783-.836.427-.437.884-.843,1.3-1.291.745-.8,1.562-1.534,2.306-2.338.632-.682,1.285-1.336,1.929-2.006.227-.237.463-.471.68-.718a4.093,4.093,0,0,1,.715-.72,9.074,9.074,0,0,0-.047,2.385,5.639,5.639,0,0,1,.029,1.576c-.085.014-.144.09-.2.155-.187.2-.376.408-.558.614-.329.372-.608.781-.95,1.143-.27.287-.549.565-.821.85-.865.9-1.694,1.834-2.58,2.718A17.876,17.876,0,0,1,45.007,255a.286.286,0,0,1-.375.047c-.245-.111-.281-.332-.351-.582A10.468,10.468,0,0,1,44,252.04Z" transform="translate(-43.31 -240.888)" fill="#fff"/>
      <path id="Path_8581" data-name="Path 8581" d="M150.666,419.49c.566-.7,1.159-1.385,1.728-2.086a12.009,12.009,0,0,1,1.4-1.693,8.694,8.694,0,0,1-.057,2.347c-.012.589-.083,1.171-.131,1.755a1.028,1.028,0,0,0-.5-.161,4,4,0,0,0-.886-.113A6.818,6.818,0,0,1,150.666,419.49Z" transform="translate(-144.976 -404.807)" fill="#fff"/>
      <path id="Path_8582" data-name="Path 8582" d="M290.489,186.7c1.038-1.1,2.085-2.185,3.027-3.371a.862.862,0,0,0-.824-.077,5.058,5.058,0,0,0-1.282-.094c-.164.009-.314.062-.472.079-.047.005-.491-.111-.457-.158-.043.059-.016.116-.011.206.013.235.006.473.012.708A12.942,12.942,0,0,0,290.489,186.7Z" transform="translate(-278.158 -183.083)" fill="#fff"/>
      <path id="Path_8583" data-name="Path 8583" d="M291.508,194.161a7.21,7.21,0,0,1,.593-.687c.217-.243.45-.475.662-.722s.4-.555.619-.814c.3-.348.575-.707.866-1.061.389-.473.749-.969,1.155-1.427.193-.217.417-.4.613-.611.228-.241.414-.536.63-.79.31-.366.6-.756.912-1.115.088-.1.238-.34.368-.394.027-.011.094.017.126.016.154,0,.308-.015.462-.018.325-.006.651.011.977,0,.124,0,.359-.088.472,0,.144.11.046.348.026.5a6.637,6.637,0,0,1-.1.993.126.126,0,0,0-.024-.015,14.2,14.2,0,0,0-2.092,2.491c-.562.812-1.135,1.616-1.733,2.4-.2.263-.449.458-.652.708-.225.276-.431.567-.63.863-.385.572-.737,1.165-1.125,1.734a17.1,17.1,0,0,1-1.272,1.639c-.232.265-.633.577-.722.938-.17-.215-.1-.713-.106-.967-.009-.525-.059-1.049-.075-1.574-.018-.583.049-1.177-.013-1.756-.019-.178-.042-.19.056-.334Z" transform="translate(-279.142 -186.339)" fill="#fff"/>
      <path id="Path_8584" data-name="Path 8584" d="M343,320.78c.228-.3.423-.644.64-.956.352-.505.72-1,1.078-1.5.515-.722,1.04-1.436,1.541-2.168.462-.676.968-1.339,1.4-2.036.248-.4.486-.8.739-1.2.154-.241.288-.671.539-.821a1.406,1.406,0,0,1,.034.518c0,.374.034.742.054,1.115.042.8-.119,1.581-.116,2.378a10.506,10.506,0,0,1-.246,1.911,6.039,6.039,0,0,1-.546,1.709,1.221,1.221,0,0,1-.7.718,5.319,5.319,0,0,1-1.391.286c-.493,0-1-.017-1.5-.043-.3-.015-.6-.015-.9-.03A1.71,1.71,0,0,0,343,320.78Z" transform="translate(-328.294 -306.049)" fill="#fff"/>
    </g>
    <path id="Path_8585" data-name="Path 8585" d="M100.17,15.887a2.762,2.762,0,0,1,.261,1.429c.021.5.049,1.009.081,1.512a8.91,8.91,0,0,0,.235,1.164,8.327,8.327,0,0,1-.039,1.485c0,.95-.011,1.9,0,2.851.014,1.38.071,2.761.158,4.137.058.918.031,1.817.031,2.735a16.9,16.9,0,0,0-.055,2.609c.71.1,1.463.026,2.184.062a3.925,3.925,0,0,0,1.089.045c.179-.052.1.079.189-.109.171-.357-.048-1.039-.035-1.446.024-.748.045-1.451,0-2.2-.1-1.739-.08-3.494-.147-5.237-.045-1.171-.04-2.359-.038-3.531,0-1.067-.081-2.131-.136-3.2-.027-.527-.375-2.327.276-2.508a4.152,4.152,0,0,1,.869-.015c.455-.015.911-.016,1.366-.036.526-.023,1.048-.082,1.573-.121a5.3,5.3,0,0,0,1.229-.079c.2-.07.157.012.184-.237.051-.454-.018-.993.007-1.464.039-.762.107-1.525.071-2.29-.015-.317-.048-.529-.408-.508a7.381,7.381,0,0,0-1.416.519c-1.055.352-2.119.618-3.139,1.067-.312.138-.776.555-1.128.525-.3-.025-.469-.406-.769-.5a1.659,1.659,0,0,0-1.155.15,4.655,4.655,0,0,0-.832.557,8.495,8.495,0,0,0-2.46-1.436c-.727-.331-2.14-1.3-2.911-.658-.34.282-.315.94-.314,1.346a12.378,12.378,0,0,0,.25,2.413c.082.406.046.823.489.923a9.2,9.2,0,0,0,2.572-.106c.489-.036,1.387-.256,1.818.1A.465.465,0,0,1,100.17,15.887Z" transform="translate(-90.534 -5.929)" fill="#d8a235"/>
    <path id="Path_8586" data-name="Path 8586" d="M23.928,9.734c-.2-.5-.748-.482-1.2-.487-.568-.006-1.137-.009-1.705-.013q-.98-.006-1.959,0c.118-.982.1-1.992.165-2.978a2.576,2.576,0,0,0-.037-1.171c-.171-.391-.56-.42-.926-.312-.957.282-1.9.641-2.827,1.016a21.454,21.454,0,0,0-2.646,1.2A1.222,1.222,0,0,0,11.4,6.447a1.743,1.743,0,0,0-1.117.563,19.491,19.491,0,0,0-4.113-2c-.556-.209-1.358-.545-1.82.024a1.3,1.3,0,0,0-.228.869c.01.393.032.787.074,1.178A11.824,11.824,0,0,0,4.664,9.54L2.34,9.555a7.78,7.78,0,0,0-1.6.072.933.933,0,0,0-.722.94c-.044.55-.008,1.113-.018,1.665a1.471,1.471,0,0,0,.308,1.177,1.05,1.05,0,0,0,.643.244c0,1.5.094,3,.191,4.5.105,1.631.238,3.259.385,4.886q.108,1.2.226,2.39a3.837,3.837,0,0,0,.434,1.925A2.206,2.206,0,0,0,3.977,28c.8.05,1.6.1,2.4.142,3.231.162,6.471.178,9.7.024q1.249-.06,2.5-.153a7.1,7.1,0,0,0,2.082-.286,1.9,1.9,0,0,0,1.1-1.329,14.879,14.879,0,0,0,.343-2.2,61.327,61.327,0,0,0,.515-10.777,1.181,1.181,0,0,0,.9-.706,6.842,6.842,0,0,0,.321-1.541A2.848,2.848,0,0,0,23.928,9.734Zm-8.65-3.421c.82-.294,1.643-.577,2.474-.838.216-.068.43-.14.647-.2.156-.046.291-.094.337.1a1.7,1.7,0,0,1-.005.486c-.015.231-.029.463-.045.694-.061.888-.2,1.792-.2,2.683l-.973.009c-1.5.019-3.005.045-4.507.107a6.714,6.714,0,0,0,.051-.685,10.539,10.539,0,0,1,2.291.2c.241.047.343-.325.1-.369a9.44,9.44,0,0,0-2.392-.111c0-.089-.006-.179-.013-.268.818-.3,1.637-.592,2.449-.9.208-.08.119-.417-.093-.338-.8.3-1.6.613-2.391.924a3.942,3.942,0,0,0-.131-.6C13.687,6.942,14.474,6.6,15.278,6.312ZM10.383,7.887A1.18,1.18,0,0,1,11.4,6.923a1.452,1.452,0,0,1,.7,0c.251.088.324.347.377.583a4.685,4.685,0,0,1,.035,1.8.273.273,0,0,0,0,.065q-.985.046-1.968.116A3.585,3.585,0,0,1,10.383,7.887ZM4.666,5.678c.087-.411.427-.382.76-.283A44.511,44.511,0,0,1,10.1,7.283a1.623,1.623,0,0,0-.121.3,1.778,1.778,0,0,0-.062.326c-.651-.315-1.3-.627-1.972-.9-.2-.083-.347.261-.149.353.694.321,1.4.6,2.116.88a2.523,2.523,0,0,0,.054.375,11.565,11.565,0,0,0-1.827-.265c-.206-.022-.2.3,0,.323A10.777,10.777,0,0,0,10,8.79a4.962,4.962,0,0,0,.272.719l-.033,0-.895,0q-2.056.008-4.112.022a13.359,13.359,0,0,1-.561-2.6A4.494,4.494,0,0,1,4.666,5.678Zm-4.015,7.3a.834.834,0,0,1-.126-.525c-.008-.269-.009-.539-.008-.808q0-.369,0-.738c0-.23-.03-.524.216-.638a1.305,1.305,0,0,1,.547-.064c.286,0,.571,0,.857,0q3.277-.049,6.555-.111l.977-.017c.007.484.049.97.076,1.452s.053.982.075,1.474q-3.9.047-7.8.1c-.268,0-.537.009-.805.011C1.035,13.105.787,13.126.651,12.974Zm.66.687c.107,0,.211-.006.31-.007l1.811-.014,1.179-.01c-.549.5-1.06,1.052-1.568,1.582s-.984,1.054-1.449,1.605C1.511,15.764,1.426,14.711,1.311,13.661Zm.417,4.794q-.058-.672-.11-1.344c.542-.565,1.084-1.132,1.635-1.689.6-.61,1.251-1.179,1.845-1.8L6.9,13.61l1.55-.012c-1.123,1.108-2.2,2.267-3.294,3.4S2.975,19.287,1.9,20.452Q1.813,19.453,1.728,18.455ZM2.21,23.64q-.15-1.433-.278-2.867Q3.7,19.038,5.418,17.257C6.6,16.041,7.8,14.846,8.943,13.594l.905-.007q.048,1.115.086,2.231c-1.411,1.343-2.718,2.807-4.06,4.216-1.219,1.28-2.473,2.541-3.635,3.875C2.229,23.819,2.219,23.729,2.21,23.64Zm.43,3.2a3.289,3.289,0,0,1-.179-.911q-.1-.847-.188-1.7c1.34-1.256,2.593-2.614,3.867-3.934s2.59-2.6,3.809-3.971c0,.143.008.286.012.429q.035,1.44.051,2.88C9.426,20.22,8.9,20.872,8.358,21.5q-.9,1.037-1.84,2.046-1.736,1.87-3.543,3.673A.768.768,0,0,1,2.64,26.84Zm7.27.878q-1.069-.014-2.137-.055l-.554-.023a23.038,23.038,0,0,0,1.614-1.728A18.11,18.11,0,0,0,10,24.422C9.977,25.521,9.942,26.62,9.91,27.719Zm.1-3.951c-.494.636-.938,1.316-1.436,1.95-.516.657-1.064,1.293-1.628,1.91q-.736-.035-1.472-.082c-.383-.024-.766-.051-1.148-.085a6.59,6.59,0,0,1-1.046-.127l-.07-.02q1.876-1.695,3.612-3.536.944-1,1.855-2.03c.458-.518.928-1.042,1.341-1.6Q10.034,21.957,10.01,23.768Zm.162-12.144c-.043-.517-.077-1.042-.153-1.558q1.6-.027,3.192-.05.027,1.47.07,2.94l-3,.036Q10.231,12.308,10.172,11.624Zm.224,16.1a110.416,110.416,0,0,0-.072-14.107l0-.034L13.3,13.56c.03,1.053.061,2.106.085,3.16.055,2.347.076,4.7.094,7.044.01,1.309.008,2.618.044,3.926Q11.96,27.733,10.4,27.723ZM13.781,13.7q0-.073-.007-.146H13.9q1.232-.01,2.463-.023c-.432.512-.854,1.034-1.281,1.55-.4.481-.81.962-1.185,1.466Q13.849,15.125,13.781,13.7Zm1.569,1.58c.488-.584.985-1.162,1.464-1.754l2.846-.031c-.17.2-.33.41-.495.611l-.8.967-1.559,1.9C15.865,18.12,14.9,19.256,14,20.446c-.027-1.168-.055-2.337-.092-3.506C14.419,16.417,14.883,15.841,15.35,15.281Zm6.716-.951c-.239.271-.446.585-.662.868l-.852,1.119q-.836,1.1-1.662,2.2c-1.122,1.5-2.22,3.012-3.319,4.527-.518.714-1.026,1.434-1.534,2.155.019-1.48,0-2.962-.03-4.438,1.084-1.167,2.086-2.411,3.111-3.63l1.577-1.877.772-.919c.234-.278.487-.55.7-.848l.778-.009c.37,0,.75.012,1.125,0Q22.068,13.9,22.066,14.33Zm-8.034,11.2c2.246-2.846,4.454-5.725,6.6-8.651l.917-1.254c.163-.223.346-.447.517-.677-.012,1.274-.04,2.546-.1,3.817-.484.678-.907,1.4-1.361,2.1q-.762,1.168-1.54,2.325t-1.576,2.3c-.483.691-1.009,1.37-1.447,2.093q-1.035.056-2.07.09C14,26.962,14.02,26.247,14.032,25.532Zm7.652-2.915c-.079.766-.168,1.532-.274,2.295a4.737,4.737,0,0,1-.432,1.8c-.347.571-1.063.588-1.657.641q-1.171.1-2.345.18l-.64.038c.5-.573.951-1.209,1.4-1.819q.843-1.143,1.649-2.311.792-1.148,1.544-2.322c.331-.517.678-1.034.994-1.566C21.866,20.573,21.789,21.595,21.684,22.616ZM23.34,10.424q-.071.415-.143.83c-.044.257-.084.515-.127.772a1.332,1.332,0,0,1-.2.62c-.255.315-.873.222-1.224.225-2.18.02-4.361.035-6.541.062l-1.364.017c-.052-.981-.114-1.96-.194-2.939,2.752-.041,5.5-.081,8.255-.152.179,0,.358-.013.537-.023l.284.008c.168,0,.588-.057.712.085C23.435,10.041,23.362,10.295,23.34,10.424Z" transform="translate(0)"/>
  </g>
</svg>
