<svg xmlns="http://www.w3.org/2000/svg" width="16" height="16" viewBox="0 0 16 16">
  <g id="Group_3244" data-name="Group 3244" transform="translate(-2 -2)">
    <g id="layer1" transform="translate(2 2)">
      <path id="path1860" d="M10,2a8,8,0,1,0,8,8A8.009,8.009,0,0,0,10,2Zm3.653,3.781a.594.594,0,0,1,.383.177.548.548,0,0,1-.006.814L10.8,10l3.227,3.227a.571.571,0,1,1-.808.808L10,10.808,6.768,14.034a.571.571,0,1,1-.808-.808L9.188,10,5.96,6.772a.571.571,0,1,1,.808-.808L10,9.192l3.227-3.228a.551.551,0,0,1,.431-.183Z" transform="translate(-2 -2)" fill="#f11616"/>
    </g>
  </g>
</svg>
