<svg xmlns="http://www.w3.org/2000/svg" width="16" height="15.998" viewBox="0 0 16 15.998">
  <g id="Group_360" data-name="Group 360" transform="translate(0 -0.037)">
    <path id="Path_8606"
     data-name="Path 8606" 
     d="M9.906,6.722H6.188a.625.625,0,0,1,0-1.25H9.906A.625.625,0,0,1,9.906,6.722ZM16,12.285V7.026a3.772,3.772,0,0,0-1.476-2.982L10.274.8A3.759,3.759,0,0,0,5.726.8L1.476,4.045A3.772,3.772,0,0,0,0,7.026v5.258a3.754,3.754,0,0,0,3.75,3.75h.688A1.564,1.564,0,0,0,6,14.472V11.254a2.031,2.031,0,0,1,4.063,0v3.219a1.564,1.564,0,0,0,1.563,1.563h.625A3.754,3.754,0,0,0,16,12.285ZM4.75,11.254v3.219a.313.313,0,0,1-.312.313H3.75a2.5,2.5,0,0,1-2.5-2.5V7.026a2.514,2.514,0,0,1,.984-1.988L6.484,1.8a2.506,2.506,0,0,1,3.032,0l4.25,3.242a2.514,2.514,0,0,1,.984,1.988v5.258a2.5,2.5,0,0,1-2.5,2.5h-.625a.313.313,0,0,1-.312-.312V11.254a3.281,3.281,0,0,0-6.563,0Z"
      fill="#898989"/>
  </g>
</svg>
