<svg xmlns="http://www.w3.org/2000/svg" width="24" height="23.391" viewBox="0 0 24 23.391">
  <g id="Group_371" data-name="Group 371" transform="translate(0.001 -0.002)">
    <path id="Path_8610" data-name="Path 8610" d="M164.019,273.043l-.209.25a12.994,12.994,0,0,1-5.781,1.261c-.134,0-.259,0-.382,0a23.393,23.393,0,0,1-6.078-1.057l-.227-.067-.064.228a2.173,2.173,0,0,0-.054.544,6.167,6.167,0,0,0,.2,1.63,6.546,6.546,0,0,0,1.845,3.116,6.727,6.727,0,0,0,1.68,1.139l.036.016.039,0,.03.03.038.017a7.323,7.323,0,0,0,4.04.565,5.672,5.672,0,0,0,3.181-1.471,8.48,8.48,0,0,0,1.94-4.6,1.966,1.966,0,0,0-.068-1.308Zm0,0" transform="translate(-144.135 -260.243)" fill="#fff"/>
    <g id="Group_370" data-name="Group 370" transform="translate(2.873 1.713)">
      <path id="Path_8611" data-name="Path 8611" d="M160.457,259.732a29.66,29.66,0,0,0-7.8-.182c-.647.07-1.3.163-1.942.276-.135.024-.278.044-.413.062a4.055,4.055,0,0,0-1.278.317l-.516.271.56.162a23.354,23.354,0,0,0,5.988,1.025c.128,0,.258,0,.386,0a13.141,13.141,0,0,0,5.828-1.269l.371-.185-.349-.223a2.21,2.21,0,0,0-.834-.259Zm0,0" transform="translate(-144.42 -248.927)" fill="#593b15"/>
      <path id="Path_8612" data-name="Path 8612" d="M275.815,88.168a1.1,1.1,0,0,0-.739.318,1.036,1.036,0,0,0-.361.745.808.808,0,0,0,.026.2,1,1,0,0,0,.542.618,1.245,1.245,0,0,0,.543.125,1.132,1.132,0,0,0,.689-.225,1,1,0,0,0,.387-.8.859.859,0,0,0-.34-.7A1.233,1.233,0,0,0,275.815,88.168Zm0,0" transform="translate(-264.712 -85.746)" fill="#593b15"/>
      <path id="Path_8613" data-name="Path 8613" d="M216.046,37.249a1.258,1.258,0,0,0-.719-.641,1.461,1.461,0,0,0-.52-.109,1.166,1.166,0,0,0-.808.361,1.2,1.2,0,0,0-.456.868.807.807,0,0,0,.006.1,1.083,1.083,0,0,0,.471.721,1.483,1.483,0,0,0,.855.277,1.325,1.325,0,0,0,.284-.03,1.268,1.268,0,0,0,.893-.744A1.027,1.027,0,0,0,216.046,37.249Zm0,0" transform="translate(-206.407 -36.5)" fill="#593b15"/>
      <path id="Path_8614" data-name="Path 8614" d="M231.013,119.664c-.025,0-.049,0-.073,0a.672.672,0,0,0-.462.266,1.418,1.418,0,0,0-.265.966.845.845,0,0,0,.564.724.707.707,0,0,0,.194.026.879.879,0,0,0,.455-.134,1,1,0,0,0,.18-1.6.855.855,0,0,0-.592-.254Zm0,0" transform="translate(-222.288 -115.766)" fill="#593b15"/>
      <path id="Path_8615" data-name="Path 8615" d="M129.151,126.447a1.481,1.481,0,0,0-.112-1.861,1.454,1.454,0,0,0-1.036-.438,1.378,1.378,0,0,0-.729.206,1.427,1.427,0,0,0,.145,2.542,1.371,1.371,0,0,0,.56.116A1.485,1.485,0,0,0,129.151,126.447Zm0,0" transform="translate(-123.509 -120.04)" fill="#593b15"/>
      <path id="Path_8616" data-name="Path 8616" d="M66.691,83.173a1.044,1.044,0,0,0-.159-.012c-.7,0-1.064.714-1.189,1.021A1.131,1.131,0,0,0,65.5,85.4a1.041,1.041,0,0,0,.772.3,1.513,1.513,0,0,0,.461-.073,1.529,1.529,0,0,0,.941-.825,1.117,1.117,0,0,0-.044-1A1.3,1.3,0,0,0,66.691,83.173Zm0,0" transform="translate(-65.051 -80.973)" fill="#593b15"/>
      <path id="Path_8617" data-name="Path 8617" d="M62.283,158.473a1.013,1.013,0,0,0-.2.02.916.916,0,0,0-.565.414,1.2,1.2,0,0,0-.191.866,1.105,1.105,0,0,0,.541.743,1.068,1.068,0,0,0,.51.127,1.1,1.1,0,0,0,.721-.264,1.116,1.116,0,0,0,.3-1.2,1.239,1.239,0,0,0-1.111-.7Zm0,0" transform="translate(-61.307 -152.755)" fill="#593b15"/>
    </g>
    <path id="Path_8618" data-name="Path 8618" d="M404.552,293.7a1.929,1.929,0,0,0-1.158-.388,1.884,1.884,0,0,0-.239.015,1.715,1.715,0,0,0-1.209.607l-.146.036-.028.147c-.039.206-.078.4-.118.581l-.109.508.453-.255a1.617,1.617,0,0,1,.738-.219h.036a1.126,1.126,0,0,1,1.011.582,1.315,1.315,0,0,1,.012.992,1.856,1.856,0,0,1-.7.958,1.461,1.461,0,0,1-.8.25,1.255,1.255,0,0,1-.349-.049,1.178,1.178,0,0,1-.626-.454l-.231-.333-.173.367a6.1,6.1,0,0,1-.348.636l-.11.175.16.131a3.016,3.016,0,0,0,1.908.656,2.9,2.9,0,0,0,1.46-.379,3.065,3.065,0,0,0,1.4-3.189A2.331,2.331,0,0,0,404.552,293.7Zm0,0" transform="translate(-381.682 -279.562)" fill="#f0f2fa"/>
    <path id="Path_8619" data-name="Path 8619" d="M129.587,424.495l-.078-.447c-.534-.042-1.075-.074-1.553-.1-.685-.038-1.462-.082-2.236-.163l-.1-.05-.1.047a6.436,6.436,0,0,1-1.781.515,7.322,7.322,0,0,1-4.093-.59l-.047-.022h-.052a19.288,19.288,0,0,0-4.643.651l-.816.219.812.233.205.057-.14.286a9.1,9.1,0,0,0,3.464,1.516,15.923,15.923,0,0,0,3.464.334c.388,0,.789-.009,1.261-.028a14.172,14.172,0,0,0,3.889-.589,6.524,6.524,0,0,0,2.555-1.533l-.176-.263Zm0,0" transform="translate(-108.738 -403.822)" fill="#f0f2fa"/>
    <path id="Path_8620" data-name="Path 8620" d="M19.112,5.98A5.034,5.034,0,0,0,15.988,5c-.164,0-.333.007-.5.019a4.166,4.166,0,0,0-1.251.265,5.33,5.33,0,0,0-2.264,1.979l-.157.233.307.135h0c-.1-.044-.2-.086-.31-.123A5.661,5.661,0,0,0,9.935,7.2c-.167,0-.335.007-.5.019a4.2,4.2,0,0,0-1.251.265,5.785,5.785,0,0,0-2.629,2.586,4.574,4.574,0,0,0-.168,4.058A4.815,4.815,0,0,0,9.12,16.59a5.952,5.952,0,0,0,.784.053,5.219,5.219,0,0,0,2.722-.733,4.721,4.721,0,0,0,1.643-1.718,4.847,4.847,0,0,0,.286-.6l0,.008c-.01.025-.02.05-.031.077l-.017.042-.042.1-.008.019c-.017.037-.034.074-.052.111l-.127.259.28.07a5.51,5.51,0,0,0,.618.118,5.963,5.963,0,0,0,.785.053,5.219,5.219,0,0,0,2.722-.733,4.7,4.7,0,0,0,.433-7.73Zm-4.89,3.53-.062-.1Zm-.1-.165-.03-.046Zm-.075-.113L14.021,9.2Zm-.09-.128-.01-.013Zm-.091-.121-.01-.012Zm-.084-.1-.016-.019Zm-.093-.109-.011-.012Zm-.12-.131q-.048-.051-.1-.1Q13.521,8.59,13.569,8.64Zm-.379-.356q-.065-.054-.13-.105L13,8.135l.06.044Q13.126,8.231,13.191,8.285Zm.25.226-.093-.088Zm-.124-.116c-.034-.03-.068-.06-.1-.09Q13.267,8.349,13.317,8.395Zm-.568-.434,0,0-.1-.061h0Zm-.14-.086,0,0L12.486,7.8l.007,0ZM12.277,7.7l0,0-.088-.041Zm.173.088-.11-.057ZM9.33,13.991a.948.948,0,0,1-.627.231.937.937,0,0,1-.445-.111.965.965,0,0,1-.471-.649,1.074,1.074,0,0,1,.171-.76.778.778,0,0,1,.476-.354.872.872,0,0,1,.174-.017,1.089,1.089,0,0,1,.979.613.958.958,0,0,1-.257,1.047Zm.793-3.745a1.389,1.389,0,0,1-.856.746,1.319,1.319,0,0,1-.41.066.938.938,0,0,1-.677-.256,1,1,0,0,1-.127-1.068c.246-.6.621-.934,1.056-.934a.916.916,0,0,1,.14.011,1.153,1.153,0,0,1,.835.558.982.982,0,0,1,.038.876Zm3.038,2.55a1.337,1.337,0,0,1-1.054.51A1.247,1.247,0,0,1,11.6,13.2a1.286,1.286,0,0,1-.127-2.294,1.236,1.236,0,0,1,.654-.185,1.313,1.313,0,0,1,.936.4,1.335,1.335,0,0,1,.1,1.678Zm1.086-3.244.04.072Zm.63,2.165c0,.007,0,.014,0,.02S14.877,11.724,14.877,11.717Zm0,.293c0,.016,0,.031,0,.047C14.878,12.042,14.879,12.026,14.879,12.011Zm-.023-.57,0,.031Zm0,.9c0,.022,0,.044-.007.065C14.856,12.38,14.858,12.358,14.86,12.337Zm-.046-1.21c0,.023.008.045.011.068C14.821,11.172,14.818,11.15,14.814,11.127Zm-.1-.446q.04.147.07.3Q14.755,10.827,14.715,10.681Zm-.144,2.87,0,.006-.008.021q.021-.054.041-.109l0,.007C14.59,13.5,14.581,13.526,14.571,13.551Zm.043-.117.008-.024-.008.023Zm-.309-3.775.041.077Zm.053.1q.1.189.175.385Q14.455,9.949,14.359,9.76Zm.177.39q.082.2.145.415Q14.619,10.355,14.537,10.151Zm.12,3.158,0,.01q.016-.049.031-.1l0,.008Zm.034-.111c.011-.038.022-.076.032-.114-.009.035-.019.07-.029.1Zm-.009-2.632c.01.034.02.067.029.1C14.7,10.634,14.692,10.6,14.682,10.567Zm.043,2.513c.006-.023.012-.046.017-.069l-.015.059Zm.038-.152v0Zm.015-.069.008-.038v0Zm.013-.06c.005-.026.01-.051.015-.077,0,.019-.007.038-.011.057Zm0-1.8c.005.026.01.051.015.077C14.8,11.051,14.8,11.025,14.79,11Zm.026,1.662.007-.043-.005.035Zm.021-.133v.01c0-.031.008-.063.012-.094v.007C14.844,12.478,14.841,12.5,14.837,12.529Zm0-1.265.008.053Zm.03,1.022c0-.023,0-.047,0-.07,0,.021,0,.043,0,.064Zm0-.712c0,.011,0,.023,0,.034C14.87,11.6,14.869,11.585,14.868,11.574Zm2.258-.17a.9.9,0,0,1-.43.7.749.749,0,0,1-.384.114.576.576,0,0,1-.154-.021.7.7,0,0,1-.463-.606,1.262,1.262,0,0,1,.235-.861.528.528,0,0,1,.366-.214c.02,0,.041,0,.061,0a.705.705,0,0,1,.493.214.9.9,0,0,1,.276.677Zm.019-3.426a1.107,1.107,0,0,1-.792.658,1.187,1.187,0,0,1-.252.026,1.345,1.345,0,0,1-.775-.251.942.942,0,0,1-.413-.624,1.033,1.033,0,0,1,.4-.85,1.037,1.037,0,0,1,.711-.324,1.35,1.35,0,0,1,.473.1,1.118,1.118,0,0,1,.641.566.886.886,0,0,1,0,.7Zm2.2,2.59a.994.994,0,0,1-.605.2,1.1,1.1,0,0,1-.48-.11.845.845,0,0,1-.467-.527.832.832,0,0,1,.293-.808.958.958,0,0,1,.643-.286A1.122,1.122,0,0,1,19.4,9.3a.73.73,0,0,1,.285.587.861.861,0,0,1-.332.683Zm0,0" transform="translate(-4.758 -4.76)" fill="#f7b36f"/>
    <path id="Path_8621" data-name="Path 8621" d="M131.172,257.909a2.567,2.567,0,0,0-.919-1.512,2.273,2.273,0,0,0-2.588-.051,1.458,1.458,0,0,0-.3-1.11,1.881,1.881,0,0,0-1.174-.5,29.862,29.862,0,0,0-7.863-.184c-.653.071-1.312.165-1.958.279-.125.022-.261.041-.4.061a4.137,4.137,0,0,0-1.376.352,1.182,1.182,0,0,0-.492,1.16,6.426,6.426,0,0,0,.208,1.692,6.783,6.783,0,0,0,1.913,3.229,6.853,6.853,0,0,0,1.015.779,19.607,19.607,0,0,0-4.552.827.234.234,0,0,0-.092.392,8.891,8.891,0,0,0,4.293,2.182,16.353,16.353,0,0,0,3.515.339c.452,0,.879-.012,1.27-.028a14.383,14.383,0,0,0,3.953-.6,6.283,6.283,0,0,0,3.272-2.347.234.234,0,0,0-.171-.363c-.769-.079-1.52-.121-2.246-.163-.538-.03-1.09-.062-1.651-.108a4.825,4.825,0,0,0,1.232-1.151,3.253,3.253,0,0,0,2.02.691,3.153,3.153,0,0,0,1.585-.417A3.264,3.264,0,0,0,131.172,257.909Zm-3.85.387a1.571,1.571,0,0,1,.981-.444.9.9,0,0,1,.83.449,1.125,1.125,0,0,1,0,.814,1.624,1.624,0,0,1-.61.838,1.162,1.162,0,0,1-.957.171.891.891,0,0,1-.626-.654.21.21,0,0,0-.009-.029,10.822,10.822,0,0,0,.349-1.115A.234.234,0,0,0,127.322,258.3Zm-11.294-2.946c.148-.021.288-.04.422-.063.636-.112,1.284-.2,1.927-.274a29.381,29.381,0,0,1,7.739.181,1.839,1.839,0,0,1,.7.266,11.582,11.582,0,0,1-4.569,1.194,20.681,20.681,0,0,1-5.066-.367,10.34,10.34,0,0,1-2.3-.626,2.817,2.817,0,0,1,1.145-.31Zm9.442,9.414a13.961,13.961,0,0,1-3.824.577,18.371,18.371,0,0,1-4.665-.3,8.909,8.909,0,0,1-3.027-1.25,26.333,26.333,0,0,0,6.47.721q.3,0,.6,0a18.363,18.363,0,0,0,6.636-1.1A5.08,5.08,0,0,1,125.47,264.764Zm.977-1.961c.422.024.831.071,1.248.086a17.547,17.547,0,0,1-6.677,1.15,25.908,25.908,0,0,1-7.434-.831,8.01,8.01,0,0,1,2.149-.483,16.668,16.668,0,0,1,2.315-.183,7.557,7.557,0,0,0,4.225.609,6.726,6.726,0,0,0,1.846-.534.229.229,0,0,0,.082.025c.768.079,1.52.121,2.246.163Zm-1.191-1.523a5.441,5.441,0,0,1-3.05,1.406,7.079,7.079,0,0,1-3.91-.547.233.233,0,0,0-.139-.065,6.49,6.49,0,0,1-1.621-1.1,6.308,6.308,0,0,1-1.778-3,6.043,6.043,0,0,1-.183-1.145,2.047,2.047,0,0,1,0-.794,10.363,10.363,0,0,0,2.525.714,23.151,23.151,0,0,0,4.1.409c.366,0,.725-.012,1.078-.035a11.976,11.976,0,0,0,4.868-1.307,1.75,1.75,0,0,1-.012.99,8.291,8.291,0,0,1-1.875,4.475Zm4.168-.335a2.83,2.83,0,0,1-3.1-.255,6.342,6.342,0,0,0,.361-.661,1.405,1.405,0,0,0,.753.545,1.481,1.481,0,0,0,.414.058,1.689,1.689,0,0,0,.935-.29,2.092,2.092,0,0,0,.794-1.078,1.549,1.549,0,0,0-.024-1.169,1.363,1.363,0,0,0-1.265-.712,1.842,1.842,0,0,0-.846.249c.042-.2.081-.393.118-.587a.233.233,0,0,0,.13-.082,1.469,1.469,0,0,1,1.053-.52,1.691,1.691,0,0,1,1.226.327,2.1,2.1,0,0,1,.744,1.238A2.822,2.822,0,0,1,129.424,260.946Zm0,0" transform="translate(-107.242 -242.445)"/>
    <path id="Path_8622" data-name="Path 8622" d="M9.622,9.707a5.753,5.753,0,0,0,.762.156,6.17,6.17,0,0,0,.815.054,5.462,5.462,0,0,0,2.844-.767A5,5,0,0,0,16.4,5.212a5,5,0,0,0-1.9-4.177A5.459,5.459,0,0,0,10.712.022,4.393,4.393,0,0,0,9.392.3,5.656,5.656,0,0,0,6.958,2.465a6.114,6.114,0,0,0-2.3-.244A4.431,4.431,0,0,0,3.34,2.5,6.032,6.032,0,0,0,.591,5.2,4.811,4.811,0,0,0,.42,9.466a5.05,5.05,0,0,0,3.911,2.6,6.157,6.157,0,0,0,.814.054,5.466,5.466,0,0,0,2.845-.767A4.943,4.943,0,0,0,9.622,9.707ZM9.567.737A3.94,3.94,0,0,1,10.749.489a4.993,4.993,0,0,1,3.462.916,4.527,4.527,0,0,1,1.724,3.781A4.528,4.528,0,0,1,13.8,8.75a5.147,5.147,0,0,1-3.354.648,5.25,5.25,0,0,1-.592-.114q.028-.057.055-.116l.01-.022q.023-.05.044-.1l.017-.041.034-.083.018-.046.03-.08.017-.047.028-.081.015-.046c.01-.029.018-.058.027-.087l.012-.04q.017-.057.032-.114l0-.013q.017-.065.033-.13l.007-.029q.012-.049.022-.1l.009-.043c.006-.029.011-.057.016-.086l.008-.048q.007-.041.013-.083c0-.016,0-.032.007-.049s.008-.055.011-.083,0-.031.006-.047.006-.06.009-.09l0-.04c0-.043.007-.086.009-.13a5,5,0,0,0-1.9-4.178q-.067-.051-.135-.1L8.266,3.1l-.1-.066L8.118,3l-.1-.061-.049-.029-.127-.072-.022-.012q-.075-.04-.151-.078l-.048-.023-.109-.051-.058-.026L7.41,2.63A5.117,5.117,0,0,1,9.567.737ZM4.393,11.6A4.58,4.58,0,0,1,.841,9.26a4.336,4.336,0,0,1,.165-3.846A5.542,5.542,0,0,1,3.514,2.937,3.977,3.977,0,0,1,4.7,2.688c.161-.012.322-.019.481-.019a5.392,5.392,0,0,1,1.8.3A4.244,4.244,0,0,1,8.158,3.6a4.317,4.317,0,0,1,.5.455,4.551,4.551,0,0,1,1.23,3.055q0,.135-.007.271h0a4.549,4.549,0,0,1-2.135,3.564,5.148,5.148,0,0,1-3.353.648Zm0,0" transform="translate(0 0)"/>
    <path id="Path_8623" data-name="Path 8623" d="M60.6,154.584a1.062,1.062,0,0,0-1.332.8,1.324,1.324,0,0,0,.239,1.191h0a1.066,1.066,0,0,0,.424.338.958.958,0,0,0,.374.072,1.246,1.246,0,0,0,.325-.045,1.342,1.342,0,0,0,.862-.7,1.061,1.061,0,0,0,.019-.915A1.424,1.424,0,0,0,60.6,154.584Zm.468,1.46a.868.868,0,0,1-.56.447.621.621,0,0,1-.4-.007.606.606,0,0,1-.235-.194.867.867,0,0,1-.16-.768.6.6,0,0,1,.752-.487.964.964,0,0,1,.613.488A.6.6,0,0,1,61.071,156.044Zm0,0" transform="translate(-56.444 -147.294)"/>
    <path id="Path_8624" data-name="Path 8624" d="M62.554,79.261a1.421,1.421,0,0,0-1.328-.976,1.328,1.328,0,0,0-1.23.576,1.913,1.913,0,0,0-.422.905,1.313,1.313,0,0,0,.307,1.15,1.365,1.365,0,0,0,.984.352c.04,0,.08,0,.117,0a1.776,1.776,0,0,0,.813-.223,1.667,1.667,0,0,0,.7-.89,1.5,1.5,0,0,0,.061-.893Zm-.5.735a1.2,1.2,0,0,1-.494.643,1.317,1.317,0,0,1-.6.159,1.01,1.01,0,0,1-.744-.211.85.85,0,0,1-.177-.742,1.441,1.441,0,0,1,.32-.682.879.879,0,0,1,.807-.413c.528.072.844.285.939.634A1.058,1.058,0,0,1,62.052,80Zm0,0" transform="translate(-56.761 -74.603)"/>
    <path id="Path_8625" data-name="Path 8625" d="M125.164,122.3a1.657,1.657,0,0,0,.047-1.673,1.738,1.738,0,0,0-1.622-.853,2.016,2.016,0,0,0-1.363,1.309,1.555,1.555,0,0,0,.168,1.214,1.634,1.634,0,0,0,1.277.757c.033,0,.065,0,.1,0A1.675,1.675,0,0,0,125.164,122.3Zm-.395-.253a1.215,1.215,0,0,1-1.069.539,1.158,1.158,0,0,1-.907-.535,1.077,1.077,0,0,1-.117-.842,1.587,1.587,0,0,1,.995-.974,1.289,1.289,0,0,1,1.132.623A1.177,1.177,0,0,1,124.77,122.049Zm0,0" transform="translate(-116.445 -114.143)"/>
    <path id="Path_8626" data-name="Path 8626" d="M211.792,34.511a1.422,1.422,0,0,0,.8.242,1.472,1.472,0,0,0,.894-.3,1.4,1.4,0,0,0,.527-.847,1.251,1.251,0,0,0-.237-.987,1.755,1.755,0,0,0-.448-.381,1.3,1.3,0,0,0-1.2-.181,1.486,1.486,0,0,0-.852.829A1.407,1.407,0,0,0,211.792,34.511Zm-.077-1.454a1.017,1.017,0,0,1,.587-.56.841.841,0,0,1,.777.14,1.333,1.333,0,0,1,.333.277.776.776,0,0,1,.144.613.931.931,0,0,1-.351.559,1.013,1.013,0,0,1-1.147.04.94.94,0,0,1-.343-1.068Zm0,0" transform="translate(-201.294 -30.482)"/>
    <path id="Path_8627" data-name="Path 8627" d="M273.583,86.093a1.249,1.249,0,0,0,.923.4,1.18,1.18,0,0,0,.567-.142,1.2,1.2,0,0,0,.555-1.409,1.424,1.424,0,0,0-1.086-.847.951.951,0,0,0-1.113.634,1.332,1.332,0,0,0-.071.992A1.116,1.116,0,0,0,273.583,86.093Zm.272-1.168c.071-.155.219-.391.459-.391a.408.408,0,0,1,.105.014c.423.114.68.3.764.546a.744.744,0,0,1-.336.847.778.778,0,0,1-.917-.162.658.658,0,0,1-.132-.216h0a.876.876,0,0,1,.056-.638Zm0,0" transform="translate(-260.482 -80.123)"/>
    <path id="Path_8628" data-name="Path 8628" d="M227.632,115.3a1.649,1.649,0,0,0-.636,1,1.36,1.36,0,0,0,.056.585.963.963,0,0,0,.224.413.851.851,0,0,0,.5.23,1.084,1.084,0,0,0,.148.01,1.114,1.114,0,0,0,1.028-.665,1.365,1.365,0,0,0-.261-1.306A.76.76,0,0,0,227.632,115.3Zm.88,1.4a.649.649,0,0,1-.677.365.4.4,0,0,1-.227-.1.506.506,0,0,1-.107-.216.92.92,0,0,1-.041-.386,1.178,1.178,0,0,1,.451-.689.151.151,0,0,1,.092-.03.49.49,0,0,1,.309.2.941.941,0,0,1,.2.851Zm0,0" transform="translate(-216.345 -109.779)"/>
  </g>
</svg>
