<svg xmlns="http://www.w3.org/2000/svg" width="27.577" height="32" viewBox="0 0 27.577 32">
  <g id="Group_2211" data-name="Group 2211" transform="translate(-35.388 0)">
    <path id="Path_66968" data-name="Path 66968" d="M141.078,6.634l-5.29-.19-6.28-.152-2.017.19-1.713.8-.266,10.01-.076,12.141.457,6.737.761.761,3.159.533,10.962-.419.875-1.332.152-9.591.457-11.723-.533-6.889-.152-.837Z" transform="translate(-84.419 -5.898)" fill="#faf6f1"/>
    <g id="Group_2210" data-name="Group 2210" transform="translate(42.274 1.704)">
      <path id="Path_66969" data-name="Path 66969" d="M159.215,27.4l-2.794-.132-1.028.764-4.956.211-.87-.817-2.952.132-.738.5-.158,1.555-.158,3.374.158,3.875,13.944.132.158-2.03-.026-4.27-.211-2.557Z" transform="translate(-145.561 -27.267)" fill="#d8deec"/>
      <path id="Path_66970" data-name="Path 66970" d="M147.669,324.94l.448,8.145.712.923,1.265.316,10.412-.369.685-.975.185-1.16-.105-7.222Z" transform="translate(-147.537 -306.014)" fill="#d8deec"/>
    </g>
    <path id="Path_66971" data-name="Path 66971" d="M68.25,181.2l-23.96.4-1.819.87-.237,6.722,1.107.949,24.224-.29,1.213-1.054.132-2.32-.343-4.481Z" transform="translate(-6.418 -169.879)" fill="#ffe3ac"/>
    <path id="Path_66973" data-name="Path 66973" d="M62.887,14.358c-.056-.659-.144-1.317-.264-1.968-.1-.52-.191-1.1-.739-1.318a5.109,5.109,0,0,0-1.831-.11q-.954,0-1.908.019A52.44,52.44,0,0,0,57.9,3.422c-.064-.618-.133-1.236-.218-1.851a1.619,1.619,0,0,0-.57-1.184A2.985,2.985,0,0,0,55.479.155L53.488.122C50.911.079,48.334.029,45.757,0a10.5,10.5,0,0,0-3.384.363A2.088,2.088,0,0,0,41.1,1.2a4.16,4.16,0,0,0-.241,1.729c-.07,1.453-.118,2.909-.115,4.363a32.082,32.082,0,0,0,.182,3.9l-.2.006a11.572,11.572,0,0,0-3.743.434,1.964,1.964,0,0,0-1.165.995,5.52,5.52,0,0,0-.328,1.682,19.473,19.473,0,0,0-.01,3.89,3.816,3.816,0,0,0,.354,1.7,1.784,1.784,0,0,0,1.309.617,26.273,26.273,0,0,0,3.6.245c-.043,2.5.186,5.01.328,7.5.036.622.049,1.251.111,1.871a1.442,1.442,0,0,0,.67,1.167,4.331,4.331,0,0,0,1.488.47,13.5,13.5,0,0,0,1.76.2,68.714,68.714,0,0,0,7.567-.249q.944-.056,1.888-.107a6.533,6.533,0,0,0,1.693-.17c1.072-.359,1.347-1.5,1.422-2.5.107-1.426.162-2.858.175-4.287.013-1.374.031-2.765-.086-4.136.514-.017,1.027-.037,1.54-.068a11.761,11.761,0,0,0,1.8-.177,2.354,2.354,0,0,0,1.718-2.155A15.89,15.89,0,0,0,62.887,14.358ZM41.526,4.4q.044-.9.1-1.8c.035-.542-.027-1.088.5-1.4A6.069,6.069,0,0,1,45.244.591C47.606.6,49.971.7,52.333.748l3.6.078a1.74,1.74,0,0,1,.758.085A.759.759,0,0,1,57,1.483c.11.552.151,1.128.206,1.687A55.631,55.631,0,0,1,57.4,11l-.758.019a47.6,47.6,0,0,0-.018-7.173,10.277,10.277,0,0,0-.164-1.56.947.947,0,0,0-.783-.761,8.536,8.536,0,0,0-1.614-.033,2.19,2.19,0,0,0-1.36.251c-.181.143-.3.352-.49.484a1.534,1.534,0,0,1-.776.215c-.565.038-1.139,0-1.7,0-.618-.005-1.235-.007-1.853-.015a2.978,2.978,0,0,1-.627-.051.966.966,0,0,1-.6-.445c-.274-.369-.688-.351-1.11-.345a15.038,15.038,0,0,0-1.79.136,1.9,1.9,0,0,0-1.211.5,1.814,1.814,0,0,0-.4,1.146c-.071,1.322,0,2.668.013,3.992.006.711.014,1.423.021,2.134.006.556,0,1.115.044,1.669q-.464.01-.929.023C41.473,8.926,41.416,6.656,41.526,4.4Zm1.136,3.794c.006-1.143,0-2.285,0-3.428,0-.512-.03-1.035.02-1.545A1.031,1.031,0,0,1,43.454,2.2a7.578,7.578,0,0,1,1.657-.221c.247-.012.5-.022.744-.015.341.01.425.131.618.382.513.669,1.637.5,2.367.506l1.725.021a5.959,5.959,0,0,0,1.318-.062A1.884,1.884,0,0,0,52.9,2.182c.354-.368,1.006-.267,1.476-.269q.4,0,.8.008c.245.006.562-.014.743.181a1.069,1.069,0,0,1,.188.6c.035.3.054.593.076.89a46.907,46.907,0,0,1-.027,7.443c-.729.023-1.458.053-2.185.1l-.082.005c-3.046-.02-6.093-.013-9.137-.006q-1.059,0-2.118.021C42.7,10.17,42.657,9.171,42.662,8.193ZM56.977,27.407c-.019.568-.033,1.138-.076,1.7a2.167,2.167,0,0,1-.489,1.391,2.068,2.068,0,0,1-1.42.37c-.587.039-1.174.078-1.762.114-2.344.142-4.693.334-7.042.323a12.429,12.429,0,0,1-3.367-.372c-.421-.12-.855-.269-.935-.752-.094-.564-.084-1.163-.121-1.734-.166-2.556-.252-5.145-.605-7.685q.543.01,1.085.016c.01,2.068.131,4.139.211,6.205.033.866-.095,1.993.615,2.636a3.8,3.8,0,0,0,2.548.624c2.2.069,4.394.005,6.587-.095q.831-.038,1.662-.083a4.514,4.514,0,0,0,1.455-.176c.831-.34.974-1.328,1.017-2.115.13-2.4.162-4.827.055-7.226l.6-.019c-.007,1.113.042,2.228.042,3.341Q57.036,25.641,56.977,27.407ZM55.83,26.328c-.013.5-.027,1-.055,1.5a2.523,2.523,0,0,1-.307,1.285c-.278.411-.774.39-1.219.417q-.767.047-1.534.09c-2,.111-4.006.188-6.012.164-.469-.006-.938-.015-1.407-.034a3.9,3.9,0,0,1-1.485-.244c-.928-.429-.826-1.463-.869-2.331-.107-2.129-.171-4.268-.349-6.393,2.207.022,4.415,0,6.622-.038s4.416-.108,6.624-.177C55.808,22.489,55.879,24.408,55.83,26.328Zm6.322-9.655c-.021.818.033,2.11-.708,2.668a3.16,3.16,0,0,1-1.652.365c-.6.046-1.2.074-1.8.1q-3.744.142-7.489.235c-2.484.063-4.968.1-7.453.094-1.254,0-2.51-.009-3.763-.06a15.59,15.59,0,0,1-1.846-.165,3.89,3.89,0,0,1-.739-.159.7.7,0,0,1-.442-.62,14.616,14.616,0,0,1-.214-3.588,16.824,16.824,0,0,1,.2-1.816,1.55,1.55,0,0,1,.677-1.269,8.211,8.211,0,0,1,3.484-.51c1.232-.05,2.465-.073,3.7-.092,2.5-.038,5-.05,7.5-.077s5.02-.009,7.525-.1l.656-.023c.506.012,1.016.02,1.518.067.269.025.381.092.442.361.071.315.124.637.175.956A19.656,19.656,0,0,1,62.152,16.673Z" transform="translate(0 0)"/>
    <path id="Path_66974" data-name="Path 66974" d="M201.246,71.2c2.447.023,4.9.2,7.344.117a.241.241,0,0,0,0-.482c-2.448-.079-4.9.094-7.344.117A.124.124,0,0,0,201.246,71.2Z" transform="translate(-155.38 -66.392)"/>
    <path id="Path_66975" data-name="Path 66975" d="M201.246,90.978c2.447.023,4.9.2,7.344.117a.241.241,0,0,0,0-.482c-2.448-.079-4.9.094-7.344.117A.124.124,0,0,0,201.246,90.978Z" transform="translate(-155.38 -84.93)"/>
    <path id="Path_66976" data-name="Path 66976" d="M201.246,110.751c2.447.023,4.9.2,7.344.117a.241.241,0,0,0,0-.482c-2.448-.079-4.9.094-7.344.117A.124.124,0,0,0,201.246,110.751Z" transform="translate(-155.38 -103.468)"/>
    <path id="Path_66977" data-name="Path 66977" d="M205.96,445.407c-.776-.025-1.552-.025-2.328-.012-1.681-.031-3.369.034-5.047.084a.274.274,0,0,0,0,.548c1.732-.045,3.467-.066,5.2-.125.725.01,1.451.009,2.176-.014A.241.241,0,0,0,205.96,445.407Z" transform="translate(-152.749 -417.55)"/>
    <path id="Path_66983" data-name="Path 66983" d="M106.838,212.557c-3.483-.071-6.986-.164-10.472-.154s-6.982.059-10.472.128c-.343.007-.344.319,0,.326,3.49.069,6.98.118,10.472.128s6.988-.083,10.472-.154C107.125,212.824,107.126,212.563,106.838,212.557Z" transform="translate(-47.108 -199.127)"/>
    <path id="Path_66984" data-name="Path 66984" d="M106.838,238.3c-3.483-.071-6.986-.164-10.472-.154s-6.982.059-10.472.127c-.343.007-.344.319,0,.326,3.49.069,6.98.118,10.472.128s6.988-.083,10.472-.154C107.125,238.563,107.126,238.3,106.838,238.3Z" transform="translate(-47.108 -223.258)"/>
    <path id="Path_66985" data-name="Path 66985" d="M106.838,264.036c-3.483-.071-6.986-.164-10.472-.154s-6.982.059-10.472.128c-.343.007-.344.319,0,.326,3.49.069,6.98.118,10.472.127s6.988-.083,10.472-.154C107.125,264.3,107.126,264.042,106.838,264.036Z" transform="translate(-47.108 -247.389)"/>
    <path id="Path_66986" data-name="Path 66986" d="M106.838,289.776c-3.483-.071-6.986-.164-10.472-.154s-6.982.059-10.472.128c-.343.007-.344.319,0,.326,3.49.069,6.98.118,10.472.128s6.988-.083,10.472-.154C107.125,290.043,107.126,289.782,106.838,289.776Z" transform="translate(-47.108 -271.52)"/>
  </g>
</svg>
