<svg xmlns="http://www.w3.org/2000/svg" width="14.252" height="16" viewBox="0 0 14.252 16">
  <g id="Group_1860" data-name="Group 1860" transform="translate(0 0.001)">
    <path id="Path_56021" data-name="Path 56021" d="M27.29,309.23a4.935,4.935,0,0,0-1.752-.6L25.3,308.6l.07.228a2.488,2.488,0,0,1,.107.912l-.015.208c-.63.13-1.277.232-1.926.3a20.73,20.73,0,0,1-2.2.119h0a20.156,20.156,0,0,1-4.234-.45l-.044-.232a1.759,1.759,0,0,1,.073-.9l.081-.234-.246.028a4.392,4.392,0,0,0-1.688.559l-.263.15.273.126-.007,0,0,0a.551.551,0,0,0-.213-.067H15.04l-.055.006-.039.039a.229.229,0,0,0-.036.048,1.176,1.176,0,0,0,.016.689l.006.032c0,.019.007.037.01.053a3.778,3.778,0,0,0,.2.725,4.272,4.272,0,0,0,.5.926l.065.09.107-.032.028-.008.013,0,.1-.025.015,0,.033-.007h0l.014,0h0l.028,0,.021,0,.031,0,.02,0,.036,0,.016,0,.05,0h.13l.035,0,.019,0,.03,0,.023,0,.031.006.018,0,.051.014.054.017.021.008.037.014.006,0,.016.006.031.013.053.025.019.01.032.016.023.014.026.016.021.013.029.019.018.013,0,0,.025.018L17,312.1l.033.025.018.015.026.021.019.017.024.021.02.019.022.022.017.018.021.023.021.024.016.02,0,0,.016.02.018.024,0,0,.013.017.008.011.013.018.016.023.017.025.015.023.019.031.012.021,0,0,.014.024,0,0,.013.023.015.03.013.026.014.032.012.027.013.031.012.029.012.032v0l.009.024v0l.011.034.009.029.011.037.007.025.012.045.006.023.009.039v0l.005.024c0,.013.005.025.007.038v0l.005.027c0,.011,0,.022.005.034l0,.011,0,.027.005.042v0c0,.008,0,.017,0,.025s0,.031,0,.048l0,.021v.1l.093.041a8,8,0,0,0,3.24.609c.135,0,.273,0,.41-.007a7.57,7.57,0,0,0,3.468-.842,5.5,5.5,0,0,0,2.663-3.6l.055-.252.073-.02Zm-11.933.223-.07-.03.07.03a5.286,5.286,0,0,0,.518.166,5.326,5.326,0,0,1-.518-.166Zm.818.247-.015,0,.015,0,.031.008Zm.254.065.1.026Zm.345.083.051.012Zm8.788.081.1-.022-.081.018Zm.38-.085.182-.043Zm-.272.062.226-.051Zm.87-.21.048-.013h0Zm-.3.077.112-.028Zm.474-.119-.015,0,.015,0c.234-.054.411-.1.542-.133h0C27.136,309.553,26.964,309.6,26.717,309.652Zm0,0" transform="translate(-14.402 -298.918)" fill="#b2eaf9"/>
    <path id="Path_56022" data-name="Path 56022" d="M11.914,394.285h-.106l-.022,0-.046.009-.02,0-.064.015-.014,0-.054.015-.021.006-.047.015-.02.006-.069.024c-.059.022-.119.048-.177.076h0l.166-.079-.1-.151a4.423,4.423,0,0,1-.26-.426l-.087-.164-.146.113a.515.515,0,0,0,.017.833l.085.061.089-.056a2.337,2.337,0,0,1,.231-.127,2.076,2.076,0,0,0-.639.464,1.353,1.353,0,0,0-.135.183l0,.005,0,.005a.28.28,0,0,0-.022.188.316.316,0,0,0,.153.21.338.338,0,0,0,.16.039.416.416,0,0,0,.287-.119.507.507,0,0,0,.125-.221.285.285,0,0,0,.156.1.263.263,0,0,0,.059.006.3.3,0,0,0,.276-.185.3.3,0,0,0-.009-.226h.02a.361.361,0,0,0,.286-.135.371.371,0,0,0,0-.427Zm0,0" transform="translate(-10.113 -381.341)" fill="#cbe580"/>
    <path id="Path_56023" data-name="Path 56023" d="M84.048,176.153l.109.023a20.176,20.176,0,0,0,4.13.427,20.63,20.63,0,0,0,2.2-.119c.6-.065,1.213-.159,1.807-.278l.111-.022.013-.113a2.563,2.563,0,0,0-.837-2.167,5.041,5.041,0,0,0-1.3-.74l-.186-.083c-.112-.051-.245-.111-.381-.18l-.069-.035-.07.034c-.046.022-.089.047-.132.073l.174-.114-.212-.129a2.555,2.555,0,0,1-.705-.6,1.62,1.62,0,0,1-.328-.787,1.276,1.276,0,0,1,.021-.448l.1-.414-.343.253a2.38,2.38,0,0,0-.724,1.072c-.03.076-.059.154-.088.231l0,0a2.882,2.882,0,0,1-.753,1.285,2.664,2.664,0,0,1-.928.433l-.486.154.456.136a1.412,1.412,0,0,0-.366-.051.915.915,0,0,0-.376.072l-.036.006-.031.018-.016.009a1.8,1.8,0,0,0-.765,1.937Zm4.906-2.792.016-.014-.016.014a3.344,3.344,0,0,1-.377.3A3.366,3.366,0,0,0,88.954,173.361Zm-.468,2.026h.082a2.638,2.638,0,0,0,.448-.053,2.642,2.642,0,0,1-.449.053h-.082Zm-.522-1.521a.992.992,0,0,0,.311-.053.948.948,0,0,1-.309.053.7.7,0,0,1-.373-.1A.7.7,0,0,0,87.964,173.866Zm-.948,1.082a2.655,2.655,0,0,0,.462.241,2.633,2.633,0,0,1-.462-.241l-.038-.025Zm-.42-.318-.028-.023Zm0,0" transform="translate(-81.354 -165.15)" fill="#fff"/>
    <path id="Path_56024" data-name="Path 56024" d="M299.971,184.34l.137.1.457-.755-.174-.067a.611.611,0,0,1-.058-.026.415.415,0,0,1-.1-.075l-.135-.136-.508.767.168.075A1.352,1.352,0,0,1,299.971,184.34Zm0,0" transform="translate(-290.225 -177.646)" fill="#bfc7d8"/>
    <path id="Path_56025" data-name="Path 56025" d="M248.494,207.718l.131.081.083-.13a1.231,1.231,0,0,1,.811-.548l.028,0c.006,0,.017,0,.02,0s0,.029-.019.061l-.492.833.16.072.127.056.129.056.409-.713c.024-.042.057-.091.1-.091s.075.073.086.1a1.21,1.21,0,0,1-.014.822l-.048.127.119.066c.076.042.144.082.209.124l.132.084.084-.132a1.292,1.292,0,0,0-1.1-1.99c-.038,0-.076,0-.113.005a1.328,1.328,0,0,0-1.077.807l-.047.115.1.072C248.367,207.638,248.427,207.677,248.494,207.718Zm0,0" transform="translate(-240.451 -200.143)" fill="#bfc7d8"/>
    <path id="Path_56026" data-name="Path 56026" d="M319.732,5.185a.847.847,0,0,0-.514-.162,1.236,1.236,0,0,0-.641.19,1.91,1.91,0,0,0-.459.421,4.8,4.8,0,0,0-.344.495,19.552,19.552,0,0,0-1.193,2.22c-.153.334-.3.682-.445,1.036-.013.033-.026.066-.04.1l-.009.023a2.557,2.557,0,0,0-.223.754.5.5,0,0,0,.234.548.519.519,0,0,0,.242.062.853.853,0,0,0,.575-.313A18.827,18.827,0,0,0,319.62,7.19a2.776,2.776,0,0,0,.448-1.005,1.039,1.039,0,0,0-.336-1Zm0,0" transform="translate(-305.989 -4.867)" fill="#5bd0fc"/>
    <path id="Path_56027" data-name="Path 56027" d="M6.894,416.448a1.147,1.147,0,0,0,.837-.282,1.309,1.309,0,0,0,.3-.991v-.006s0-.01,0-.015a1.569,1.569,0,0,0-1.068-1.579l-.057-.015-.021,0-.047-.008-.017,0-.06-.006-.226-.012.069.215a.268.268,0,0,1-.037.242.263.263,0,0,1-.17.1l-.161.023.029.159a.193.193,0,0,1-.009.1.208.208,0,0,1-.188.125.171.171,0,0,1-.039,0,.173.173,0,0,1-.062-.027l-.152-.1-.077.166a.385.385,0,0,1-.077.113.318.318,0,0,1-.22.092.24.24,0,0,1-.116-.028.2.2,0,0,1-.054-.044l-.188-.215-.08.274a1.208,1.208,0,0,0,.093.946,1.821,1.821,0,0,0,1.384.749,2.78,2.78,0,0,0,.418.035Zm0,0" transform="translate(-4.79 -400.607)" fill="#ed6d66"/>
    <path id="Path_56028" data-name="Path 56028" d="M13.836.193A1.182,1.182,0,0,0,12.5.214a2.878,2.878,0,0,0-.853.964,19.724,19.724,0,0,0-1.2,2.237c-.155.337-.305.687-.447,1.042l-.049.121a2.684,2.684,0,0,0-.235.8.8.8,0,0,0,.017.247.153.153,0,0,0-.042.039c-.155.211-.305.43-.446.651A1.454,1.454,0,0,0,7.7,7.124a1.985,1.985,0,0,1-.227-.244,1.237,1.237,0,0,1-.144-1.4.156.156,0,0,0-.165-.241A1.971,1.971,0,0,0,5.924,6.594c-.031.078-.06.157-.09.237a2.774,2.774,0,0,1-.707,1.22,2.674,2.674,0,0,1-.916.417,3.685,3.685,0,0,0-.849.349,1.864,1.864,0,0,0-.649.7A.154.154,0,0,0,2.639,9.5a4.578,4.578,0,0,0-2.113.754.156.156,0,0,0-.062.082.375.375,0,0,0-.091.11,1.287,1.287,0,0,0,0,.8c.006.03.011.058.015.082a3.9,3.9,0,0,0,.213.755c.022.057.047.114.072.171a.67.67,0,0,0-.11,1.055,1.719,1.719,0,0,0-.182.177,1.462,1.462,0,0,0-.211,1.652,1.964,1.964,0,0,0,1.5.824,2.962,2.962,0,0,0,.45.037,1.271,1.271,0,0,0,.939-.328,1.292,1.292,0,0,0,.341-.866,8.257,8.257,0,0,0,3.173.567q.2,0,.415-.007a7.719,7.719,0,0,0,3.539-.861,5.647,5.647,0,0,0,2.8-4v0a.2.2,0,0,0-.09-.178A5.218,5.218,0,0,0,11,9.542a2.634,2.634,0,0,0-.664-.906c-.038-.033-.077-.065-.116-.1a1.452,1.452,0,0,0-.107-1.731c.133-.231.278-.459.43-.679a.152.152,0,0,0,.012-.022,1.175,1.175,0,0,0,.484-.309,19,19,0,0,0,2.729-3.4,2.905,2.905,0,0,0,.469-1.064,1.194,1.194,0,0,0-.4-1.149ZM9.893,5.924a.672.672,0,0,0,.157.122.708.708,0,0,0,.129.058c-.106.159-.207.321-.3.485a1.432,1.432,0,0,0-.315-.181c.107-.164.218-.326.332-.484Zm-7.315,3.9A1.917,1.917,0,0,0,2.5,10.8q-.345-.078-.687-.169l-.063-.017a6.99,6.99,0,0,1-.739-.224L.95,10.364a4.227,4.227,0,0,1,1.628-.539ZM.809,12.537a4.5,4.5,0,0,0,.269.441,2.514,2.514,0,0,0-.257.141.358.358,0,0,1-.012-.583Zm-.2,1.155a2,2,0,0,1,.76-.5l.062-.022.019-.006L1.5,13.15a1.251,1.251,0,0,1,.349-.055l0,.005a.139.139,0,0,1-.011.124.432.432,0,0,1-.151.144.2.2,0,0,1-.058.026.156.156,0,0,0-.251.167.143.143,0,0,1-.063.16.143.143,0,0,1-.168-.033.156.156,0,0,0-.276.074.255.255,0,0,1-.172.2.255.255,0,0,1-.237-.054,1.276,1.276,0,0,1,.152-.214Zm2.218,1.757a1.28,1.28,0,0,1-1.121.2A1.68,1.68,0,0,1,.437,14.98a1.017,1.017,0,0,1-.1-.778.58.58,0,0,0,.291.079.541.541,0,0,0,.157-.023.568.568,0,0,0,.309-.237A.454.454,0,0,0,1.464,14a.454.454,0,0,0,.219-.293.483.483,0,0,0,.174-.072.731.731,0,0,0,.256-.257.479.479,0,0,0,.059-.231,1.537,1.537,0,0,1,.909,1.414s0,.006,0,.008,0,.005,0,.008a1.164,1.164,0,0,1-.25.874Zm9.983-5q-.194.053-.535.132l-.132.031c-.3.08-.606.155-.916.222a2.663,2.663,0,0,0-.113-.969,4.807,4.807,0,0,1,1.7.584Zm-1.6.709c.344-.073.685-.156,1.015-.244l.121-.028c.271-.062.465-.11.6-.151a5.37,5.37,0,0,1-2.586,3.494,7.421,7.421,0,0,1-3.4.822,8.132,8.132,0,0,1-3.582-.589v0l0-.029c0-.017,0-.033,0-.05s0-.021,0-.031,0-.031-.006-.046,0-.021-.005-.032,0-.029-.007-.044,0-.022-.006-.032l-.008-.042-.007-.032-.009-.04-.008-.032-.01-.04L3.3,13.98l-.011-.038-.01-.031-.013-.037-.011-.03-.014-.036-.012-.03-.015-.035L3.2,13.713l-.016-.034-.014-.028-.017-.033-.015-.027-.018-.032-.015-.027L3.089,13.5l-.016-.026-.02-.03-.017-.025-.021-.029L3,13.366l-.022-.028-.019-.023-.023-.027-.02-.022-.024-.026-.02-.021-.025-.025-.021-.021L2.8,13.148l-.022-.02-.027-.022-.022-.019L2.7,13.066l-.023-.018-.029-.02-.024-.017-.03-.019-.024-.015-.031-.018-.025-.014-.032-.017-.025-.013L2.423,12.9,2.4,12.888l-.036-.015-.024-.01L2.3,12.847l-.02-.007-.063-.02-.06-.016-.02,0-.041-.008-.023,0-.038-.005-.024,0-.038,0H1.828l-.058,0-.019,0-.039,0-.022,0-.036.005-.022,0L1.6,12.8l-.021,0-.038.008-.017,0c-.036.009-.071.018-.1.028l-.016,0-.025.008a4.119,4.119,0,0,1-.487-.892,3.587,3.587,0,0,1-.2-.695c0-.025-.01-.055-.016-.087A1.383,1.383,0,0,1,.644,10.6a.082.082,0,0,1,.01-.015.531.531,0,0,1,.154.054c.029.013.059.027.089.039a7.237,7.237,0,0,0,.772.235l.063.017a20.354,20.354,0,0,0,7.419.557,20.372,20.372,0,0,0,2.061-.33Zm-.3-.257c-.589.118-1.191.211-1.793.276a20.073,20.073,0,0,1-6.283-.306.147.147,0,0,0,0-.023,1.639,1.639,0,0,1,.7-1.768l.02-.012a.152.152,0,0,0,.043-.012,1.2,1.2,0,0,1,1.043.161,4.513,4.513,0,0,1,.49.365,5.519,5.519,0,0,0,.452.343,2.858,2.858,0,0,0,1.557.465h.086A2.858,2.858,0,0,0,8.83,9.826a.156.156,0,0,0-.187-.25,2.52,2.52,0,0,1-2.9.091,5.18,5.18,0,0,1-.427-.324A4.821,4.821,0,0,0,4.8,8.953a1.948,1.948,0,0,0-.451-.2,2.846,2.846,0,0,0,.98-.461,3,3,0,0,0,.8-1.352c.029-.078.059-.156.089-.233a2.225,2.225,0,0,1,.672-1,1.421,1.421,0,0,0-.025.5,1.777,1.777,0,0,0,.359.865,2.716,2.716,0,0,0,.748.641,3.788,3.788,0,0,0-.44.351L7.5,8.093a2.1,2.1,0,0,1-.59.408.67.67,0,0,1-.6-.027.156.156,0,0,0-.175.259.851.851,0,0,0,.479.139,1.122,1.122,0,0,0,.409-.08A2.355,2.355,0,0,0,7.7,8.328L7.737,8.3a2.543,2.543,0,0,1,.552-.408c.131.067.261.127.388.184l.187.083a4.927,4.927,0,0,1,1.264.715,2.394,2.394,0,0,1,.784,2.031ZM8.751,7.252a3.9,3.9,0,0,1-.212.409c-.063-.031-.126-.063-.189-.1a1.091,1.091,0,0,1,.441-.434.571.571,0,0,1-.04.12Zm.736.854-.053-.023-.21-.1a.967.967,0,0,1,.2-.455A.3.3,0,0,1,9.5,7.454a.069.069,0,0,1,.029-.008s.017.013.032.079A.862.862,0,0,1,9.486,8.106Zm.474.255c-.064-.04-.123-.089-.189-.126a1.179,1.179,0,0,0,.1-.778.414.414,0,0,0-.188-.286.345.345,0,0,0-.318,0,.573.573,0,0,0-.186.161,1.268,1.268,0,0,0-.247.514l-.082-.039L8.821,7.8a4.011,4.011,0,0,0,.217-.422A.6.6,0,0,0,9.1,7a.271.271,0,0,0-.129-.182.3.3,0,0,0-.273.01,1.386,1.386,0,0,0-.616.58c-.044-.028-.087-.056-.13-.086A1.136,1.136,0,1,1,9.96,8.361Zm3.965-7.069a2.647,2.647,0,0,1-.425.947,18.677,18.677,0,0,1-2.685,3.34c-.264.26-.443.323-.636.224-.115-.06-.166-.193-.15-.4a2.456,2.456,0,0,1,.212-.708l.05-.123c.14-.35.289-.7.441-1.028a19.422,19.422,0,0,1,1.184-2.2,2.621,2.621,0,0,1,.755-.866.9.9,0,0,1,.978-.035.881.881,0,0,1,.276.849Zm0,0" transform="translate(0)"/>
  </g>
</svg>
