<svg xmlns="http://www.w3.org/2000/svg" width="53.027" height="72" viewBox="0 0 53.027 72">
  <g id="Group_3239" data-name="Group 3239" transform="translate(-141.853 -183.422)">
    <path id="Path_67106" data-name="Path 67106" d="M147.534,294.106c.274-.274,46.013-2.048,46.013-2.048l2.731,16.384L195.185,328.1l-4.779,1.912H147.67l-1.092-9.285Zm0,0" transform="translate(-3.346 -76.929)" fill="#efefe5"/>
    <path id="Path_67107" data-name="Path 67107" d="M182.67,188.676c8.055,0,15.837,2.184,17.067,8.056s2.321,20.343,2.321,20.343l-9.831,1.092-1.5-13.79-3.686-3.414-8.6.137-3.414,5.461-.546,12.151-10.786.683-.274-11.605,4.915-11.605,9.012-5.872Zm0,0" transform="translate(-15.271 -3.721)" fill="#e2b061"/>
    <path id="Path_67108" data-name="Path 67108" d="M217.9,325.609c3.83,0,6.642,3.711,5.8,6.1a29.489,29.489,0,0,1-2.393,4.907l1.676,10.713-9.037,1.137.179-3.052,1.8-9.1-2.993-3.052-.059-3.411,2.214-3.71Zm0,0" transform="translate(-50.29 -100.687)" fill="#b6b6b6"/>
    <path id="Path_67110" data-name="Path 67110" d="M191.832,214.219a5.549,5.549,0,0,0-3.29-.9c.168-10.446-.258-25.59-12.316-29.036a23.573,23.573,0,0,0-27.5,12.49,24.239,24.239,0,0,0-2.23,9.465,35.166,35.166,0,0,0,.28,5.229,22.451,22.451,0,0,0,.581,3.565c-.822.1-1.636.22-2.435.391-3.2.686-2.945,4.623-2.945,7.249,0,3.622.379,7.232.4,10.854.024,3.719-.149,7.435-.3,11.15-.073,1.809-.176,3.618-.226,5.427-.036,1.3.048,2.757,1.106,3.675,1.116.968,2.829.874,4.213,1.039,1.9.226,3.814.335,5.726.4,3.777.121,7.56.141,11.339.15,7.531.017,15.18.245,22.689-.392,2.7-.228,5.859-.437,6.885-3.426a20.935,20.935,0,0,0,.726-4.831c.181-2.012.28-4.031.318-6.052a161.717,161.717,0,0,0-1.367-22.447c-.186-1.524-.342-3.019-1.661-4Zm-41.988-5.949a28.867,28.867,0,0,1,1.112-7.739,20.507,20.507,0,0,1,7.955-10.71,20.156,20.156,0,0,1,14.55-3.224,12.948,12.948,0,0,1,6.715,2.931,15.254,15.254,0,0,1,3.72,6.449c1.864,5.582,1.809,11.527,1.6,17.346-2.433,0-4.867.014-7.3.046a57.448,57.448,0,0,0-.416-6.984,22.363,22.363,0,0,0-1.292-6.087,8.69,8.69,0,0,0-9.063-5.127c-9.1,1.158-10.246,11.673-9.153,19.122q-2.187.181-4.371.4c-1.329.033-2.676.062-4.018.136.245-2.137-.108-4.467-.04-6.556Zm25.434,5.149c-.169,0-.337,0-.505.009q-7.065.161-14.1.675c.178-5.839-.193-14.594,6.866-16.026,8.056-1.635,7.9,9.788,7.738,15.342ZM191.145,244c-.084,1.514-.219,3.022-.374,4.531-.16,1.569-.153,2.554-1.852,2.863a62.832,62.832,0,0,1-9.9.6q-4.924.1-9.847.16c-6.514.083-13.092.269-19.591-.274-.9-.075-3.762.044-4.282-.745-.245-.372-.08-1.541-.086-1.929-.01-.9-.017-1.809-.013-2.713.017-3.215.121-6.43.122-9.645,0-3.285-.16-6.549-.407-9.823-.109-1.446-.217-2.894-.217-4.345,0-1.044-.267-3.829.552-4.549.4-.349,2.194-.341,2.664-.4.88-.1,1.762-.177,2.645-.241,1.781-.129,3.565-.206,5.348-.293,3.668-.178,7.334-.351,11-.483,6.738-.243,13.491-.4,20.234-.223.527.042,1.052.091,1.573.158,1.47.188,1.174,1.2,1.291,2.477.156,1.718.341,3.433.5,5.151.294,3.232.543,6.471.674,9.715.135,3.334.148,6.673-.036,10.006Zm0,0" transform="translate(0 0)"/>
    <path id="Path_67111" data-name="Path 67111" d="M220.652,332.573a8,8,0,0,0,1.341-6.628,6.469,6.469,0,0,0-10.39-3.287,7.59,7.59,0,0,0-2.49,3.555,5.878,5.878,0,0,0-.228,3.81,5.735,5.735,0,0,0,1.3,2.467,5.569,5.569,0,0,0,1.1.886c.838.545.65.619.414,1.6-.784,3.247-1.53,6.507-2.269,9.765a1.119,1.119,0,0,0,.775,1.366,24.052,24.052,0,0,0,8.785-.014c2.741-.66,2.138-3.44,1.82-5.624a33.262,33.262,0,0,0-.982-4.557c-.218-.747-.617-1.336-.25-2.08a12.043,12.043,0,0,1,1.074-1.259Zm-1.351-2.212c-.613,1.193-2.055,2.045-2.276,3.418-.254,1.577.807,3.474,1.156,5a30.959,30.959,0,0,1,.556,3.143c.139,1.155.371,1.8-.914,2.139a15.275,15.275,0,0,1-5.986.087c.52-2.292,1.027-4.587,1.541-6.881.357-1.594,1.471-4.02-.247-5.173-.474-.319-.927-.522-1.328-.8-2.174-2.2-1.3-5.337,1.009-6.973a7.707,7.707,0,0,1,2.047-.924c3.976-.909,6.135,3.669,4.442,6.959Zm0,0" transform="translate(-47.317 -97.553)"/>
  </g>
</svg>
