<svg xmlns="http://www.w3.org/2000/svg" width="16.1" height="16.098" viewBox="0 0 16.1 16.098">
  <g id="Group_1839" data-name="Group 1839" transform="translate(0.05 0.011)">
    <path id="Path_55995" data-name="Path 55995" d="M8,16.035A8,8,0,1,1,13.323,2.069.625.625,0,0,1,12.491,3,6.769,6.769,0,0,0,1.251,8.037a6.769,6.769,0,0,0,11.24,5.036.625.625,0,0,1,.832.932A7.985,7.985,0,0,1,8,16.035Zm5.346-4.553,2.1-2.067,0,0a1.867,1.867,0,0,0,0-2.646l-.005-.005-2.1-2.045a.625.625,0,1,0-.871.9l2.1,2.042a.618.618,0,0,1,0,.873l-2.1,2.065a.625.625,0,1,0,.876.891Zm.187-3.445a.625.625,0,0,0-.625-.625H4.438a.625.625,0,0,0,0,1.25h8.469A.625.625,0,0,0,13.532,8.037Z" transform="translate(0 0)" fill="#c20000"/>
    <path id="Path_55995_-_Outline" data-name="Path 55995 - Outline" d="M7.851,16.087a7.923,7.923,0,0,1-5.593-2.432A7.89,7.89,0,0,1-.049,8.036a7.862,7.862,0,0,1,2.29-5.619A8.3,8.3,0,0,1,8.081-.011a7.8,7.8,0,0,1,5.276,2.042.675.675,0,0,1-.9,1.007,6.4,6.4,0,0,0-4.363-1.7A6.964,6.964,0,0,0,3.187,3.39,6.479,6.479,0,0,0,1.3,8.037a6.479,6.479,0,0,0,1.886,4.647,6.965,6.965,0,0,0,4.908,2.049,6.4,6.4,0,0,0,4.362-1.7.675.675,0,1,1,.9,1.007A8.035,8.035,0,0,1,8,16.085Zm.229-16a8.2,8.2,0,0,0-5.768,2.4A7.764,7.764,0,0,0,.051,8.037a7.79,7.79,0,0,0,2.278,5.548,7.822,7.822,0,0,0,5.522,2.4l.147,0a7.936,7.936,0,0,0,5.291-2.017.575.575,0,1,0-.766-.858,6.5,6.5,0,0,1-4.429,1.722,7.066,7.066,0,0,1-4.979-2.079A6.578,6.578,0,0,1,1.2,8.037,6.578,6.578,0,0,1,3.116,3.32,7.065,7.065,0,0,1,8.094,1.242a6.5,6.5,0,0,1,4.43,1.722.575.575,0,0,0,.765-.858A7.7,7.7,0,0,0,8.081.089Zm4.826,11.622h0a.675.675,0,0,1-.473-1.156l2.1-2.065a.568.568,0,0,0,0-.8l-2.1-2.041a.675.675,0,1,1,.941-.967L15.485,6.73a1.917,1.917,0,0,1,0,2.717l-2.106,2.07A.671.671,0,0,1,12.907,11.711Zm0-7.123a.575.575,0,0,0-.4.987l2.1,2.042a.668.668,0,0,1,0,.944l-2.1,2.066a.575.575,0,1,0,.806.82l2.1-2.067a1.817,1.817,0,0,0,0-2.578l0,0-2.1-2.046A.572.572,0,0,0,12.907,4.588Zm0,4.124H4.438a.675.675,0,0,1,0-1.35h8.471a.675.675,0,0,1,0,1.35ZM4.438,7.462a.575.575,0,0,0,0,1.15h8.467a.575.575,0,0,0,0-1.15Z" transform="translate(0 0)" fill="#c20000"/>
  </g>
</svg>
