<svg xmlns="http://www.w3.org/2000/svg" width="24" height="20.538" viewBox="0 0 24 20.538">
  <g id="Group_123" data-name="Group 123" transform="translate(0 -0.498)">
    <path id="Path_120" data-name="Path 120" d="M339.3,226.663a62.982,62.982,0,0,0-4.483-5.74c-.083-.094-.111-.141-.114-.187,0-.066.064-.146.185-.222a2.17,2.17,0,0,1,1.132-.3,2.9,2.9,0,0,1,1.3.322,6.846,6.846,0,0,1,1.977,1.7,20.393,20.393,0,0,1,2.768,4.057l.132.255-.257-.128a1.95,1.95,0,0,0-.532-.176,2.24,2.24,0,0,0-.387-.033,3.168,3.168,0,0,0-1.592.478l-.075.045Zm0,0" transform="translate(-319.011 -209.418)" fill="#fff"/>
    <path id="Path_121" data-name="Path 121" d="M25.168,218.419a3.334,3.334,0,0,0-1.611-.451,2.363,2.363,0,0,0-.751.118c-.034.011-.068.025-.1.037l-.259.1.146-.237a18.857,18.857,0,0,1,1.767-2.353,29.4,29.4,0,0,1,2.327-2.506,3.928,3.928,0,0,1,1.817-1.083,2.01,2.01,0,0,1,.383-.036,2.274,2.274,0,0,1,1.782.877l.05.066-.06.058c-1.8,1.746-3.612,3.56-5.375,5.393l-.05.052Zm0,0" transform="translate(-21.393 -201.595)" fill="#fff"/>
    <path id="Path_122" data-name="Path 122" d="M189.836,146.239l.022-.111c0-.011.005-.025.009-.039a1.7,1.7,0,0,1,1.793-1.522,12.6,12.6,0,0,1,1.639-.1h.035c.457,0,.943.025,1.486.072l.134.011a1.435,1.435,0,0,1,.625.135,1.766,1.766,0,0,1,.567.692l0,0v0a4.95,4.95,0,0,1,.187.839l.011.1Zm0,0" transform="translate(-180.937 -137.218)" fill="#e2b061"/>
    <path id="Path_123" data-name="Path 123" d="M213.941,10.024a.534.534,0,0,1-.277-.047.548.548,0,0,1-.158-.252l-.357-.89.116-.018.575-.095.042-.007c.249-.041.4-.067.439-.071l.235-.027a13.056,13.056,0,0,1,1.486-.117,4.27,4.27,0,0,1,.7.052.22.22,0,0,1,.165.1c.14.235-.007.759-.187,1.291v0l0,.007v0l-.021.064h-2.749l-.007-.094Zm0,0" transform="translate(-203.157 -7.627)" fill="#e2b061"/>
    <path id="Path_124" data-name="Path 124" d="M235.954,195.437a52.3,52.3,0,0,1-.968-6.431l-.009-.1,1.971.027-.009.1c-.185,1.99-.394,4.246-.8,6.4Zm0,0" transform="translate(-223.961 -179.573)" fill="#d8deec"/>
    <g id="Group_122" data-name="Group 122" transform="translate(0.374 15.505)">
      <path id="Path_125" data-name="Path 125" d="M454.377,355.724a1.662,1.662,0,0,1-.748-.174,1.7,1.7,0,0,1-.888-1.2l-.015-.083.08-.024a2.475,2.475,0,0,1,.7-.106,1.975,1.975,0,0,1,.34.029,1.535,1.535,0,0,1,1.276,1.219c0,.035.007.069.008.1l0,.062-.057.026A1.707,1.707,0,0,1,454.377,355.724Zm0,0" transform="translate(-431.879 -352.566)" fill="#59bd8b"/>
      <path id="Path_126" data-name="Path 126" d="M395.271,336.06a1.8,1.8,0,0,0-.172-1.781,3.4,3.4,0,0,0-.415-.441,2.4,2.4,0,0,1-.46-.523,1.171,1.171,0,0,1,.392-1.516l.074-.045.051.07c.346.473.7.966,1.038,1.465a.14.14,0,0,0,.193.038l.021-.014h.026a.14.14,0,0,0,.07-.02,3.7,3.7,0,0,1,.373-.2l.106-.05.026.115a1.97,1.97,0,0,0,1.02,1.317,1.95,1.95,0,0,0,.877.207,1.983,1.983,0,0,0,.52-.07l.191-.052-.081.181a1.94,1.94,0,0,1-.775.845,4.741,4.741,0,0,1-1.89.506c-.344.04-.7.075-1.092.109l-.159.014Zm0,0" transform="translate(-375.99 -331.233)" fill="#59bd8b"/>
      <path id="Path_127" data-name="Path 127" d="M8.849,324.648A1.679,1.679,0,0,1,8,323.555a1.2,1.2,0,0,1,0-.454l0-.014.007-.012a.241.241,0,0,0,.011-.023c.068-.169.145-.344.229-.521l0-.008,0-.007a1.722,1.722,0,0,1,.846-.625,2.1,2.1,0,0,1,.664-.1,3.056,3.056,0,0,1,1.5.434l.03.015.014.026a.131.131,0,0,0,.025.035.139.139,0,0,0,.1.04.141.141,0,0,0,.1-.043c.507-.528,1.018-1.055,1.52-1.567l.087-.088.062.107a1.222,1.222,0,0,1,.144,1.048,1.343,1.343,0,0,1-.714.651,5.358,5.358,0,0,1-1.21.335l-.23.046a3.719,3.719,0,0,0-1.471.557,1.643,1.643,0,0,0-.7,1.212l-.008.153Zm0,0" transform="translate(-7.979 -320.637)" fill="#59bd8b"/>
    </g>
    <path id="Path_128" data-name="Path 128" d="M159.079,289.407c-.989,0-1.977-.012-2.848-.022-1.366-.016-2.778-.032-4.2-.11l-.119-.007.034-.114a1.683,1.683,0,0,1,.939-1.008,2.776,2.776,0,0,1,1.15-.219,4.861,4.861,0,0,1,.511.029c.327.035.655.1.973.157l.012,0c.246.046.5.094.753.129a6.676,6.676,0,0,0,.919.067,4.109,4.109,0,0,0,2.051-.488,1.856,1.856,0,0,0,.969-1.17,2.46,2.46,0,0,0-.111-1.141,3.758,3.758,0,0,1-.132-.669,2.084,2.084,0,0,1,.593-1.536,3.163,3.163,0,0,1,1.453-.83l.06-.017.039.048c.206.255.412.516.614.774l.07.09-.1.051a3.459,3.459,0,0,0-.8.514,1.408,1.408,0,0,0-.5,1.047,2.054,2.054,0,0,0,.341.936,1.593,1.593,0,0,1,.3.871,1.286,1.286,0,0,1-.59.843c-.1.073-.205.14-.312.209l0,0a3.454,3.454,0,0,0-.656.5,1.264,1.264,0,0,0-.363.947l.011.1h-.1c-.305,0-.617,0-.951,0Zm0,0" transform="translate(-144.789 -268.746)" fill="#cbe580"/>
    <path id="Path_129" data-name="Path 129" d="M37.807,280.465c-.192-.034-.384-.07-.569-.108a6.539,6.539,0,0,1-.891-.229l-.063-.022v-.066a.207.207,0,0,0,0-.024,1.293,1.293,0,0,1,.582-1.168,3.482,3.482,0,0,1,1.361-.509l.227-.045h.007a5.641,5.641,0,0,0,1.267-.354,1.581,1.581,0,0,0,.858-.8,1.559,1.559,0,0,0-.226-1.4l-.041-.063.053-.054c.627-.637,1.26-1.272,1.883-1.889l.056-.055.064.046a1.951,1.951,0,0,1,.762.891.9.9,0,0,1-.279,1.05,1.555,1.555,0,0,1-.509.166,1.375,1.375,0,0,0-.725.309.99.99,0,0,0,.017,1.3c.059.073.124.141.182.2a.882.882,0,0,1,.295.448c.034.248-.2.475-.438.563a1.33,1.33,0,0,1-.468.077,4.144,4.144,0,0,1-.847-.123,4.366,4.366,0,0,0-.9-.13,1.544,1.544,0,0,0-.615.117,1.525,1.525,0,0,0-.787.821,2.145,2.145,0,0,0-.146.952l.007.119Zm0,0" transform="translate(-34.574 -260.372)" fill="#cbe580"/>
    <path id="Path_130" data-name="Path 130" d="M332.993,312.491a.953.953,0,0,1,.28-.776,3.218,3.218,0,0,1,.607-.463c.109-.07.219-.141.325-.218a1.51,1.51,0,0,0,.706-1.048,1.814,1.814,0,0,0-.331-1.027,1.828,1.828,0,0,1-.308-.811,1.131,1.131,0,0,1,.407-.832,3.46,3.46,0,0,1,.819-.511l.069-.034.047.061c.211.275.414.544.6.8l.059.08-.083.054a1.425,1.425,0,0,0-.575.813,1.4,1.4,0,0,0,.118,1.063,2.646,2.646,0,0,0,.509.586l0,0a3.073,3.073,0,0,1,.378.4,1.524,1.524,0,0,1-.009,1.753l-.026.035-.043,0c-1.053.077-2.186.124-3.465.142h-.078Zm0,0" transform="translate(-317.373 -291.915)" fill="#94c668"/>
    <path id="Path_131" data-name="Path 131" d="M207.671,51.48a5.665,5.665,0,0,1,.874-4.38.156.156,0,0,0,.015-.029l.023-.059h2.681l.028.041a5.456,5.456,0,0,1,.781,4.266l-.019.078-.08-.007-.1-.008-.052,0-.093-.007c-.55-.048-1.044-.072-1.51-.073h-.039a12.905,12.905,0,0,0-1.672.1,4.159,4.159,0,0,0-.714.147l-.1.031Zm0,0" transform="translate(-197.818 -44.333)" fill="#d8a235"/>
    <path id="Path_132" data-name="Path 132" d="M80.357,265.37c-1.118-.073-2.116-.179-3.05-.327l-.071-.011-.008-.071a1.905,1.905,0,0,1,.114-.939,1.242,1.242,0,0,1,.637-.671,1.27,1.27,0,0,1,.506-.094,4.114,4.114,0,0,1,.841.122,4.411,4.411,0,0,0,.908.13,1.6,1.6,0,0,0,.563-.094.87.87,0,0,0,.619-.865,1.108,1.108,0,0,0-.37-.6c-.058-.06-.116-.121-.166-.183a.719.719,0,0,1-.039-.93,1.115,1.115,0,0,1,.583-.233,1.783,1.783,0,0,0,.6-.2,1.175,1.175,0,0,0,.394-1.383,2.158,2.158,0,0,0-.8-.978l-.088-.065.078-.077.458-.451.034-.034.047.008.024,0,2.429.025h.1l.012.08c.218,1.458.5,2.916.836,4.332a.14.14,0,0,0,.274,0,41.5,41.5,0,0,0,.695-4.257l.01-.082,3.292-.036a.141.141,0,0,0,.057-.013l.064-.029.046.054c.216.255.424.506.62.746l.086.106-.129.043a3.369,3.369,0,0,0-1.393.85,2.339,2.339,0,0,0-.67,1.749,4.033,4.033,0,0,0,.14.719,2.215,2.215,0,0,1,.108,1.012,1.635,1.635,0,0,1-.833.983,3.835,3.835,0,0,1-1.913.452,6.393,6.393,0,0,1-.879-.064c-.245-.034-.493-.081-.734-.126l-.025,0c-.322-.06-.654-.122-.988-.158a5.1,5.1,0,0,0-.542-.031,3.043,3.043,0,0,0-1.264.243,1.919,1.919,0,0,0-1.12,1.284l-.018.078Zm0,0" transform="translate(-73.594 -244.869)" fill="#5bd0fc"/>
    <path id="Path_133" data-name="Path 133" d="M24,18.57a1.568,1.568,0,0,0-.007-.291,1.537,1.537,0,0,0-.119-.434.231.231,0,0,0-.012-.157,20.721,20.721,0,0,0-3.3-5.116,7.163,7.163,0,0,0-2.092-1.789,2.905,2.905,0,0,0-2.793-.006.622.622,0,0,0-.362.562.7.7,0,0,0,.207.413q.213.242.424.487l-2.871.031c.105-.944.193-1.886.279-2.816l2.132.029h0a.274.274,0,0,0,.231-.129c.189-.3-.167-1.347-.171-1.356a2.094,2.094,0,0,0-.714-.856,1.07,1.07,0,0,0-.209-.095,5.817,5.817,0,0,0-.766-4.425.135.135,0,0,0,.006-.015c.014-.046.034-.1.055-.166.2-.6.385-1.222.155-1.605a.591.591,0,0,0-.425-.281,8.485,8.485,0,0,0-2.3.062l-.235.027c-.048.005-.213.033-.5.08S9.9.846,9.8.856a.235.235,0,0,0-.224.322h0L10,2.232a.865.865,0,0,0,.3.433l.029.016a6.033,6.033,0,0,0-.826,4.633,1.653,1.653,0,0,0-.379.291A2.555,2.555,0,0,0,8.566,8.78a.458.458,0,0,0,.139.543.485.485,0,0,0,.28.074l1.661.022q.12,1.392.315,2.783l-1.95-.02.654-.635a.234.234,0,0,0,.037-.291,2.6,2.6,0,0,0-2.666-1.175,4.263,4.263,0,0,0-2,1.176A29.727,29.727,0,0,0,2.68,13.794,15.9,15.9,0,0,0,.312,17.232a1.734,1.734,0,0,0-.287,1.258A2.052,2.052,0,0,0,1.055,19.84a4.966,4.966,0,0,0,1.536.513,47.424,47.424,0,0,0,8.847.661c.947.011,1.9.022,2.866.022a57.831,57.831,0,0,0,6.579-.309,5.063,5.063,0,0,0,2.038-.556,2.166,2.166,0,0,0,1.071-1.55.224.224,0,0,0,0-.052Zm-.472-.236c0,.032.006.064.007.1a1.568,1.568,0,0,1-2.2-1.158,2.182,2.182,0,0,1,1-.075,1.439,1.439,0,0,1,1.2,1.138Zm-7.741-7.021c0-.01.023-.064.141-.138a2.418,2.418,0,0,1,2.337.027,6.761,6.761,0,0,1,1.949,1.679,20.284,20.284,0,0,1,2.755,4.038,2.05,2.05,0,0,0-.558-.185,3.037,3.037,0,0,0-2.044.457,63.1,63.1,0,0,0-4.489-5.749c-.024-.028-.089-.1-.091-.129Zm2.5,6.461a2.709,2.709,0,0,0,.526.608,3.051,3.051,0,0,1,.372.393,1.431,1.431,0,0,1-.008,1.642c-1.15.084-2.306.125-3.46.142a.856.856,0,0,1,.256-.693,3.133,3.133,0,0,1,.591-.449c.108-.07.22-.142.328-.221a1.6,1.6,0,0,0,.744-1.117,1.891,1.891,0,0,0-.344-1.084,1.762,1.762,0,0,1-.294-.763,1.039,1.039,0,0,1,.376-.761,3.375,3.375,0,0,1,.8-.5q.3.4.6.8a1.549,1.549,0,0,0-.487,2ZM9.873.87a.23.23,0,0,1,.113.087A.233.233,0,0,0,9.873.87Zm.114.088A.236.236,0,0,1,10.01,1,.244.244,0,0,0,9.986.958Zm.136.324.576-.094c.215-.036.437-.073.476-.077l.236-.027a8.143,8.143,0,0,1,2.164-.065.124.124,0,0,1,.1.059c.137.23-.1.919-.2,1.214l0,.013H10.791a.51.51,0,0,1-.232-.032.517.517,0,0,1-.125-.214ZM10.8,2.821a.228.228,0,0,0,.025-.049H13.4a5.338,5.338,0,0,1,.767,4.192l-.119-.009-.128-.01c-.549-.048-1.046-.073-1.518-.074h-.039a12.956,12.956,0,0,0-1.685.105,4.3,4.3,0,0,0-.73.15A5.555,5.555,0,0,1,10.8,2.821ZM9.02,8.9a2.142,2.142,0,0,1,.444-.966,2.13,2.13,0,0,1,1.271-.489,12.632,12.632,0,0,1,1.662-.1c.459,0,.943.025,1.478.072l.135.01a1.377,1.377,0,0,1,.583.122,1.628,1.628,0,0,1,.53.653,4.9,4.9,0,0,1,.181.814L9.013,8.928c0-.009,0-.02.007-.032Zm3.863.553c-.2,2.11-.4,4.279-.8,6.4a52.1,52.1,0,0,1-.966-6.42Zm-4.3,3.2,2.432.025h.016c.218,1.459.5,2.911.837,4.341a.234.234,0,0,0,.228.18h0a.234.234,0,0,0,.227-.183,42.157,42.157,0,0,0,.7-4.267l3.21-.035a.235.235,0,0,0,.094-.021q.312.37.619.745a3.446,3.446,0,0,0-1.432.875,2.43,2.43,0,0,0-.7,1.82,4.081,4.081,0,0,0,.143.736,2.155,2.155,0,0,1,.107.969,1.546,1.546,0,0,1-.788.922,4.277,4.277,0,0,1-2.733.376c-.248-.035-.5-.082-.747-.128-.326-.061-.663-.125-1-.161a3.547,3.547,0,0,0-1.854.22,2.016,2.016,0,0,0-1.173,1.349c-1.019-.066-2.036-.167-3.042-.326a1.807,1.807,0,0,1,.108-.893,1.147,1.147,0,0,1,.587-.621,2.186,2.186,0,0,1,1.291.034,2.688,2.688,0,0,0,1.523.031.963.963,0,0,0,.68-.966,1.2,1.2,0,0,0-.4-.657c-.058-.061-.113-.118-.159-.175a.64.64,0,0,1-.047-.8,1.055,1.055,0,0,1,.538-.208,1.869,1.869,0,0,0,.632-.216,1.269,1.269,0,0,0,.432-1.494,2.246,2.246,0,0,0-.831-1.021l.458-.451a.226.226,0,0,0,.04,0ZM3.036,14.1a29.357,29.357,0,0,1,2.319-2.5,3.851,3.851,0,0,1,1.771-1.06,2.163,2.163,0,0,1,2.072.806c-1.818,1.759-3.625,3.573-5.378,5.4A3.067,3.067,0,0,0,1.384,16.4c-.036.012-.071.025-.106.039A18.593,18.593,0,0,1,3.036,14.1ZM.486,18.405a1.117,1.117,0,0,1,0-.419.252.252,0,0,0,.016-.031c.07-.175.147-.347.227-.517a1.628,1.628,0,0,1,.8-.591,2.62,2.62,0,0,1,2.1.325l0,0a.231.231,0,0,0,.375.052q.753-.785,1.519-1.567a1.132,1.132,0,0,1,.138.966,1.255,1.255,0,0,1-.666.6,5.3,5.3,0,0,1-1.191.329l-.229.045a3.8,3.8,0,0,0-1.507.573,1.74,1.74,0,0,0-.743,1.282l-.037-.021a1.587,1.587,0,0,1-.805-1.03ZM1.8,19.668a.225.225,0,0,0,0-.035,1.2,1.2,0,0,1,.545-1.08,3.392,3.392,0,0,1,1.325-.493l.226-.045a5.719,5.719,0,0,0,1.295-.362A1.672,1.672,0,0,0,6.1,16.8a1.641,1.641,0,0,0-.235-1.486q.935-.95,1.882-1.889a1.863,1.863,0,0,1,.728.846.811.811,0,0,1-.24.938,1.478,1.478,0,0,1-.478.153,1.447,1.447,0,0,0-.772.333,1.084,1.084,0,0,0,.01,1.43c.06.075.125.143.188.209a.826.826,0,0,1,.269.4c.026.192-.171.385-.378.462a2.317,2.317,0,0,1-1.263-.05,2.556,2.556,0,0,0-1.572-.007,1.62,1.62,0,0,0-.836.871A2.219,2.219,0,0,0,3.249,20q-.284-.05-.566-.107a6.664,6.664,0,0,1-.879-.226Zm9.639.877c-1.384-.016-2.791-.033-4.2-.11a1.6,1.6,0,0,1,.888-.949A3.1,3.1,0,0,1,9.747,19.3c.321.034.649.1.966.155.25.047.51.1.769.132a4.727,4.727,0,0,0,3.029-.433,1.948,1.948,0,0,0,1.015-1.232,2.535,2.535,0,0,0-.112-1.184,3.671,3.671,0,0,1-.129-.651,1.988,1.988,0,0,1,.568-1.465,3.062,3.062,0,0,1,1.41-.8q.309.384.612.773a3.543,3.543,0,0,0-.822.529,1.5,1.5,0,0,0-.528,1.119,2.127,2.127,0,0,0,.353.981,1.53,1.53,0,0,1,.286.816,1.2,1.2,0,0,1-.552.775c-.1.071-.2.137-.308.207a3.536,3.536,0,0,0-.677.521,1.35,1.35,0,0,0-.388,1.021c-1.275.011-2.544,0-3.8-.018Zm11.239-.776a4.678,4.678,0,0,1-1.852.493q-.543.062-1.089.109a1.9,1.9,0,0,0-.183-1.875,3.441,3.441,0,0,0-.427-.455,2.313,2.313,0,0,1-.441-.5,1.077,1.077,0,0,1,.359-1.389q.53.725,1.037,1.463a.234.234,0,0,0,.322.062.231.231,0,0,0,.115-.035,3.628,3.628,0,0,1,.363-.2,2.064,2.064,0,0,0,1.069,1.38,2.038,2.038,0,0,0,.919.217,2.084,2.084,0,0,0,.545-.073,1.858,1.858,0,0,1-.737.8Zm0,0" transform="translate(0 0)" fill="#231f20"/>
  </g>
</svg>
