<svg xmlns="http://www.w3.org/2000/svg" xmlns:xlink="http://www.w3.org/1999/xlink" width="94" height="108" viewBox="0 0 94 108">
  <defs>
    <clipPath id="clip-path">
      <rect id="Rectangle_2797" data-name="Rectangle 2797" width="94" height="108" transform="translate(34.485 457.03)" fill="#593b15"/>
    </clipPath>
    <clipPath id="clip-path-2">
      <path id="Path_67119" data-name="Path 67119" d="M122.287,220.778h21.528l1.736-6.278-20-5.531Z" transform="translate(-122.287 -208.968)" fill="none"/>
    </clipPath>
    <clipPath id="clip-path-3">
      <rect id="Rectangle_2768" data-name="Rectangle 2768" width="100.162" height="126.736" fill="none"/>
    </clipPath>
    <clipPath id="clip-path-4">
      <rect id="Rectangle_2767" data-name="Rectangle 2767" width="27.72" height="31.883" fill="none"/>
    </clipPath>
    <clipPath id="clip-path-5">
      <rect id="Rectangle_2770" data-name="Rectangle 2770" width="7.613" height="25.255" transform="translate(0 7.338) rotate(-74.54)" fill="none"/>
    </clipPath>
    <clipPath id="clip-path-7">
      <rect id="Rectangle_2771" data-name="Rectangle 2771" width="6.346" height="8.893" fill="none"/>
    </clipPath>
    <clipPath id="clip-path-10">
      <path id="Path_67132" data-name="Path 67132" d="M24.872,214.5l1.737,6.278H48.137l-3.267-11.81Z" transform="translate(-24.872 -208.968)" fill="none"/>
    </clipPath>
    <clipPath id="clip-path-12">
      <rect id="Rectangle_2776" data-name="Rectangle 2776" width="27.719" height="31.883" fill="none"/>
    </clipPath>
    <clipPath id="clip-path-13">
      <rect id="Rectangle_2779" data-name="Rectangle 2779" width="25.255" height="7.614" transform="translate(0 6.734) rotate(-15.464)" fill="none"/>
    </clipPath>
    <clipPath id="clip-path-18">
      <path id="Path_67142" data-name="Path 67142" d="M64.241,177.286,68.71,205.42h28.78l-5.178-32.593Z" transform="translate(-64.241 -172.826)" fill="none"/>
    </clipPath>
    <clipPath id="clip-path-22">
      <rect id="Rectangle_2786" data-name="Rectangle 2786" width="29.207" height="38.406" fill="none"/>
    </clipPath>
    <clipPath id="clip-path-23">
      <rect id="Rectangle_2788" data-name="Rectangle 2788" width="8.049" height="7.51" fill="none"/>
    </clipPath>
    <clipPath id="clip-path-24">
      <rect id="Rectangle_2790" data-name="Rectangle 2790" width="32.772" height="7.03" transform="matrix(0.988, -0.157, 0.157, 0.988, 0, 5.142)" fill="none"/>
    </clipPath>
    <clipPath id="clip-path-25">
      <rect id="Rectangle_2791" data-name="Rectangle 2791" width="117.587" height="154.487" fill="none"/>
    </clipPath>
    <clipPath id="clip-path-26">
      <path id="Path_67168" data-name="Path 67168" d="M107.671,135.39c1.227,6.563,15.529,11.878,19.209,8.544l-.487-24.877Z" transform="translate(-107.671 -119.057)" fill="none"/>
    </clipPath>
    <clipPath id="clip-path-28">
      <rect id="Rectangle_2792" data-name="Rectangle 2792" width="15.827" height="25.746" fill="none"/>
    </clipPath>
    <clipPath id="clip-path-29">
      <path id="Path_67186" data-name="Path 67186" d="M48.341,143.394c6.393,2.94,19.673-6.128,19.045-11.323l-21.7-14.726Z" transform="translate(-45.688 -117.345)" fill="none"/>
    </clipPath>
    <clipPath id="clip-path-31">
      <rect id="Rectangle_2794" data-name="Rectangle 2794" width="21.585" height="26.024" fill="none"/>
    </clipPath>
  </defs>
  <g id="Mask_Group_78" data-name="Mask Group 78" transform="translate(-34.485 -457.03)" clip-path="url(#clip-path)">
    <g id="Group_3323" data-name="Group 3323" transform="translate(25.891 433.425)">
      <path id="Path_67113" data-name="Path 67113" d="M122.287,220.778h21.528l1.736-6.278-20-5.531Z" transform="translate(-51.965 -88.8)" fill="#ffbacc"/>
      <g id="Group_3256" data-name="Group 3256" transform="translate(70.322 120.168)">
        <g id="Group_3255" data-name="Group 3255" transform="translate(0 0)" clip-path="url(#clip-path-2)">
          <path id="Path_67114" data-name="Path 67114" d="M146.6,224.678s-4.227,2.423-12.971-3.617c-6.547-4.522-6.906-.258-17.528-4.022" transform="translate(-119.657 -212.398)" fill="none" stroke="#fff" stroke-width="2.208"/>
          <path id="Path_67115" data-name="Path 67115" d="M143.687,235.2s-4.227,2.423-12.971-3.617c-6.547-4.522-6.906-.258-17.528-4.022" transform="translate(-118.42 -216.868)" fill="none" stroke="#84cace" stroke-width="2.208"/>
          <path id="Path_67116" data-name="Path 67116" d="M140.779,245.716s-4.227,2.423-12.971-3.617c-6.547-4.522-6.906-.258-17.528-4.022" transform="translate(-117.185 -221.338)" fill="none" stroke="#fff" stroke-width="2.208"/>
          <path id="Path_67117" data-name="Path 67117" d="M137.868,256.235s-4.227,2.423-12.971-3.617c-6.547-4.522-6.906-.258-17.528-4.022" transform="translate(-115.948 -225.808)" fill="none" stroke="#84cace" stroke-width="2.208"/>
          <path id="Path_67118" data-name="Path 67118" d="M127.08,243.848l4.854,1.028c.016-.076.761-8.7,8.3-30.795l-4.767-1.375c-6.647,23.036-8.316,30.822-8.384,31.142" transform="translate(-124.324 -210.556)" fill="#f2d04e"/>
        </g>
      </g>
      <g id="Group_3261" data-name="Group 3261" transform="translate(5.289 5.242)">
        <g id="Group_3260" data-name="Group 3260" transform="translate(0 0)" clip-path="url(#clip-path-3)">
          <g id="Group_3259" data-name="Group 3259" transform="translate(60.578 114.926)" opacity="0.44" style="mix-blend-mode: multiply;isolation: isolate">
            <g id="Group_3258" data-name="Group 3258">
              <g id="Group_3257" data-name="Group 3257" clip-path="url(#clip-path-4)">
                <path id="Path_67120" data-name="Path 67120" d="M125.5,209.863,142.26,214.5l-.7,2.515A105.3,105.3,0,0,0,125,214.034c-1.345,11.947-1.707,23.329,3.887,26.817l-14.343-3.967,6.426-23.231,1.3-4.685Z" transform="translate(-114.54 -208.968)" fill="#ff618a"/>
              </g>
            </g>
          </g>
        </g>
      </g>
      <rect id="Rectangle_2769" data-name="Rectangle 2769" width="7.613" height="25.255" transform="matrix(0.267, -0.964, 0.964, 0.267, 70.996, 121.089)" fill="#f57e9d"/>
      <g id="Group_3263" data-name="Group 3263" transform="translate(70.996 113.752)">
        <g id="Group_3262" data-name="Group 3262" transform="translate(0 0)" clip-path="url(#clip-path-5)">
          <path id="Path_67121" data-name="Path 67121" d="M150.418,210.862s-4.227,2.423-12.971-3.617c-6.547-4.522-6.906-.258-17.528-4.022" transform="translate(-121.955 -200.111)" fill="none" stroke="#84cace" stroke-width="2.899"/>
        </g>
      </g>
      <g id="Group_3268" data-name="Group 3268" transform="translate(5.289 5.242)">
        <g id="Group_3267" data-name="Group 3267" transform="translate(0 0)" clip-path="url(#clip-path-3)">
          <g id="Group_3266" data-name="Group 3266" transform="translate(65.707 108.509)" opacity="0.44" style="mix-blend-mode: multiply;isolation: isolate">
            <g id="Group_3265" data-name="Group 3265">
              <g id="Group_3264" data-name="Group 3264" clip-path="url(#clip-path-7)">
                <path id="Path_67122" data-name="Path 67122" d="M129.806,199c-.117.853-.519,6.117-.725,7.7l-5.621-1.555,2.029-7.338Z" transform="translate(-123.459 -197.81)" fill="#ff618a"/>
              </g>
            </g>
          </g>
        </g>
      </g>
      <g id="Group_3270" data-name="Group 3270" transform="translate(70.996 113.752)">
        <g id="Group_3269" data-name="Group 3269" transform="translate(0 0)" clip-path="url(#clip-path-5)">
          <path id="Path_67123" data-name="Path 67123" d="M142.756,215.961c.9-6.715,4.341-15.546,4.373-15.858l-6.346-.649a52.927,52.927,0,0,1-3.871,13.95Z" transform="translate(-129.176 -198.509)" fill="#fce488"/>
        </g>
      </g>
      <g id="Group_3272" data-name="Group 3272" transform="translate(5.289 5.242)">
        <g id="Group_3271" data-name="Group 3271" transform="translate(0 0)" clip-path="url(#clip-path-3)">
          <path id="Path_67124" data-name="Path 67124" d="M141.011,197.614a.365.365,0,0,1-.214.108.36.36,0,0,1-.144-.012l-.012,0-.024-.007-.047-.013-.094-.028-.186-.056-.373-.109-.741-.228q-.742-.225-1.476-.479c-.987-.32-1.955-.7-2.925-1.12a9.875,9.875,0,0,1-2.865-1.707,3.266,3.266,0,0,1-.616-.807,2.347,2.347,0,0,1-.281-1.178,2.537,2.537,0,0,1,.356-1.176,3.688,3.688,0,0,1,.673-.8,4.74,4.74,0,0,1,.746-.551,3.2,3.2,0,0,1,.959-.408,3.012,3.012,0,0,1,2.063.234,6.66,6.66,0,0,1,2.4,2.428,24.489,24.489,0,0,1,1.556,2.733c.236.462.462.929.673,1.4l.323.707.156.357.08.178.04.09.02.045.005.011,0,.006a.429.429,0,0,1,.02.066.4.4,0,0,1-.075.317m-.509-.466a.308.308,0,0,0-.092.273.319.319,0,0,0,.014.054l0-.005,0-.011-.014-.044-.03-.089-.063-.178-.138-.354c-.1-.234-.186-.471-.3-.7-.214-.459-.44-.913-.681-1.357a13.355,13.355,0,0,0-1.723-2.457,4.792,4.792,0,0,0-2.247-1.48c-.753-.143-1.16.089-1.861.673a1.368,1.368,0,0,0-.461.623,1.028,1.028,0,0,0,.251.778,7.148,7.148,0,0,0,2.119,1.833,21.437,21.437,0,0,0,2.7,1.34q.7.286,1.422.543c.239.086.481.163.722.241l.363.114.182.052.091.026.045.013.022.006.012,0a.321.321,0,0,0-.133-.008.335.335,0,0,0-.2.11" transform="translate(-60.962 -85.537)" fill="#fce488"/>
          <path id="Path_67125" data-name="Path 67125" d="M148.587,200.424a.33.33,0,0,0-.117-.2.337.337,0,0,0-.117-.062l.011,0,.022.006.045.012.091.025.184.048.37.089c.247.058.494.116.744.165q.747.147,1.5.265a21.386,21.386,0,0,0,3.009.24,7.16,7.16,0,0,0,2.76-.484c.371-.171.595-.394.615-.539a1.367,1.367,0,0,0-.075-.771c-.3-.861-.531-1.269-1.25-1.534a4.792,4.792,0,0,0-2.689.115,13.378,13.378,0,0,0-2.741,1.222c-.435.257-.862.531-1.282.814-.212.14-.411.3-.614.448l-.3.232-.145.12-.071.061-.036.03-.009.008,0,0a.282.282,0,0,0,.04-.039.31.31,0,0,0,.061-.281m-.676.138a.4.4,0,0,1,.1-.311.452.452,0,0,1,.05-.047l.005,0,.01-.007.04-.029.08-.057.16-.112.317-.225.641-.44c.424-.3.857-.582,1.3-.857a24.569,24.569,0,0,1,2.739-1.545,6.656,6.656,0,0,1,3.309-.849,3.013,3.013,0,0,1,1.89.86,3.182,3.182,0,0,1,.612.843,4.718,4.718,0,0,1,.357.856,3.685,3.685,0,0,1,.167,1.03,2.531,2.531,0,0,1-.3,1.192,2.336,2.336,0,0,1-.846.867,3.237,3.237,0,0,1-.943.376,9.848,9.848,0,0,1-3.335-.007c-1.048-.137-2.073-.309-3.085-.542q-.761-.158-1.512-.347l-.753-.185-.376-.1-.188-.048-.094-.024-.048-.013-.024-.006-.012,0a.348.348,0,0,1-.129-.064.363.363,0,0,1-.129-.2" transform="translate(-68.141 -88.562)" fill="#fce488"/>
          <path id="Path_67126" data-name="Path 67126" d="M145.823,196.744a1.064,1.064,0,0,1-.654-.672l-.025-.087-.016-.058-.03-.113-.058-.224-.108-.445q-.1-.446-.182-.894-.168-.9-.285-1.8a19.825,19.825,0,0,1-.1-3.713,7.4,7.4,0,0,1,1.213-3.828,3.744,3.744,0,0,1,1.848-1.353,4.049,4.049,0,0,1,2.222-.122,2.966,2.966,0,0,1,1.847,1.425,3.917,3.917,0,0,1,.472,2.054,7.712,7.712,0,0,1-1.129,3.58,16.2,16.2,0,0,1-2.16,2.864c-.393.443-.823.848-1.242,1.263l-.646.6-.336.289-.166.143-.082.072a.861.861,0,0,0-.091.231l-.105.293c-.054.156-.119.332-.185.5m.6-1.894c-.052.151-.1.315-.144.459-.024.085-.045.17-.064.256-.027.133-.025.184-.008.158l.082-.075.164-.15.324-.3.628-.619a16.19,16.19,0,0,0,1.135-1.345A11.874,11.874,0,0,0,150.2,190.2a7,7,0,0,0,.464-3.226,2.778,2.778,0,0,0-.469-1.305,1.379,1.379,0,0,0-.93-.589,2.349,2.349,0,0,0-1.248.172,1.981,1.981,0,0,0-.9.763,6.039,6.039,0,0,0-.741,2.864,18.512,18.512,0,0,0,.149,3.331q.092.844.237,1.686l.155.839.08.417.043.206.022.1.011.049,0,.012v.006l-.016-.052a.964.964,0,0,0-.641-.619" transform="translate(-66.616 -83.147)" fill="#fce488"/>
          <rect id="Rectangle_2774" data-name="Rectangle 2774" width="20.749" height="28.964" transform="translate(9.014 120.457) rotate(-15.461)" fill="#ffbacc"/>
        </g>
      </g>
      <g id="Group_3274" data-name="Group 3274" transform="translate(14.303 120.168)">
        <g id="Group_3273" data-name="Group 3273" transform="translate(0 0)" clip-path="url(#clip-path-10)">
          <path id="Path_67127" data-name="Path 67127" d="M18.482,224.678s4.227,2.423,12.971-3.617c6.547-4.522,6.906-.258,17.528-4.022" transform="translate(-22.157 -212.398)" fill="none" stroke="#fff" stroke-width="2.208"/>
          <path id="Path_67128" data-name="Path 67128" d="M21.391,235.2s4.227,2.423,12.971-3.617c6.547-4.522,6.906-.258,17.528-4.022" transform="translate(-23.393 -216.868)" fill="none" stroke="#84cace" stroke-width="2.208"/>
          <path id="Path_67129" data-name="Path 67129" d="M24.3,245.716s4.227,2.423,12.971-3.617c6.547-4.522,6.906-.258,17.528-4.022" transform="translate(-24.629 -221.338)" fill="none" stroke="#fff" stroke-width="2.208"/>
          <path id="Path_67130" data-name="Path 67130" d="M27.21,256.235s4.227,2.423,12.971-3.617c6.547-4.522,6.906-.258,17.528-4.022" transform="translate(-25.866 -225.808)" fill="none" stroke="#84cace" stroke-width="2.208"/>
          <path id="Path_67131" data-name="Path 67131" d="M50.818,243.848l-4.854,1.028c-.016-.076-.761-8.7-8.3-30.795l4.767-1.376c6.647,23.037,8.316,30.822,8.384,31.143" transform="translate(-30.309 -210.556)" fill="#f2d04e"/>
        </g>
      </g>
      <g id="Group_3279" data-name="Group 3279" transform="translate(5.289 5.242)">
        <g id="Group_3278" data-name="Group 3278" transform="translate(0 0)" clip-path="url(#clip-path-3)">
          <g id="Group_3277" data-name="Group 3277" transform="translate(9.014 114.926)" opacity="0.44" style="mix-blend-mode: multiply;isolation: isolate">
            <g id="Group_3276" data-name="Group 3276">
              <g id="Group_3275" data-name="Group 3275" clip-path="url(#clip-path-12)">
                <path id="Path_67133" data-name="Path 67133" d="M41.637,209.863,24.873,214.5l.7,2.515a105.3,105.3,0,0,1,16.568-2.98c1.345,11.947,1.707,23.329-3.887,26.817l14.343-3.967-6.426-23.231-1.3-4.685Z" transform="translate(-24.873 -208.968)" fill="#ff618a"/>
              </g>
            </g>
          </g>
          <rect id="Rectangle_2777" data-name="Rectangle 2777" width="25.255" height="7.613" transform="translate(5.234 115.242) rotate(-15.461)" fill="#f57e9d"/>
        </g>
      </g>
      <g id="Group_3281" data-name="Group 3281" transform="translate(10.523 113.751)">
        <g id="Group_3280" data-name="Group 3280" transform="translate(0 0)" clip-path="url(#clip-path-13)">
          <path id="Path_67134" data-name="Path 67134" d="M14.66,210.862s4.227,2.423,12.971-3.617c6.547-4.522,6.906-.258,17.528-4.022" transform="translate(-16.753 -200.11)" fill="none" stroke="#84cace" stroke-width="2.899"/>
        </g>
      </g>
      <g id="Group_3286" data-name="Group 3286" transform="translate(5.289 5.242)">
        <g id="Group_3285" data-name="Group 3285" transform="translate(0 0)" clip-path="url(#clip-path-3)">
          <g id="Group_3284" data-name="Group 3284" transform="translate(25.259 108.509)" opacity="0.44" style="mix-blend-mode: multiply;isolation: isolate">
            <g id="Group_3283" data-name="Group 3283">
              <g id="Group_3282" data-name="Group 3282" clip-path="url(#clip-path-7)">
                <path id="Path_67135" data-name="Path 67135" d="M53.122,199c.117.853.519,6.117.725,7.7l5.621-1.555-2.029-7.338Z" transform="translate(-53.122 -197.81)" fill="#ff618a"/>
              </g>
            </g>
          </g>
        </g>
      </g>
      <g id="Group_3288" data-name="Group 3288" transform="translate(10.523 113.751)">
        <g id="Group_3287" data-name="Group 3287" transform="translate(0 0)" clip-path="url(#clip-path-13)">
          <path id="Path_67136" data-name="Path 67136" d="M37.311,215.961c-.9-6.715-4.341-15.546-4.373-15.858l6.346-.649a52.926,52.926,0,0,0,3.871,13.95Z" transform="translate(-24.52 -198.508)" fill="#fce488"/>
        </g>
      </g>
      <g id="Group_3290" data-name="Group 3290" transform="translate(5.289 5.242)">
        <g id="Group_3289" data-name="Group 3289" transform="translate(0 0)" clip-path="url(#clip-path-3)">
          <path id="Path_67137" data-name="Path 67137" d="M39.662,197.148a.329.329,0,0,0-.2-.11.315.315,0,0,0-.132.008l.011,0,.022-.006.045-.013L39.5,197l.182-.052.363-.114c.242-.078.484-.155.723-.241.477-.172.952-.352,1.422-.543a21.48,21.48,0,0,0,2.705-1.34,7.139,7.139,0,0,0,2.118-1.833,1.023,1.023,0,0,0,.251-.778,1.367,1.367,0,0,0-.461-.623c-.7-.584-1.108-.815-1.86-.673a4.786,4.786,0,0,0-2.247,1.48,13.328,13.328,0,0,0-1.723,2.457c-.242.444-.467.9-.682,1.357-.11.228-.2.465-.3.7l-.138.354-.063.178-.03.089-.014.044,0,.011,0,.005a.3.3,0,0,0-.078-.327m-.508.466a.4.4,0,0,1-.075-.317.441.441,0,0,1,.019-.066l0-.006.005-.012.02-.045.04-.09.08-.178.156-.357.323-.707q.317-.71.673-1.4a24.614,24.614,0,0,1,1.556-2.733,6.667,6.667,0,0,1,2.4-2.429,3.014,3.014,0,0,1,2.063-.233,3.189,3.189,0,0,1,.959.408,4.709,4.709,0,0,1,.745.551,3.686,3.686,0,0,1,.673.8,2.541,2.541,0,0,1,.355,1.176,2.341,2.341,0,0,1-.281,1.179,3.237,3.237,0,0,1-.616.807,9.86,9.86,0,0,1-2.865,1.707c-.97.42-1.937.8-2.924,1.12q-.734.255-1.476.48l-.741.228-.372.109-.186.056-.094.027-.047.014-.024.007-.012,0a.361.361,0,0,1-.358-.1" transform="translate(-21.892 -85.537)" fill="#fce488"/>
          <path id="Path_67138" data-name="Path 67138" d="M31,200.561a.363.363,0,0,1-.129.2.358.358,0,0,1-.129.064l-.012,0-.024.007-.047.012-.095.025-.188.048-.376.1-.753.185q-.752.188-1.512.347c-1.012.232-2.036.4-3.085.542a9.863,9.863,0,0,1-3.335.008,3.254,3.254,0,0,1-.943-.376,2.344,2.344,0,0,1-.846-.867,2.531,2.531,0,0,1-.3-1.191,3.664,3.664,0,0,1,.168-1.031,4.674,4.674,0,0,1,.356-.856,3.181,3.181,0,0,1,.612-.843,3.016,3.016,0,0,1,1.89-.86,6.666,6.666,0,0,1,3.309.849,24.676,24.676,0,0,1,2.739,1.545c.44.275.873.559,1.3.857l.64.44.317.225.16.112.081.056.04.029.01.007.005,0a.436.436,0,0,1,.05.046.4.4,0,0,1,.1.311m-.676-.138a.309.309,0,0,0,.061.281.326.326,0,0,0,.041.039l0,0-.009-.008-.036-.03-.071-.061-.145-.121-.3-.232c-.2-.151-.4-.308-.614-.447-.42-.284-.846-.557-1.282-.814a13.349,13.349,0,0,0-2.741-1.222,4.787,4.787,0,0,0-2.689-.116c-.719.265-.949.673-1.25,1.534a1.369,1.369,0,0,0-.075.772c.02.144.243.367.615.538a7.138,7.138,0,0,0,2.76.484,21.479,21.479,0,0,0,3.009-.24q.751-.117,1.5-.265c.249-.049.5-.108.744-.164l.37-.089.183-.048.091-.025.045-.013.022-.006.011,0a.321.321,0,0,0-.117.061.333.333,0,0,0-.117.2" transform="translate(-13.459 -88.562)" fill="#fce488"/>
          <path id="Path_67139" data-name="Path 67139" d="M35.545,194.851a.964.964,0,0,0-.642.619c-.027.093-.012.041-.015.052v-.006l0-.013.011-.049.021-.1.043-.206.081-.417.155-.838c.1-.561.175-1.124.236-1.686a18.515,18.515,0,0,0,.15-3.331,6.044,6.044,0,0,0-.741-2.864,1.981,1.981,0,0,0-.9-.763,2.35,2.35,0,0,0-1.248-.172,1.382,1.382,0,0,0-.93.589,2.776,2.776,0,0,0-.468,1.305,7.005,7.005,0,0,0,.463,3.227,11.918,11.918,0,0,0,1.667,3.044,16.392,16.392,0,0,0,1.135,1.345l.627.619.324.3.164.149.083.075c.017.026.019-.024-.009-.158-.018-.086-.04-.172-.064-.256-.04-.144-.091-.309-.143-.459m.6,1.894c-.066-.163-.131-.34-.185-.5l-.1-.293a.862.862,0,0,0-.091-.231l-.082-.071-.166-.144-.337-.289-.646-.6c-.418-.415-.848-.82-1.241-1.263a16.22,16.22,0,0,1-2.16-2.864A7.7,7.7,0,0,1,30,186.911a3.915,3.915,0,0,1,.472-2.054,2.963,2.963,0,0,1,1.847-1.424,4.041,4.041,0,0,1,2.221.122,3.738,3.738,0,0,1,1.848,1.353,7.4,7.4,0,0,1,1.214,3.828,19.775,19.775,0,0,1-.1,3.713q-.115.909-.284,1.8c-.056.3-.116.6-.182.894l-.108.445-.057.224-.03.113-.016.058-.025.087a1.066,1.066,0,0,1-.655.672" transform="translate(-18.037 -83.148)" fill="#fce488"/>
          <rect id="Rectangle_2783" data-name="Rectangle 2783" width="28.424" height="34.372" transform="matrix(0.988, -0.157, 0.157, 0.988, 31.653, 98.602)" fill="#f2d04e"/>
        </g>
      </g>
      <g id="Group_3292" data-name="Group 3292" transform="translate(36.942 99.384)">
        <g id="Group_3291" data-name="Group 3291" transform="translate(0 0)" clip-path="url(#clip-path-18)">
          <path id="Path_67140" data-name="Path 67140" d="M88.526,173.194s3.631,11.548,6.021,37.905" transform="translate(-74.561 -172.982)" fill="none" stroke="#f57e9d" stroke-width="2.302"/>
          <path id="Path_67141" data-name="Path 67141" d="M61.588,207.507s11.548-3.631,37.905-6.021" transform="translate(-63.114 -185.005)" fill="none" stroke="#f57e9d" stroke-width="2.302"/>
        </g>
      </g>
      <g id="Group_3294" data-name="Group 3294" transform="translate(5.289 5.242)">
        <g id="Group_3293" data-name="Group 3293" transform="translate(0 0)" clip-path="url(#clip-path-3)">
          <path id="Path_67143" data-name="Path 67143" d="M72.425,197.84a1.952,1.952,0,0,0,2.37,1.633,1.775,1.775,0,0,0,1.183-2.078,1.826,1.826,0,0,0-2.547-1.154,1.51,1.51,0,0,0-1.005,1.6" transform="translate(-36.062 -88.569)" fill="#fff"/>
          <path id="Path_67144" data-name="Path 67144" d="M82.449,217.619a1.952,1.952,0,0,0,2.37,1.633A1.774,1.774,0,0,0,86,217.174a1.826,1.826,0,0,0-2.547-1.154,1.51,1.51,0,0,0-1.005,1.6" transform="translate(-40.321 -96.974)" fill="#84cace"/>
          <path id="Path_67145" data-name="Path 67145" d="M102.954,193.081a2.089,2.089,0,0,0,2.535,1.747,1.9,1.9,0,0,0,1.265-2.223,1.953,1.953,0,0,0-2.725-1.235,1.616,1.616,0,0,0-1.075,1.711" transform="translate(-49.035 -86.495)" fill="#84cace"/>
          <path id="Path_67146" data-name="Path 67146" d="M107.467,225.522a1.414,1.414,0,0,0,1.717,1.183,1.286,1.286,0,0,0,.857-1.506,1.323,1.323,0,0,0-1.845-.836,1.094,1.094,0,0,0-.728,1.158" transform="translate(-50.954 -100.538)" fill="#fff"/>
        </g>
      </g>
      <g id="Group_3296" data-name="Group 3296" transform="translate(36.942 99.384)">
        <g id="Group_3295" data-name="Group 3295" transform="translate(0 0)" clip-path="url(#clip-path-18)">
          <path id="Path_67147" data-name="Path 67147" d="M69.419,235.071a3.355,3.355,0,0,0,4.071,2.806,3.05,3.05,0,0,0,2.032-3.571,3.137,3.137,0,0,0-4.376-1.982,2.594,2.594,0,0,0-1.727,2.747" transform="translate(-66.435 -197.998)" fill="#84cace"/>
          <path id="Path_67148" data-name="Path 67148" d="M68.372,215.855a1.414,1.414,0,0,0,1.717,1.183,1.286,1.286,0,0,0,.857-1.505A1.323,1.323,0,0,0,69.1,214.7a1.094,1.094,0,0,0-.728,1.158" transform="translate(-65.994 -190.572)" fill="#fff"/>
          <path id="Path_67149" data-name="Path 67149" d="M114.891,211.644a2.867,2.867,0,0,0,3.479,2.4,2.606,2.606,0,0,0,1.737-3.051,2.68,2.68,0,0,0-3.74-1.694,2.216,2.216,0,0,0-1.476,2.347" transform="translate(-85.759 -188.229)" fill="#fff"/>
        </g>
      </g>
      <g id="Group_3304" data-name="Group 3304" transform="translate(5.289 5.242)">
        <g id="Group_3303" data-name="Group 3303" transform="translate(0 0)" clip-path="url(#clip-path-3)">
          <g id="Group_3299" data-name="Group 3299" transform="translate(31.653 94.142)" opacity="0.73" style="mix-blend-mode: multiply;isolation: isolate">
            <g id="Group_3298" data-name="Group 3298" transform="translate(0)">
              <g id="Group_3297" data-name="Group 3297" clip-path="url(#clip-path-22)">
                <path id="Path_67151" data-name="Path 67151" d="M67.745,176.729l24.567-3.9,1.135,7.142c-7.5,2.564-14.79,5.726-22.129,8.739a63.3,63.3,0,0,0,5.851,11.877,45.856,45.856,0,0,0,6.939,8.349l-14.475,2.3L66.373,190.7l-2.132-13.418Z" transform="translate(-64.241 -172.826)" fill="#f2d04e"/>
              </g>
            </g>
          </g>
          <rect id="Rectangle_2787" data-name="Rectangle 2787" width="32.772" height="7.03" transform="translate(29.465 98.682) rotate(-9.026)" fill="#fce488"/>
          <g id="Group_3302" data-name="Group 3302" transform="translate(29.465 98.116)" opacity="0.73" style="mix-blend-mode: multiply;isolation: isolate">
            <g id="Group_3301" data-name="Group 3301">
              <g id="Group_3300" data-name="Group 3300" clip-path="url(#clip-path-23)">
                <path id="Path_67152" data-name="Path 67152" d="M64,179.736c.145.376.3.75.487,1.117a19.928,19.928,0,0,0,3.995,5.289l-6.946,1.1-1.1-6.943Z" transform="translate(-60.436 -179.736)" fill="#f2d04e"/>
              </g>
            </g>
          </g>
          <path id="Path_67153" data-name="Path 67153" d="M81.064,169.495a.627.627,0,0,1-.407.107.6.6,0,0,1-.124-.025l-.014-.006-.059-.021-.117-.043-.232-.086-.464-.168-.92-.348q-.923-.339-1.83-.716c-1.215-.492-2.418-1.015-3.592-1.628a11.488,11.488,0,0,1-3.287-2.376,3.3,3.3,0,0,1-.913-2.1,2.416,2.416,0,0,1,.066-.623l.075-.3.12-.278a2.693,2.693,0,0,1,.285-.518,2.962,2.962,0,0,1,.361-.468,3.182,3.182,0,0,1,2.185-1.031,5.112,5.112,0,0,1,2.237.4,10.635,10.635,0,0,1,3.451,2.384,12.784,12.784,0,0,1,2.442,3.325,10.011,10.011,0,0,1,.732,1.959,7.716,7.716,0,0,1,.19,1.041l.036.557a1.951,1.951,0,0,1-.221.961m-.676-.845a.279.279,0,0,0-.314-.008c-.035-.093-.087-.272-.127-.4-.091-.284-.2-.561-.315-.837a13.735,13.735,0,0,0-.82-1.6,16.527,16.527,0,0,0-2.2-2.9,10.156,10.156,0,0,0-2.824-2.144,2.418,2.418,0,0,0-2.822.079A2.063,2.063,0,0,0,70.3,162.1a2.183,2.183,0,0,0,.531,1.427,9.762,9.762,0,0,0,2.884,2.293,24.165,24.165,0,0,0,3.479,1.617q.906.331,1.825.623c.307.1.618.179.928.264l.465.122.233.055.117.026.058.013.014,0a.373.373,0,0,0-.094-.016.478.478,0,0,0-.348.124" transform="translate(-34.655 -72.748)" fill="#f57e9d"/>
          <path id="Path_67154" data-name="Path 67154" d="M89.446,166.792a.48.48,0,0,0-.371-.015.449.449,0,0,0-.078.039c-.028.018,0,0-.009,0l.011-.01.045-.039.09-.079.18-.159.363-.316.724-.633,1.434-1.27c.94-.856,1.869-1.718,2.712-2.629a10.51,10.51,0,0,0,2.043-2.864,2.014,2.014,0,0,0,.17-1.3.981.981,0,0,0-.114-.26l-.074-.13-.11-.121a1.313,1.313,0,0,0-.254-.241,1.624,1.624,0,0,0-.293-.2,1.7,1.7,0,0,0-1.31-.183,3.563,3.563,0,0,0-1.42.763,9.621,9.621,0,0,0-2.208,2.874,13.048,13.048,0,0,0-1.24,3.512,10.642,10.642,0,0,0-.182,1.839,7.687,7.687,0,0,0,.055.909l.065.422a.265.265,0,0,0-.227.089m-.381,1.013a1.978,1.978,0,0,1-.439-.861c-.037-.217-.051-.358-.077-.541a9.438,9.438,0,0,1-.048-1.033,11.708,11.708,0,0,1,.189-2.03,15.247,15.247,0,0,1,1.24-3.841,10.946,10.946,0,0,1,2.355-3.375,4.972,4.972,0,0,1,1.916-1.176,3.232,3.232,0,0,1,2.461.186,3.17,3.17,0,0,1,.526.319,2.787,2.787,0,0,1,.475.4c.075.076.152.151.225.231l.194.277a2.674,2.674,0,0,1,.309.611,3.585,3.585,0,0,1-.111,2.5,10.979,10.979,0,0,1-2.377,3.488,23.885,23.885,0,0,1-3.005,2.648c-.528.4-1.073.775-1.626,1.136-.279.177-.557.355-.843.521l-.43.248-.219.118-.11.059-.056.029-.014.007-.022.013a.586.586,0,0,1-.091.047.623.623,0,0,1-.422.02" transform="translate(-42.897 -71.019)" fill="#f57e9d"/>
          <path id="Path_67155" data-name="Path 67155" d="M89.908,176.334a11.6,11.6,0,0,0,1.826,2.727,5.647,5.647,0,0,0,2.438,1.67,3.451,3.451,0,0,0,2.516-.22,8.069,8.069,0,0,0,2.3-1.7l2.21,2.748a11.057,11.057,0,0,1-3.68,1.662,6.491,6.491,0,0,1-2.16.126,5.7,5.7,0,0,1-2.054-.658,7.461,7.461,0,0,1-2.739-2.767,12.65,12.65,0,0,1-1.381-3.351Z" transform="translate(-43.186 -80.175)" fill="#f57e9d"/>
          <path id="Path_67156" data-name="Path 67156" d="M74.354,181.9a3.773,3.773,0,0,0,.552.115c.21.024.425.061.641.071s.434.034.649.033a5.927,5.927,0,0,0,.649-.009,7.212,7.212,0,0,0,2.468-.525A4.373,4.373,0,0,0,81.233,180a6.41,6.41,0,0,0,.969-2.622l.622-.007a7.543,7.543,0,0,1-.2,3.267,6.362,6.362,0,0,1-1.943,2.967,9.982,9.982,0,0,1-3.1,1.771,8.7,8.7,0,0,1-.837.277c-.282.089-.566.157-.852.221s-.577.116-.87.17a8.656,8.656,0,0,1-.961.1Z" transform="translate(-36.762 -80.615)" fill="#f57e9d"/>
        </g>
      </g>
      <g id="Group_3306" data-name="Group 3306" transform="translate(34.754 98.783)">
        <g id="Group_3305" data-name="Group 3305" transform="translate(0 0)" clip-path="url(#clip-path-24)">
          <path id="Path_67157" data-name="Path 67157" d="M108.632,171.922a3.354,3.354,0,0,0,4.071,2.806,3.049,3.049,0,0,0,2.032-3.571,3.137,3.137,0,0,0-4.376-1.982,2.594,2.594,0,0,0-1.727,2.747" transform="translate(-80.91 -170.562)" fill="#84cace"/>
          <path id="Path_67158" data-name="Path 67158" d="M59.349,187.341a1.414,1.414,0,0,0,1.717,1.183,1.286,1.286,0,0,0,.857-1.505,1.323,1.323,0,0,0-1.845-.836,1.094,1.094,0,0,0-.728,1.158" transform="translate(-59.971 -177.854)" fill="#84cace"/>
          <path id="Path_67159" data-name="Path 67159" d="M70,177.113a2.867,2.867,0,0,0,3.479,2.4,2.606,2.606,0,0,0,1.737-3.051,2.68,2.68,0,0,0-3.74-1.694A2.216,2.216,0,0,0,70,177.113" transform="translate(-64.496 -172.953)" fill="#fff"/>
        </g>
      </g>
      <g id="Group_3308" data-name="Group 3308">
        <g id="Group_3307" data-name="Group 3307" clip-path="url(#clip-path-25)">
          <path id="Path_67160" data-name="Path 67160" d="M126.392,119.057l-18.721,16.332c1.227,6.563,15.529,11.878,19.209,8.545Z" transform="translate(-45.754 -50.593)" fill="#f57e9d"/>
        </g>
      </g>
      <g id="Group_3310" data-name="Group 3310" transform="translate(61.917 68.464)">
        <g id="Group_3309" data-name="Group 3309" transform="translate(0 0)" clip-path="url(#clip-path-26)">
          <path id="Path_67161" data-name="Path 67161" d="M125.61,122.154a2.333,2.333,0,0,1-1.267-1.35,1.384,1.384,0,0,0-1.3-.914,2.386,2.386,0,0,1-2.315-2.009,1.435,1.435,0,0,0-1.122-1.18,2.415,2.415,0,0,1-1.893-2.458c.024-.5.064-1,.121-1.5l1.174.135c-.054.469-.092.948-.114,1.422a1.247,1.247,0,0,0,.95,1.242,2.626,2.626,0,0,1,2.055,2.17,1.189,1.189,0,0,0,1.139.994,2.571,2.571,0,0,1,2.423,1.707,1.163,1.163,0,0,0,1.293.74,2.553,2.553,0,0,1,2.7,1.2,1.166,1.166,0,0,0,1.413.473,2.567,2.567,0,0,1,2.891.649,1.189,1.189,0,0,0,1.5.189,2.625,2.625,0,0,1,2.987.065,1.248,1.248,0,0,0,1.562-.119c.343-.34.673-.69.982-1.04l.886.781c-.326.37-.673.738-1.033,1.1a2.416,2.416,0,0,1-3.1.234,1.432,1.432,0,0,0-1.628-.036,2.384,2.384,0,0,1-3.041-.382,1.382,1.382,0,0,0-1.551-.347,2.361,2.361,0,0,1-2.893-.965,1.367,1.367,0,0,0-1.443-.638,2.254,2.254,0,0,1-1.382-.158" transform="translate(-111.936 -116.375)" fill="#84cace"/>
          <path id="Path_67162" data-name="Path 67162" d="M121.5,131.386a2.333,2.333,0,0,1-1.267-1.35,1.384,1.384,0,0,0-1.3-.914,2.386,2.386,0,0,1-2.315-2.009,1.435,1.435,0,0,0-1.122-1.18,2.415,2.415,0,0,1-1.893-2.458c.024-.5.064-1,.121-1.5l1.174.135c-.053.469-.093.948-.115,1.422a1.248,1.248,0,0,0,.951,1.242,2.625,2.625,0,0,1,2.055,2.17,1.189,1.189,0,0,0,1.139.994,2.571,2.571,0,0,1,2.423,1.707,1.163,1.163,0,0,0,1.293.74,2.553,2.553,0,0,1,2.7,1.2,1.165,1.165,0,0,0,1.413.473,2.568,2.568,0,0,1,2.891.649,1.188,1.188,0,0,0,1.5.189,2.626,2.626,0,0,1,2.987.066,1.248,1.248,0,0,0,1.562-.12c.343-.34.673-.689.982-1.04l.886.782c-.327.37-.674.738-1.033,1.095a2.418,2.418,0,0,1-3.1.235,1.432,1.432,0,0,0-1.627-.036,2.385,2.385,0,0,1-3.041-.382,1.382,1.382,0,0,0-1.551-.348,2.36,2.36,0,0,1-2.893-.964,1.366,1.366,0,0,0-1.443-.638,2.254,2.254,0,0,1-1.382-.158" transform="translate(-110.192 -120.298)" fill="#84cace"/>
          <path id="Path_67163" data-name="Path 67163" d="M117.4,140.618a2.333,2.333,0,0,1-1.267-1.35,1.384,1.384,0,0,0-1.3-.914,2.386,2.386,0,0,1-2.315-2.009,1.435,1.435,0,0,0-1.122-1.18,2.415,2.415,0,0,1-1.893-2.458c.024-.5.064-1,.121-1.5l1.174.135c-.053.469-.093.948-.115,1.422a1.248,1.248,0,0,0,.951,1.242,2.625,2.625,0,0,1,2.054,2.17,1.19,1.19,0,0,0,1.14.994,2.571,2.571,0,0,1,2.423,1.707,1.163,1.163,0,0,0,1.293.739,2.553,2.553,0,0,1,2.7,1.2,1.165,1.165,0,0,0,1.413.473,2.567,2.567,0,0,1,2.891.649,1.189,1.189,0,0,0,1.5.189,2.626,2.626,0,0,1,2.987.066,1.248,1.248,0,0,0,1.562-.119c.343-.341.673-.69.982-1.04l.886.781c-.326.37-.673.738-1.033,1.1a2.417,2.417,0,0,1-3.1.234,1.432,1.432,0,0,0-1.627-.036,2.385,2.385,0,0,1-3.041-.382,1.382,1.382,0,0,0-1.551-.348,2.36,2.36,0,0,1-2.893-.964,1.366,1.366,0,0,0-1.443-.638,2.254,2.254,0,0,1-1.382-.158" transform="translate(-108.446 -124.221)" fill="#84cace"/>
          <path id="Path_67164" data-name="Path 67164" d="M113.291,149.85a2.332,2.332,0,0,1-1.267-1.35,1.384,1.384,0,0,0-1.3-.914,2.386,2.386,0,0,1-2.315-2.009,1.435,1.435,0,0,0-1.121-1.18,2.415,2.415,0,0,1-1.893-2.458c.024-.5.064-1,.121-1.5l1.174.135c-.053.469-.093.948-.115,1.422a1.248,1.248,0,0,0,.951,1.242,2.627,2.627,0,0,1,2.055,2.17,1.188,1.188,0,0,0,1.139.994,2.572,2.572,0,0,1,2.424,1.707,1.162,1.162,0,0,0,1.292.739,2.554,2.554,0,0,1,2.7,1.2,1.164,1.164,0,0,0,1.413.473,2.568,2.568,0,0,1,2.891.649,1.188,1.188,0,0,0,1.5.189,2.626,2.626,0,0,1,2.987.066,1.248,1.248,0,0,0,1.562-.119c.343-.34.673-.69.982-1.04l.886.781c-.327.37-.674.738-1.033,1.1a2.416,2.416,0,0,1-3.1.234,1.432,1.432,0,0,0-1.628-.036,2.385,2.385,0,0,1-3.041-.382,1.382,1.382,0,0,0-1.551-.348,2.359,2.359,0,0,1-2.892-.964,1.366,1.366,0,0,0-1.443-.638,2.253,2.253,0,0,1-1.382-.158" transform="translate(-106.701 -128.144)" fill="#84cace"/>
          <path id="Path_67165" data-name="Path 67165" d="M138.3,130.133a21.031,21.031,0,0,1-11.491-1.949c-4.374-1.946-7.749-4.806-9.387-7.63" transform="translate(-111.814 -119.693)" fill="none" stroke="#fce488" stroke-width="1.289"/>
          <path id="Path_67166" data-name="Path 67166" d="M134.438,138.812a21.086,21.086,0,0,1-11.487-1.959c-4.374-1.945-7.751-4.8-9.391-7.619" transform="translate(-110.174 -123.382)" fill="none" stroke="#fce488" stroke-width="1.289"/>
          <path id="Path_67167" data-name="Path 67167" d="M129.886,149.044a23.453,23.453,0,0,1-11.341-2.288c-4.374-1.945-7.813-4.66-9.55-7.261" transform="translate(-108.233 -127.742)" fill="none" stroke="#fce488" stroke-width="1.289"/>
        </g>
      </g>
      <g id="Group_3315" data-name="Group 3315">
        <g id="Group_3314" data-name="Group 3314" clip-path="url(#clip-path-25)">
          <g id="Group_3313" data-name="Group 3313" transform="translate(65.299 68.619)" opacity="0.44" style="mix-blend-mode: multiply;isolation: isolate">
            <g id="Group_3312" data-name="Group 3312">
              <g id="Group_3311" data-name="Group 3311" clip-path="url(#clip-path-28)">
                <path id="Path_67169" data-name="Path 67169" d="M128.894,119.326c-.566,3.414-1.773,10.94-2.288,13.778-1.875,10.322-10.3,7.592-13.054,7.288,4.787,3.91,13.139,6.092,15.827,3.657Z" transform="translate(-113.552 -119.326)" fill="#ff618a"/>
              </g>
            </g>
          </g>
          <path id="Path_67170" data-name="Path 67170" d="M139.044,118.29a8.223,8.223,0,0,1,1.573-1.433,4.24,4.24,0,0,1,1.01-.519,2.084,2.084,0,0,1,1.3-.025,2.044,2.044,0,0,1,.612.336,3.356,3.356,0,0,1,.426.489c.1.174.213.348.292.527s.144.357.2.55a1.963,1.963,0,0,1-.092,1.42,2.368,2.368,0,0,1-.288.353,2.156,2.156,0,0,1-.38.233,2.3,2.3,0,0,1-.4.106,2.856,2.856,0,0,1-.384.01,1.909,1.909,0,0,1-1.315-.662,2.358,2.358,0,0,1-.225-.357,1.969,1.969,0,0,1-.124-.42,1.655,1.655,0,0,1,.093-.809,2.985,2.985,0,0,1,.282-.583,4.646,4.646,0,0,1,.342-.485,3.72,3.72,0,0,1,.912-.826,2.817,2.817,0,0,1,1.257-.443,2.556,2.556,0,0,1,1.362.228,4.25,4.25,0,0,1,1.787,1.663l-1.418.861a2.722,2.722,0,0,0-1.028-1.113,1.191,1.191,0,0,0-1.207.05,2.3,2.3,0,0,0-.591.486,3.314,3.314,0,0,0-.253.32,1.693,1.693,0,0,0-.174.308c-.062.153-.065.194,0,.3a.638.638,0,0,0,.423.236c.183.02.26-.018.289-.059a.907.907,0,0,0,.015-.537c-.133-.533-.4-1.087-.761-1.193a1.057,1.057,0,0,0-.667-.009,3.263,3.263,0,0,0-.786.36,7.37,7.37,0,0,0-1.447,1.19Z" transform="translate(-59.086 -49.182)" fill="#84cace"/>
          <path id="Path_67171" data-name="Path 67171" d="M136.8,107.452a4.2,4.2,0,0,1,.52.417c.151.136.289.281.424.428a6.442,6.442,0,0,1,.708.953,5.7,5.7,0,0,1,.793,2.206,6.114,6.114,0,0,1-.128,2.253,9.021,9.021,0,0,1-.327,1.039c-.141.328-.3.646-.453.964l-.772-.345c.087-.311.185-.615.261-.921a7.886,7.886,0,0,0,.131-.923,4.765,4.765,0,0,0-.183-1.754,4.021,4.021,0,0,0-.818-1.461,4.583,4.583,0,0,0-.6-.576c-.11-.084-.219-.167-.333-.238a1.968,1.968,0,0,0-.3-.168Z" transform="translate(-57.674 -45.661)" fill="#84cace"/>
          <path id="Path_67172" data-name="Path 67172" d="M132.29,112.806a4.165,4.165,0,0,1,.923.248,4.023,4.023,0,0,1,.83.436,3.4,3.4,0,0,1,.714.659,2.443,2.443,0,0,1,.477.926,2.556,2.556,0,0,1-.279,1.995,1.73,1.73,0,0,1-.9.746,1.433,1.433,0,0,1-.645.061,2.662,2.662,0,0,1-.546-.165,1.665,1.665,0,0,1-.8-.856,1.483,1.483,0,0,1,.064-1.217,1.393,1.393,0,0,1,1.046-.651,3.733,3.733,0,0,1,.529.024l.458.131a8.043,8.043,0,0,1,2.645,2l-.6.59a7.315,7.315,0,0,0-2.362-1.658l-.3-.072h-.25a.353.353,0,0,0-.235.141.445.445,0,0,0,.021.3.555.555,0,0,0,.262.244c.066.015.147.039.2.049a.27.27,0,0,0,.124-.022.583.583,0,0,0,.251-.263,1.334,1.334,0,0,0,.085-1.024,2.24,2.24,0,0,0-1.862-1.211Z" transform="translate(-56.079 -47.936)" fill="#84cace"/>
          <path id="Path_67173" data-name="Path 67173" d="M140.984,125.455a2.715,2.715,0,0,0,.154-.585,4.358,4.358,0,0,0,.056-.674,3.835,3.835,0,0,0-.231-1.354,4.01,4.01,0,0,0-.715-1.243,5.124,5.124,0,0,0-.518-.545c-.189-.17-.4-.317-.6-.481l.2-.373c.247.118.507.224.753.361a5.729,5.729,0,0,1,.711.47,4.972,4.972,0,0,1,1.2,1.291,5.144,5.144,0,0,1,.707,1.68,5.974,5.974,0,0,1,.137.919,4.583,4.583,0,0,1-.029,1Z" transform="translate(-59.121 -51.078)" fill="#84cace"/>
          <path id="Path_67174" data-name="Path 67174" d="M45.687,117.346l2.653,26.049c6.392,2.94,19.673-6.128,19.045-11.323Z" transform="translate(-19.415 -49.866)" fill="#fce488"/>
        </g>
      </g>
      <g id="Group_3317" data-name="Group 3317" transform="translate(26.273 67.48)">
        <g id="Group_3316" data-name="Group 3316" transform="translate(0 0)" clip-path="url(#clip-path-29)">
          <path id="Path_67175" data-name="Path 67175" d="M80.01,139.313a2.036,2.036,0,0,1-.81,2.89,1.85,1.85,0,0,1-2.334-.878,1.9,1.9,0,0,1,1.272-2.623,1.574,1.574,0,0,1,1.872.611" transform="translate(-58.854 -126.38)" fill="#f57e9d"/>
          <path id="Path_67176" data-name="Path 67176" d="M56.57,149.088a1.237,1.237,0,0,1-.492,1.755,1.124,1.124,0,0,1-1.418-.533,1.156,1.156,0,0,1,.773-1.593.956.956,0,0,1,1.137.371" transform="translate(-49.45 -130.652)" fill="#f57e9d"/>
          <path id="Path_67177" data-name="Path 67177" d="M63.5,137.983a1.2,1.2,0,0,1-.479,1.708,1.094,1.094,0,0,1-1.38-.519,1.126,1.126,0,0,1,.752-1.552.931.931,0,0,1,1.107.362" transform="translate(-52.418 -125.938)" fill="#f57e9d"/>
          <path id="Path_67178" data-name="Path 67178" d="M70.17,156.531a1.88,1.88,0,0,1-.748,2.668,1.709,1.709,0,0,1-2.155-.81,1.758,1.758,0,0,1,1.175-2.423,1.454,1.454,0,0,1,1.729.565" transform="translate(-54.781 -133.72)" fill="#f57e9d"/>
          <path id="Path_67179" data-name="Path 67179" d="M50.52,131.134a1.086,1.086,0,0,1-.432,1.541.987.987,0,0,1-1.244-.467,1.015,1.015,0,0,1,.678-1.4.84.84,0,0,1,1,.326" transform="translate(-46.985 -123.044)" fill="#f57e9d"/>
          <path id="Path_67180" data-name="Path 67180" d="M52.967,118.574a2.473,2.473,0,0,1-.984,3.51,2.249,2.249,0,0,1-2.836-1.065,2.313,2.313,0,0,1,1.546-3.188,1.912,1.912,0,0,1,2.274.743" transform="translate(-47.057 -117.503)" fill="#f57e9d"/>
          <path id="Path_67181" data-name="Path 67181" d="M33.972,123.366s7.8,6.591,19.1-1.279" transform="translate(-40.709 -119.36)" fill="none" stroke="#84cace" stroke-width="2.324"/>
          <path id="Path_67182" data-name="Path 67182" d="M39.521,131.519s7.8,6.591,19.1-1.279" transform="translate(-43.067 -122.825)" fill="none" stroke="#fff" stroke-width="2.324"/>
          <path id="Path_67183" data-name="Path 67183" d="M42.153,139.545s9.6,6.109,20.851-4.261" transform="translate(-44.186 -124.968)" fill="none" stroke="#84cace" stroke-width="2.586"/>
          <path id="Path_67184" data-name="Path 67184" d="M43.985,147.188s11.387,7.575,24.053-4.219" transform="translate(-44.964 -128.234)" fill="none" stroke="#fff" stroke-width="3.025"/>
          <path id="Path_67185" data-name="Path 67185" d="M46.444,155.316s11.971,8.086,25.034-4.124" transform="translate(-46.009 -131.728)" fill="none" stroke="#84cace" stroke-width="3.163"/>
        </g>
      </g>
      <g id="Group_3322" data-name="Group 3322">
        <g id="Group_3321" data-name="Group 3321" clip-path="url(#clip-path-25)">
          <g id="Group_3320" data-name="Group 3320" transform="translate(26.407 67.572)" opacity="0.73" style="mix-blend-mode: multiply;isolation: isolate">
            <g id="Group_3319" data-name="Group 3319">
              <g id="Group_3318" data-name="Group 3318" clip-path="url(#clip-path-31)">
                <path id="Path_67187" data-name="Path 67187" d="M45.922,117.5c2.592,2.565,8.333,8.185,10.46,10.356,7.738,7.9.264,13.479-1.678,15.667,6.278-1.738,13.239-7.594,12.781-11.389Z" transform="translate(-45.922 -117.505)" fill="#f2d04e"/>
              </g>
            </g>
          </g>
          <path id="Path_67188" data-name="Path 67188" d="M45.726,113.508a8.632,8.632,0,0,1-.275-2.225,4.439,4.439,0,0,1,.168-1.185,2.668,2.668,0,0,1,.28-.6l.207-.289c.091-.083.186-.164.284-.243a1.013,1.013,0,0,1,.319-.187,3.132,3.132,0,0,1,.344-.135,3.486,3.486,0,0,1,.679-.068,6.142,6.142,0,0,1,.631.07c.2.053.4.093.6.162a2.07,2.07,0,0,1,1.165.944,2.562,2.562,0,0,1,.129.463,2.255,2.255,0,0,1-.031.468,2.445,2.445,0,0,1-.151.407,3.035,3.035,0,0,1-.225.336,2.008,2.008,0,0,1-1.37.729,2.472,2.472,0,0,1-.444-.023,2.117,2.117,0,0,1-.436-.149,1.747,1.747,0,0,1-.639-.573,3.1,3.1,0,0,1-.33-.6,4.933,4.933,0,0,1-.209-.589,3.926,3.926,0,0,1-.155-1.288,2.972,2.972,0,0,1,.384-1.352,2.7,2.7,0,0,1,1.025-1.033,4.483,4.483,0,0,1,2.518-.525l-.122,1.745a2.872,2.872,0,0,0-1.583.206,1.257,1.257,0,0,0-.692,1.069,2.409,2.409,0,0,0,.058.8,3.438,3.438,0,0,0,.121.413,1.809,1.809,0,0,0,.159.336c.094.147.128.174.256.185a.675.675,0,0,0,.461-.221c.128-.146.143-.235.125-.285a.952.952,0,0,0-.453-.34,1.74,1.74,0,0,0-1.49-.071,1.12,1.12,0,0,0-.413.568,3.461,3.461,0,0,0-.168.9,7.739,7.739,0,0,0,.143,1.969Z" transform="translate(-19.314 -45.05)" fill="#ff618a"/>
          <path id="Path_67189" data-name="Path 67189" d="M34.1,112.293a4.43,4.43,0,0,1,.675-.193c.209-.048.418-.077.626-.1a6.8,6.8,0,0,1,1.252-.029,6,6,0,0,1,2.381.661,6.453,6.453,0,0,1,1.86,1.482,9.59,9.59,0,0,1,.695.914c.2.322.371.653.554.976l-.767.454c-.214-.264-.417-.533-.634-.786a8.266,8.266,0,0,0-.714-.675,5.026,5.026,0,0,0-1.62-.911,4.244,4.244,0,0,0-1.754-.185,4.842,4.842,0,0,0-.861.166c-.139.043-.277.086-.407.141a2.143,2.143,0,0,0-.328.156Z" transform="translate(-14.491 -47.573)" fill="#ff618a"/>
          <path id="Path_67190" data-name="Path 67190" d="M35.622,119.194a4.37,4.37,0,0,1,.775-.643,4.219,4.219,0,0,1,.881-.449,3.6,3.6,0,0,1,1-.213,2.562,2.562,0,0,1,1.086.154,2.689,2.689,0,0,1,1.547,1.454,1.819,1.819,0,0,1,.095,1.226,1.506,1.506,0,0,1-.34.592,2.794,2.794,0,0,1-.474.369,1.75,1.75,0,0,1-1.221.165,1.562,1.562,0,0,1-1.009-.8,1.467,1.467,0,0,1,.077-1.3,3.848,3.848,0,0,1,.342-.441l.392-.314a8.491,8.491,0,0,1,3.334-1.057l.139.88a7.715,7.715,0,0,0-2.865,1.023l-.243.211-.151.216a.37.37,0,0,0-.021.288.465.465,0,0,0,.267.162.582.582,0,0,0,.37-.077c.052-.047.122-.1.165-.144a.285.285,0,0,0,.056-.12.621.621,0,0,0-.074-.377,1.408,1.408,0,0,0-.829-.7,1.679,1.679,0,0,0-1.132.114,3.075,3.075,0,0,0-1.043.751Z" transform="translate(-15.137 -50.093)" fill="#ff618a"/>
          <path id="Path_67191" data-name="Path 67191" d="M51.742,119.724a2.869,2.869,0,0,0-.409-.488,4.515,4.515,0,0,0-.546-.459,4.027,4.027,0,0,0-1.306-.626,4.209,4.209,0,0,0-1.5-.142,5.38,5.38,0,0,0-.784.113c-.261.059-.516.151-.781.226l-.2-.4c.252-.141.5-.3.768-.428a6.065,6.065,0,0,1,.837-.325,5.252,5.252,0,0,1,1.839-.244,5.44,5.44,0,0,1,1.876.415,6.216,6.216,0,0,1,.874.441,4.826,4.826,0,0,1,.842.633Z" transform="translate(-19.638 -49.698)" fill="#ff618a"/>
          <path id="Path_67192" data-name="Path 67192" d="M34.54,146.976a3.046,3.046,0,1,1-3.045-3.045,3.045,3.045,0,0,1,3.045,3.045" transform="translate(-12.089 -61.163)" fill="#ffe3ea"/>
          <path id="Path_67193" data-name="Path 67193" d="M104.819,98.522c-2.324,3.577.043,6.14,4.032,4.613,5.173-1.98-4.568-8.28-1.8,2.516" transform="translate(-44.153 -41.867)" fill="none" stroke="#f57e9d" stroke-width="2.752"/>
          <path id="Path_67194" data-name="Path 67194" d="M135.876,177.332a1.648,1.648,0,0,1,.448-2.386,1.5,1.5,0,0,1,1.944.542,1.54,1.54,0,0,1-.84,2.2,1.273,1.273,0,0,1-1.552-.36" transform="translate(-57.6 -74.271)" fill="#00b3bd"/>
          <path id="Path_67195" data-name="Path 67195" d="M70.06,84.364a1.648,1.648,0,0,1,.448-2.386,1.5,1.5,0,0,1,1.944.542,1.54,1.54,0,0,1-.84,2.2,1.273,1.273,0,0,1-1.552-.36" transform="translate(-29.632 -34.765)" fill="#00b3bd"/>
          <path id="Path_67196" data-name="Path 67196" d="M97.108,73.441a9.238,9.238,0,0,0,1.745,7.28" transform="translate(-41.204 -31.208)" fill="none" stroke="#fce488" stroke-width="2.752"/>
          <path id="Path_67197" data-name="Path 67197" d="M40.532,167.293a16.7,16.7,0,0,1,3.1,3.22" transform="translate(-17.224 -71.09)" fill="none" stroke="#84cace" stroke-width="4.663"/>
          <path id="Path_67198" data-name="Path 67198" d="M135.4,88.073a16.72,16.72,0,0,1,3.1,3.22" transform="translate(-57.539 -37.426)" fill="none" stroke="#84cace" stroke-width="4.663"/>
          <path id="Path_67199" data-name="Path 67199" d="M95.8,129.473a3.716,3.716,0,0,1,3.424,3.512" transform="translate(-40.712 -55.019)" fill="none" stroke="#fce488" stroke-width="2.752"/>
          <path id="Path_67200" data-name="Path 67200" d="M155.625,153.542l-.344,1.826a.761.761,0,0,0,.042.428l.7,1.723a.764.764,0,0,1-.611,1.044l-1.844.236a.77.77,0,0,0-.394.173l-1.424,1.194a.764.764,0,0,1-1.182-.259l-.795-1.68a.764.764,0,0,0-.286-.321l-1.576-.985a.764.764,0,0,1-.119-1.2l1.352-1.275a.765.765,0,0,0,.217-.371l.45-1.8a.764.764,0,0,1,1.109-.485l1.63.892a.763.763,0,0,0,.42.092l1.855-.129a.764.764,0,0,1,.8.9" transform="translate(-62.7 -64.46)" fill="#84cace" fill-rule="evenodd"/>
          <path id="Path_67201" data-name="Path 67201" d="M158.175,158.221l-.7-1.723a.762.762,0,0,1-.042-.428l.344-1.826a.765.765,0,0,0-.8-.9l-1.006.07a6.229,6.229,0,0,1-3.349,7l.1.205a.764.764,0,0,0,1.182.259l1.424-1.194a.77.77,0,0,1,.394-.173l1.844-.236a.765.765,0,0,0,.611-1.044" transform="translate(-64.857 -65.16)" fill="#00b3bd" fill-rule="evenodd"/>
          <path id="Path_67202" data-name="Path 67202" d="M76.9,108.357l-.344,1.826a.761.761,0,0,0,.042.428l.7,1.723a.764.764,0,0,1-.611,1.044l-1.844.237a.765.765,0,0,0-.394.172l-1.424,1.194a.764.764,0,0,1-1.182-.259l-.795-1.68a.765.765,0,0,0-.286-.321l-1.576-.985a.764.764,0,0,1-.119-1.2l1.352-1.275a.765.765,0,0,0,.217-.371l.45-1.8a.764.764,0,0,1,1.109-.485l1.63.892a.763.763,0,0,0,.42.092l1.855-.129a.764.764,0,0,1,.8.9" transform="translate(-29.247 -45.258)" fill="#f57e9d" fill-rule="evenodd"/>
          <path id="Path_67203" data-name="Path 67203" d="M79.289,113.036l-.7-1.723a.761.761,0,0,1-.042-.428l.344-1.826a.765.765,0,0,0-.8-.9l-.837.059a6.375,6.375,0,0,1-1.934,5.454,5.743,5.743,0,0,1-1.8,1.09l.316.669a.764.764,0,0,0,1.182.259l1.424-1.194a.771.771,0,0,1,.394-.173l1.844-.236a.765.765,0,0,0,.611-1.044" transform="translate(-31.241 -45.959)" fill="#ff618a" fill-rule="evenodd"/>
          <path id="Path_67204" data-name="Path 67204" d="M51.241,90.62a3.716,3.716,0,0,1,3.424,3.512" transform="translate(-21.775 -38.509)" fill="none" stroke="#fce488" stroke-width="2.752"/>
          <line id="Line_41" data-name="Line 41" x1="2.795" y2="7.478" transform="translate(83.343 34.755)" fill="none" stroke="#bffcff" stroke-linecap="round" stroke-linejoin="round" stroke-width="0.945"/>
          <line id="Line_42" data-name="Line 42" x1="8.724" y2="9.931" transform="translate(87.525 34.755)" fill="none" stroke="#bffcff" stroke-linecap="round" stroke-linejoin="round" stroke-width="0.945"/>
          <line id="Line_43" data-name="Line 43" x1="7.807" y2="4.133" transform="translate(90.563 44.331)" fill="none" stroke="#bffcff" stroke-linecap="round" stroke-linejoin="round" stroke-width="0.945"/>
          <line id="Line_44" data-name="Line 44" x2="2.795" y2="7.478" transform="translate(24.601 34.755)" fill="none" stroke="#bffcff" stroke-linecap="round" stroke-linejoin="round" stroke-width="0.945"/>
          <line id="Line_45" data-name="Line 45" x2="8.724" y2="9.931" transform="translate(14.49 34.755)" fill="none" stroke="#bffcff" stroke-linecap="round" stroke-linejoin="round" stroke-width="0.945"/>
          <line id="Line_46" data-name="Line 46" x2="7.807" y2="4.133" transform="translate(12.369 44.331)" fill="none" stroke="#bffcff" stroke-linecap="round" stroke-linejoin="round" stroke-width="0.945"/>
        </g>
      </g>
    </g>
  </g>
</svg>
