<svg xmlns="http://www.w3.org/2000/svg" width="28" height="17.306" viewBox="0 0 28 17.306">
  <g id="mc_symbol" transform="translate(-17.914 -17.999)">
    <g id="Group_349" data-name="Group 349" transform="translate(17.914 17.999)">
      <rect id="Rectangle_94" data-name="Rectangle 94" width="7.571" height="13.606" transform="translate(10.215 1.85)" fill="#ff5f00"/>
      <path id="Path_8603" data-name="Path 8603" d="M348.406,278.653a8.638,8.638,0,0,1,3.3-6.8,8.653,8.653,0,1,0,0,13.606A8.638,8.638,0,0,1,348.406,278.653Z" transform="translate(-337.711 -269.999)" fill="#eb001b"/>
      <path id="Path_8604" data-name="Path 8604" d="M409.958,278.653a8.653,8.653,0,0,1-14,6.8,8.654,8.654,0,0,0,0-13.606,8.653,8.653,0,0,1,14,6.8Z" transform="translate(-381.958 -270)" fill="#f79e1b"/>
      <path id="Path_8605" data-name="Path 8605" d="M450.22,327.247v-.279h.112v-.057h-.286v.057h.112v.279Zm.555,0v-.336h-.088l-.1.231-.1-.231H450.4v.336h.062v-.253l.095.218h.064l.095-.219v.254Z" transform="translate(-423.045 -313.232)" fill="#f79e1b"/>
    </g>
  </g>
</svg>
