<svg xmlns="http://www.w3.org/2000/svg" width="26.017" height="32" viewBox="0 0 26.017 32">
  <g id="Group_1828" data-name="Group 1828" transform="translate(-41.496 0)">
    <g id="Group_1827" data-name="Group 1827" transform="translate(41.496 0)">
      <path id="Path_55967" data-name="Path 55967" d="M66.9,9.1a1.193,1.193,0,0,1,.6,1.323c-.139,1.031-.285,2.062-.391,3.1-.209,2.044-.418,4.09-.58,6.138-.223,2.827-.505,5.646-.989,8.442-.111.64-.176,1.288-.267,1.932a3.448,3.448,0,0,1-.122.61c-.152.454-.362.615-.815.509a3.4,3.4,0,0,0-1.293.1,35.794,35.794,0,0,1-5.338.679c-1.251-.018-2.5.1-3.752.071a64.586,64.586,0,0,1-9.1-.706c-.641-.105-.772-.208-.867-.893q-.4-2.9-.768-5.8c-.34-2.682-.66-5.368-1-8.051-.226-1.807-.451-3.614-.7-5.418a1.076,1.076,0,0,1,.724-1.294,5.486,5.486,0,0,0,.7-.387c-.081-1.5-.156-2.891-.233-4.329,1.906-.768,3.886-.336,5.816-.493.052-.251.117-.476.144-.707a4.586,4.586,0,0,1,5.4-3.85c.563.1,1.12.242,1.673.388a2.966,2.966,0,0,1,2.223,2.949c-.014.282,0,.565,0,.892a5.5,5.5,0,0,0,.658.056q2.928-.115,5.855-.244a4.086,4.086,0,0,1,.466-.035c.531.038.717.256.706.805-.018.886-.024,1.773-.068,2.658a.871.871,0,0,0,.445.906C66.332,8.629,66.584,8.915,66.9,9.1Zm-.562,4.1c.115-.915.292-1.822.448-2.775l-9.378.242c.1.682.167,1.269.292,1.843a1.058,1.058,0,0,1-.246.939.825.825,0,0,1-.983.252c-.321-.154-.429-.5-.286-.941.04-.123.1-.241.148-.361a3.177,3.177,0,0,0,.121-1.776l-6.187.266c.084.6-.107,1.137.253,1.644a.986.986,0,0,1,.074.606.633.633,0,0,1-.538.593.663.663,0,0,1-.765-.4.835.835,0,0,1,.117-.955c.42-.5.214-.947.024-1.468-.99.129-1.972-.187-2.826.164-1.453-.421-2.876-.079-4.384-.256.161,1.035.3,1.981.466,2.921.029.159.207.29.317.434-.449.353-.094.72-.059,1.224l.928-1.442.132.081c-.252.441-.475.9-.764,1.318a1.447,1.447,0,0,0-.084,1.515l1.607-2.36.138.092c-.489.822-.974,1.645-1.467,2.463a.912.912,0,0,0-.053,1.07,11.969,11.969,0,0,1,1.332-1.9,6.741,6.741,0,0,1-.828,1.587,2.722,2.722,0,0,0-.249,2.471l1.03-1.6a3.887,3.887,0,0,1-.593,1.344,1.623,1.623,0,0,0-.139,1.8l.606-.79a2.9,2.9,0,0,0-.44,2.519l.38-.178a2.124,2.124,0,0,0-.043,2.168l1.25-2.067c-.314,1.116-1.136,1.987-1.353,3.124l.148.081q.631-.941,1.262-1.883A9.587,9.587,0,0,1,44.723,26.8a1.417,1.417,0,0,0-.027,1.574l1.072-1.561.133.091c-.306.507-.6,1.021-.922,1.521a1.245,1.245,0,0,0-.207,1.1c.09.292.136.6.207.921l1.25.205c.5-.73.952-1.38,1.4-2.03l.159.1-1.267,2.016,4.342.275.778-.774-.34.8a2.08,2.08,0,0,0,.765.071c.229-.074.4-.312.645-.514l-.169.462c.077.035.126.079.167.072.91-.152,1.856.265,2.747-.174.474.377,1.014.14,1.515.128a26.382,26.382,0,0,0,2.952-.207c1.413-.192,2.814-.468,4.26-.715.139-.91.295-1.8.41-2.7.288-2.244.559-4.49.833-6.737C65.729,18.214,66.017,15.707,66.333,13.2Zm-1.371-5.57V5.422l-.129-.081L63.414,6.892C63.968,7.184,64.315,7.65,64.962,7.633ZM62.907,9.769l3.18-.158a10.91,10.91,0,0,0-3.18-2.047Zm.079-3.514a16.508,16.508,0,0,0,1.128-1.268l-6.206.21a3.347,3.347,0,0,1,.265.737,2.13,2.13,0,0,1-.056.962c-.133.335-.5.348-.819.237a.679.679,0,0,1-.425-.76c.022-.4.067-.8.109-1.282-2.545.13-4.987-.1-7.443.237.079.463.173.87.213,1.283a.692.692,0,0,1-1.183.555,1.38,1.38,0,0,1-.2-.695c-.009-.131.144-.267.191-.412.066-.2.1-.411.169-.7H44.068a1.961,1.961,0,0,0,.73.569c.506.269,1.01.542,1.522.8A1.063,1.063,0,0,1,46.945,7.8c-.009.26-.04.519-.058.779-.037.536-.072,1.073-.109,1.623h2.587c.108-.65.16-1.225.306-1.774a2.889,2.889,0,0,1,1.7-2.007,6.083,6.083,0,0,1,2.992-.347,3.049,3.049,0,0,1,2.923,2.289c.138.469.19.964.3,1.519a32.908,32.908,0,0,0,4.875-.164c0-.757,0-1.408,0-2.058A1.734,1.734,0,0,1,62.985,6.255ZM56.959,4.346a12.3,12.3,0,0,0-.009-1.393,1.841,1.841,0,0,0-1.068-1.542A5.415,5.415,0,0,0,52.391.9a3.465,3.465,0,0,0-2.71,3.632Zm-.474,5.581a3.394,3.394,0,0,0-.29-1.76A1.813,1.813,0,0,0,54.734,7.01a6.843,6.843,0,0,0-1.552-.132,2.727,2.727,0,0,0-2.251,1.047,4.44,4.44,0,0,0-.642,2.269Zm-10.262.324c.046-.792.089-1.531.143-2.46l-3.458,2.46ZM43.868,8.743a16.16,16.16,0,0,0,2.2-1.548L43.282,5.72Z" transform="translate(-41.496 0)"/>
      <path id="Path_55968" data-name="Path 55968" d="M52.26,148.414l.34-.939c-.287.262-.506.544-.34.939-.11-.144-.288-.275-.317-.434-.17-.94-.3-1.886-.466-2.921,1.509.177,2.932-.165,4.384.256.854-.352,1.835-.035,2.826-.164.19.521.4.97-.024,1.468a.835.835,0,0,0-.117.955.663.663,0,0,0,.765.4.633.633,0,0,0,.538-.593.986.986,0,0,0-.074-.606c-.36-.507-.169-1.046-.253-1.644l6.187-.266a3.177,3.177,0,0,1-.121,1.776c-.05.12-.108.238-.148.361-.143.441-.035.787.286.941a.825.825,0,0,0,.983-.252,1.058,1.058,0,0,0,.246-.939c-.125-.573-.187-1.161-.292-1.843l9.378-.242c-.156.953-.332,1.86-.448,2.775-.316,2.5-.6,5.011-.908,7.516-.273,2.246-.545,4.492-.833,6.737-.115.9-.271,1.791-.41,2.7-1.447.247-2.847.523-4.26.715a26.383,26.383,0,0,1-2.952.207c-.5.012-1.04.249-1.515-.128-.89.44-1.837.022-2.747.174-.041.007-.09-.037-.167-.072l.169-.462c-.242.2-.417.44-.645.514a2.08,2.08,0,0,1-.765-.071l.34-.8.04-.04.031-.059.389-.36-.143-.111-.246.471-.048.044c-.008.018-.016.036-.023.055l-.778.774-4.342-.275,1.267-2.016-.159-.1c-.448.649-.9,1.3-1.4,2.03l-1.25-.205c-.071-.324-.117-.629-.207-.921a1.245,1.245,0,0,1,.207-1.1c.319-.5.616-1.014.922-1.521l-.133-.091-1.072,1.561a1.417,1.417,0,0,1,.027-1.574A9.587,9.587,0,0,0,55,159.054q-.63.942-1.262,1.883l-.148-.081c.217-1.137,1.04-2.008,1.353-3.124l-1.25,2.067a2.124,2.124,0,0,1,.043-2.168l-.38.178a2.9,2.9,0,0,1,.44-2.519l-.606.79a1.623,1.623,0,0,1,.139-1.8,3.887,3.887,0,0,0,.593-1.344l-1.03,1.6a2.722,2.722,0,0,1,.249-2.471,6.742,6.742,0,0,0,.828-1.587,11.968,11.968,0,0,0-1.332,1.9.912.912,0,0,1,.053-1.07c.493-.818.978-1.641,1.467-2.463l-.138-.092-1.607,2.36A1.447,1.447,0,0,1,52.5,149.6c.289-.415.512-.877.764-1.318l-.132-.081-.928,1.442C52.166,149.134,51.81,148.767,52.26,148.414Zm17.41,6.011a2.727,2.727,0,0,0-1.379-2.833,4.054,4.054,0,0,0-5.3,1.32,5.009,5.009,0,0,0-.665-.5,4.937,4.937,0,0,0-4.789.031,2.342,2.342,0,0,0-1.231,2.695,5.4,5.4,0,0,0,1.659,3.028,15.824,15.824,0,0,0,3.614,2.829c.82.451,1.624.933,2.432,1.408.7.413,1,.5,1.644-.148a4.643,4.643,0,0,0,.4-.472c.362-.475.685-.984,1.081-1.428A10.156,10.156,0,0,0,69.669,154.424ZM58.861,164.55l.489-.807C59.036,163.928,58.8,164.155,58.861,164.55Zm-1.83.291q.142-.241.282-.484l-.106-.059-.311.461Zm-2.413-.55q.65-1.046,1.3-2.092l-.139-.085a10.866,10.866,0,0,0-1.321,2.078ZM52.9,146.964l.309-.49-.106-.092-.281.541Z" transform="translate(-50.757 -134.241)" fill="#f7931e"/>
      <path id="Path_55969" data-name="Path 55969" d="M347.084,74.171v2.211c-.647.017-.994-.449-1.548-.741l1.419-1.551Z" transform="translate(-323.619 -68.749)" fill="#f7931e"/>
      <path id="Path_55970" data-name="Path 55970" d="M341.686,106.977l-3.18.158V104.93A10.91,10.91,0,0,1,341.686,106.977Z" transform="translate(-317.095 -97.366)" fill="#f15a24"/>
      <path id="Path_55971" data-name="Path 55971" d="M97.221,69.18a16.513,16.513,0,0,1-1.128,1.268,1.734,1.734,0,0,0-.528,1.408c.006.65,0,1.3,0,2.058a32.906,32.906,0,0,1-4.875.164c-.105-.555-.157-1.05-.3-1.519a3.049,3.049,0,0,0-2.923-2.289,6.083,6.083,0,0,0-2.992.347,2.889,2.889,0,0,0-1.7,2.007c-.146.549-.2,1.124-.306,1.774H79.886c.037-.551.071-1.087.109-1.623.018-.26.049-.518.058-.779a1.063,1.063,0,0,0-.625-1.076c-.513-.256-1.016-.529-1.522-.8a1.961,1.961,0,0,1-.73-.569h4.659c-.068.292-.1.5-.169.7-.047.144-.2.28-.191.412a1.38,1.38,0,0,0,.2.695.692.692,0,0,0,1.183-.555c-.04-.413-.133-.82-.213-1.283,2.456-.332,4.9-.107,7.443-.237-.042.481-.087.881-.109,1.282a.679.679,0,0,0,.425.76c.314.111.686.1.819-.237a2.13,2.13,0,0,0,.056-.962,3.347,3.347,0,0,0-.265-.737Z" transform="translate(-74.604 -64.193)" fill="#f15a24"/>
      <path id="Path_55972" data-name="Path 55972" d="M129.942,234.239a2.727,2.727,0,0,1,1.379,2.833A10.156,10.156,0,0,1,128.794,243c-.4.444-.719.953-1.081,1.428a4.643,4.643,0,0,1-.4.472c-.645.65-.941.561-1.644.148-.807-.475-1.611-.957-2.432-1.408a15.825,15.825,0,0,1-3.614-2.829,5.4,5.4,0,0,1-1.659-3.028,2.342,2.342,0,0,1,1.231-2.695,4.937,4.937,0,0,1,4.789-.031,5.007,5.007,0,0,1,.665.5A4.054,4.054,0,0,1,129.942,234.239Z" transform="translate(-112.409 -216.889)" fill="#c1272d"/>
      <path id="Path_55973" data-name="Path 55973" d="M169.382,96.595a3.394,3.394,0,0,1,.29,1.76l-6.2.267a4.44,4.44,0,0,1,.642-2.269,2.727,2.727,0,0,1,2.251-1.047,6.842,6.842,0,0,1,1.552.132A1.813,1.813,0,0,1,169.382,96.595Z" transform="translate(-154.683 -88.428)" fill="#f15a24"/>
      <path id="Path_55974" data-name="Path 55974" d="M183.595,411.661l-.389.36.246-.471Z" transform="translate(-172.991 -381.882)"/>
      <path id="Path_55975" data-name="Path 55975" d="M182.594,418.09l-.031.059-.017-.015Z" transform="translate(-172.378 -387.951)"/>
      <path id="Path_55976" data-name="Path 55976" d="M182.266,418.715l-.04.04c.007-.019.015-.037.023-.055Z" transform="translate(-172.081 -388.517)"/>
      <path id="Path_55977" data-name="Path 55977" d="M154.28,409.26l-.489.807C153.727,409.671,153.965,409.445,154.28,409.26Z" transform="translate(-145.686 -379.758)"/>
      <path id="Path_55978" data-name="Path 55978" d="M127.083,417.019q-.141.242-.282.484l-.135-.081.311-.461Z" transform="translate(-120.526 -386.902)"/>
      <path id="Path_55979" data-name="Path 55979" d="M94.266,386.745q-.649,1.046-1.3,2.092l-.162-.1a10.866,10.866,0,0,1,1.321-2.078Z" transform="translate(-89.107 -358.787)"/>
      <path id="Path_55980" data-name="Path 55980" d="M64.544,108.09c-.054.928-.1,1.667-.143,2.46H61.086Z" transform="translate(-59.674 -100.298)" fill="#f15a24"/>
      <path id="Path_55981" data-name="Path 55981" d="M69.064,80.825a16.158,16.158,0,0,1-2.2,1.548l-.585-3.023Z" transform="translate(-64.49 -73.63)" fill="#f7931e"/>
      <path id="Path_55982" data-name="Path 55982" d="M70.553,168.512l-.309.49-.078-.04.281-.541Z" transform="translate(-68.099 -156.279)"/>
      <path id="Path_55983" data-name="Path 55983" d="M61.949,183.58l-.34.939C61.443,184.124,61.663,183.842,61.949,183.58Z" transform="translate(-60.106 -170.346)"/>
    </g>
  </g>
</svg>
