<svg xmlns="http://www.w3.org/2000/svg" width="102.578" height="112" viewBox="0 0 102.578 112">
  <g id="Group_3227" data-name="Group 3227" transform="translate(-0.001 0)">
    <path id="Path_67062" data-name="Path 67062" d="M146.15,28.967c-.748-2.346-2.559-6.452-6.29-7.581a7.168,7.168,0,0,0-2.077-.3,14.557,14.557,0,0,0-6.448,1.954,45.04,45.04,0,0,0-14.7,12.373l-.318.414.122.508c.942,3.914,1.841,7.848,2.674,11.692l.3,1.384,1.264-.64a39.542,39.542,0,0,1,17.789-4.243,38.276,38.276,0,0,1,6.745.6l.985.178.263-.966a27.445,27.445,0,0,0-.313-15.373Zm0,0" transform="translate(-90.875 -16.476)" fill="#efb17c"/>
    <path id="Path_67063" data-name="Path 67063" d="M121.8,64.087l.057.032,1,.558.513-1.023A46.908,46.908,0,0,1,135.682,48.41c.055-.045.111-.089.167-.132l.153-.12.925-.739-.811-.863a19.548,19.548,0,0,0-10.7-5.834,19.008,19.008,0,0,0-3.35-.3,19.516,19.516,0,0,0-9.49,2.435l-.978.418.293.943a27.5,27.5,0,0,1,.3,15.107l-.291,1.084,1.092.261a35.1,35.1,0,0,1,7.6,2.772c.28.142.575.3.91.481-.3-.164-.6-.326-.91-.48a36.57,36.57,0,0,0-16.411-3.793c-.451,0-.908.008-1.36.023a39.639,39.639,0,0,0-16.979,4.481l-.731.385.171.809q.314,1.489.619,2.982l-2.16.143a.326.326,0,0,1,.269-.3,18.278,18.278,0,0,0-10.515,6c-1.1,1.262-1.383,2.531-.764,3.4a2.267,2.267,0,0,0,1.965.815,6.3,6.3,0,0,0,.943-.079,26.134,26.134,0,0,0,10.735-4.236l.592-.4Q88.047,79.218,89,84.755l-1.139.38a12.2,12.2,0,0,0-2.136-.187A12.988,12.988,0,0,0,77.4,87.965c-1.309,1.113-1.835,2.4-1.411,3.447a2.451,2.451,0,0,0,1.655,1.371,4.26,4.26,0,0,0,1.175.148c.244,0,.516-.015.86-.044a21.865,21.865,0,0,0,9.358-3.075l.735-.368q.4,2.456.77,4.9l-.355,1.446,1.484-.092c7.32-.452,14.8-.816,22.225-1.081l.823-.029.2-.8c.006-.026.011-.05.016-.076a21.284,21.284,0,0,1,6.755-10.464,3.741,3.741,0,0,1,2.22-1.05,1.349,1.349,0,0,1,.718.2,1.762,1.762,0,0,1,.749,1.44,5.1,5.1,0,0,1-.345,1.836,23.866,23.866,0,0,1-3.709,6.928l-1.411,1.825,2.306-.063q1.789-.05,3.579-.09c3.844-.082,7.985-.14,12.307-.173l1.082-.009,0-1.081c.044-11.609-6.9-23.062-17.4-28.922ZM89.211,86.023q.181,1.07.356,2.138C89.449,87.448,89.332,86.735,89.211,86.023Zm13.572-13.97-.033.115c-.029.1-.054.183-.073.255a21.7,21.7,0,0,1-7.638,11.745,2.463,2.463,0,0,1-1.323.623.849.849,0,0,1-.246-.036,1.172,1.172,0,0,1-.74-.928,3.518,3.518,0,0,1,.09-1.442,18.308,18.308,0,0,1,8.423-11.729l.187-.113a3.631,3.631,0,0,1,1.442-.631.229.229,0,0,1,.177.057c.29.252-.111,1.573-.265,2.083ZM113.5,82.569a28.071,28.071,0,0,1-3.962,4.862,6.938,6.938,0,0,1-2.193,1.589,3.175,3.175,0,0,1-1.173.233A2.285,2.285,0,0,1,104.9,88.9a2.694,2.694,0,0,1-1.051-2.464,7.1,7.1,0,0,1,.976-2.823,25.981,25.981,0,0,1,4.138-5.772c.725-.755,2.851-2.411,4.442-2.411a1.837,1.837,0,0,1,.473.058,1.732,1.732,0,0,1,1.164,1.445c.367,1.5-.153,3.393-1.546,5.639Zm0,0" transform="translate(-56.574 -31.583)" fill="#c67045"/>
    <path id="Path_67064" data-name="Path 67064" d="M69.427,95.943l-.156-.667q-.311-1.342-.631-2.681l-.235-.985-1,.158a19.866,19.866,0,0,0-11.622,6.376c-1.022,1.165-1.282,2.326-.7,3.1a1.868,1.868,0,0,0,1.6.687,5.2,5.2,0,0,0,1.158-.15,27.75,27.75,0,0,0,11.048-5.41Zm0,0" transform="translate(-42.796 -71.57)" fill="#c67045"/>
    <path id="Path_67065" data-name="Path 67065" d="M101.814,284.61a10.138,10.138,0,0,0-2.669-.29c-1.023,0-2.075.079-3.11.157-.95.071-1.848.138-2.652.138l-1.718,0c-6.184,0-12.42.068-18.536.2-13.293.287-26.761.9-40.029,1.809-6.279.432-12.823.96-19.45,1.569l-.184.016-.144.066-.165-.037-1.009.091q-.872.079-1.741.161a9.528,9.528,0,0,0-3.53.809,2.874,2.874,0,0,0,.305,5.488,8.153,8.153,0,0,0,2.956.417c.189,0,.378,0,.582,0,28.862-.3,58.087-1.661,86.867-4.032,2.069-.172,4.032-.439,5.308-1.8a3.122,3.122,0,0,0,.654-2.939,2.521,2.521,0,0,0-1.735-1.817Zm0,0" transform="translate(-3.903 -222.125)" fill="#ff8984"/>
    <path id="Path_67066" data-name="Path 67066" d="M351.047,85.73a45.308,45.308,0,0,0-2.349,4.7c-.458,1.012-.932,2.058-1.453,3.073-1.936,3.767-4.395,6.313-7.11,7.361l-1.4.543.95,1.168a34.545,34.545,0,0,1,5.341,9.1l.5,1.253,1.124-.742a16.5,16.5,0,0,0,6.243-8.725A49.832,49.832,0,0,0,354.8,93.292l.008-.066c.059-.5.117-1.007.178-1.508a38.626,38.626,0,0,1,2.074-9.464l1.247-3.176-2.861,1.859a14.513,14.513,0,0,0-4.4,4.793Zm0,0" transform="translate(-264.632 -61.779)" fill="#f9d889"/>
    <path id="Path_67067" data-name="Path 67067" d="M28.558,319.445l-1.261.014.192,1.247a82.972,82.972,0,0,0,3.4,15.18c2.084,5.845,5.266,10.548,9.2,13.6,5.107,3.964,11.584,5.423,17.245,6.327a117.84,117.84,0,0,0,30.91.819c4.548-.478,9.332-1.248,13.51-3.624,5.468-3.109,9.65-8.947,11.775-16.437,1.9-6.7,2.025-13.765,2.135-20l.021-1.208-1.2.1c-28.474,2.335-57.382,3.677-85.922,3.987Zm0,0" transform="translate(-21.325 -246.374)" fill="#ed6d66"/>
    <g id="Group_3226" data-name="Group 3226" transform="translate(1.242 1.092)">
      <path id="Path_67068" data-name="Path 67068" d="M334.147,35.023l-.958.255A47.207,47.207,0,0,0,303.414,59.59l-.433.873.819.531a34.315,34.315,0,0,1,6.921,5.951l.468.525.672-.208c3.925-1.217,6.538-4.954,8.038-7.875.51-.993.978-2.023,1.43-3.02l.044-.1a45.2,45.2,0,0,1,2.309-4.619,12.8,12.8,0,0,1,5.328-5.212A35.988,35.988,0,0,0,326.4,57.223q-.083.683-.162,1.367l-.025.213a49.215,49.215,0,0,1-1.883,10.034,15.867,15.867,0,0,1-6.256,8.562l-.741.46.283.825a30.762,30.762,0,0,1,1.7,10.08l0,1.1,1.1,0q2.1-.01,4.195-.011l1.534,0c.465,0,1-.021,1.72-.07l.69-.049.255-.641A60.633,60.633,0,0,0,334.5,35.951Zm0,0" transform="translate(-237.945 -28.454)" fill="#f7b36f"/>
      <path id="Path_67069" data-name="Path 67069" d="M262.441,241.461l1.524-.051q2.347-.078,4.691-.144l.48-.014.315-.364a24.417,24.417,0,0,0,4.663-8.158,5.6,5.6,0,0,0,.378-2.079,2.446,2.446,0,0,0-1.061-1.964,2.015,2.015,0,0,0-1.061-.289,4.5,4.5,0,0,0-2.643,1.2,22.014,22.014,0,0,0-6.845,10.4Zm0,0" transform="translate(-206.273 -179.528)" fill="#f7b36f"/>
      <path id="Path_67070" data-name="Path 67070" d="M214.435,212.1a2.954,2.954,0,0,0,1.63.458,3.88,3.88,0,0,0,1.413-.277,7.535,7.535,0,0,0,2.411-1.73c1.589-1.57,6.692-7.009,5.686-11.126a2.365,2.365,0,0,0-1.635-1.922,2.567,2.567,0,0,0-.656-.082c-1.738,0-3.927,1.6-4.9,2.615a26.664,26.664,0,0,0-4.246,5.918,7.741,7.741,0,0,0-1.048,3.091,3.343,3.343,0,0,0,1.345,3.055Zm0,0" transform="translate(-167.712 -155.327)" fill="#f7b36f"/>
      <path id="Path_67071" data-name="Path 67071" d="M163.34,187.206a1.558,1.558,0,0,0,.434.062,2.842,2.842,0,0,0,1.723-.762,22.34,22.34,0,0,0,7.867-12.094c.021-.079.053-.186.09-.31l.015-.05a6.718,6.718,0,0,0,.387-1.85l.012-1.448-1.4.385a5.489,5.489,0,0,0-1.335.664l-.177.109a18.813,18.813,0,0,0-5.218,4.643,19.079,19.079,0,0,0-2.187,3.582,18.129,18.129,0,0,0-1.324,3.929,4.085,4.085,0,0,0-.089,1.724,1.823,1.823,0,0,0,1.2,1.416Zm0,0" transform="translate(-127.87 -134.493)" fill="#f7b36f"/>
      <path id="Path_67072" data-name="Path 67072" d="M13.567,69.172l.273.825.866-.079c6.439-.588,12.805-1.1,18.924-1.521q1.451-.1,2.907-.191l2.373-.155-.5-1.386c-.2-1.3-.405-2.632-.636-4.075l-.25-1.566-1.375.79a21.274,21.274,0,0,1-8.662,2.736c-.314.028-.567.041-.795.041a3.664,3.664,0,0,1-1-.12,1.832,1.832,0,0,1-1.224-.984c-.309-.761.161-1.8,1.226-2.705a12.083,12.083,0,0,1,7.835-2.863,11.874,11.874,0,0,1,2.027.174l1.526.266-.261-1.528c-.553-3.233-1.16-6.568-1.8-9.916L34.7,45.322l-1.361.881A25.528,25.528,0,0,1,23.4,49.982a5.437,5.437,0,0,1-.824.068c-1.063,0-1.356-.409-1.452-.543-.428-.6-.156-1.565.727-2.585a17.63,17.63,0,0,1,10.136-5.778.324.324,0,0,1-.057.005.328.328,0,0,1-.295-.181l2.048-.713c-.78-3.781-1.586-7.483-2.394-11l-.38-1.657-1.35,1.033a27.157,27.157,0,0,1-10.23,4.842,4.489,4.489,0,0,1-1,.133,1.2,1.2,0,0,1-1.08-.419c-.455-.609.045-1.577.665-2.28a19.2,19.2,0,0,1,11.12-6.143l1.162-.191-.277-1.145c-.525-2.168-1.069-4.356-1.618-6.505a26.213,26.213,0,0,0-2.649-7.244,9.263,9.263,0,0,0-5.965-4.568,7,7,0,0,0-1.293-.119,8.864,8.864,0,0,0-4.689,1.44A13.951,13.951,0,0,0,9.46,10.983c-4.378,7.124-4.126,16.049-3.3,23.84a165.105,165.105,0,0,0,7.408,34.348Zm0,0" transform="translate(-5.675 -4.992)" fill="#f7b36f"/>
    </g>
    <path id="Path_67073" data-name="Path 67073" d="M98.2,61.431a14.394,14.394,0,0,0-4.436-.285A61.59,61.59,0,0,0,98.457,7.274a1.093,1.093,0,0,0-1.274-.662A47.591,47.591,0,0,0,80.49,14.387,20.413,20.413,0,0,0,55.6,10.256c-1.461-3.348-3.652-5.593-6.3-6.393-3.436-1.04-6.982.493-9.351,1.736A46.168,46.168,0,0,0,25.975,16.928q-.517-2.091-1.048-4.174a27.951,27.951,0,0,0-2.77-7.538,10.354,10.354,0,0,0-6.7-5.079A9.525,9.525,0,0,0,8.681,1.612a15.046,15.046,0,0,0-4.587,4.9c-4.549,7.4-4.3,16.553-3.456,24.527a166.166,166.166,0,0,0,7.3,34.1c-.511.048-1.026.093-1.536.142a10.346,10.346,0,0,0-3.932.929,3.958,3.958,0,0,0,.418,7.477,7.446,7.446,0,0,0,2.142.452,85.479,85.479,0,0,0,3.5,15.744c2.152,6.039,5.458,10.914,9.562,14.1,5.3,4.114,11.945,5.615,17.744,6.54A118.825,118.825,0,0,0,54.565,112a119,119,0,0,0,12.467-.655c4.443-.469,9.574-1.283,13.936-3.762,5.717-3.251,10.081-9.32,12.287-17.09,1.912-6.73,2.061-13.747,2.181-20.544a7.128,7.128,0,0,0,4.356-1.961,4.177,4.177,0,0,0,.908-3.977,3.586,3.586,0,0,0-2.5-2.581ZM96.768,8.974A59.355,59.355,0,0,1,91.19,61.14a1.065,1.065,0,0,0-.1.189c-.588.039-1.146.068-1.649.069q-2.857-.006-5.733.009a33.944,33.944,0,0,0-1.358-9.181c-.1-.359-.172-.725-.241-1.09,4.09-2.88,6.7-7.84,7.986-15.159.274-1.564.49-3.161.7-4.7.554-4.084,1.076-7.943,2.6-11.549a1.094,1.094,0,0,0-1.487-1.409A19.107,19.107,0,0,0,84.042,25.5a36.711,36.711,0,0,0-2.211,4.531c-.507,1.174-1.031,2.388-1.638,3.507-1.8,3.309-3.839,4.528-5.165,4.976-.768-.806-1.83-1.4-2.636-2.14a35.024,35.024,0,0,0-4.7-3.656A46.1,46.1,0,0,1,96.768,8.974ZM81.521,48.811a28.617,28.617,0,0,0-1.964-3.267c-.731-1.23-1.465-2.486-2.3-3.651-.366-.513-.661-1.024-.954-1.524,1.793-.747,3.949-2.365,5.809-5.79.655-1.207,1.2-2.466,1.724-3.685a34.467,34.467,0,0,1,2.073-4.264,16.9,16.9,0,0,1,4.433-4.822,62.482,62.482,0,0,0-1.714,9.171c-.206,1.524-.42,3.1-.686,4.62-1.1,6.287-3.206,10.63-6.415,13.236,0-.009-.006-.017-.009-.025ZM56.5,12.252a18.233,18.233,0,0,1,22.241,3.469c-.109.087-.22.172-.329.26a47.922,47.922,0,0,0-12.6,15.6c-.427-.239-.857-.473-1.3-.693a36.091,36.091,0,0,0-7.84-2.861,28.525,28.525,0,0,0-.314-15.716,1.006,1.006,0,0,0,.14-.061Zm7.028,20.59C74.345,38.3,81.569,49.779,81.524,61.422c-4.116.029-8.237.085-12.323.173q-.955.022-1.912.05a17.442,17.442,0,0,0,3.44-7.159,6.522,6.522,0,0,0,.11-2.76,3.446,3.446,0,0,0-2.06-2.535,3.849,3.849,0,0,0-2.668.113,11.341,11.341,0,0,0-3.905,2.629,26.364,26.364,0,0,0-5.423,7.415,11.039,11.039,0,0,0-.995,2.74q-1.743.069-3.482.128-4.539.149-9.074.361c-.816.038-8.11.077-8.2.446a1.08,1.08,0,0,0,.019-.42c-1.465-9.7-3.229-19.412-5.27-29.06A38.514,38.514,0,0,1,46.29,29.189a35.585,35.585,0,0,1,17.241,3.653Zm.737,28.9c-2.065.076-4.136.164-6.207.25a10.63,10.63,0,0,1,.685-1.682,24.189,24.189,0,0,1,4.975-6.8,9.331,9.331,0,0,1,3.129-2.149,1.828,1.828,0,0,1,1.169-.12,1.3,1.3,0,0,1,.684.951,4.462,4.462,0,0,1-.11,1.827,15.21,15.21,0,0,1-4.179,7.549,1.046,1.046,0,0,0-.145.176ZM31.54,55c.124.657.25,1.313.367,1.971-3.141,1.436-6.759,2.886-10.346,2.541-.708-.068-1.032-.265-1.078-.38s.041-.443.434-.915a9.041,9.041,0,0,1,4.7-2.788,19.051,19.051,0,0,1,5.857-.426c.023,0,.045,0,.068,0ZM27.9,37.406h0c.236,1.193.471,2.38.744,3.553a17.13,17.13,0,0,1-10.335,3.8c-.841.021-.992-.155-1.007-.175-.045-.063-.071-.348.142-.821.8-1.793,2.729-2.993,4.631-4.069A15.421,15.421,0,0,1,27.9,37.406ZM40.968,7.536C43,6.47,46,5.148,48.668,5.956c3.254.984,4.884,4.725,5.565,6.868a26.3,26.3,0,0,1,.3,14.754A40.387,40.387,0,0,0,29.31,31.322q-1.27-5.881-2.68-11.715A43.953,43.953,0,0,1,40.968,7.536ZM24.706,21.414q.194.895.382,1.791A23.191,23.191,0,0,1,13.93,28.269a1.963,1.963,0,0,1-.451.02,10.555,10.555,0,0,1,4.446-4.508A23.307,23.307,0,0,1,24.4,21.535a1.09,1.09,0,0,0,.306-.121ZM2.814,30.808C2.009,23.2,1.753,14.5,5.958,7.657a12.887,12.887,0,0,1,3.9-4.2,7.328,7.328,0,0,1,5.192-1.169,8.189,8.189,0,0,1,5.23,4.058A25.353,25.353,0,0,1,22.809,13.3c.518,2.02,1,4.049,1.451,6.084a1.1,1.1,0,0,0-.321.016,25.282,25.282,0,0,0-7.086,2.478,12.664,12.664,0,0,0-5.4,5.582,2.343,2.343,0,0,0-.254,1.322A1.8,1.8,0,0,0,11.927,30a2.832,2.832,0,0,0,1.683.482,4.273,4.273,0,0,0,.656-.051A25.439,25.439,0,0,0,25.586,25.6c.355,1.726.968,3.349,1.348,5.089.329,1.509.408,3.04.6,4.554A17.514,17.514,0,0,0,21,37.792c-2.218,1.254-4.474,2.681-5.55,5.078a2.937,2.937,0,0,0,.075,2.989,3.125,3.125,0,0,0,2.611,1.093c.088,0,.164,0,.226,0a19.329,19.329,0,0,0,10.886-3.7c.13.436.267.87.418,1.3.691,1.963.614,4.254,1.044,6.285.138.652.267,1.308.4,1.963a20.463,20.463,0,0,0-6.046.515,11.094,11.094,0,0,0-5.828,3.506,3.094,3.094,0,0,0-.789,3.116c.276.7,1,1.573,2.9,1.756q.658.063,1.308.062A23.918,23.918,0,0,0,32.29,59.2c.209,1.244.412,2.487.6,3.726a1.075,1.075,0,0,0,.061.225q-1.916.123-3.829.252c-6.292.433-12.647.947-18.948,1.522a163.956,163.956,0,0,1-7.358-34.12ZM91.15,89.9C89.1,97.11,85.1,102.716,79.887,105.68c-4,2.276-8.654,3.021-13.085,3.489a116.748,116.748,0,0,1-30.622-.813c-5.525-.882-11.836-2.3-16.747-6.108-3.773-2.928-6.831-7.46-8.841-13.1a81.914,81.914,0,0,1-3.346-14.98c28.583-.311,57.51-1.653,86-3.99-.116,6.574-.283,13.349-2.093,19.723Zm7.046-23.4c-1.014,1.081-2.756,1.307-4.6,1.459C64.848,70.321,35.647,71.677,6.8,71.981a8.592,8.592,0,0,1-3.129-.34,1.8,1.8,0,0,1-.192-3.5,8.567,8.567,0,0,1,3.125-.689c.855-.081,1.716-.158,2.575-.238a1.074,1.074,0,0,0,.24.03,1.089,1.089,0,0,0,.349-.057c.026-.009.05-.023.075-.034,6.457-.593,12.973-1.121,19.424-1.565,13.249-.912,26.7-1.519,39.978-1.806,6.7-.145,13.49-.211,20.192-.2.857,0,1.788-.069,2.778-.144a17.889,17.889,0,0,1,5.4.1,1.454,1.454,0,0,1,.974,1.064,2.035,2.035,0,0,1-.4,1.888Zm0,0" transform="translate(0 0)"/>
    <path id="Path_67074" data-name="Path 67074" d="M167.033,163.215c-.136.1-.276.194-.344.233a20.764,20.764,0,0,0-7.97,8.012,19.2,19.2,0,0,0-2.135,6.235,4.078,4.078,0,0,0,.056,1.916,3.228,3.228,0,0,0,3.138,2.1,3.838,3.838,0,0,0,.538-.038,6.361,6.361,0,0,0,3.2-1.718,29.574,29.574,0,0,0,5.993-8.031,12.314,12.314,0,0,0,1.888-6.334c-.038-.719-.154-2.91-1.756-3.326-.913-.237-1.851.422-2.6.951Zm.55,7.665a26.327,26.327,0,0,1-5.523,7.438,4.419,4.419,0,0,1-2.06,1.189,1.2,1.2,0,0,1-1.276-.561,2.27,2.27,0,0,1,.021-.912,17.03,17.03,0,0,1,1.894-5.527,18.61,18.61,0,0,1,7.151-7.168c.147-.085.31-.2.5-.333.167-.117.492-.345.744-.488a4.728,4.728,0,0,1,.174,1.188,10.258,10.258,0,0,1-1.625,5.175Zm0,0" transform="translate(-122.263 -126.73)"/>
    <path id="Path_67075" data-name="Path 67075" d="M205.327,206.625a4.424,4.424,0,0,0,3.574,1.666,5.048,5.048,0,0,0,.688-.047,8.636,8.636,0,0,0,3.748-1.678,19.667,19.667,0,0,0,6.034-7.018c1.336-2.618,1.627-4.941.867-6.9a3.39,3.39,0,0,0-2.3-2.235c-2.306-.613-5.085,1.355-6.974,2.89a19.344,19.344,0,0,0-5.766,7.769c-.916,2.28-.872,4.2.125,5.556Zm1.9-4.74A17.155,17.155,0,0,1,212.347,195c3.077-2.5,4.475-2.622,5.034-2.474.222.059.549.218.817.911.655,1.69-.061,3.717-.776,5.119a17.483,17.483,0,0,1-5.359,6.234,6.278,6.278,0,0,1-2.768,1.289,2.377,2.377,0,0,1-2.206-.749c-.663-.9-.289-2.37.143-3.443Zm0,0" transform="translate(-159.801 -148.668)"/>
    <path id="Path_67076" data-name="Path 67076" d="M160.568,83.282a20.177,20.177,0,0,1,7.914,3.85,1.094,1.094,0,1,0,1.365-1.709,22.38,22.38,0,0,0-8.778-4.27,1.094,1.094,0,0,0-.5,2.129Zm0,0" transform="translate(-124.785 -63.378)"/>
    <path id="Path_67077" data-name="Path 67077" d="M183.667,62.393a15.06,15.06,0,0,1,4.9,2.7,1.094,1.094,0,0,0,1.4-1.682,17.255,17.255,0,0,0-5.616-3.1,1.094,1.094,0,1,0-.679,2.079Zm0,0" transform="translate(-142.9 -47.078)"/>
    <path id="Path_67078" data-name="Path 67078" d="M278.144,385.217a1.087,1.087,0,0,0,.506-.124,22.812,22.812,0,0,0,3.675-2.407,1.5,1.5,0,0,0,.362.047c.083,0,.15-.007.2-.011a27.133,27.133,0,0,0,7.163-1.663,1.094,1.094,0,0,0-.779-2.044,24.9,24.9,0,0,1-4.3,1.209,25.108,25.108,0,0,0,3.444-4.744l5.552-3.022a1.094,1.094,0,0,0-1.046-1.922l-2.947,1.6a24.421,24.421,0,0,0,.863-2.736c1.886-1.771,3.782-3.579,5.639-5.382a1.094,1.094,0,1,0-1.524-1.569c-1.157,1.124-2.331,2.247-3.508,3.366.064-.717.1-1.436.093-2.158a1.094,1.094,0,0,0-1.094-1.086h-.008a1.1,1.1,0,0,0-1.086,1.1,20.453,20.453,0,0,1-.185,2.875,18.542,18.542,0,0,1-2.655-3.368,1.094,1.094,0,1,0-1.864,1.146,20.705,20.705,0,0,0,4.019,4.752,22.387,22.387,0,0,1-.916,2.765c-.305-.9-.64-1.8-1.008-2.669a1.094,1.094,0,1,0-2.016.849,36.776,36.776,0,0,1,1.611,4.7,22.748,22.748,0,0,1-3.11,4.172,39.274,39.274,0,0,1-.1-4.289,1.093,1.093,0,1,0-2.186-.069,41.5,41.5,0,0,0,.274,6.24,20.727,20.727,0,0,1-3.57,2.375,1.093,1.093,0,0,0,.507,2.063Zm0,0" transform="translate(-216.444 -282.925)"/>
    <path id="Path_67079" data-name="Path 67079" d="M110.569,368.315a2.114,2.114,0,0,0,.614.477,23.4,23.4,0,0,0,.866,4.854c-1.13-.646-2.232-1.344-3.293-2.087a1.094,1.094,0,0,0-1.254,1.794,45.3,45.3,0,0,0,5.677,3.378,23.606,23.606,0,0,0,1.522,2.86,22,22,0,0,1-4.824-1.173,1.094,1.094,0,1,0-.755,2.053,24.152,24.152,0,0,0,7.244,1.454,21.461,21.461,0,0,0,3.174,3.165,1.094,1.094,0,1,0,1.371-1.7,19.268,19.268,0,0,1-2.487-2.4c.026-.055.048-.105.066-.148a27.1,27.1,0,0,1,3.554-6.075,1.094,1.094,0,0,0-1.729-1.341,29.281,29.281,0,0,0-3.4,5.58,21.262,21.262,0,0,1-1.883-3.469,39.483,39.483,0,0,1,3.149-5.552,1.094,1.094,0,1,0-1.809-1.23,41.8,41.8,0,0,0-2.342,3.888,21,21,0,0,1-.7-4.531,54.386,54.386,0,0,0,4.936-5.116,1.094,1.094,0,0,0-1.671-1.412c-1,1.178-2.053,2.314-3.155,3.4.057-.49.132-.978.226-1.462a1.094,1.094,0,0,0-2.146-.421,21.121,21.121,0,0,0-.344,2.658l-2.52-2.707a1.094,1.094,0,0,0-1.6,1.491Zm0,0" transform="translate(-83.406 -282.178)"/>
  </g>
</svg>
