<svg xmlns="http://www.w3.org/2000/svg" width="107.277" height="112.11" viewBox="0 0 107.277 112.11">
  <g id="Group_3220" data-name="Group 3220" transform="translate(-8.331 0)">
    <g id="Group_3219" data-name="Group 3219" transform="translate(8.331 0)">
      <path id="Path_67017" data-name="Path 67017" d="M114.964,26.393c1.166,5.851.493,11.684-.029,17.535a83.071,83.071,0,0,0-.461,9.715,103.606,103.606,0,0,1-3.649,31.43c-2.208,7.719-5.236,15.247-10.469,21.66a11.287,11.287,0,0,1-8,4.418c-10.454.943-20.961,1.706-31.346-.328-6.153-1.2-12.117-3.336-18.223-4.8-8.641-2.065-16.05-6.573-23.372-11.307a8.709,8.709,0,0,1-3.931-5.143,68.439,68.439,0,0,1-1.891-9.529c-.339-3.208-.1-6.475-.206-9.712a11.988,11.988,0,0,0-.577-2.379c-.548-2.219-1.143-4.427-1.63-6.66-.534-2.442-.685-5-1.5-7.339a25.77,25.77,0,0,1-.316-15.47A20,20,0,0,1,16.18,27.8c7.032-5.726,14.632-10.243,23.871-11.084a22.68,22.68,0,0,1,7.455.534c4.148,1.044,8.18,2.561,12.253,3.9.78.255,1.537.583,2.6.992.244-.9.415-1.4.508-1.906C65.024,8.55,79.6-.3,89.878.008A37.507,37.507,0,0,1,94.9.2a18.667,18.667,0,0,1,11.47,6.55C111.268,12.469,113.531,19.22,114.964,26.393Zm-3.82,19.94a57.041,57.041,0,0,0,1.044-14.063c-.293-4.537-1.7-9.019-2.805-13.48-1.146-4.609-3.933-8.354-7.2-11.629a14.449,14.449,0,0,0-5.575-3.307c-4.74-1.561-9.561-.983-14.22.557C73.543,7.332,67.5,13.1,64.835,22.167c-.307,1.044-.493,2.12-.725,3.142-.5,0-.737.07-.9-.012a58.305,58.305,0,0,0-17-5.413,25.208,25.208,0,0,0-7.786.041c-8.247,1.369-15.09,5.68-21.019,11.3-5.2,4.934-6.53,11.513-5.314,18.272.867,4.821,2.3,9.535,2.762,14.466.168,1.816.786,3.791,2.785,4.664,1.233-3.292,2.37-6.321,3.507-9.346-.029,3.426-1.871,6.37-2.01,9.918a3.758,3.758,0,0,0,4.087-2.448c.467-1.047.8-2.158,1.221-3.229.044-.116.293-.151.6-.293-.119.969-.229,1.854-.313,2.544,1.54.5,2.889.949,4.351,1.433a10.834,10.834,0,0,1,.6-.937,4.814,4.814,0,0,1,.627-.586A7.331,7.331,0,0,0,31.4,72.823c.867-1.575,1.648-2.991,2.428-4.406a16.29,16.29,0,0,1-1.349,5.219c-.67,1.671-.171,2.791,1.494,3.585C35.012,74.7,36.01,72.287,37,69.873c.2.07.392.142.586.212l-2.057,7.11c3.382-.516,4.05-3.179,5.065-4.946,1.7-.212,3.22-.8,4.485-.453,1.5.418,2.776,1.642,3.73,2.251.746,3.545.4,6.77,1.743,10.04,1.682-2.509,2.135-5.323,4.722-6.884-1.282,2.912-2.567,5.828-3.893,8.842.487.513.966,1.021,1.569,1.659,1.233-2.762,2.379-5.329,3.522-7.893.223.09.447.177.667.267-.928,2.593-1.859,5.187-2.921,8.145a5.178,5.178,0,0,0,4.467-3.1q1.649-3.211,3.33-6.408c.055-.1.293-.113.624-.229-.133.772-.247,1.427-.328,1.906l4.1,1.14c.421-.49.957-1.117,1.7-1.981-.339,1.807-.879,3.217-.8,4.592a61.715,61.715,0,0,0,1.027,7.449,20.157,20.157,0,0,0,1.25,4.517c1.169,2.657,4.664,4.85,7.066,4.392,2.973-.563,3.725-3.1,4.357-5.575.519-2.031.769-4.134,1.378-6.132.566-1.854.937-4.079,3.348-4.531,2.242-.418,3.408,1.271,4.543,2.788A3,3,0,0,0,93.8,88.395c1.479-.4,2.515-1.218,2.6-2.753.2-3.449,2.129-6.086,3.954-8.76,2.495-3.658,4.882-7.4,6.086-11.673C108.2,58.969,109.948,52.7,111.143,46.333Zm-7.971,41.386c4.241-8.871,8.807-17.66,8.351-27.781-1.479,3.67-2.712,7.6-4.609,11.177-1.952,3.675-4.627,6.962-6.828,10.512a6.915,6.915,0,0,0-.969,3.522c.009,2-.244,3.7-1.967,5.015A2.616,2.616,0,0,0,96.361,92a33.873,33.873,0,0,0,.383,3.989A23.159,23.159,0,0,0,103.172,87.719Zm5.752-9.352a2.95,2.95,0,0,0-.56.737A47.278,47.278,0,0,1,97.8,96.761a3.679,3.679,0,0,0-1.085,2.187c-.046,2.35.151,4.7.255,7.055l.661.139C103.288,97.721,107.4,88.63,108.924,78.367Zm-14.263,19.5c.772-2.379,1.018-4.377.232-6.208-1.738-.3-3.408-.252-4.722-.914-1.378-.693-2.416-2.065-4.067-3.562-.629,3.571-1.175,6.663-1.8,10.211C87.911,97.564,91.186,97.715,94.661,97.872Zm-.2,10.878c.9-3.188.386-6.463.444-9.668H83.676c-.316.432-.719,1.038-1.172,1.6-2.39,3-5.062,3.968-8.6,2.57a20.7,20.7,0,0,1-5.494-3.484,6.19,6.19,0,0,0-3.391-1.825c-4.348-.566-8.7-1.2-12.61-3.527a10.067,10.067,0,0,0-4.186-1.169,24.612,24.612,0,0,1-12.044-4.171,9.868,9.868,0,0,0-2.8-1.4c-3.464-.972-6.965-1.822-10.745-2.793-.467,2.37-.963,4.879-1.474,7.458,1.079.629,1.946,1.137,2.976,1.735.687-2.208,1.305-4.2,2.077-6.672.264.714.342.818.325.9-.229,1.236-.479,2.466-.711,3.7-.574,3.052-.528,3.15,2.295,4.609a7.466,7.466,0,0,0,1.067.334c.3-1.259.54-2.483.893-3.672.331-1.1.786-2.155,1.186-3.229l.435.142c-.5,2.521-.995,5.042-1.5,7.586l4.447,2.37c.348-1.543.583-2.779.914-3.986.313-1.155.728-2.283,1.1-3.42.2.061.4.122.6.186-.351,2.028-.751,4.05-1.041,6.089-.267,1.868-.215,1.874,2.225,2.152,1.169-2.19,1.4-4.856,3.6-6.605-.722,2.442-1.447,4.885-2.213,7.472,1.52.455,2.692.809,4.023,1.21.719-2.158,1.372-4.122,2.025-6.086l.49.142c-.328,2.123-.653,4.244-1.007,6.533l2.988.3,2.115-5.964.635.2c-.458,2.06-.917,4.116-1.4,6.3l1.975.424c.357-1.05.65-2.042,1.038-3,.377-.934.85-1.827,1.282-2.738.154.075.31.151.467.223-.453,1.9-.9,3.8-1.4,5.886l2.8.8c.693-2.321,1.314-4.395,1.935-6.469a21.911,21.911,0,0,1-.751,5.21c-.3,1.413.113,2.266,1.7,1.967.534-1.363,1.027-2.619,1.52-3.873l.47.183c-.255,1.288-.511,2.579-.754,3.809C64.011,109.017,89.164,109.35,94.461,108.75ZM66.28,96.12c-1.575-3.281.012-6.733-2.492-9.393.194-1.1,1.546-2.367-.418-3.649-.484.676-.989,1.3-1.4,1.981-.482.806-.815,1.709-1.326,2.5-3,4.635-8.505,4.734-11.7.215a11.575,11.575,0,0,1-2.106-6.158,37.429,37.429,0,0,0-.658-5.926,3.278,3.278,0,0,0-1.827-1.877c-.336-.139-1.352.746-1.717,1.366a10.11,10.11,0,0,1-4.389,4.351c-3.736,1.743-6.881.775-8.685-2.883-.827-1.677-1.288-3.533-1.955-5.294-.426-1.128-.925-2.225-1.622-3.881-2.8,3.794-5.819,5.944-10.382,3.8.2,2.506.281,4.7.6,6.852a3.064,3.064,0,0,0,1.265,1.964c4.047,2.416,8.134,4.862,12.894,5.558a17.692,17.692,0,0,1,7.026,2.515,19.806,19.806,0,0,0,9.651,3.481,19.789,19.789,0,0,1,8.119,2.26C58.5,95.6,62.152,95.342,66.28,96.12ZM20.16,91.444c.769-2.88,1.372-5.149,1.987-7.446L16.5,80.824A23.533,23.533,0,0,0,20.16,91.444Z" transform="translate(-8.331 0)"/>
      <path id="Path_67018" data-name="Path 67018" d="M120.369,39.446a57.04,57.04,0,0,1-1.044,14.063c-1.2,6.364-2.941,12.636-4.7,18.875-1.2,4.27-3.591,8.015-6.086,11.673-1.825,2.675-3.757,5.311-3.954,8.76-.087,1.535-1.123,2.35-2.6,2.753a3,3,0,0,1-3.519-1.349c-1.134-1.517-2.3-3.205-4.543-2.788-2.411.453-2.782,2.677-3.348,4.531-.609,2-.859,4.1-1.378,6.132-.632,2.474-1.384,5.013-4.357,5.575-2.4.458-5.9-1.735-7.066-4.392a20.157,20.157,0,0,1-1.25-4.517,61.714,61.714,0,0,1-1.027-7.449c-.078-1.375.461-2.785.8-4.592-.743.864-1.279,1.491-1.7,1.981l-4.1-1.14c.081-.479.194-1.134.328-1.906-.331.116-.569.125-.624.229q-1.684,3.194-3.33,6.408a5.178,5.178,0,0,1-4.467,3.1c1.062-2.959,1.993-5.552,2.921-8.145-.22-.09-.444-.177-.667-.267-1.143,2.564-2.289,5.132-3.522,7.893-.6-.638-1.082-1.146-1.569-1.659,1.326-3.014,2.611-5.929,3.893-8.842-2.588,1.561-3.04,4.374-4.722,6.884-1.34-3.269-1-6.495-1.743-10.04-.954-.609-2.231-1.833-3.73-2.251-1.265-.351-2.788.241-4.485.453-1.015,1.767-1.682,4.43-5.065,4.946l2.057-7.11c-.194-.07-.389-.142-.586-.212-.995,2.413-1.993,4.824-3.034,7.348-1.665-.795-2.164-1.915-1.494-3.585a16.29,16.29,0,0,0,1.349-5.219c-.78,1.416-1.561,2.831-2.428,4.406a7.331,7.331,0,0,1-1.091-7.136,4.816,4.816,0,0,0-.627.586,10.833,10.833,0,0,0-.6.937c-1.462-.484-2.811-.928-4.351-1.433.084-.69.194-1.575.313-2.544-.3.142-.554.177-.6.293-.424,1.07-.754,2.181-1.221,3.229a3.758,3.758,0,0,1-4.087,2.448c.139-3.548,1.981-6.492,2.01-9.918-1.137,3.026-2.274,6.054-3.507,9.346-2-.873-2.617-2.849-2.785-4.664-.458-4.931-1.894-9.645-2.762-14.466-1.215-6.759.116-13.338,5.314-18.272,5.929-5.625,12.772-9.935,21.019-11.3a25.207,25.207,0,0,1,7.786-.041,58.306,58.306,0,0,1,17,5.413c.165.081.4.012.9.012.232-1.021.418-2.1.725-3.142,2.66-9.065,8.708-14.835,17.553-17.756,4.659-1.54,9.48-2.118,14.22-.557a14.449,14.449,0,0,1,5.575,3.307c3.266,3.275,6.054,7.02,7.2,11.629C118.67,30.427,120.077,34.909,120.369,39.446Zm-5.192,21.016a46.893,46.893,0,0,0,2.86-26.177c-.247-1.479-.769-2.912-1.163-4.366a10.8,10.8,0,0,0,0,3.539c.542,9.425-.482,18.667-4.392,27.311-3.484,7.71-6.138,15.812-10.64,23.056a9.5,9.5,0,0,0-.525,1.836,9.361,9.361,0,0,0,4.58-4.94C109.062,74,112.326,67.317,115.177,60.462ZM112.52,29.571a14.115,14.115,0,0,0,0-2.5c-.438-4.821-3.69-7.78-8.348-7.713-.815,2.242-1.569,4.163-2.2,6.124a12.594,12.594,0,0,0-.806,3.614c-.038,3.252,2.817,6.341,5.688,6.39C109.895,35.535,112.221,33.131,112.52,29.571Zm-.748,21.068c.342-3.072-.516-5.57-3.356-7.159-.629-.351-1.207-.795-1.987-1.314-1.842,2.091-3.516,3.931-5.108,5.836a6.6,6.6,0,0,0-1.218,2.164c-.864,2.7.653,4.609,2.341,6.4a3.641,3.641,0,0,0,4.342.766A7.874,7.874,0,0,0,111.772,50.64ZM97.331,72.587c.313-3.826-1-6.144-4.476-7.829-.943-.455-1.912-.859-2.878-1.262a1.929,1.929,0,0,0-2.834,1.041c-1.152,2.35-2.46,4.624-3.583,6.988-1.094,2.3-.6,4.157,1.221,5.99,1.6,1.61,3.565,1.558,5.117,1.491C95.037,79.015,96.954,77.252,97.331,72.587ZM94.9,23.422c.035-3.437-2.53-6.881-5.517-7.5a2.369,2.369,0,0,0-1.944.467,26.621,26.621,0,0,0-3.3,4.572,5.817,5.817,0,0,0,.763,6.77c1.436,1.755,3.234,3.023,5.744,2.411,2.689-.653,3.435-2.843,4.038-5.126A10.627,10.627,0,0,0,94.9,23.422ZM81.4,43.109a9.044,9.044,0,0,0-2.57-11.464c-.731-.574-1.421-1.2-2.12-1.793-1.7,2.558-3.136,5.071-4.928,7.293a5.262,5.262,0,0,0-.627,6.115c1.082,2.332,3.313,2.442,5.352,2.585A4.772,4.772,0,0,0,81.4,43.109ZM70.041,73.141a14.218,14.218,0,0,0,.313-1.946c-.041-2.686-.542-4.139-2.181-5.541a18.289,18.289,0,0,0-3.693-2.3c-2.1-1.059-2.318-.978-3.585.847-.893,1.288-1.769,2.59-2.57,3.936-1.25,2.109-.931,4.186.244,6.237.94,1.639,2.643,1.871,4.2,2.445C67.244,78.47,68.808,77.713,70.041,73.141ZM61.515,36.528c.125-3.385-2.3-4.905-4.3-6.373-1.738-1.276-2.509,1.215-3.748,1.938a5.054,5.054,0,0,0-1.949,1.973,5.88,5.88,0,0,0-.708,3.2c.36,2.419,3.423,4.621,5.717,4.395A5.214,5.214,0,0,0,61.515,36.528ZM48.282,64.358c1.543-4.781-.58-9.222-6.039-11.934a33.11,33.11,0,0,1-2.318,4.081,35.894,35.894,0,0,1-3.3,3.345c-.148.145-.339.325-.357.5-.1.978-.563,2.239-.131,2.892A31.165,31.165,0,0,0,40.395,68.2a3.257,3.257,0,0,0,2.35.534A6.03,6.03,0,0,0,48.282,64.358ZM43.208,47.046c.992-1.079,1.43-2.669,2.028-3.87-.911-3.9-2.184-7.139-5.062-9.541-.238-.2-.542-.516-.78-.484-.751.1-1.833.084-2.164.551-1.926,2.73-3.783,5.52-5.439,8.415-1.152,2.013-.47,4.876,1.213,6.637,2.091,2.184,3.153,2.463,6.121,1.076A13.054,13.054,0,0,0,43.208,47.046ZM24.794,72.6q.7-2.907,1.4-5.813C25.073,68.567,24.02,70.362,24.794,72.6Z" transform="translate(-16.513 -7.175)" fill="#ffcdec"/>
      <path id="Path_67019" data-name="Path 67019" d="M326.958,206.627c.455,10.121-4.11,18.91-8.351,27.781a23.159,23.159,0,0,1-6.428,8.27,33.876,33.876,0,0,1-.383-3.989,2.615,2.615,0,0,1,.789-1.836c1.723-1.311,1.975-3.014,1.967-5.015a6.914,6.914,0,0,1,.969-3.522c2.2-3.551,4.876-6.837,6.828-10.512C324.246,214.227,325.479,210.3,326.958,206.627Z" transform="translate(-223.766 -146.689)" fill="#a67c52"/>
      <path id="Path_67020" data-name="Path 67020" d="M317.406,82.773a46.892,46.892,0,0,1-2.86,26.177c-2.851,6.855-6.115,13.538-9.277,20.259a9.36,9.36,0,0,1-4.58,4.94,9.5,9.5,0,0,1,.525-1.836c4.5-7.243,7.156-15.345,10.64-23.056,3.91-8.644,4.934-17.886,4.392-27.311a10.8,10.8,0,0,1,0-3.539C316.638,79.86,317.16,81.293,317.406,82.773Z" transform="translate(-215.882 -55.663)"/>
      <path id="Path_67021" data-name="Path 67021" d="M324.644,270.894a2.951,2.951,0,0,1,.56-.737c-1.523,10.263-5.636,19.354-11.3,27.775l-.661-.139c-.1-2.353-.3-4.705-.255-7.055a3.679,3.679,0,0,1,1.085-2.187A47.279,47.279,0,0,0,324.644,270.894Z" transform="translate(-224.611 -191.79)" fill="#8c6239"/>
      <path id="Path_67022" data-name="Path 67022" d="M311.508,49.708a14.117,14.117,0,0,1,0,2.5c-.3,3.559-2.625,5.964-5.668,5.915-2.872-.049-5.726-3.139-5.688-6.39a12.6,12.6,0,0,1,.806-3.614c.635-1.961,1.389-3.881,2.2-6.124C307.818,41.928,311.07,44.886,311.508,49.708Zm-3.426,5.546c1.8-1.946,1.944-4.4,1.291-6.794-.641-2.35-1.81-4.432-4.754-4.836-.267,1-.438,1.912-.757,2.767-.366.978-.867,1.9-1.305,2.851a5.133,5.133,0,0,0,.4,5.364C304.256,56.492,306.623,56.838,308.082,55.254Z" transform="translate(-215.498 -29.812)"/>
      <path id="Path_67023" data-name="Path 67023" d="M304.189,121.941c2.84,1.59,3.7,4.087,3.356,7.159a7.874,7.874,0,0,1-4.986,6.689,3.641,3.641,0,0,1-4.342-.766c-1.688-1.787-3.205-3.7-2.341-6.4a6.6,6.6,0,0,1,1.218-2.164c1.593-1.906,3.266-3.745,5.108-5.836C302.983,121.146,303.56,121.59,304.189,121.941Zm-1.981,12.134a6.515,6.515,0,0,0,.589-11.145c-1.575,1.793-3.24,3.524-4.711,5.41-1.186,1.529-.766,3.394.751,5.091A2.53,2.53,0,0,0,302.208,134.075Z" transform="translate(-212.287 -85.635)"/>
      <path id="Path_67024" data-name="Path 67024" d="M313.869,52.453c.653,2.393.508,4.847-1.291,6.794-1.459,1.584-3.826,1.239-5.129-.647a5.132,5.132,0,0,1-.4-5.364c.438-.949.94-1.874,1.305-2.851.319-.856.49-1.764.757-2.767C312.059,48.02,313.228,50.1,313.869,52.453Z" transform="translate(-219.994 -33.804)" fill="#593b15"/>
      <path id="Path_67025" data-name="Path 67025" d="M307.143,128.567a6.515,6.515,0,0,1-.589,11.145,2.53,2.53,0,0,1-3.371-.644c-1.517-1.7-1.938-3.562-.751-5.091C303.9,132.091,305.568,130.36,307.143,128.567Z" transform="translate(-216.633 -91.272)" fill="#593b15"/>
      <path id="Path_67026" data-name="Path 67026" d="M280.827,305.043c.786,1.83.54,3.829-.232,6.208-3.475-.157-6.75-.307-10.356-.473.624-3.548,1.169-6.64,1.8-10.211,1.651,1.5,2.689,2.869,4.067,3.562C277.418,304.79,279.089,304.741,280.827,305.043Z" transform="translate(-194.265 -213.378)" fill="#a67c52"/>
      <path id="Path_67027" data-name="Path 67027" d="M126.3,306.816c-.058,3.205.455,6.48-.444,9.668-5.3.6-30.45.267-34.47-1.659.244-1.23.5-2.521.754-3.809l-.47-.183c-.493,1.253-.986,2.509-1.52,3.873-1.59.3-2-.554-1.7-1.967a21.911,21.911,0,0,0,.751-5.21c-.621,2.074-1.242,4.148-1.935,6.469l-2.8-.8c.493-2.083.943-3.983,1.4-5.886-.157-.072-.313-.148-.467-.223-.432.911-.905,1.8-1.282,2.738-.389.954-.682,1.946-1.038,3L81.1,312.4c.487-2.184.946-4.241,1.4-6.3l-.635-.2-2.115,5.964-2.988-.3c.354-2.289.679-4.409,1.007-6.533l-.49-.142c-.653,1.964-1.305,3.928-2.025,6.086-1.331-.4-2.5-.754-4.023-1.21.766-2.588,1.491-5.03,2.213-7.472-2.193,1.749-2.428,4.415-3.6,6.605-2.44-.279-2.492-.284-2.225-2.152.29-2.039.69-4.061,1.041-6.089-.2-.064-.4-.125-.6-.186-.368,1.137-.783,2.265-1.1,3.42-.331,1.207-.566,2.442-.914,3.986l-4.447-2.37c.5-2.544,1-5.065,1.5-7.586l-.435-.142c-.4,1.073-.856,2.132-1.186,3.229-.354,1.189-.592,2.413-.893,3.672a7.473,7.473,0,0,1-1.067-.334c-2.822-1.459-2.869-1.558-2.295-4.609.232-1.236.482-2.466.711-3.7.017-.084-.061-.189-.325-.9-.772,2.474-1.389,4.464-2.077,6.672-1.03-.6-1.9-1.105-2.976-1.735.511-2.579,1.007-5.088,1.474-7.458,3.78.972,7.281,1.822,10.745,2.793a9.87,9.87,0,0,1,2.8,1.4,24.611,24.611,0,0,0,12.044,4.171,10.067,10.067,0,0,1,4.186,1.169c3.907,2.329,8.261,2.962,12.61,3.527a6.19,6.19,0,0,1,3.391,1.825,20.7,20.7,0,0,0,5.494,3.484c3.539,1.4,6.211.432,8.6-2.57.453-.566.856-1.172,1.172-1.6Z" transform="translate(-39.729 -207.735)" fill="#8c6239"/>
      <path id="Path_67028" data-name="Path 67028" d="M247.354,194.79c3.472,1.685,4.789,4,4.476,7.829-.377,4.664-2.294,6.428-7.432,6.419-1.552.067-3.522.119-5.117-1.491-1.819-1.833-2.315-3.69-1.221-5.99,1.123-2.364,2.431-4.638,3.582-6.988a1.929,1.929,0,0,1,2.834-1.041C245.443,193.931,246.412,194.334,247.354,194.79ZM248,206.6c2.695-2.176,2.422-7.641-.5-9.628a31.055,31.055,0,0,0-3.455-1.8c-1.389,2.509-2.715,4.725-3.867,7.034a3.358,3.358,0,0,0,3.3,5.013c.937-.029,1.88.012,2.805-.09A3.4,3.4,0,0,0,248,206.6Z" transform="translate(-171.012 -137.207)"/>
      <path id="Path_67029" data-name="Path 67029" d="M244.85,30.047c2.988.621,5.552,4.064,5.517,7.5a10.629,10.629,0,0,1-.22,1.593c-.6,2.283-1.349,4.473-4.038,5.126-2.509.612-4.308-.656-5.744-2.411a5.817,5.817,0,0,1-.763-6.77,26.621,26.621,0,0,1,3.3-4.572A2.369,2.369,0,0,1,244.85,30.047Zm2.26,11.31c2.57-3.3,1.508-7.38-2.637-9.4-.885,1-1.653,1.851-2.4,2.721-1.665,1.932-1.537,4.038-.473,6.155A3.351,3.351,0,0,0,247.11,41.358Z" transform="translate(-171.98 -21.302)"/>
      <path id="Path_67030" data-name="Path 67030" d="M253.021,201.643c2.927,1.987,3.2,7.452.5,9.628a3.4,3.4,0,0,1-1.717.534c-.925.1-1.868.061-2.805.09a3.358,3.358,0,0,1-3.3-5.013c1.152-2.309,2.477-4.525,3.867-7.034A31.051,31.051,0,0,1,253.021,201.643Z" transform="translate(-176.536 -141.875)" fill="#593b15"/>
      <path id="Path_67031" data-name="Path 67031" d="M249.26,36.737c4.145,2.019,5.207,6.1,2.637,9.4a3.351,3.351,0,0,1-5.514-.522c-1.065-2.118-1.192-4.224.473-6.155C247.606,38.588,248.375,37.738,249.26,36.737Z" transform="translate(-176.767 -26.08)" fill="#593b15"/>
      <path id="Path_67032" data-name="Path 67032" d="M202.694,79.97a9.044,9.044,0,0,1,2.57,11.464,4.772,4.772,0,0,1-4.894,2.735c-2.039-.142-4.27-.252-5.352-2.585a5.262,5.262,0,0,1,.627-6.115c1.793-2.222,3.226-4.734,4.928-7.293C201.272,78.772,201.963,79.4,202.694,79.97Zm.374,10.84a7.258,7.258,0,0,0-1.941-9.9c-1.416,2.062-2.738,3.887-3.948,5.784-.531.835-1.244,1.856-1.157,2.721a2.893,2.893,0,0,0,2.785,2.564C200.324,92.107,201.957,92.5,203.068,90.81Z" transform="translate(-140.373 -55.499)"/>
      <path id="Path_67033" data-name="Path 67033" d="M205.257,87.6a7.258,7.258,0,0,1,1.941,9.9c-1.111,1.685-2.744,1.3-4.261,1.169a2.893,2.893,0,0,1-2.785-2.564c-.087-.864.627-1.886,1.157-2.721C202.518,91.484,203.841,89.659,205.257,87.6Z" transform="translate(-144.503 -62.187)" fill="#593b15"/>
      <path id="Path_67034" data-name="Path 67034" d="M81.591,251.845c2.5,2.66.917,6.112,2.492,9.393-4.128-.777-7.777-.522-11.122-2.222a19.789,19.789,0,0,0-8.119-2.26,19.806,19.806,0,0,1-9.651-3.481,17.691,17.691,0,0,0-7.026-2.515c-4.76-.7-8.847-3.142-12.894-5.558a3.064,3.064,0,0,1-1.265-1.964c-.316-2.155-.4-4.345-.6-6.852,4.563,2.144,7.58-.006,10.382-3.8.7,1.656,1.2,2.753,1.622,3.881.667,1.761,1.128,3.617,1.955,5.294,1.8,3.658,4.949,4.627,8.685,2.883a10.11,10.11,0,0,0,4.389-4.351c.365-.621,1.381-1.506,1.717-1.366a3.278,3.278,0,0,1,1.828,1.877,37.429,37.429,0,0,1,.658,5.926,11.575,11.575,0,0,0,2.106,6.158c3.194,4.519,8.7,4.421,11.7-.215.511-.789.844-1.691,1.326-2.5.409-.682.914-1.305,1.4-1.981C83.137,249.478,81.786,250.743,81.591,251.845Z" transform="translate(-26.134 -165.118)" fill="#a67c52"/>
      <path id="Path_67035" data-name="Path 67035" d="M162.541,199.829a14.222,14.222,0,0,1-.313,1.946c-1.233,4.572-2.8,5.329-7.272,3.678-1.558-.574-3.26-.806-4.2-2.445-1.175-2.051-1.494-4.128-.244-6.237.8-1.346,1.677-2.648,2.57-3.936,1.268-1.825,1.482-1.906,3.585-.847a18.29,18.29,0,0,1,3.693,2.3C162,195.689,162.5,197.143,162.541,199.829Zm-4.012,4.56c3.5-5.819,2.808-8.511-2.938-11.142-.853,1.192-1.575,2.2-2.3,3.214-3.069,4.25-1.729,7.3,3.5,7.916A14.025,14.025,0,0,0,158.53,204.389Z" transform="translate(-108.7 -135.809)"/>
      <path id="Path_67036" data-name="Path 67036" d="M160.366,198.007c5.746,2.631,6.44,5.323,2.938,11.142a14.025,14.025,0,0,1-1.74-.012c-5.23-.621-6.57-3.667-3.5-7.916C158.791,200.212,159.513,199.2,160.366,198.007Z" transform="translate(-113.475 -140.569)" fill="#593b15"/>
      <path id="Path_67037" data-name="Path 67037" d="M132.9,78.341c2,1.468,4.421,2.988,4.3,6.373a5.214,5.214,0,0,1-4.984,5.132c-2.295.226-5.358-1.975-5.717-4.395a5.88,5.88,0,0,1,.708-3.2,5.054,5.054,0,0,1,1.949-1.973C130.394,79.556,131.165,77.065,132.9,78.341Zm1.63,8.224a3.157,3.157,0,0,0,.293-4.052,29.276,29.276,0,0,0-2.222-2.689,39.754,39.754,0,0,0-3.44,3.3c-.458.557-.879,1.758-.595,2.187.708,1.07,1.706,2.321,2.825,2.619C132.279,88.172,133.764,87.354,134.533,86.565Z" transform="translate(-92.196 -55.362)"/>
      <path id="Path_67038" data-name="Path 67038" d="M139.75,87.016a3.158,3.158,0,0,1-.293,4.052c-.769.789-2.254,1.607-3.139,1.369-1.12-.3-2.118-1.549-2.825-2.619-.284-.429.136-1.63.595-2.187a39.752,39.752,0,0,1,3.44-3.3A29.268,29.268,0,0,1,139.75,87.016Z" transform="translate(-97.12 -59.865)" fill="#593b15"/>
      <path id="Path_67039" data-name="Path 67039" d="M81.643,155.987c5.459,2.712,7.583,7.153,6.039,11.934a6.03,6.03,0,0,1-5.538,4.377,3.257,3.257,0,0,1-2.35-.534,31.164,31.164,0,0,1-4.258-4.955c-.432-.653.035-1.915.131-2.892.017-.18.209-.36.357-.5a35.9,35.9,0,0,0,3.3-3.345A33.114,33.114,0,0,0,81.643,155.987Zm3.31,12.737a7.945,7.945,0,0,0-2.173-9.758c-1.2,1.276-2.332,2.631-3.623,3.8-3.026,2.75-3.052,3.649.073,6.37.313.276.664.508,1,.757C82.276,171.416,83.8,171.036,84.953,168.724Z" transform="translate(-55.914 -110.738)"/>
      <path id="Path_67040" data-name="Path 67040" d="M86.527,166.257a7.945,7.945,0,0,1,2.173,9.758c-1.155,2.312-2.677,2.692-4.723,1.172-.336-.249-.687-.482-1-.757-3.124-2.721-3.1-3.62-.073-6.37C84.195,168.888,85.323,167.533,86.527,166.257Z" transform="translate(-59.66 -118.029)" fill="#593b15"/>
      <path id="Path_67041" data-name="Path 67041" d="M73.045,99.567c-.6,1.2-1.036,2.791-2.028,3.87a13.053,13.053,0,0,1-4.084,2.785c-2.968,1.387-4.029,1.108-6.121-1.076-1.682-1.761-2.364-4.624-1.213-6.637,1.656-2.895,3.513-5.686,5.439-8.415.331-.467,1.413-.455,2.164-.551.238-.032.542.284.78.484C70.861,92.428,72.134,95.668,73.045,99.567Zm-2.611,1.285c.873-2.759-.615-6.744-3.551-9.2-1.52,2.353-3.075,4.693-4.551,7.084a7.184,7.184,0,0,0-1.079,2.553c-.325,2.138,1.764,4.493,3.638,4.052C67.4,104.75,69.561,103.613,70.435,100.852Z" transform="translate(-44.322 -63.566)"/>
      <path id="Path_67042" data-name="Path 67042" d="M72.247,96.807c2.936,2.46,4.424,6.446,3.551,9.2s-3.034,3.9-5.543,4.485c-1.874.441-3.962-1.915-3.638-4.052a7.183,7.183,0,0,1,1.079-2.553C69.172,101.5,70.727,99.16,72.247,96.807Z" transform="translate(-49.685 -68.725)" fill="#593b15"/>
      <path id="Path_67043" data-name="Path 67043" d="M42.137,281.8c-.615,2.3-1.218,4.566-1.987,7.446a23.533,23.533,0,0,1-3.661-10.62Z" transform="translate(-28.321 -197.803)" fill="#8c6239"/>
      <path id="Path_67044" data-name="Path 67044" d="M37.632,205.5q-.7,2.907-1.4,5.813C35.453,209.074,36.506,207.278,37.632,205.5Z" transform="translate(-27.946 -145.886)"/>
    </g>
  </g>
</svg>
