<svg xmlns="http://www.w3.org/2000/svg" width="16" height="15.969" viewBox="0 0 16 15.969">
  <g id="Group_94" data-name="Group 94" transform="translate(0 -0.5)">
    <path id="Path_79" data-name="Path 79" d="M5.8,13.974a.624.624,0,0,1-.613-.738l.327-1.756,0-.008A4.5,4.5,0,0,1,6.75,9.166L9.586,6.314a2.277,2.277,0,1,1,3.221,3.219L9.971,12.385A4.5,4.5,0,0,1,7.664,13.62l-1.743.342A.618.618,0,0,1,5.8,13.974Zm.939-2.261-.158.848.839-.165A3.251,3.251,0,0,0,9.088,11.5l2.835-2.852a1.034,1.034,0,0,0,0-1.457h0a1.034,1.034,0,0,0-1.456,0L7.634,10.047a3.255,3.255,0,0,0-.893,1.665Zm5.517,4.756H3.743A3.747,3.747,0,0,1,0,12.726V4.243A3.747,3.747,0,0,1,3.743.5h8.515A3.747,3.747,0,0,1,16,4.243v8.483A3.747,3.747,0,0,1,12.257,16.469ZM3.743,1.748a2.5,2.5,0,0,0-2.5,2.5v8.483a2.5,2.5,0,0,0,2.5,2.5h8.515a2.5,2.5,0,0,0,2.5-2.5V4.243a2.5,2.5,0,0,0-2.5-2.5Zm2.62,2.932V3.619a.624.624,0,0,0-1.248,0v1.06a.937.937,0,0,1-.936.936H3.119a.624.624,0,0,0,0,1.248h1.06A2.186,2.186,0,0,0,6.363,4.679Z" fill="#d8a235"/>
  </g>
</svg>
