<svg xmlns="http://www.w3.org/2000/svg" width="104.61" height="117.98" viewBox="0 0 104.61 117.98">
  <g id="Group_3218" data-name="Group 3218" transform="translate(0)">
    <path id="Path_66990" data-name="Path 66990" d="M68.73,58.955c.47-1.7.68-3.45,1.13-5.152A13.235,13.235,0,0,1,73.016,48.4c1.066-1.223,1.893-2.622,2.987-3.823a16.052,16.052,0,0,1,4.251-3.4,38.392,38.392,0,0,0,4-2.524,22.7,22.7,0,0,1,5.187-2.326,21.435,21.435,0,0,1,6.36-1.593,49.715,49.715,0,0,1,6.258.259c1.04.073,2.151.15,3.239.325,1.7-.313,3.73-.616,5.3.241a37.784,37.784,0,0,1,4.022,2.9,15.936,15.936,0,0,1,3.9,3.767,20.155,20.155,0,0,1,2,4.383,8.43,8.43,0,0,1,.816.794,11.951,11.951,0,0,1,2.318,4.318,19.342,19.342,0,0,1,1.227,4.832c.251,3.483.751,6.775.085,10.256a23.449,23.449,0,0,1-.24,3.5c-.512,3.4-.786,6.824-2.625,9.847a14.912,14.912,0,0,1-1.556,2.056c-.335.385-.752,1.089-1.155,1.595a21,21,0,0,1-3.983,4.035c-2.73,1.951-5.583,4.208-8.768,5.406-1.609.605-3.168,1.3-4.816,1.787a24.18,24.18,0,0,1-5.76.95c-3.392.166-6.971-1.094-10.1-2.288a13.551,13.551,0,0,1-4.363-2.734c-.933-.879-2.185-1.718-3.247-2.71-.627-.586-1.134-1.24-1.8-1.792a18.629,18.629,0,0,1-1.852-1.618,22.741,22.741,0,0,1-3.508-4.657c-1.72-3.282-3.445-6.745-3.824-10.482A29.952,29.952,0,0,1,68.73,58.955Zm46.881,20.528a9.479,9.479,0,0,1,1.239-1.376,5.2,5.2,0,0,0,.551-.772,3.426,3.426,0,0,1-1.431-.548c0,.031-.007.062-.011.094a9.106,9.106,0,0,1-1.327,3.953A8.472,8.472,0,0,0,115.611,79.483ZM112.9,82.659c.35-.33.685-.683,1.015-1.039a3.5,3.5,0,0,1-2.092.807c-.048.232-.1.463-.154.693-.047.194-.1.395-.16.6A16.927,16.927,0,0,0,112.9,82.659ZM91.491,89.6a6.955,6.955,0,0,1-.721-.542c-.13.071-.26.142-.393.205C90.753,89.374,91.126,89.485,91.491,89.6ZM79.962,49.108c.016-.076.033-.153.05-.229-.1.12-.2.24-.3.362C79.793,49.193,79.877,49.149,79.962,49.108Z" transform="translate(-29.492 -26.701)" fill="#fff"/>
    <path id="Path_66991" data-name="Path 66991" d="M267.208,314.956c.281-.392.571-.776.866-1.156a3.37,3.37,0,0,1,.774-.973c2.395-2.92,5.128-5.557,7.728-8.288.853-.9,1.494-1.732,2.171-2.576a6.08,6.08,0,0,1,.355-1.031,24.655,24.655,0,0,1,3.387-4.606c1.246-1.6,2.316-3.306,3.713-4.782,1.529-1.614,3.075-3.255,4.656-4.811a5.664,5.664,0,0,1,2.795-1.9,3.4,3.4,0,0,1,.811-.035,1.983,1.983,0,0,1,.957-1.43c1.668-.929,3.422.126,4.672,1.3.3.28.571.575.848.866.316.276.639.543.965.805a4.7,4.7,0,0,1,2,1.2,25.143,25.143,0,0,1,1.772,1.987c1.823.4,3.566,2.345,4.734,3.509,1.385,1.38,3.9,3.409,3.233,5.6a1.686,1.686,0,0,1-.94,1.1,3.544,3.544,0,0,1-.469,2.547c.008-.01-.186.255-.31.412-.03.1-.1.281-.1.283a4.7,4.7,0,0,1-1.006,1.581c-.608.814-1.293,1.527-1.877,2.357a15.644,15.644,0,0,1-1.969,2.7c-1.576,1.447-2.768,3.209-4.518,4.523a48.7,48.7,0,0,0-4.824,4.25c-1.489,1.463-3.022,2.9-4.506,4.19-.841.731-1.75,1.307-2.53,2.046-.8.756-1.616,1.5-2.44,2.226a25.473,25.473,0,0,0-1.82,1.937c-.684.74-1.022,1.539-1.665,2.329a4.522,4.522,0,0,1-4.689,1.67,7,7,0,0,1-2.1-1.318c-.466-.321-1.013-.51-1.5-.783-.441-.245-.822-.6-1.254-.847a6.452,6.452,0,0,1-2.025-1.289,4.916,4.916,0,0,1-1.059-1.927c-.01-.037-.014-.07-.021-.106-.372-.28-.749-.557-1.147-.819a21.247,21.247,0,0,1-2.931-1.949c-.741-.689-1.758-1.26-2.168-2.229C264.859,319.346,265.935,316.729,267.208,314.956Z" transform="translate(-263.623 -217.799)" fill="#9e6226"/>
    <path id="Path_66992" data-name="Path 66992" d="M289.685,313.63c.47-.694.625-.783.907-1.247.31-.51.553-1.062.87-1.567.556-.887,1.249-1.615,1.779-2.5a23.727,23.727,0,0,1,2.141-2.952,30.632,30.632,0,0,1,2.432-2.737c.717-.674,1.53-1.155,2.169-1.843a58.792,58.792,0,0,0,4.133-5.135,38.567,38.567,0,0,0,3.211-4.58,13.032,13.032,0,0,1,4.586-4.954,19,19,0,0,1,3.527-2.157,3.991,3.991,0,0,1,.886-1.5c1.675-1.718,3.846-1.018,5.58.129a49.335,49.335,0,0,1,7.377,6.579,3.128,3.128,0,0,1,.019,4.366,29.218,29.218,0,0,1-7.156,12.009c-1.134.959-2.522,1.609-3.648,2.568a29.637,29.637,0,0,0-2.613,3.209c-1.021,1.14-2.165,2.422-3.345,3.576-2.087,2.042-4.486,3.542-6.494,5.58a9.845,9.845,0,0,1-4.106,2.941,2.517,2.517,0,0,1-.616.089,13.617,13.617,0,0,1-1.224,1.748c-.016.046-.034.095-.055.151.008-.021-.5,1.361-.2.477a3.973,3.973,0,0,1-3.747,2.853,6.546,6.546,0,0,1-5.882-5.793,6.045,6.045,0,0,1-1.107-2.5,20.007,20.007,0,0,1-.475-3.438A5.894,5.894,0,0,1,289.685,313.63Z" transform="translate(-285.395 -216.585)" fill="#c18140"/>
    <path id="Path_66993" data-name="Path 66993" d="M340.389,329.435c.113-.493.085-1,.155-1.492a7.141,7.141,0,0,1,.679-1.929,28.915,28.915,0,0,1,2.2-3.552c.784-1.213,1.451-2.421,2.333-3.582a38.1,38.1,0,0,1,3.277-3.669,71.87,71.87,0,0,1,6.857-5.757,35.353,35.353,0,0,0,3.322-3.04,10.442,10.442,0,0,0,2.645-3.443c.681-1.982,3.737-1.189,3.171.874-.8,2.9-3.31,5.2-5.344,7.3-1.1,1.139-2.421,2.064-3.628,3.091-1.274,1.085-2.436,2.286-3.7,3.376a30.622,30.622,0,0,0-3.6,3.585,42.916,42.916,0,0,1-3.16,3.2,12.156,12.156,0,0,0-2.66,3.811c-.389.852-.967,1.867-2.024,1.924A.554.554,0,0,1,340.389,329.435Z" transform="translate(-332.239 -232.28)" fill="#d4a375"/>
    <path id="Path_66994" data-name="Path 66994" d="M263.557,276.217c.014-.034.027-.068.041-.1a2.171,2.171,0,0,1,2.571-1.46c1.075.187,1.711,1.135,2.449,1.716a32.162,32.162,0,0,1,3.271,2.347,11.291,11.291,0,0,0,2.428,2.076c1.245.709,2.23,1.29,2.355,2.869.149,1.874-1.908,2.436-3.2,1.726l.013.1c-.635-.417-1.426-.687-2.091-1.124a13.556,13.556,0,0,1-2.617-2.245,12.491,12.491,0,0,0-2.174-1.875,6.428,6.428,0,0,1-1.371-1.187c-.132-.161-.353-.337-.315-.382A1.941,1.941,0,0,1,263.557,276.217Z" transform="translate(-226.088 -211.331)" fill="#999"/>
    <path id="Path_66995" data-name="Path 66995" d="M264.808,293.845a2.591,2.591,0,0,1,2.549-2.251,5.05,5.05,0,0,1,3.592,2.01,11.7,11.7,0,0,1,.741.971c-.284-.392.2.251.3.443a2.429,2.429,0,0,1,.212,1.937l-.035,0a1.477,1.477,0,0,1-.763.949q-.721.318-.315.125.443-.21-.39.157a2.849,2.849,0,0,1-2.226-.4,11.9,11.9,0,0,1-1.309-.822c-.1-.076-.266-.159-.377-.251-.042-.007-.083-.012-.125-.021A2.577,2.577,0,0,1,264.808,293.845Z" transform="translate(-222.043 -224.403)" fill="gray"/>
    <path id="Path_66996" data-name="Path 66996" d="M36.51,38.131a23.808,23.808,0,0,1,1.881-5.408,23.487,23.487,0,0,1,2.872-4.762c.431-.526.9-.994,1.313-1.531.633-.834,1.176-1.745,1.855-2.546a41.027,41.027,0,0,1,2.828-3.4c1.376-1.3,2.8-2.537,4.211-3.8a26.732,26.732,0,0,1,2.191-1.733c.324-.235.646-.535.974-.754.188-.125,1.12-.787.3,0a15.3,15.3,0,0,1,4.638-3.311A26.77,26.77,0,0,1,63.992,9.17a28.487,28.487,0,0,1,5.8-.649c1.641,0,3.255-.447,4.9-.41.929.02,1.852.26,2.788.287,1.2.035,2.371-.013,3.567.113a17.424,17.424,0,0,1,5.165,1.182c.947.415,1.878.853,2.811,1.294A20.693,20.693,0,0,1,91.7,12.2c1.225.8,2.493,1.562,3.637,2.489a8.207,8.207,0,0,1,1.323.876A11.028,11.028,0,0,1,98.886,18.3c.562.9.977,1.869,1.517,2.773a24.961,24.961,0,0,1,1.628,2.8,3.456,3.456,0,0,1,.294,1.245,1.885,1.885,0,0,1,1.175.974c.141.3.26.586.364.867.418,1.041.77,2.1,1.1,3.179a29.344,29.344,0,0,1,.668,3.032,2.571,2.571,0,0,1-.087,1.318,33.1,33.1,0,0,0,.967,3.2,28.1,28.1,0,0,1,1.083,5.135,14.276,14.276,0,0,1,.133,5.82,1.773,1.773,0,0,1-.883,1.177c-.007.369-.008.74.015,1.116a12.275,12.275,0,0,1-.1,3.582,40.017,40.017,0,0,1-1.669,5.931,24.391,24.391,0,0,1-2.74,4.861,26.231,26.231,0,0,1-3.634,4.636c-.742.667-1.331,1.464-2.1,2.116-.8.677-1.568,1.362-2.389,1.983a10.043,10.043,0,0,1-2.666,1.65,4.4,4.4,0,0,1-.738.194c-.455.326-.922.641-1.407.946a27.071,27.071,0,0,1-11.584,4.278c-1.792.142-3.738.23-5.657.249a23.462,23.462,0,0,1-3.207-.283c-1.057-.134-1.72-.229-2.488-.338a12.619,12.619,0,0,1-3.575-1.215,25.921,25.921,0,0,1-2.579-1.213c-1.646-1.007-3.222-2.12-4.836-3.174-.911-.6-1.537-1.181-2.485-1.786a17.223,17.223,0,0,1-2.475-1.634,8.75,8.75,0,0,1-1.65-2.1,7.507,7.507,0,0,1-1.344-.8,22.857,22.857,0,0,1-1.922-1.7,7.5,7.5,0,0,1-1.565-1.963,7.884,7.884,0,0,0-1.412-1.533,7.561,7.561,0,0,1-.889-1.15c-.066-.109-.262-.519-.375-.776-.184-.249-.573-.836-.63-.933a6.391,6.391,0,0,1-.613-1.506c-.01-.037-.019-.078-.029-.117a16.416,16.416,0,0,1-1.5-4.395,43.063,43.063,0,0,0-1.092-4.852,23.021,23.021,0,0,1-1.256-5.987A22.359,22.359,0,0,1,36.51,38.131ZM48.185,60.86A7.156,7.156,0,0,1,49.3,62.811c.98,1.117,2,2.169,3,3.274a10.063,10.063,0,0,1,.847,1.083c1.374.781,2.736,1.575,4.054,2.424,1.381.889,2.7,1.9,4.132,2.838a24.874,24.874,0,0,0,4.589,2.424,17.755,17.755,0,0,0,4.884.9,29.505,29.505,0,0,0,4.909.079,26.666,26.666,0,0,0,2.718-.137c.932-.179,1.882-.465,2.8-.726s1.823-.55,2.722-.863a8.643,8.643,0,0,0,1.023-.41c.164-.082.319-.185.484-.265l.492-.207.033-.025a9.472,9.472,0,0,1,1.945-1.07,4.105,4.105,0,0,1,.409-.492,13.248,13.248,0,0,1,2.064-1.43,24.268,24.268,0,0,0,3.893-3.382c.569-.618,1.25-1.078,1.8-1.7a23.3,23.3,0,0,0,1.369-2.031c.929-1.317,1.619-2.784,2.531-4.1a15.565,15.565,0,0,0,1.771-4.389,10.363,10.363,0,0,0,.593-2.9,32.921,32.921,0,0,1,.264-3.344c.111-.877.209-1.783.287-2.692a13.5,13.5,0,0,1-.642-3.082c-.142-1.34-.285-2.667-.5-3.991-.778-2.286-1.212-4.677-2.118-6.907-.494-1.218-.915-2.465-1.4-3.686-.2-.5-.368-1.014-.543-1.53-.88-1.085-1.54-2.275-2.468-3.339a17.869,17.869,0,0,1-1.705-2.05,5.782,5.782,0,0,1-.5-.976c-.046-.115-.124-.5-.177-.751-.03-.026-.06-.052-.091-.077a39.77,39.77,0,0,0-3.875-2.277,38.245,38.245,0,0,0-4.313-1.987,12.57,12.57,0,0,0-3.463-.99c-1.529-.208-3.053-.074-4.594-.2a16.471,16.471,0,0,0-2.613-.192c-.849.063-1.65.262-2.5.344-1.385.134-2.764.106-4.156.27-.621.073-1.257.1-1.878.205a6.029,6.029,0,0,1-1,.368c-.451.164-.893.3-1.331.5a17.315,17.315,0,0,0-3.37,1.852c-.1.07-.18.128-.252.177-.072.093-.18.221-.341.4a2.7,2.7,0,0,1-.741.651c-.655.412-1.286.814-1.916,1.279a30.942,30.942,0,0,0-6.347,6.132c-.871,1.172-1.787,2.267-2.6,3.482-.837,1.251-1.842,2.282-2.628,3.564-.41.668-.829,1.344-1.23,2.017-.333.56-.518,1.194-.86,1.747a9.741,9.741,0,0,0-1.13,4.657,23.939,23.939,0,0,0,.456,5.46c.338,1.641.9,3.192,1.176,4.851a29.129,29.129,0,0,0,.872,3.964c1.285,1.252,1.784,2.753,2.673,3.96C47.059,59.852,47.819,60.421,48.185,60.86Z" transform="translate(-5.023 -6.24)" fill="#999"/>
    <g id="Group_3216" data-name="Group 3216" transform="translate(33.553 4.186)">
      <path id="Path_66997" data-name="Path 66997" d="M39.3,121.312c.579-1.232,1.674-1.825,2.52-2.844a41.136,41.136,0,0,1,3.4-3.073,34.748,34.748,0,0,1,3.355-2.715c.156-.119.353-.274.519-.424-.125.092.547-.714.482-.638.409-.486.829-.958,1.23-1.453A52.614,52.614,0,0,0,55.08,104.2a19.133,19.133,0,0,0,1.868-4.029c.191-.607.439-1.21.676-1.8a5.045,5.045,0,0,1,.349-.683,11.469,11.469,0,0,1-.4-1.568,29.6,29.6,0,0,1-.008-4.525,50.062,50.062,0,0,0-.665-8.576c-.261-1.458-.766-2.873-1.125-4.309a29.226,29.226,0,0,0-1.115-4.437c-.533-1.229-1.177-2.422-1.605-3.7-.2-.6-.352-1.223-.549-1.828-.12-.37-.057-.994-.212-1.3a.443.443,0,0,1,.764-.447,4.355,4.355,0,0,0,.968.866,9.605,9.605,0,0,1,1.283,1.554,24.842,24.842,0,0,1,2.516,3.757,23.059,23.059,0,0,1,1.3,4.613,48.677,48.677,0,0,1,1.241,5.046,30.792,30.792,0,0,1,.516,4.454c.006,1.593.112,3.19.114,4.79a15.8,15.8,0,0,1-.512,4.681c-.37,1.222-.37,2.781-1.189,3.8-.2.254-.53.092-.643-.149-.027.17-.049.341-.065.513a15.9,15.9,0,0,1-.881,4.4,35.391,35.391,0,0,1-3.687,7.135,14.141,14.141,0,0,1-2.481,3.055c-1.074.9-2.289,1.616-3.356,2.546-1.23,1.072-2.667,1.834-3.985,2.791a9.522,9.522,0,0,1-1.745,1.113,9.558,9.558,0,0,1-2.249.537A.812.812,0,0,1,39.3,121.312Z" transform="translate(7.704 -55.581)" fill="gray"/>
      <path id="Path_66998" data-name="Path 66998" d="M135.827,303.873a55.105,55.105,0,0,0,5.454,1.253,19.794,19.794,0,0,0,2.64-.165c.939-.025,1.848.151,2.781.2,1.108.059,2.2-.1,3.3-.063a30.766,30.766,0,0,0,3.413.091,27.2,27.2,0,0,0,3.261-.735,7.376,7.376,0,0,1,2.7.072.447.447,0,0,1,.223.825c-.247.187-.337.715-.536.974a3.8,3.8,0,0,1-1.186.983,14.1,14.1,0,0,1-3.5,1.2,22.916,22.916,0,0,1-3.9.368c-1.33.06-2.646.257-3.98.212a32.564,32.564,0,0,1-6.41-.35,7.412,7.412,0,0,1-3.105-1.636,8.477,8.477,0,0,1-1.966-2.176A.726.726,0,0,1,135.827,303.873Z" transform="translate(-113.162 -238.024)" fill="gray"/>
      <path id="Path_66999" data-name="Path 66999" d="M126.073,20.977c.615-.532,1.426-.736,2.083-1.218a7.078,7.078,0,0,1,2.157-1.423c1.772-.47,3.933.167,5.689.428a35.262,35.262,0,0,1,9.52,2.95c.488.225.137.974-.357.848-1.659-.426-3.29-.018-4.96-.2-1.563-.172-3.153-.1-4.7-.31a14.063,14.063,0,0,0-4.886-.212,6,6,0,0,1-2.552-.243c-.718-.117-1.306.207-1.932-.188A.277.277,0,0,1,126.073,20.977Z" transform="translate(-97.047 -18.168)" fill="gray"/>
      <path id="Path_67000" data-name="Path 67000" d="M221.369,58.116a23.973,23.973,0,0,1,1.225-6.345c.687-1.846,1.529-4.2,3.369-5.24.81-.457,1.887-.262,2.391-1.129a13.888,13.888,0,0,0,.627-2.613,10.2,10.2,0,0,1,1.44-2.74,18.042,18.042,0,0,0,1.305-2.9,6.858,6.858,0,0,1,2.345-2.433c.771-.515,1.423-1.179,2.181-1.738a17.829,17.829,0,0,1,5.472-2.838,7.85,7.85,0,0,1,3.724-.61c.465.1.842.347,1.279.478a.785.785,0,0,1,.28.28.651.651,0,0,1,.5-.274c.506-.154.676.583.213.772a20.376,20.376,0,0,0-1.954,1.183,20.858,20.858,0,0,1-2.907,1.3,9.572,9.572,0,0,0-2.617,1.129c-.74.535-1.567.933-2.274,1.511a25.491,25.491,0,0,0-3.852,3.616c-.54.668-1.046,1.324-1.626,1.955-.675.734-.879,1.723-1.529,2.452-.487.547-1.24.66-1.739,1.142a6.845,6.845,0,0,0-1.007,2.341,13.773,13.773,0,0,1-1.278,2.521,11.545,11.545,0,0,0-.99,2.279A22.249,22.249,0,0,0,224.78,57.7c-.094.973-.079,1.982-.258,2.948a10.743,10.743,0,0,1-.324,1.3c-.126.388-.537.83-.488,1.24.082.7-.892.992-1.331.551C220.919,62.273,221.2,59.993,221.369,58.116Z" transform="translate(-221.229 -26.862)" fill="gray"/>
    </g>
    <g id="Group_3217" data-name="Group 3217" transform="translate(47.79 30.383)">
      <path id="Path_67001" data-name="Path 67001" d="M91.572,152.515a8.2,8.2,0,0,1,4.243-.2c2.728.339,5.352,1.145,8.117.8a16.384,16.384,0,0,0,6.486-2.406c1.272-3.34,1.427-7.373,3.105-10.731a14.856,14.856,0,0,0,1.186-4.834c.275-1.859,1.457-3.713,3.648-3.212a5.746,5.746,0,0,1,2.792,1.846,1.9,1.9,0,0,1,.791.711,7.951,7.951,0,0,1,.8,1.768,12.593,12.593,0,0,1,1.134,5.123,9.388,9.388,0,0,1-.036,1.024,14.276,14.276,0,0,1-.136,3.07,15.74,15.74,0,0,1-1.566,5.057c-.39.716-.931,1.352-1.38,2.032a8.688,8.688,0,0,1-1.648,2.145c-.01.024-.018.048-.028.071a16.423,16.423,0,0,1-8,8.7c-3.746,1.679-8.789,1.431-12.728.569-.078-.017-.156-.039-.235-.059a2.9,2.9,0,0,1-2.626.4,11.833,11.833,0,0,1-5.834-6.389C88.905,156.091,89.192,153.569,91.572,152.515Z" transform="translate(-80.946 -131.853)" fill="#ccc"/>
      <path id="Path_67002" data-name="Path 67002" d="M240.465,216.667c.081.329.12.521,0,0Z" transform="translate(-232.446 -197.123)" fill="#ccc"/>
      <path id="Path_67003" data-name="Path 67003" d="M241.108,197.8a4.054,4.054,0,0,1,3.689-2.27l-.039.011a3.226,3.226,0,0,1,1.856.529l-.067-.066c.079.058.154.116.229.174l.021.016.049.039a3.861,3.861,0,0,1,.409.359,4.034,4.034,0,0,1,.95,1.378,3.852,3.852,0,0,1,.268,1.866c0,.065-.006.129-.008.193.024.089.047.182.069.27a3.157,3.157,0,0,1-.83,3.04,4.417,4.417,0,0,1-2.98,1.178,4.242,4.242,0,0,1-3.8-2.617A4.729,4.729,0,0,1,241.108,197.8Z" transform="translate(-240.54 -180.858)" fill="#ccc"/>
      <path id="Path_67004" data-name="Path 67004" d="M240.831,216.136c-.008-.032-.016-.066-.025-.1,0-.019-.007-.039-.011-.058Z" transform="translate(-232.813 -196.592)" fill="#ccc"/>
    </g>
    <path id="Path_67005" data-name="Path 67005" d="M29.248,101.065c-.377-1.969.83-3.439,1.859-5.133a18.406,18.406,0,0,1,2.028-2.672c.74-.832,1.338-1.777,2.084-2.6.673-.745,1.436-1.455,2.063-2.233a24.01,24.01,0,0,1,2.018-2.8A38.064,38.064,0,0,0,43.265,80.5c1.3-1.74,2.853-3.173,4.223-4.853a26.734,26.734,0,0,1,2.158-2.44c.862-.825,1.539-1.781,2.4-2.6,1.5-1.413,2.546-3.333,4.37-4.407a15.6,15.6,0,0,0,1.388-.756,14.188,14.188,0,0,1,1.615-1.168,6.964,6.964,0,0,1,3.166-1.046,6.77,6.77,0,0,1,2.627.992,28.516,28.516,0,0,1,1.9-3.26c-.348-.5-.69-.994-1.045-1.486-.7-.967-1.565-1.791-2.3-2.729A26.257,26.257,0,0,1,60.8,50.973a29.02,29.02,0,0,1-1.9-6.035,33.98,33.98,0,0,1-.526-7.256,31,31,0,0,1,1.167-6.989,26.281,26.281,0,0,1,.924-3.029c.154-.414.412-.769.585-1.16.256-.581.343-1.224.573-1.827a34.02,34.02,0,0,1,3.131-5.712,16.634,16.634,0,0,1,1.587-2.516c.733-.821,1.6-1.507,2.322-2.338a24.337,24.337,0,0,1,2.272-2.429c.948-.825,1.991-1.533,2.892-2.413a32.489,32.489,0,0,1,5.008-3.886A33.494,33.494,0,0,1,91.909.24,49.858,49.858,0,0,1,99.976.093a50.141,50.141,0,0,1,7.235.643,20.961,20.961,0,0,1,7.157,2.335,25.6,25.6,0,0,1,3.042,1.813,10.7,10.7,0,0,1,1.077.952,16.172,16.172,0,0,1,3.737,3.506c.515.724.913,1.5,1.466,2.206.573.727,1.236,1.369,1.806,2.1a18.261,18.261,0,0,1,2.832,4.615,22.146,22.146,0,0,0,1.214,1.936,20.272,20.272,0,0,1,1.136,2.7c.656,1.9.965,3.913,1.524,5.844a37.515,37.515,0,0,1,1.4,11.528,43.258,43.258,0,0,1-2.278,11.813,27.112,27.112,0,0,1-2.431,5.437c-.872,1.517-1.533,3.209-2.806,4.437-1.254,1.208-2.048,2.923-3.215,4.253a21.739,21.739,0,0,1-4.114,3.953c-3.13,2.042-6.254,4.18-9.81,5.44a32.6,32.6,0,0,1-13.4,1.738c-1.011-.091-1.963-.45-2.974-.513a15.594,15.594,0,0,1-2.947-.408,24.007,24.007,0,0,1-2.3-.714c-.208-.015-.417-.034-.628-.064a13.564,13.564,0,0,1-3.012-1.037,14.08,14.08,0,0,1-3.241-1.835,10.793,10.793,0,0,1-1.771,2.9,8.986,8.986,0,0,0,1.044.924c2.638,1.892-.116,4.381-.824,6.552a20.352,20.352,0,0,1-4.811,7.567C72,92.866,70.485,95.5,68.364,97.6c-.968.957-2.1,1.7-3.038,2.706-1.077,1.147-2.064,2.375-3.163,3.5-2.222,2.285-4.264,4.717-6.555,6.94-1.068,1.036-2.149,2.058-3.184,3.127-1.006,1.039-2.08,1.863-3.007,2.963-2.346,2.779-4.971-.214-7.113-1.576a47.012,47.012,0,0,1-4-2.575q-1.986-1.559-3.956-3.143a15.543,15.543,0,0,1-3.273-3.321,13.41,13.41,0,0,1-1.215-2.174c-.132-.308-.3-1.644-.477-1.759A.779.779,0,0,1,29.248,101.065Zm52.47-31.688A16.728,16.728,0,0,0,84.388,71.4c.2.094.4.2.6.312,1.51.38,3.02.7,4.506,1.183,1.661.538,3.319.516,5,.9a25.124,25.124,0,0,0,11.064-.517,26.975,26.975,0,0,0,9.231-4.3,27.62,27.62,0,0,0,4.148-3.1,23.086,23.086,0,0,0,3.437-4.053c.729-1.2,1.783-2.061,2.471-3.256a53.14,53.14,0,0,0,2.7-4.669,38.267,38.267,0,0,0,2.917-10.957,40.163,40.163,0,0,0-.423-10.885c-.281-1.759-.886-3.448-1.258-5.188a21.779,21.779,0,0,0-1.581-5.3c-.362-.725-.95-1.27-1.256-2.031a15.131,15.131,0,0,0-1.022-2.383c-.981-1.606-2.287-2.971-3.372-4.5-.488-.687-.813-1.479-1.306-2.155a19.586,19.586,0,0,0-2.275-2.375,17.9,17.9,0,0,0-3.187-2.246,29.239,29.239,0,0,0-6.493-2.134c-2.012-.386-4.076-.546-6.1-.81a57.652,57.652,0,0,0-6.414-.011A26.693,26.693,0,0,0,82.952,6.273c-3.631,1.955-6.8,4.845-9.879,7.546-1.527,1.339-2.887,3-4.288,4.479A11.968,11.968,0,0,0,67.4,20.509c-.537.884-1.156,1.713-1.644,2.627a16.519,16.519,0,0,0-1.3,2.8c-.157.508-.184,1.042-.387,1.537-.152.371-.417.661-.585,1.019a25.676,25.676,0,0,0-1.493,6,27.135,27.135,0,0,0,.839,12.865,29.965,29.965,0,0,0,2.242,5.084c1.008,1.97,2.5,3.368,3.8,5.127a33.952,33.952,0,0,0,4.627,5.487c.874.781,1.8,1.491,2.666,2.286a16.462,16.462,0,0,0,2.669,1.9C79.816,67.864,80.783,68.679,81.718,69.377Zm-2.584,2.407c-.33-.258-.659-.518-.988-.774-.807-.627-1.649-1.071-2.488-1.637a28.056,28.056,0,0,1-2.582-2.236,43.031,43.031,0,0,1-4.4-4.144c-.4.639-.782,1.3-1.226,1.893-.2.264-.414.394-.493.554a9.563,9.563,0,0,1,.961,1.27.726.726,0,0,1,.079.164,12.9,12.9,0,0,0,2.293,1.657c.8.5,1.406,1.248,2.187,1.775.332.224.666.44,1,.657a.724.724,0,0,1,.345.226c.419.277.834.56,1.236.869.438.337.881.674,1.3,1.039.256.225.556.7.853.84.46.223.206.181.577-.175a5.46,5.46,0,0,0,.647-1.011A9.032,9.032,0,0,1,79.133,71.784Zm-45.3,30.83a9.585,9.585,0,0,1,1.445,2.061c.2.563-.447.979-.928.788a49.1,49.1,0,0,0,6.185,5.087,30.689,30.689,0,0,0,3.158,1.922c.592.347,1.142.777,1.719,1.15.371.241,1.3,1.175,1.781,1.274-.538-.145,1.582-1.972,1.811-2.152,1.182-.927,2.195-2.155,3.28-3.2,2.145-2.06,4.158-4.186,6.157-6.385,1.849-2.033,3.708-4.189,5.714-6.064.88-.822,1.855-1.46,2.658-2.364,1-1.122,1.881-2.326,2.811-3.5A35.458,35.458,0,0,1,72.258,88.3a19.582,19.582,0,0,0,2.62-3.425A16.582,16.582,0,0,0,76.2,82.709a11.516,11.516,0,0,1,.834-1.96c.335-.5,1.214-1.348,1.29-1.94.06-.474-.591-.9-.938-1.358a13.779,13.779,0,0,0-1.642-1.715c-.527-.345-1-.8-1.484-1.186-1.156-.912-2.5-1.581-3.629-2.518-.526-.436-.924-.993-1.426-1.449-.471-.428-1.061-.676-1.549-1.083a14.37,14.37,0,0,1-2.391-2.579c-.05-.069-.1-.137-.14-.2-.278-.1-.554-.2-.805-.306-.945-.4-1.549-.86-2.533-.456a9.8,9.8,0,0,0-2.455,1.56,26.271,26.271,0,0,0-2.345,1.614,15.643,15.643,0,0,0-1.675,1.957c-.583.8-1.333,1.417-1.936,2.191-1.156,1.483-2.5,2.787-3.673,4.271A21.416,21.416,0,0,1,48.092,79.6,16.149,16.149,0,0,0,46.121,81.7c-1.161,1.63-2.3,3.257-3.468,4.872-.459.634-1.045,1.1-1.537,1.7-.615.745-.9,1.7-1.555,2.43-1.244,1.385-2.415,2.775-3.58,4.231a23.21,23.21,0,0,0-1.93,2.481,13.578,13.578,0,0,0-1.516,2.385C32.219,100.795,33.326,101.858,33.835,102.614Z" transform="translate(-29.01 0)"/>
    <path id="Path_67006" data-name="Path 67006" d="M64.337,79.887c-.564-.732-1.069-1.5-1.609-2.252-.581-.805-1.3-1.491-1.915-2.273a21.868,21.868,0,0,1-2.477-4.812,24.18,24.18,0,0,1-1.582-5.025,28.292,28.292,0,0,1-.438-6.043,25.828,25.828,0,0,1,.972-5.821,21.944,21.944,0,0,1,.77-2.523c.128-.345.344-.64.487-.966.213-.484.286-1.019.477-1.522a28.35,28.35,0,0,1,2.607-4.757,13.862,13.862,0,0,1,1.322-2.1c.61-.683,1.329-1.255,1.934-1.947a20.253,20.253,0,0,1,1.892-2.023c.79-.687,1.658-1.276,2.408-2.009a27.07,27.07,0,0,1,4.171-3.236A27.9,27.9,0,0,1,84.245,28.3a41.5,41.5,0,0,1,6.718-.123,41.7,41.7,0,0,1,6.025.535,17.458,17.458,0,0,1,5.96,1.945,21.318,21.318,0,0,1,2.534,1.51,8.877,8.877,0,0,1,.9.793,13.472,13.472,0,0,1,3.112,2.92c.429.6.76,1.252,1.221,1.837.477.605,1.03,1.14,1.5,1.748a15.21,15.21,0,0,1,2.358,3.844,18.364,18.364,0,0,0,1.011,1.612,16.865,16.865,0,0,1,.946,2.249c.546,1.581.8,3.258,1.269,4.867a31.223,31.223,0,0,1,1.162,9.6,36.018,36.018,0,0,1-1.9,9.838A22.561,22.561,0,0,1,115.041,76a15.567,15.567,0,0,1-2.337,3.7c-1.044,1.007-1.706,2.435-2.678,3.542a18.114,18.114,0,0,1-3.426,3.292,39.379,39.379,0,0,1-8.17,4.53,27.149,27.149,0,0,1-11.162,1.447c-.842-.076-1.635-.375-2.477-.428a12.955,12.955,0,0,1-2.454-.34,20.052,20.052,0,0,1-1.917-.594c-.173-.012-.347-.029-.523-.053a11.3,11.3,0,0,1-2.508-.864,18.525,18.525,0,0,1-4.606-2.995c-.672-.522-1.373-.892-2.072-1.364a23.478,23.478,0,0,1-2.151-1.862A29.4,29.4,0,0,1,64.337,79.887Zm6.794,2.635a13.684,13.684,0,0,0,2.223,1.583c.821.512,1.626,1.192,2.4,1.773a13.917,13.917,0,0,0,2.224,1.684c.167.078.332.167.5.26,1.257.317,2.515.584,3.753.985,1.383.448,2.764.43,4.162.753a20.92,20.92,0,0,0,9.214-.431,22.473,22.473,0,0,0,7.688-3.581,22.993,22.993,0,0,0,3.454-2.582,19.222,19.222,0,0,0,2.862-3.376c.607-1,1.485-1.717,2.058-2.711a44.33,44.33,0,0,0,2.245-3.889,31.865,31.865,0,0,0,2.43-9.125,33.451,33.451,0,0,0-.352-9.065c-.234-1.464-.738-2.871-1.048-4.321a18.132,18.132,0,0,0-1.317-4.412c-.3-.6-.791-1.058-1.046-1.691a12.6,12.6,0,0,0-.851-1.985c-.817-1.338-1.9-2.474-2.808-3.747-.406-.573-.677-1.232-1.088-1.795a16.3,16.3,0,0,0-1.895-1.978A14.9,14.9,0,0,0,103.284,33a24.334,24.334,0,0,0-5.407-1.777c-1.675-.322-3.394-.455-5.078-.674a48.034,48.034,0,0,0-5.342-.009,22.235,22.235,0,0,0-10.671,2.785,46.391,46.391,0,0,0-8.227,6.284c-1.271,1.115-2.4,2.5-3.571,3.73a9.953,9.953,0,0,0-1.155,1.842c-.448.736-.963,1.426-1.369,2.188A13.765,13.765,0,0,0,61.383,49.7c-.131.423-.153.868-.322,1.28-.127.309-.347.551-.488.849a21.368,21.368,0,0,0-1.243,5,22.6,22.6,0,0,0,.7,10.714,24.971,24.971,0,0,0,1.867,4.234,31.818,31.818,0,0,0,3.163,4.269,28.267,28.267,0,0,0,3.853,4.569C69.639,81.268,70.414,81.859,71.131,82.522Z" transform="translate(-20.664 -21.626)"/>
    <path id="Path_67007" data-name="Path 67007" d="M135.995,70.591a13.179,13.179,0,0,1,.777-1.919,16.878,16.878,0,0,1,1.636-1.889c.343-.429.884.058.819.477-.169,1.085-.943,1.921-1.253,2.985-.384,1.32-.969,2.574-1.3,3.91-.582,2.331-.654,5.5,1.723,6.95,2.173,1.325,3.714-2.687,4.991-3.688.887-.695.906-1.973,1.662-2.844a6.244,6.244,0,0,1,2.409-1.621c4.218-1.695,8.432.685,12.746.163,2.557-.309,5.248-2.6,3.134-5.178-.659-.8-1.506-1.422-2.127-2.263a8.278,8.278,0,0,0-1.439-1.815,12.268,12.268,0,0,0-1.662-1,12.818,12.818,0,0,0-4.31-1.547,25.258,25.258,0,0,0-4.863-.637,7.041,7.041,0,0,0-4.406,1.7c-.663.712-.889,1.613-1.882,1.94-.546.18-.74-.637-.233-.844.715-.291.95-1.412,1.418-1.96a4.1,4.1,0,0,1,.989-.8,8.786,8.786,0,0,1,4.114-1.388,21.252,21.252,0,0,1,4.348.522,14.483,14.483,0,0,1,4.836,1.441,11.651,11.651,0,0,1,3.055,1.982c.579.61.922,1.4,1.474,2.029.518.591,1.139,1.083,1.649,1.684a4.044,4.044,0,0,1-.2,5.774c-4.283,3.845-10.168-.1-15.029,1.123a4.386,4.386,0,0,0-3.356,2.5,5.314,5.314,0,0,1-.627,1.671,19.372,19.372,0,0,0-1.519,1.743c-1.13,1.829-3.24,4.057-5.633,3.088-2.719-1.1-3.671-4.507-3.388-7.129A20.033,20.033,0,0,1,135.995,70.591Z" transform="translate(-85.112 -45.643)"/>
    <path id="Path_67008" data-name="Path 67008" d="M103.331,200.4a.939.939,0,0,1,.965-.665l-.051-.076c-.369-.526.485-1.007.855-.5a7.019,7.019,0,0,1,1.372,2.83,3.793,3.793,0,0,1,.073,2.51.946.946,0,0,1-1.153.654,2.768,2.768,0,0,1-1.633-1.932,4.066,4.066,0,0,1-.445-1.229c-.04-.172-.08-.352-.138-.546a.872.872,0,0,1,.1-.764C103.29,200.585,103.308,200.49,103.331,200.4Z" transform="translate(-19.194 -153.101)"/>
    <path id="Path_67009" data-name="Path 67009" d="M122.376,228.528a1.943,1.943,0,0,1,.365.569,3.573,3.573,0,0,1,.729.895,1.482,1.482,0,0,1-.933,2.075c-1.941.673-2.635-2.052-1.75-3.334A1.025,1.025,0,0,1,122.376,228.528Z" transform="translate(-40.089 -175.64)"/>
    <path id="Path_67010" data-name="Path 67010" d="M142.337,245.57a1.344,1.344,0,0,1,.816.074.565.565,0,0,1,.8.143c.444.756,1.231,1.437.72,2.4a1.852,1.852,0,0,1-2.765.717,2.369,2.369,0,0,1-.455-2.477A1.192,1.192,0,0,1,142.337,245.57Z" transform="translate(-66.103 -188.958)"/>
    <path id="Path_67011" data-name="Path 67011" d="M309.128,354.09a14.389,14.389,0,0,1,1.044,2.033,13.082,13.082,0,0,1,.433,1.772.786.786,0,0,1-.2.758,1.576,1.576,0,0,1-.3.227.47.47,0,0,1-.549-.071,2.5,2.5,0,0,1-.8-1.748,12.859,12.859,0,0,0-.9-2.434C307.56,353.878,308.737,353.432,309.128,354.09Z" transform="translate(-270.262 -272.251)"/>
    <path id="Path_67012" data-name="Path 67012" d="M318.522,362.6a.564.564,0,0,1,.8.8s.664.973.766,1.131a4.629,4.629,0,0,1,.679,1.669c.126.7.053,2.332-1.082,1.83-.548-.243-.527-.856-.6-1.365a5.6,5.6,0,0,0-.566-1.662C318.141,364.235,317.8,363.268,318.522,362.6Z" transform="translate(-282.814 -278.92)"/>
    <path id="Path_67013" data-name="Path 67013" d="M326.558,376.193a2.289,2.289,0,0,0,.706,1.133,8.019,8.019,0,0,1,.62,1.134c.482.752.867,1.476.237,2.261a.52.52,0,0,1-.811-.1c-.233-.392-.353-.815-.606-1.2a7.79,7.79,0,0,1-.543-1.238c-.324-.729-.759-1.271-.4-2.09A.441.441,0,0,1,326.558,376.193Z" transform="translate(-292.188 -289.263)"/>
    <path id="Path_67014" data-name="Path 67014" d="M339.023,388.059l.224-.009a.6.6,0,0,1,.343,1.087,4.367,4.367,0,0,0,.077,1.112,8.389,8.389,0,0,1,.34,1.364.5.5,0,0,1-.49.49c-.727.017-1.156-.969-1.24-1.569a3.949,3.949,0,0,1,.213-2.169A.612.612,0,0,1,339.023,388.059Z" transform="translate(-306.647 -298.632)"/>
    <path id="Path_67015" data-name="Path 67015" d="M377.268,428.483c-.368-.782.774-1.474,1.174-.686.451.887,1.819,3.014.813,3.9a.458.458,0,0,1-.641,0,5.125,5.125,0,0,1-.621-1.529C377.775,429.594,377.529,429.039,377.268,428.483Z" transform="translate(-355.238 -328.952)"/>
    <path id="Path_67016" data-name="Path 67016" d="M384.664,438.215a.651.651,0,0,1,.505,1.031,2.517,2.517,0,0,1,.192.283,5.519,5.519,0,0,1,.428.748,3.363,3.363,0,0,1,.341.985,5.711,5.711,0,0,1,.145.828.543.543,0,0,1-.532.532c-.588.021-.819-.515-1.037-.974s-.419-.946-.684-1.4C383.563,439.465,383.441,438.248,384.664,438.215Z" transform="translate(-363.396 -337.237)"/>
  </g>
</svg>
