<svg xmlns="http://www.w3.org/2000/svg" width="16" height="14.681" viewBox="0 0 16 14.681">
  <g id="Group_1867" data-name="Group 1867" transform="translate(0 -21.104)">
    <g id="Group_1861" data-name="Group 1861" transform="translate(3.252 21.371)">
      <path id="Path_56029" data-name="Path 56029" d="M459.821,233.7a1.6,1.6,0,0,1-.671-1.352,1.046,1.046,0,0,1,.223-.5c.09-.125.252-.426.425-.453.143-.022.2.165.277.295a3.092,3.092,0,0,1,.327.729,1.13,1.13,0,0,1-.058.735A1.049,1.049,0,0,1,459.821,233.7Z" transform="translate(-448.048 -225.089)" fill="#7cd15d"/>
      <path id="Path_56030" data-name="Path 56030" d="M399.385,171.454a1.354,1.354,0,0,1,.6-1.525,1.862,1.862,0,0,1,.573-.148c.168-.032.274-.063.306.128a3.2,3.2,0,0,1-.192,1.057.619.619,0,0,1-.37.492C400.109,171.55,399.5,171.759,399.385,171.454Z" transform="translate(-390.13 -165.378)" fill="#7cd15d"/>
      <path id="Path_56031" data-name="Path 56031" d="M382.713,68.728a1.5,1.5,0,0,1-.657-.955,1.45,1.45,0,0,1,.249-.733,2.763,2.763,0,0,1,.273-.446c.151.144.326.264.469.425a1.213,1.213,0,0,1,.276.845.921.921,0,0,1-.146.706C383.105,68.66,382.885,68.857,382.713,68.728Z" transform="translate(-373.369 -65.438)" fill="#7cd15d"/>
      <path id="Path_56032" data-name="Path 56032" d="M272.163,85.15c-.207-.159-.331-.317-.611-.34a1.866,1.866,0,0,0-1.042.33c-.109.063-.571.222-.585.367-.009.092.31.332.393.377C270.84,86.163,272.366,86.026,272.163,85.15Z" transform="translate(-264.741 -83.083)" fill="#7cd15d"/>
      <path id="Path_56033" data-name="Path 56033" d="M196.571,30.7c0-.565-.125-1-.757-1.029a5.173,5.173,0,0,1-.889-.015c-.256-.057-.316-.031-.255.255a1.177,1.177,0,0,0,.968.894C195.859,30.866,196.456,30.989,196.571,30.7Z" transform="translate(-191.818 -29.635)" fill="#7cd15d"/>
      <path id="Path_56034" data-name="Path 56034" d="M106.034,72.231a.673.673,0,0,0-.638-.308,1.735,1.735,0,0,0-.915.654c-.075.086-.429.38-.412.5.02.143.348.3.461.329a1.38,1.38,0,0,0,.935-.084,1.093,1.093,0,0,0,.567-.466A.683.683,0,0,0,106.034,72.231Z" transform="translate(-104.068 -70.596)" fill="#7cd15d"/>
    </g>
    <path id="Path_56035" data-name="Path 56035" d="M41.666,190.015c-1.44,0-3.154-.3-4.312.777a3.4,3.4,0,0,0-.784,1.83c-.118.484-.684.559-1.083.734a2.747,2.747,0,0,0-1.429,1.269,2.254,2.254,0,0,0-.3,1.041c.021.217.164.237.358.292a5.178,5.178,0,0,0,.749.128c.326.042.351-.132.56-.366a1.642,1.642,0,0,1,1.565-.666c.556.081.617.46.875.887.183.3.551.265.876.278.48.019.954,0,1.434,0,.757,0,1.514.047,2.268-.02.325-.029.6-.025.828-.294a1.717,1.717,0,0,1,.784-.616c.31-.12.879-.173,1.091.13.092.131.12.308.2.445.11.195.224.2.441.237a4.5,4.5,0,0,0,1.219.01c.2-.022.272-.046.3-.266a3.8,3.8,0,0,0-.037-.738,2.853,2.853,0,0,0-2.017-2.208c-.23-.1-.65-.117-.832-.276a1.981,1.981,0,0,1-.317-.657,2.7,2.7,0,0,0-1.192-1.6A6.432,6.432,0,0,0,41.666,190.015Z" transform="translate(-32.699 -163.594)" fill="#ffc655"/>
    <path id="Path_56036" data-name="Path 56036" d="M152,210c-.948,0-2.489-.129-3.154.738a2.019,2.019,0,0,0-.445,1.417c.077.364.685.265.974.276,1.359.055,2.705.159,4.07.159.345,0,.841.086,1.041-.257a.987.987,0,0,0,.04-.887,2.656,2.656,0,0,0-.824-1.056A3.294,3.294,0,0,0,152,210Z" transform="translate(-143.745 -182.987)" fill="#fffcdf"/>
    <g id="Group_1862" data-name="Group 1862" transform="translate(2.491 31.429)">
      <path id="Path_56037" data-name="Path 56037" d="M81.119,351.5a1.448,1.448,0,0,0-1.265.78,1.8,1.8,0,0,0,.318,1.87,1.977,1.977,0,0,0,1.229.216,1.283,1.283,0,0,0,.811-.442,1.538,1.538,0,0,0,.233-1.1,1.387,1.387,0,0,0-.479-1A1,1,0,0,0,81.119,351.5Z" transform="translate(-79.724 -351.484)" fill="#637079"/>
      <path id="Path_56038" data-name="Path 56038" d="M330.536,357.268a1.762,1.762,0,0,0-1.281,1.413,1.4,1.4,0,0,0,.52,1.185,1.508,1.508,0,0,0,1.393.108,1.848,1.848,0,0,0,.534-1.573,1.55,1.55,0,0,0-.315-.9A1.164,1.164,0,0,0,330.536,357.268Z" transform="translate(-321.451 -357.075)" fill="#637079"/>
    </g>
    <g id="Group_1863" data-name="Group 1863" transform="translate(0.656 32.443)">
      <path id="Path_56039" data-name="Path 56039" d="M169.279,385.544a19.694,19.694,0,0,1-3.939-.02c-.239-.025-.759-.166-.862.1-.061.157-.053.559.094.659.193.13.657.034.886.034a9.491,9.491,0,0,1,1.19.04,13.332,13.332,0,0,0,2.492.077c.229-.014.395.022.434-.23C169.6,386.029,169.679,385.459,169.279,385.544Z" transform="translate(-159.96 -385.417)" fill="#d8e2e7"/>
      <path id="Path_56040" data-name="Path 56040" d="M412.011,387.309a3.253,3.253,0,0,0-1.178-.06,3.9,3.9,0,0,0-.836.082c-.019.309-.137.865.214.947a5.789,5.789,0,0,0,1.227.059c.283,0,.539.008.691-.248A.542.542,0,0,0,412.011,387.309Z" transform="translate(-397.808 -387.122)" fill="#d8e2e7"/>
      <path id="Path_56041" data-name="Path 56041" d="M22.862,383.95a1.992,1.992,0,0,0,0,.946,1.456,1.456,0,0,1-.486,0c-.259.008-.515.06-.774.06-.146,0-.429-.023-.533-.151a1.178,1.178,0,0,1-.027-.707c.114-.158.729-.144.932-.151C22.233,383.94,22.507,383.937,22.862,383.95Z" transform="translate(-20.997 -383.941)" fill="#d8e2e7"/>
    </g>
    <path id="Path_56042" data-name="Path 56042" d="M36.314,348.845c.148-.069.6-.137.736,0,.108.112.029.3.015.442a2.346,2.346,0,0,1,0,.419c-.075.179-.517.134-.651.055C36.107,349.58,36.329,348.993,36.314,348.845Z" transform="translate(-35.118 -317.422)" fill="#f3703a"/>
    <g id="Group_1864" data-name="Group 1864" transform="translate(1.314 29.802)">
      <path id="Path_56043" data-name="Path 56043" d="M421.919,299.427a1.015,1.015,0,0,0,.157,1.468,1.384,1.384,0,0,0,.564.153c.391-.013.241-.339.13-.587a2.781,2.781,0,0,0-.361-.679A2.678,2.678,0,0,0,421.919,299.427Z" transform="translate(-409.817 -299.427)" fill="#ebebec"/>
      <path id="Path_56044" data-name="Path 56044" d="M42.611,319.042c.246.051.527.08.534.371.006.24-.1.6-.36.638a2.442,2.442,0,0,1-.371-.021c-.162-.006-.258.025-.322-.111C41.941,319.593,42.3,319.16,42.611,319.042Z" transform="translate(-42.057 -318.429)" fill="#ebebec"/>
    </g>
    <g id="Group_1865" data-name="Group 1865" transform="translate(5.823 27.661)">
      <path id="Path_56045" data-name="Path 56045" d="M265.639,233.584a6.547,6.547,0,0,0-.514,1.047,2.741,2.741,0,0,0-.235.63,1.825,1.825,0,0,0,.69.123c.265.028.527.071.8.079.233.007.955.12,1.009-.237.036-.237-.426-.436-.617-.52a2.677,2.677,0,0,0-.809-.353C265.951,234.021,266.276,233.554,265.639,233.584Z" transform="translate(-262.435 -233.499)" fill="#637079"/>
      <path id="Path_56046" data-name="Path 56046" d="M186.346,231.139a8.472,8.472,0,0,1,.119.99,1.47,1.47,0,0,0,.035.474,1.416,1.416,0,0,0,1.093.079c.084-.1.022-.486.019-.6-.005-.206-.037-.4-.062-.608-.038-.317.013-.507-.332-.537C187.009,230.919,186.5,230.847,186.346,231.139Z" transform="translate(-186.346 -230.916)" fill="#637079"/>
    </g>
    <path id="Path_56047" data-name="Path 56047" d="M169.2,303.223c-.137.023-.62.02-.614.213s.411.2.535.212c.166.016.428.062.494-.129.092-.268-.229-.215-.355-.3" transform="translate(-163.315 -273.303)" fill="#f3703a"/>
    <g id="Group_1866" data-name="Group 1866" transform="translate(3.305 32.333)">
      <path id="Path_56048" data-name="Path 56048" d="M106.277,380.417a.633.633,0,0,0-.148,1.186c.5.228.848-.41.731-.85C106.771,380.414,106.556,380.524,106.277,380.417Z" transform="translate(-105.776 -380.417)" fill="#d8e2e7"/>
      <path id="Path_56049" data-name="Path 56049" d="M357.339,385.966c-.481-.192-.753.769-.277.994C357.731,387.274,358.108,385.9,357.339,385.966Z" transform="translate(-348.968 -385.768)" fill="#d8e2e7"/>
    </g>
    <path id="Path_56050" data-name="Path 56050" d="M14.855,445.965c-.712.009-1.424-.068-2.136-.05-.619.016-1.237.05-1.858.05-1.059,0-2.1-.07-3.158-.1-.685-.021-1.351.106-2.035.139a5.559,5.559,0,0,0-1.168.086c-.322.087-.364.636-.134.854.2.186.683.12.925.1.443-.039.883-.079,1.327-.09.893-.021,1.785.02,2.679-.016.769-.031,1.538-.018,2.307-.059a13.165,13.165,0,0,1,1.662.022c.367.027.714.129,1.077.174.813.1,1.63.023,2.44.073.2.012.4.024.6.031a19.565,19.565,0,0,0,2.089-.123c.219-.016.358.036.421-.17a1.456,1.456,0,0,0,.033-.579c-.079-.389-.753-.294-1.052-.306-.424-.017-.85-.029-1.276-.014-.351.013-.695.075-1.045.094a2.668,2.668,0,0,1-.905-.125A2.577,2.577,0,0,0,14.855,445.965Z" transform="translate(-4.089 -411.483)" fill="#7cd15d"/>
    <path id="Path_56051" data-name="Path 56051" d="M104.375,378.94a.826.826,0,0,0,.441-.991.609.609,0,0,0-.913-.332.839.839,0,0,0-.392.446.433.433,0,0,0,.021.282c0,.01,0,.02,0,.03A.637.637,0,0,0,104.375,378.94Zm-.543-.387a.344.344,0,0,1-.06-.109.066.066,0,0,0,0-.049c-.009-.025-.017-.05-.025-.075a.662.662,0,0,1,.111-.375.71.71,0,0,1,.209-.142c.356-.168.6.213.513.533a.732.732,0,0,1-.274.338C104.152,378.8,103.947,378.691,103.832,378.553Z" transform="translate(-100.263 -345.277)"/>
    <path id="Path_56052" data-name="Path 56052" d="M354.678,382.76a.689.689,0,0,0-.7.577.524.524,0,0,0,.056.427.519.519,0,0,0,.528.292.586.586,0,0,0,.513-.319C355.255,383.37,355.184,382.772,354.678,382.76Zm.214.773a.375.375,0,0,1-.735-.05.915.915,0,0,1,.08-.27.531.531,0,0,1,.3-.2.268.268,0,0,1,.378.194A.532.532,0,0,1,354.891,383.533Z" transform="translate(-342.892 -350.354)"/>
    <path id="Path_56053" data-name="Path 56053" d="M145.736,208.924a.823.823,0,0,0,.057.4c.076.148.206.163.346.219a.676.676,0,0,1,.368.414c.045.133,0,.313.068.433s.237.1.363.115c.2.02.407.014.613.015.4,0,.807.016,1.205.046s.77.039,1.154.082c.176.02.359.018.537.029.09.006.192.012.281.025a.436.436,0,0,0,.221.015.327.327,0,0,0,.174-.241c.049-.164.074-.413.213-.531s.354-.063.491-.173.15-.344.169-.492c.028-.215.023-.432.039-.648.014-.195-.01-.395,0-.589a1.055,1.055,0,0,0,.15-.432,1.472,1.472,0,0,0-.206-.866,3.049,3.049,0,0,0-.464-.661,2.194,2.194,0,0,0-.382-.344,1.572,1.572,0,0,0-.518-.205,5.3,5.3,0,0,0-1.042-.149,8.913,8.913,0,0,0-2.146.119,1.722,1.722,0,0,0-.783.266,2.511,2.511,0,0,0-.983,1.545.733.733,0,0,0,.1.653C145.724,208.29,145.747,208.6,145.736,208.924Zm.387-2.092a1.886,1.886,0,0,1,.509-.71,1.635,1.635,0,0,1,.836-.342c.162-.018.331-.027.494-.029s.323-.029.486-.025c.343.009.685.035,1.028.026.171,0,.342.02.513.024.074,0,.153,0,.232-.007a3.032,3.032,0,0,1,.533.132,2.1,2.1,0,0,1,1.01,1.12,1,1,0,0,1,.09.664l-.031-.022c-.113-.085-.218-.175-.336-.253s-.279-.164-.4-.264a1.1,1.1,0,0,0-.273-.179.531.531,0,0,0-.249-.046l.009-.018a.908.908,0,0,0,.122-.384.251.251,0,0,0-.2-.234.66.66,0,0,0-.4-.056c-.122.047-.15.167-.2.275-.072.146-.142.294-.212.441s-.132.308-.2.464a1.708,1.708,0,0,0-.167.469c-.242-.005-.483-.018-.725-.018-.08,0-.159,0-.238,0a1.1,1.1,0,0,0-.007-.355c-.028-.231-.064-.462-.089-.694a1.388,1.388,0,0,0-.075-.527c-.095-.159-.311-.166-.474-.164-.288,0-.9-.064-.887.363,0,.221.08.431.1.65a3.932,3.932,0,0,0,.121.693c-.1,0-.209,0-.314,0-.149,0-.3.006-.449,0s-.35.022-.372-.151A1.546,1.546,0,0,1,146.123,206.832Zm4.287.5c.064-.117.136-.182.271-.136a.818.818,0,0,1,.253.164,3.834,3.834,0,0,0,.594.355,1.113,1.113,0,0,0,.272.122.19.19,0,0,1-.118.107,1.53,1.53,0,0,1-.41,0c-.365-.02-.73-.04-1.1-.053C150.256,207.707,150.313,207.511,150.411,207.332Zm-.239-.056c-.029.064-.055.129-.083.19a2.524,2.524,0,0,0-.169.419q-.177,0-.354,0a2.51,2.51,0,0,1,.1-.3c.047-.129.085-.264.139-.391.088-.21.186-.42.289-.623.03-.059.033-.131.13-.125a.788.788,0,0,1,.126.047c.144.044.1.1.059.222a3.348,3.348,0,0,1-.171.394A.648.648,0,0,0,150.171,207.276Zm-2.951.118a5.265,5.265,0,0,0-.061-.556c-.02-.083-.034-.166-.051-.249-.009-.041-.055-.124-.035-.165.052-.1.406-.085.5-.086.139,0,.4-.054.431.119a3.686,3.686,0,0,1,.027.411c.015.176.034.352.05.528.007.083.022.165.023.248,0,.05.021.15,0,.193l0,.009c-.136-.005-.272-.01-.408-.008s-.3,0-.445-.009A1.6,1.6,0,0,0,147.22,207.394Zm-1.318.662a1.348,1.348,0,0,0,.349.046c.192.009.386,0,.578,0,.357,0,.715.018,1.072.028.176,0,.348.024.525.024.193,0,.387,0,.579.012.353.03.712.015,1.066.032.335.015.674-.005,1.009.027a1.655,1.655,0,0,0,.753-.011c0,.063,0,.126,0,.189,0,.185-.017.369-.02.553a2.362,2.362,0,0,1-.064.552c-.028.109-.056.14-.161.166-.076.019-.153.029-.227.056-.254.091-.36.394-.425.632-.023.083-.017.151-.115.155a1.646,1.646,0,0,1-.167-.022c-.178-.013-.356-.039-.535-.039-.337,0-.67-.06-1.007-.065-.173,0-.343-.03-.514-.046-.2-.018-.4,0-.6-.007-.362-.017-.724-.005-1.084-.03a.575.575,0,0,1-.1,0c-.135-.039-.062-.033-.079-.094s-.01-.147-.025-.215a.953.953,0,0,0-.172-.366.794.794,0,0,0-.336-.261c-.1-.041-.217-.04-.266-.161a.724.724,0,0,1-.025-.289c.006-.19-.018-.375-.021-.564C145.9,208.257,145.9,208.156,145.9,208.056Z" transform="translate(-141.078 -178.517)"/>
    <path id="Path_56054" data-name="Path 56054" d="M167.381,301.9c.037.188.285.218.437.253a1.127,1.127,0,0,0,.625-.054.261.261,0,0,0,.119-.346c-.059-.146-.234-.149-.367-.164-.168-.019-.93-.091-.819.252A.261.261,0,0,0,167.381,301.9Zm.293-.131a2.3,2.3,0,0,1,.334-.031l.018,0h.007a1.735,1.735,0,0,1,.263.03c.059.015.139.031.122.115s-.154.1-.212.1a1.14,1.14,0,0,1-.344.012,1.108,1.108,0,0,1-.179-.045l-.062-.014Q167.541,301.742,167.673,301.767Z" transform="translate(-162.135 -271.699)"/>
    <path id="Path_56055" data-name="Path 56055" d="M15.976,192.092a.627.627,0,0,0-.084-.31.553.553,0,0,0-.474-.171c-.273,0-.538-.015-.81-.035-.135-.01-.27-.006-.4-.019a3.188,3.188,0,0,0-.436.012,7.552,7.552,0,0,1-.927-.02c-.125-.011-.249-.019-.373-.023.025-.02.049-.041.073-.064a1.462,1.462,0,0,0,.334-.5h.01c.371-.008.747.035,1.118.056.229.013.45,0,.678-.008a.627.627,0,0,0,.47-.151,1.008,1.008,0,0,0,.167-.541,2.114,2.114,0,0,0-.023-.325.366.366,0,0,0-.125-.228.545.545,0,0,0-.323-.094c0-.008,0-.016,0-.025a2.806,2.806,0,0,0-.139-1.326A2.96,2.96,0,0,0,14,187.173a3.673,3.673,0,0,0-1.071-.774,3.37,3.37,0,0,0-.616-.2c-.121-.027-.243-.046-.366-.064a.323.323,0,0,1-.1-.017c-.037-.034-.038-.137-.045-.184a2.549,2.549,0,0,0-.144-.661,4.124,4.124,0,0,0-.306-.586,2.577,2.577,0,0,0-1.086-.934,4.625,4.625,0,0,0-1.53-.363,9.42,9.42,0,0,0-1.576,0c-.248.021-.495.056-.742.076-.108.009-.217.03-.324.049a1.047,1.047,0,0,0-.18.053c-.067.018-.133.037-.2.059a3.048,3.048,0,0,0-.992.587,2.561,2.561,0,0,0-.7,1.035,2.284,2.284,0,0,0-.161.58,1.116,1.116,0,0,1-.14.59c-.125.15-.35.159-.526.208a6.07,6.07,0,0,0-.649.233,2.676,2.676,0,0,0-1,.663,2.308,2.308,0,0,0-.528,1.025,1.3,1.3,0,0,0,.046.97c-.081.028-.185.019-.273.055-.13.054-.187.218-.222.345a1.1,1.1,0,0,0,.027.6c.09.294.373.306.637.306h.629a2.048,2.048,0,0,0,.655-.024c.015.046.033.092.052.137a1.155,1.155,0,0,0,.539.585c-.289,0-.578.015-.867.018s-.574.02-.861.013a5.108,5.108,0,0,0-.882.013.59.59,0,0,0-.476.28.565.565,0,0,0-.025.329,2.314,2.314,0,0,0,.028.345.414.414,0,0,0,.4.319c.285.02.573.032.859.031.307,0,.612-.016.92-.009s.6-.038.907-.039c.6,0,1.2-.051,1.8-.052.308,0,.62-.017.928-.034s.616,0,.924-.013a15.777,15.777,0,0,1,1.784.03c1.246.1,2.5.2,3.75.212.286,0,.571-.02.857-.033.132-.006.263-.03.394-.032.161,0,.321.021.482.019.542-.008,1.093.056,1.634.02.236-.016.307-.219.325-.425A2.322,2.322,0,0,0,15.976,192.092Zm-4.112-.614a1.347,1.347,0,0,1-.449-.014,1.38,1.38,0,0,1-.365-.118,1.177,1.177,0,0,1-.505-.622,1.316,1.316,0,0,1-.01-.826,2.709,2.709,0,0,0,.29-.335A1.291,1.291,0,0,1,12,189.032a.657.657,0,0,1,.262.108l.011.01a.953.953,0,0,1,.2.328c.013.034.028.068.042.1a.666.666,0,0,0,.13.31.952.952,0,0,1,.057.322A1.22,1.22,0,0,1,11.864,191.478Zm-6.42-1.5.043.007a5.743,5.743,0,0,0,.68.018c.253.008.509.006.762.021s.483.031.724.041.507,0,.761.018c.23.021.465.006.7,0s.5.024.742,0a3.21,3.21,0,0,0,.356-.047,1.686,1.686,0,0,0-.021.251,1.911,1.911,0,0,0,.01.227c-.827-.027-1.659-.05-2.487-.066-.475-.009-.948-.018-1.423-.015-.2,0-.4.008-.6.019-.092.005-.18,0-.266,0A1.472,1.472,0,0,0,5.444,189.973Zm.844.768c.475,0,.948.016,1.423.026.432.009.865.015,1.3.034.22.01.438.008.658.008.2,0,.395.041.6.025a1.449,1.449,0,0,0,.458.66c-.151,0-.3,0-.453,0-.287,0-.572-.023-.858-.024-.306,0-.612.012-.917-.016s-.618-.028-.924-.028c-.624,0-1.248,0-1.872,0-.257,0-.521-.012-.784-.016l.016-.014a1.771,1.771,0,0,0,.414-.71A3.2,3.2,0,0,0,6.288,190.742Zm8.466-.783c.088.012.209,0,.236.091a.883.883,0,0,1-.039.505c-.038.111-.028.107-.127.123s-.19.014-.288.021c-.357.023-.705-.019-1.062-.022a3.069,3.069,0,0,0-.5-.028,1.922,1.922,0,0,0,.028-.638c.058,0,.118-.009.179-.013.236-.015.482-.022.718-.018a1.964,1.964,0,0,0,.737-.035Zm-1.389-2.346a1.433,1.433,0,0,1,.057-.292.94.94,0,0,1,.033-.092,2.824,2.824,0,0,1,.752.939,2.456,2.456,0,0,1,.136.346c-.029,0-.06,0-.1,0a2.482,2.482,0,0,1-.3-.052.757.757,0,0,1-.466-.29A.889.889,0,0,1,13.366,187.614Zm-11.381.115c.148.027.337.086.338.206a.988.988,0,0,1-.257.549.089.089,0,0,0-.047-.01c-.128.011-.253-.014-.383,0a1.206,1.206,0,0,0-.123.031A1.546,1.546,0,0,1,1.985,187.729ZM1.4,189.14a2.128,2.128,0,0,1,.061-.433c.081.009.168,0,.243,0s.141.018.214.02a1.155,1.155,0,0,0-.053.74c-.105-.005-.21-.013-.314-.028a.4.4,0,0,1-.111-.032c-.014-.007-.03-.024-.033-.022A.72.72,0,0,1,1.4,189.14Zm.676,1.382H1.183c-.07,0-.2.015-.254-.033-.076-.065-.077-.318-.067-.4a.583.583,0,0,1,.068-.227c0,.014.076-.022.086-.024.11-.019.226-.019.337-.035a1.9,1.9,0,0,0,.486.074,4.345,4.345,0,0,0,.6,0q-.005.058-.007.116a2.7,2.7,0,0,0,.032.537A2.09,2.09,0,0,0,2.078,190.521ZM2.42,189.5c-.092-.009-.184-.015-.277-.019a.107.107,0,0,0-.014-.042.934.934,0,0,1,.064-.729c.059-.1.145-.179.2-.282a1.367,1.367,0,0,0,.134-.339.352.352,0,0,0-.169-.444.856.856,0,0,0-.2-.055,1.626,1.626,0,0,1,.313-.182c.187-.08.382-.128.571-.2s.346-.116.524-.172a.935.935,0,0,0,.451-.285c.252-.305.194-.671.272-1.031a2.327,2.327,0,0,1,.5-1.026,2.756,2.756,0,0,1,.855-.622,2.257,2.257,0,0,1,.449-.157,2.984,2.984,0,0,1,.307-.055c.226-.025.456-.023.683-.044a7.5,7.5,0,0,1,1.355,0,5.94,5.94,0,0,1,1.35.2,2.457,2.457,0,0,1,1.046.707,2.77,2.77,0,0,1,.317.489,1.657,1.657,0,0,1,.219.661.843.843,0,0,0,.18.559c.167.148.446.132.652.178a3.019,3.019,0,0,1,1.127.52.862.862,0,0,0-.19.482,1.06,1.06,0,0,0,.13.669.97.97,0,0,0,.517.389,1.319,1.319,0,0,0,.619.081,2.748,2.748,0,0,1,.051.734.775.775,0,0,1-.009.083l-.036.006a.939.939,0,0,1-.246-.008,5.166,5.166,0,0,0-.694.02c-.106.007-.214,0-.32.008-.051,0-.172.052-.219.018a.88.88,0,0,1-.049-.2,1.2,1.2,0,0,0-.131-.328,1.135,1.135,0,0,0-1.063-.468,1.79,1.79,0,0,0-1.142.593c-.129.133-.209.337-.4.387a2.1,2.1,0,0,1-.545.055c-.229,0-.457-.006-.687,0-.255,0-.506-.022-.759-.024-.45,0-.9-.035-1.346-.044-.28-.006-.561-.019-.842-.021-.123,0-.247.015-.37,0-.142-.014-.185-.032-.22-.168a.973.973,0,0,0-.307-.481,1.551,1.551,0,0,0-.547-.385,1.821,1.821,0,0,0-1.36.136,1.512,1.512,0,0,0-.535.47A1.671,1.671,0,0,0,2.42,189.5Zm.568,1.541a1.4,1.4,0,0,1-.254-.707,2.344,2.344,0,0,1,.053-.76l.04-.059a1.889,1.889,0,0,1,.217-.286,1.324,1.324,0,0,1,.583-.339,1.537,1.537,0,0,1,.633-.027.685.685,0,0,1,.181.054c.033.026.064.053.094.078a2.1,2.1,0,0,1,.405.535,1.166,1.166,0,0,1,.179.7,1.591,1.591,0,0,1-.269.728.81.81,0,0,1-.477.422,1.4,1.4,0,0,1-.758,0A1.24,1.24,0,0,1,2.988,191.038Zm12.68,1.593c-.04.037-.231,0-.288,0-.264-.02-.533.011-.8,0-.119-.005-.234-.028-.354-.028-.137,0-.273.008-.41,0-.275-.017-.538.013-.813.019-.256.006-.508.026-.765.026-.278,0-.553-.019-.83-.026-.58-.016-1.17-.052-1.747-.111s-1.146-.063-1.717-.108c-.544-.043-1.086,0-1.632,0s-1.117.054-1.677.048c-.283,0-.56.044-.842.05s-.535.019-.8.031-.538.054-.811.052-.572.021-.859.027c-.257.005-.513-.022-.769-.014-.13,0-.249.02-.29-.128a1.018,1.018,0,0,1,.008-.366c.027-.216.376-.2.541-.2.271,0,.548.018.818,0,.552-.039,1.111-.048,1.664-.1.267-.024.535-.043.8-.062.245-.008.488-.009.734-.01l1.738,0c.571,0,1.14.005,1.711.019.536.013,1.074.04,1.611.038s1.094.046,1.634.008a1.58,1.58,0,0,0,.178.005c.063.006.126.014.189.015.136,0,.273,0,.41,0,.257,0,.51.04.766.048a5.735,5.735,0,0,0,.792-.009,4.246,4.246,0,0,1,.838.019c.234.021.463.025.7.024.067,0,.192-.01.246.042s.049.264.054.35C15.7,192.351,15.719,192.585,15.668,192.632Z" transform="translate(0 -157.185)"/>
    <path id="Path_56056" data-name="Path 56056" d="M452.956,227.775a1.908,1.908,0,0,0,.315.694.88.88,0,0,0,.385.326.191.191,0,0,0,.061.035.324.324,0,0,0,.27-.027.952.952,0,0,0,.1-.094c.051-.041.108-.07.156-.116a1.09,1.09,0,0,0,.3-.61,2.205,2.205,0,0,0-.339-1.375c-.077-.145-.214-.431-.406-.43-.165,0-.356.218-.467.325a1.554,1.554,0,0,0-.388.552A1.149,1.149,0,0,0,452.956,227.775Zm.507-.87a1.839,1.839,0,0,1,.236-.235l.086-.069a2.813,2.813,0,0,1,.245.473,1.575,1.575,0,0,1,.169.708.741.741,0,0,1-.3.6l-.007.005c0-.149-.012-.3-.029-.446a3.151,3.151,0,0,0-.079-.429c-.025-.1-.048-.227-.14-.278-.019-.011-.05.008-.041.031a1.925,1.925,0,0,1,.056.77c-.008.117-.01.234-.015.351a2.053,2.053,0,0,1-.174-.248,2.355,2.355,0,0,1-.2-.632A.728.728,0,0,1,453.462,226.906Z" transform="translate(-438.741 -198.665)"/>
    <path id="Path_56057" data-name="Path 56057" d="M392.913,166.08a1.907,1.907,0,0,0-.191.738.879.879,0,0,0,.1.5.19.19,0,0,0,.026.065.324.324,0,0,0,.227.148.945.945,0,0,0,.141-.008c.065,0,.128.014.194.008a1.089,1.089,0,0,0,.617-.285,2.206,2.206,0,0,0,.6-1.283c.031-.161.1-.469-.046-.589-.129-.1-.414-.054-.567-.04a1.555,1.555,0,0,0-.648.186A1.149,1.149,0,0,0,392.913,166.08Zm.94-.359a1.841,1.841,0,0,1,.331-.034h.11a2.817,2.817,0,0,1-.107.522,1.575,1.575,0,0,1-.313.657.741.741,0,0,1-.608.279h-.009c.09-.119.178-.24.257-.365a3.154,3.154,0,0,0,.208-.383c.041-.091.105-.207.066-.3-.008-.02-.044-.026-.051,0a1.925,1.925,0,0,1-.44.634c-.079.086-.155.176-.232.264a2.052,2.052,0,0,1,.02-.3,2.353,2.353,0,0,1,.24-.618A.728.728,0,0,1,393.853,165.722Z" transform="translate(-380.45 -139.695)"/>
    <path id="Path_56058" data-name="Path 56058" d="M376.4,61.891a.879.879,0,0,0,.433.259.19.19,0,0,0,.066.024.324.324,0,0,0,.262-.071.952.952,0,0,0,.088-.11c.043-.049.1-.087.135-.14a1.089,1.089,0,0,0,.2-.65,2.206,2.206,0,0,0-.559-1.3c-.1-.13-.281-.39-.47-.358-.163.028-.316.273-.408.4a1.554,1.554,0,0,0-.293.607,1.149,1.149,0,0,0,.125.71A1.908,1.908,0,0,0,376.4,61.891Zm-.065-1.574a1.841,1.841,0,0,1,.195-.27c.024-.028.049-.055.073-.082a2.814,2.814,0,0,1,.319.427,1.575,1.575,0,0,1,.282.671.741.741,0,0,1-.2.64l-.006.006c-.029-.146-.061-.293-.1-.435a3.152,3.152,0,0,0-.147-.411c-.04-.091-.085-.216-.183-.252-.021-.007-.048.016-.035.038a1.925,1.925,0,0,1,.181.751c.012.117.028.233.042.349a2.052,2.052,0,0,1-.212-.216,2.353,2.353,0,0,1-.3-.591A.728.728,0,0,1,376.331,60.317Z" transform="translate(-364.088 -37.235)"/>
    <path id="Path_56059" data-name="Path 56059" d="M265.727,79.373a1.554,1.554,0,0,0,.576.35,1.149,1.149,0,0,0,.719-.056,1.907,1.907,0,0,0,.672-.36.88.88,0,0,0,.3-.406.19.19,0,0,0,.03-.063.325.325,0,0,0-.045-.267.951.951,0,0,0-.1-.1c-.045-.048-.077-.1-.126-.148a1.089,1.089,0,0,0-.628-.26,2.206,2.206,0,0,0-1.35.43c-.139.087-.416.242-.4.434C265.384,79.093,265.613,79.27,265.727,79.373Zm.525-.73a1.576,1.576,0,0,1,.7-.216.741.741,0,0,1,.618.257l.006.007c-.148.015-.3.032-.443.059a3.154,3.154,0,0,0-.423.107c-.094.031-.223.063-.268.158-.009.02.011.05.034.039a1.925,1.925,0,0,1,.765-.107c.117,0,.234-.005.351-.009a2.059,2.059,0,0,1-.236.19,2.354,2.354,0,0,1-.617.243.728.728,0,0,1-.614-.152,1.844,1.844,0,0,1-.25-.22c-.025-.027-.049-.054-.075-.081A2.817,2.817,0,0,1,266.252,78.643Z" transform="translate(-257.079 -55.174)"/>
    <path id="Path_56060" data-name="Path 56060" d="M188.9,22.424a1.149,1.149,0,0,0,.63.352,1.907,1.907,0,0,0,.759.072.88.88,0,0,0,.474-.172.191.191,0,0,0,.06-.036.325.325,0,0,0,.11-.248.947.947,0,0,0-.03-.138c-.011-.064-.007-.129-.023-.193a1.089,1.089,0,0,0-.38-.564,2.206,2.206,0,0,0-1.362-.388c-.164,0-.48-.028-.574.139-.081.144.013.417.05.566A1.554,1.554,0,0,0,188.9,22.424Zm.555-.928a1.575,1.575,0,0,1,.7.2.741.741,0,0,1,.372.556v.009c-.131-.07-.266-.138-.4-.2a3.152,3.152,0,0,0-.412-.145c-.1-.026-.221-.071-.311-.017-.019.011-.018.047.007.051a1.925,1.925,0,0,1,.7.333c.1.065.2.125.3.187a2.059,2.059,0,0,1-.3.028,2.354,2.354,0,0,1-.648-.139.728.728,0,0,1-.427-.466,1.842,1.842,0,0,1-.087-.322c-.007-.036-.011-.073-.017-.109A2.818,2.818,0,0,1,189.454,21.5Z" transform="translate(-182.639 0)"/>
    <path id="Path_56061" data-name="Path 56061" d="M97.342,69.8a1.554,1.554,0,0,0,.655.159,1.149,1.149,0,0,0,.668-.271,1.908,1.908,0,0,0,.531-.547.88.88,0,0,0,.162-.477.191.191,0,0,0,.01-.07.324.324,0,0,0-.124-.241.943.943,0,0,0-.126-.063c-.057-.032-.1-.075-.165-.1a1.09,1.09,0,0,0-.678-.057,2.206,2.206,0,0,0-1.155.82c-.106.125-.322.357-.251.535C96.931,69.643,97.2,69.741,97.342,69.8Zm.279-.855a1.575,1.575,0,0,1,.6-.417.741.741,0,0,1,.667.058l.007,0c-.136.059-.274.121-.4.19a3.148,3.148,0,0,0-.371.23c-.08.059-.194.128-.208.232,0,.022.026.044.044.026a1.925,1.925,0,0,1,.7-.335c.112-.036.222-.076.332-.115a2.055,2.055,0,0,1-.167.253,2.354,2.354,0,0,1-.514.419.728.728,0,0,1-.631.042,1.842,1.842,0,0,1-.305-.134l-.1-.054A2.817,2.817,0,0,1,97.621,68.95Z" transform="translate(-93.829 -45.533)"/>
  </g>
</svg>
