<svg xmlns="http://www.w3.org/2000/svg" width="16" height="10.627" viewBox="0 0 16 10.627">
  <g id="Group_1845" data-name="Group 1845" transform="translate(0 -85.949)">
    <path id="Path_55998" data-name="Path 55998" d="M8,96.576c-2.567,0-5.141-1.787-6.844-2.969A2.717,2.717,0,0,1,0,91.271a2.783,2.783,0,0,1,1.157-2.38C2.742,87.791,5.4,85.949,8,85.949s5.259,1.842,6.844,2.942a2.986,2.986,0,0,1,0,4.716C13.142,94.79,10.568,96.576,8,96.576ZM1.25,91.256a1.486,1.486,0,0,0,.62,1.325c5.018,3.618,7.253,3.611,12.262,0a1.735,1.735,0,0,0,0-2.662c-4.981-3.582-7.291-3.574-12.262,0a1.526,1.526,0,0,0-.62,1.337ZM8,94.294a3.051,3.051,0,0,1-3.063-3.032v0A3.059,3.059,0,1,1,8,94.294ZM8,89.45a1.812,1.812,0,0,0-1.813,1.808v0A1.778,1.778,0,0,0,8,93.044,1.8,1.8,0,1,0,8,89.45Zm0,1a.781.781,0,1,0,.781.781A.781.781,0,0,0,8,90.45Z" fill="#d8a235"/>
  </g>
</svg>
