<svg xmlns="http://www.w3.org/2000/svg" width="24" height="18.447" viewBox="0 0 24 18.447">
  <g id="Group_347" data-name="Group 347" transform="translate(0 -59.228)">
    <path id="Path_8587" data-name="Path 8587" d="M2.746,65.045a2.019,2.019,0,0,0-.233.985c-.077.682-.084,1.371-.121,2.056-.071,1.311-.107,2.631-.128,3.943-.018,1.1-.007,2.218.062,3.316A4.8,4.8,0,0,0,2.5,76.908c.23.474.971.54,1.423.591a18.076,18.076,0,0,0,3.385.137c1.294-.1,2.6-.005,3.893-.1,1.259-.091,2.539-.09,3.8-.09,1.722,0,3.446.049,5.167-.029.427-.02,1.058.032,1.273-.405a6.962,6.962,0,0,0,.5-2.38,52.815,52.815,0,0,0,.035-5.538c-.034-.991-.06-1.986-.113-2.976-.02-.377.089-1.547-.358-1.762-.129-.062-.42.006-.559,0-.281-.014-.559-.075-.839-.1-.9-.082-1.824-.083-2.73-.082a53.9,53.9,0,0,0-5.58.069,50.35,50.35,0,0,1-5.229.353H4.436a6.172,6.172,0,0,0-.836,0C3.313,64.633,3.2,64.777,2.746,65.045Z" transform="translate(-2.15 -4.675)" fill="#e2b061"/>
    <path id="Path_8588" data-name="Path 8588" d="M10.559,71.54a7.484,7.484,0,0,0-.6,5.5c.97,2.931,4.1,3.791,6.755,4.467.606.154,4.02.81,2.619,2.073-.917.826-2.489.763-3.624.817-2.911.139-5.827.007-8.735.045-.36,0-.775.039-1.005-.3-.338-.5-.021-1.533.018-2.088.065-.912.162-1.824.172-2.738s-.137-1.772-.205-2.666a22.214,22.214,0,0,1,.078-2.756,2.884,2.884,0,0,1,.353-1.749c.4-.457,1.137-.323,1.673-.388A12.393,12.393,0,0,1,10.559,71.54Z" transform="translate(-5.539 -11.724)" fill="#d8a235"/>
    <path id="Path_8589" data-name="Path 8589" d="M228.38,168.335a9.285,9.285,0,0,1,6.17-8.63,7.3,7.3,0,0,1,1.964-.19,2.035,2.035,0,0,1,.687.035c.186.141.176.622.185.837.063,1.455.022,2.907.074,4.364a9.121,9.121,0,0,1-.355,2.488,1.538,1.538,0,0,1-.463.956,2.179,2.179,0,0,1-1.194.221c-.829.039-1.649.027-2.484.029-.992,0-2,.04-2.988-.008A7.568,7.568,0,0,1,228.38,168.335Z" transform="translate(-217.659 -95.576)" fill="#42c5e5"/>
    <path id="Path_8590" data-name="Path 8590" d="M287.808,159.592c-.4.138-.649.735-.769,1.121-.127.406-.039.5.251.759.336.305,1.238.57,1.379,1.01.155.483-.309.518-.639.593a2.282,2.282,0,0,0-1.171.6c-.567.643.631.729.9,1.19.21.357-.025.362-.31.555-.5.335-.581.55-.394,1.1.21.614.478.673,1.121.64a6.2,6.2,0,0,0,.774-.038c.208-.037.244-.144.225-.357-.015-.166-.062-.328-.068-.495a1.548,1.548,0,0,0-.007-.364.88.88,0,0,1-.009-.446c.16-.594,1.025-.673,1.5-.9,1.279-.6-.382-2.2.5-2.906.556-.448,1.4-.261,1.756-.87a3.229,3.229,0,0,0-.037-2.481c-.271-.333-1.245-.14-1.631-.108a4.71,4.71,0,0,0-1.606.4C288.994,158.868,288.447,159.345,287.808,159.592Z" transform="translate(-273.27 -94.244)" fill="#206cb6"/>
    <path id="Path_8591" data-name="Path 8591" d="M50.09,169.866a1.791,1.791,0,0,0-.178,2.068c.237.23.809.152,1.1.156.473.006.943.037,1.421.037.371,0,.729.071.962-.212a2.7,2.7,0,0,0,.355-.85c.181-.611.1-1.2-.549-1.459C52.719,169.411,49.971,169.143,50.09,169.866Z" transform="translate(-47.336 -105)" fill="#ffe355"/>
    <path id="Path_8592" data-name="Path 8592" d="M94.329,147.089a13.453,13.453,0,0,0,.176,1.993c.079.535-.01,1.04.046,1.564.063.578.423.549.92.645a12.374,12.374,0,0,0,2.913.116c2.456-.114,4.912-.149,7.372-.239,1.859-.068,3.72-.06,5.564-.215a3.193,3.193,0,0,0,1.361-.311c.525-.34.645-1.329.724-1.891a19.566,19.566,0,0,0-.1-4.236c-.093-1.141-.034-2.269-.037-3.407,0-.885.075-1.76.074-2.643,0-.721.039-1.106-.726-1.3a10.771,10.771,0,0,0-1.493-.2c-.26-.031-.945-.185-1.174,0s-.06.887-.053,1.158c.019.814-.017,1.62-.07,2.431a32.174,32.174,0,0,1-.355,4.481c-.2.933-.606,2-1.707,2.011-2.021.012-4.08,0-6.1-.137a45.511,45.511,0,0,0-5.818-.055C95.328,146.871,94.56,146.73,94.329,147.089Z" transform="translate(-89.908 -73.996)" fill="#e2b061"/>
    <path id="Path_8593" data-name="Path 8593" d="M109.864,139.188a1.913,1.913,0,0,1,.371.745c.243.87.361,1.813.547,2.7.353,1.692.634,3.37,1.083,5.042.22.818.588,1.6.853,2.4a2.712,2.712,0,0,1,.148,1.415,2.242,2.242,0,0,1-.408,1.151,3.111,3.111,0,0,1-1.889.667,26.636,26.636,0,0,1-3.486.258c-1.2.011-2.387-.182-3.586-.185-1.368,0-2.759.117-4.126.194-1.018.057-2.033-.149-3.055-.116a4.81,4.81,0,0,1-1.75-.124c-.628-.256-.487-.944-.489-1.53,0-.736.072-1.456.037-2.187-.014-.286-.086-.281.135-.409a2.4,2.4,0,0,1,.492.02c.374,0,.742-.033,1.114-.04,2.947-.057,5.884.383,8.818.049,1.179-.134,2.313.131,3.455-.271,1.039-.366,1.186-1.157,1.292-2.181a27.057,27.057,0,0,0,.149-4.495C109.505,141.349,109.209,139.936,109.864,139.188Z" transform="translate(-89.656 -76.212)" fill="#d8a235"/>
    <path id="Path_8594" data-name="Path 8594" d="M91.42,332.6c.362.332-.446,1.8.183,2.151a3.2,3.2,0,0,0,1.224,0c.6-.058,1.215-.074,1.823-.074,1.485,0,2.951.033,4.436-.039,1.846-.089,3.686-.2,5.534-.183,1.43.011,2.875,0,4.307,0a3.423,3.423,0,0,0,1.244-.028c.321-.173.314-.828.366-1.149a4.2,4.2,0,0,0,.115-1.417c-.1-.383-.55-.25-.916-.261-.77-.023-1.56-.036-2.327-.111-.6-.059-.829-.063-1.23.363-.659.7-1.671.486-2.548.519-1.227.045-2.493-.026-3.721-.074-1.8-.07-3.6.075-5.395.083A8.749,8.749,0,0,0,91.42,332.6Z" transform="translate(-87.072 -259.467)" fill="#593b15"/>
    <path id="Path_8595" data-name="Path 8595" d="M24,67.924c0-.861-.045-1.72-.081-2.58-.017-.41-.029-.821-.06-1.23a1.931,1.931,0,0,0-.172-.762c-.29-.553-.986-.632-1.544-.685-.67-.064-1.344-.025-2.015-.03q-.043-.682-.1-1.362a6.939,6.939,0,0,0-.122-1.243c-.285-1.028-1.63-.771-2.438-.747-.359.011-.715.006-1.072.014l-.648-.039a31.785,31.785,0,0,0-3.69.062c-1.277.075-2.555.153-3.833.2-1.252.048-2.505.036-3.757.09-.612.026-1.224.057-1.837.062a12.137,12.137,0,0,0-1.229.007,1.386,1.386,0,0,0-1.011.5,2.486,2.486,0,0,0-.344,1.257,31.929,31.929,0,0,0,.005,3.233c.02,1.241-.042,2.48-.023,3.72.01.628.04,1.256.048,1.884.005.455-.033.9-.047,1.357A1.752,1.752,0,0,0,.3,72.768a1.628,1.628,0,0,0,1.168.534,10.617,10.617,0,0,0,1.5,0c.394-.01.788-.015,1.182-.017a2.258,2.258,0,0,0-.021.687c.031.376.036.754.052,1.131.013.3.029.609.024.913a2.533,2.533,0,0,0,.08.849,1.212,1.212,0,0,0,1.2.716c.662.04,1.331.041,1.995.059,3.029.083,6.046,0,9.074-.065.772-.017,1.544,0,2.316-.022.671-.015,1.331-.087,2-.14.875-.069,2-.027,2.522-.888a4.207,4.207,0,0,0,.4-1.868c.05-.739.111-1.475.134-2.215C23.971,70.938,24,69.428,24,67.924ZM19.58,66.357a1.108,1.108,0,0,1-.38.364,5.069,5.069,0,0,1-.915.208,1.376,1.376,0,0,0-1.04,1.171,2.1,2.1,0,0,0,.132.932c.11.332.277.746-.031,1.019-.443.394-1.136.407-1.546.844a1.458,1.458,0,0,0,.009,1.728c-.532-.013-1.063-.028-1.595-.042a.211.211,0,0,0-.012-.021c-.145-.2-.43-.41-.456-.665s.3-.346.484-.437c.283-.137.661-.461.533-.818-.109-.306-.5-.423-.748-.583s-.324-.385-.042-.538c.516-.278,1.434-.253,1.7-.858.366-.818-.834-1.126-1.372-1.314-.159-.056-.34-.12-.4-.294a.865.865,0,0,1,.159-.651,6.827,6.827,0,0,1,.727-.976,7.131,7.131,0,0,1,1.84-.954,6.672,6.672,0,0,1,1.443-.322c.491-.052.985-.011,1.474-.046Q19.588,65.23,19.58,66.357Zm-1.572,2.82a2.7,2.7,0,0,1-.245-1.139.874.874,0,0,1,.671-.715,5.514,5.514,0,0,0,1.033-.265c.034-.017.069-.037.105-.06q-.017,1.045-.068,2.092c-.027.566-.057,1.134-.136,1.7A4.135,4.135,0,0,1,19,72.258a.877.877,0,0,1-.76.372c-.513.037-1.034.018-1.548.01l-.65-.013a1.5,1.5,0,0,1-.094-.73,1.33,1.33,0,0,1,.091-.589c.142-.262.535-.341.793-.432a2.3,2.3,0,0,0,1-.541A1.182,1.182,0,0,0,18.008,69.176Zm-4.424,3.387c-.844-.021-1.688-.035-2.534-.028a.282.282,0,0,0-.036-.074c-.185-.271-.059-.752,0-1.048a9.929,9.929,0,0,1,.29-1.106,10.127,10.127,0,0,1,1.173-2.441A9.637,9.637,0,0,1,13.759,66.3a1.088,1.088,0,0,0-.166.891c.121.342.477.452.781.576.209.085.861.276.884.56.019.234-.483.3-.66.35a2.571,2.571,0,0,0-1.045.469.638.638,0,0,0-.088.889c.222.293.6.364.875.582.448.351-.627.651-.81.831A.845.845,0,0,0,13.583,72.564ZM.723,61.178c.056-.354.122-.7.5-.811a3.53,3.53,0,0,1,1.057-.048c.542.01,1.085-.017,1.627-.041,2.341-.1,4.68-.13,7.02-.275,1.158-.072,2.321-.185,3.481-.194,1.138-.009,2.284.066,3.42.13a7.618,7.618,0,0,0,1.109-.011l.032.006c.346.074.346.385.361.69.014.274.037.547.06.819-4.94,0-9.877.082-14.816.146-.716.009-1.432.011-2.148.024-.582.011-1.172,0-1.753.06A4.751,4.751,0,0,1,.723,61.178ZM2.8,72.666c-.633.019-1.979.256-2.12-.625a5.612,5.612,0,0,1,.029-1.1c.021-.554,0-1.111-.021-1.666-.035-1.149.02-2.292.017-3.44,0-1.092-.02-2.185-.039-3.276,0-.2-.007-.406,0-.61C1.175,62,1.69,61.993,2.2,62c.622.008,1.243,0,1.865,0q1.893-.01,3.786-.032c2.487-.027,4.974-.055,7.461-.067,1.372-.007,2.744,0,4.116,0,.006.074.012.147.017.221q.062.859.095,1.718a4.74,4.74,0,0,0-2.7.055,7.588,7.588,0,0,0-2.588,1.308,10.3,10.3,0,0,0-3.424,4.819,9.372,9.372,0,0,0-.366,1.4,2.346,2.346,0,0,0-.014,1.133c-.221,0-.442.011-.664.019C7.457,72.655,5.129,72.6,2.8,72.666Zm20.292,2.782a1.307,1.307,0,0,1-.687,1.135,3.828,3.828,0,0,1-1.237.2c-.548.034-1.091.111-1.64.139-.68.035-1.361.033-2.041.036-1.375.007-2.748.081-4.122.107s-2.766.03-4.148.012q-1.15-.015-2.3-.05c-.367-.011-.735-.03-1.1-.034a2.037,2.037,0,0,1-.721-.075c-.279-.109-.3-.383-.307-.649s-.008-.535-.018-.8c.136,0,.272.019.408.023.313.008.629-.021.942-.034.63-.027,1.259-.054,1.889-.062,1.286-.014,2.573,0,3.859-.021,2.518-.043,5.037-.085,7.555-.141q1.06-.024,2.119-.07c.531-.023,1.067.008,1.6-.023C23.127,75.24,23.112,75.344,23.094,75.448Zm.167-1.965c-.025.4-.04.8-.073,1.205-1.142.042-2.287.053-3.429.088-1.285.038-2.571.058-3.856.082-2.555.049-5.11.11-7.666.157-.706.013-1.412.036-2.116.089-.344.026-.687.056-1.031.071-.112,0-.222.012-.329.027-.016-.323-.033-.647-.065-.969-.023-.236-.063-.467-.081-.706-.026-.357.451-.242.682-.242q.534,0,1.068,0,1.068-.008,2.136-.033l.064,0c1.243-.031,2.483-.1,3.726-.089s2.488.078,3.733.111c.619.017,1.238.027,1.858.018a2.69,2.69,0,0,0,1.107-.18,1.4,1.4,0,0,0,.7-.822c.184.012.391-.024.545-.027.4-.008.8,0,1.2.023.383.018.767.042,1.151.048a2.027,2.027,0,0,0,.726-.048C23.3,72.68,23.286,73.081,23.261,73.482Zm.067-2.086q0,.27-.009.539a3.168,3.168,0,0,0-.786-.027c-.4-.008-.8-.035-1.2-.052a7.851,7.851,0,0,0-1.147.016c-.106.011-.246.019-.38.044a9.3,9.3,0,0,0,.239-1.358c.139-1.212.17-2.449.191-3.668s0-2.432-.069-3.646c.538,0,1.075-.017,1.613.009.368.018,1.122,0,1.351.357a1.151,1.151,0,0,1,.12.54c.024.36.037.721.052,1.081.029.673.063,1.346.077,2.019C23.4,68.633,23.347,70.015,23.328,71.4Z" transform="translate(0)"/>
    <path id="Path_8596" data-name="Path 8596" d="M46.684,170.324a3.478,3.478,0,0,0,1.478.247,4.921,4.921,0,0,0,1.5.025,1.291,1.291,0,0,0,1.02-.824,2.42,2.42,0,0,0-.008-1.642c-.3-.623-1.094-.494-1.663-.5-.077,0-.156,0-.236-.008-.106-.012-.212-.021-.319-.027a3.481,3.481,0,0,0-1.452.15,1.1,1.1,0,0,0-.719,1.015C46.227,169.254,46.206,170.012,46.684,170.324Zm.074-1.492a.662.662,0,0,1,.427-.643,7.333,7.333,0,0,1,1.4-.071c.253.007.507.018.76.016a1.689,1.689,0,0,1,.688.058c.383.171.274.887.217,1.22a.8.8,0,0,1-.695.691,3.855,3.855,0,0,1-1.177-.011c-.4-.044-.829-.028-1.22-.1C46.659,169.89,46.72,169.226,46.758,168.832Z" transform="translate(-44.087 -103.27)"/>
    <path id="Path_8597" data-name="Path 8597" d="M43.877,266.637c.321.029.656-.216.958-.147a4.668,4.668,0,0,0,.492.152,1.184,1.184,0,0,0,.558-.078,1.3,1.3,0,0,1,.525-.134,3.12,3.12,0,0,1,.522.113,1.851,1.851,0,0,0,.507.058c.2-.01.379-.093.573-.118a1.125,1.125,0,0,1,.538.154.927.927,0,0,0,.5.052,2.4,2.4,0,0,0,.539-.2.773.773,0,0,1,.539-.015,1.158,1.158,0,0,0,1.143-.134.243.243,0,0,0-.235-.4,1.451,1.451,0,0,1-.577.032,4.43,4.43,0,0,0-.577-.108,2.385,2.385,0,0,0-.844.259c-.329.1-.614-.188-.95-.19s-.627.172-.979.1a2.651,2.651,0,0,0-.9-.125c-.362.047-.636.3-1.012.18a1.114,1.114,0,0,0-.793-.044,1.722,1.722,0,0,1-.442.12c-.178,0-.246-.108-.366-.226-.1-.1-.319-.034-.3.125A.617.617,0,0,0,43.877,266.637Z" transform="translate(-41.271 -196.944)"/>
    <path id="Path_8598" data-name="Path 8598" d="M51.04,293.047a1.451,1.451,0,0,1-.577.032,4.435,4.435,0,0,0-.577-.108,2.386,2.386,0,0,0-.844.259c-.329.1-.614-.188-.95-.19s-.627.172-.979.1a2.652,2.652,0,0,0-.9-.125c-.362.047-.636.3-1.012.18a1.114,1.114,0,0,0-.793-.044,1.721,1.721,0,0,1-.442.12c-.178,0-.246-.108-.366-.226-.1-.1-.319-.034-.3.125a.617.617,0,0,0,.575.579c.321.029.656-.216.958-.147a4.668,4.668,0,0,0,.492.152,1.186,1.186,0,0,0,.558-.078,1.306,1.306,0,0,1,.525-.134,3.117,3.117,0,0,1,.522.113,1.851,1.851,0,0,0,.507.058c.2-.01.379-.093.573-.118a1.125,1.125,0,0,1,.538.154.927.927,0,0,0,.5.052,2.4,2.4,0,0,0,.539-.2.773.773,0,0,1,.539-.015,1.158,1.158,0,0,0,1.143-.134A.243.243,0,0,0,51.04,293.047Z" transform="translate(-41.27 -222.786)"/>
    <path id="Path_8599" data-name="Path 8599" d="M46.828,135.362c.321.029.656-.216.958-.147a4.682,4.682,0,0,0,.492.152,1.186,1.186,0,0,0,.558-.078,1.3,1.3,0,0,1,.525-.134,3.12,3.12,0,0,1,.522.113,1.85,1.85,0,0,0,.507.058c.2-.01.379-.093.573-.118a1.124,1.124,0,0,1,.538.154.927.927,0,0,0,.5.052,2.4,2.4,0,0,0,.539-.2.774.774,0,0,1,.539-.015,1.158,1.158,0,0,0,1.143-.134.243.243,0,0,0-.235-.4,1.451,1.451,0,0,1-.577.032,4.428,4.428,0,0,0-.577-.108,2.387,2.387,0,0,0-.844.259c-.33.1-.614-.188-.95-.19s-.627.172-.979.1a2.651,2.651,0,0,0-.9-.125c-.362.047-.636.3-1.012.18a1.114,1.114,0,0,0-.793-.044,1.722,1.722,0,0,1-.442.12c-.178,0-.246-.108-.366-.226-.1-.1-.319-.034-.3.125A.617.617,0,0,0,46.828,135.362Z" transform="translate(-44.084 -71.823)"/>
  </g>
</svg>
