<svg xmlns="http://www.w3.org/2000/svg" width="194.862" height="102.157" viewBox="0 0 194.862 102.157">
  <g id="Group_25" data-name="Group 25" transform="translate(0 -2.166)">
    <g id="Group_27" data-name="Group 27" transform="translate(0 2.166)">
      <path id="Path_2" data-name="Path 2" d="M106.781,18.115c0-3.042.065-5.344,1.014-5.762a11.057,11.057,0,0,1,4.056-.676c7.26,0,8.934,4.684,8.934,10.157,0,6.375-2.833,9.755-9,9.755a21.756,21.756,0,0,1-5.006-.467Zm6.23,19.171c11.042,0,19.364-6.1,19.364-16.258,0-8.676-5.827-14.97-19.3-14.97-2.913,0-6.969.273-9.271.273-1.964,0-3.735-.064-5.022-.064H92.713c-14.5,0-24.982,7.275-24.982,17.915,0,8.9,5.7,14.375,13.489,14.375,7.1,0,12.185-4.507,12.185-10.849,0-3.3-1.867-6.519-5.763-6.519a5.011,5.011,0,0,0-5.167,5.231c0,2.479,1.5,3.364,1.5,5.1,0,1.642-1.256,2.608-3.573,2.608-4.137,0-8.017-3.9-8.017-9.948,0-8.161,6.021-12.249,16-12.233,2.544.016,6.6-.29,7.131,1.8a25.711,25.711,0,0,1,.29,4.362V42.968c0,3.252-.273,6.1-1.352,6.23-2.64.338-4.266.95-4.266,2.656,0,2.35,4.056,3.171,11.107,3.171,7.517,0,11.911-.821,11.911-3.171,0-1.706-1.819-2.447-5.07-2.656-1.095-.065-1.352-2.978-1.352-6.23v-6.1a54.533,54.533,0,0,0,6.23.418" transform="translate(-35.156 -6.059)"/>
      <path id="Path_3" data-name="Path 3" d="M220.872,64.171c-1.018-.136-1.289-1.827-1.289-5.62V50.764c0-4.54,2.508-7.383,4.4-7.383,1.018,0,1.763.881,2.508,1.625a5.389,5.389,0,0,0,4.13,1.963c2.981,0,5.013-2.372,5.013-6.3,0-4-2.71-6.164-5.894-6.164-3.857,0-7.925,3.185-10.09,8.465V39.926c0-3.321-.4-5.011-2.981-5.011a27.586,27.586,0,0,0-10.428,2.777,2.373,2.373,0,0,0-1.489,2.168c0,1.081.88,1.963,3.452,2.3,1.087.131,1.218,3.384,1.218,6.024V58.551c0,3.048-.064,5.62-1.082,5.756-1.894.274-3.183.883-3.183,2.441,0,2.23,3.457,3.043,9.345,3.043,6.438,0,10.568-.676,10.568-3.043,0-1.558-1.354-2.236-4.2-2.576" transform="translate(-106.277 -20.825)"/>
      <path id="Path_4" data-name="Path 4" d="M278.968,48.109c0-2.538,1.112-7.645,6.259-8.089,7.227-.624,11.688,10.61,11.688,16.352,0,5.894-2.979,9.21-6.774,9.21-6.638,0-11.173-10.09-11.173-17.473m9.819-13.885c-11.649,0-19.841,7.452-19.841,18.218,0,10.364,7.314,17.811,18.214,17.811,11.382,0,19.778-7.309,19.778-18.216a18.1,18.1,0,0,0-18.151-17.813" transform="translate(-139.596 -20.678)"/>
      <path id="Path_5" data-name="Path 5" d="M134.337,120.175c-3.857,0-7.923,3.186-10.09,8.465v-3.045c0-3.321-.4-5.011-2.981-5.011a27.57,27.57,0,0,0-10.428,2.777,2.372,2.372,0,0,0-1.49,2.167c0,1.081.882,1.963,3.452,2.3,1.087.131,1.219,3.383,1.219,6.024V144.22c0,3.048-.064,5.619-1.081,5.756-1.9.273-3.185.882-3.185,2.441,0,2.23,3.457,3.043,9.345,3.043,6.438,0,10.568-.676,10.568-3.043,0-1.559-1.354-2.236-4.2-2.577-1.016-.135-1.289-1.827-1.289-5.619v-7.788c0-4.54,2.507-7.383,4.4-7.383,1.018,0,1.763.88,2.51,1.625a5.381,5.381,0,0,0,4.128,1.963c2.981,0,5.013-2.372,5.013-6.3,0-4-2.708-6.164-5.894-6.164" transform="translate(-56.757 -65.291)"/>
      <path id="Path_6" data-name="Path 6" d="M190.95,124.3a6,6,0,0,1,6.369,6.029c0,1.963-1.289,2.843-4.066,2.843l-10.564.069c.609-5.417,3.659-8.941,8.261-8.941m11.109,19.436a12.8,12.8,0,0,1-8.872,3.588c-5.889,0-9.615-3.788-10.428-9.681h18.151c3.248,0,5.011-2.3,5.011-5.484,0-5.825-5.42-12.127-14.561-12.127-9.886,0-17.878,7.725-17.878,18.694,0,10.157,6.769,17.269,16.659,17.269a17.311,17.311,0,0,0,13.681-6.025,8.62,8.62,0,0,0,2.3-5.079c0-1.489-.745-2.236-1.894-2.236a3.67,3.67,0,0,0-2.168,1.083" transform="translate(-90.045 -65.217)"/>
      <path id="Path_7" data-name="Path 7" d="M266.517,142.587a6.92,6.92,0,0,1-6.571,7.247c-3.453,0-5.146-2.237-5.146-5.284,0-3.25,2.372-5.28,6.5-5.28a10.359,10.359,0,0,1,5.217,1.42Zm10.022.814V131.278c0-7.247-4.266-11.246-11.854-11.246-8.123,0-17.673,4.944-17.673,8.943a3.3,3.3,0,0,0,3.588,3.248c2.777,0,4.335-1.828,5.554-3.522,1.83-2.3,3.657-4.13,5.893-4.13,4.062,0,4.333,4.335,4.333,7.587v3.79a27.581,27.581,0,0,0-7.314-1.149c-8.465,0-14.425,4.471-14.425,11.24,0,5.962,4.607,9.823,10.9,9.823,5.08,0,8.873-2.168,11.04-6.1,1.287,3.93,3.926,5.619,7.448,5.619,4.4,0,6.842-2.708,6.842-4.875a.672.672,0,0,0-.54-.744c-3.522-.814-3.795-2.912-3.795-6.365" transform="translate(-126.98 -65.217)"/>
      <path id="Path_8" data-name="Path 8" d="M340.859,132.686c-4.055,1.532-8.381-1.1-11.326-8.894-2.852-7.541-1.861-12.767,2.89-14.563,3.926-1.487,8.08.493,11.211,8.576,3.294,8.528,1.156,13.394-2.775,14.881m16.924-.716c-1.083-.136-1.218-3.383-1.218-6.029V103.255c0-4.2.069-7.383.069-9.755,0-3.317-.409-5.011-2.981-5.011a33.868,33.868,0,0,0-11.382,2.777c-1.216.613-1.69,1.223-1.69,2.234,0,1.087,1.285,2.1,3.795,2.372,1.42.138,2.029,3.385,2.029,6.029v5.08a13.736,13.736,0,0,0-9.415-3.321c-9.685,0-16.455,7.111-16.455,18.424,0,10.3,5.824,17.407,13.881,17.407a13.327,13.327,0,0,0,12.324-8.061c-.066,1.08-.066,2.032-.066,2.777,0,3.317.409,5.011,2.979,5.011a27.037,27.037,0,0,0,10.092-2.777,2.373,2.373,0,0,0,1.49-2.168c0-1.085-.881-1.963-3.453-2.3" transform="translate(-166.374 -48.845)"/>
      <path id="Path_9" data-name="Path 9" d="M20.928,148.061c-8.805,0-16.044-4.013-16.044-11.337,0-6.189,4.082-9.243,8.981-9.243,3.75,0,5.058,1.658,5.058,3.141,0,2.006-2.79,2.355-2.79,5.756a5.179,5.179,0,0,0,5.406,4.968c4.535,0,6.54-3.661,6.54-7.325,0-4.8-2.879-8.021-6.627-9.679V118.5a49.926,49.926,0,0,1,6.016-.261c6.716,0,11.075,4.011,11.86,11.509,1.048,10.726-8.022,18.314-18.4,18.314m.524-44.648c0-2.877-.088-5.058.7-5.493a11.551,11.551,0,0,1,4.8-.785c7.063,0,8.808,4.013,8.808,8.023,0,5.058-2.879,7.848-7.849,7.848-2.179,0-4.36-.087-6.452-.263ZM37.932,114.4c3.315-1.569,8.635-4.709,8.635-10.464,0-7.062-6.018-12.209-16.831-12.209-2.966,0-8.459.436-11.6.436-1.832,0-3.661-.087-5.32-.087-4.708,0-7.847.611-7.847,2.966,0,1.656,1.569,2.354,4.272,2.7,1.047.174,1.307,2.877,1.307,6.191v19.445C5.607,124.226,0,128.994,0,135.852c0,8.935,5.971,16.831,20.928,16.831,20.056,0,31.3-10.813,29.822-23.894-1.134-10.028-8.11-13.343-12.818-14.388" transform="translate(0 -50.526)"/>
    </g>
  </g>
</svg>
