<svg xmlns="http://www.w3.org/2000/svg" width="16" height="16" viewBox="0 0 16 16">
  <g id="Group_91" data-name="Group 91" transform="translate(0 0)">
    <path id="Path_77" data-name="Path 77" d="M8,16A8,8,0,0,1,2.343,2.343,8,8,0,0,1,13.657,13.657,7.948,7.948,0,0,1,8,16ZM8,1.25A6.75,6.75,0,1,0,14.75,8,6.758,6.758,0,0,0,8,1.25ZM7.969,8.594a3,3,0,1,1,3-3A3,3,0,0,1,7.969,8.594Zm0-4.75a1.75,1.75,0,1,0,1.75,1.75A1.752,1.752,0,0,0,7.969,3.844Zm3.96,8.39a.625.625,0,0,0,.087-.88,4.615,4.615,0,0,0-3.583-1.7H7.692a4.615,4.615,0,0,0-3.583,1.7.625.625,0,0,0,.967.792,3.369,3.369,0,0,1,2.616-1.24h.742a3.369,3.369,0,0,1,2.616,1.24.625.625,0,0,0,.88.087Z" fill="#d8a235"/>
  </g>
</svg>
