<svg xmlns="http://www.w3.org/2000/svg" width="11.844" height="16" viewBox="0 0 11.844 16">
  <g id="Group_1841" data-name="Group 1841" transform="translate(-66.5)">
    <path id="Path_78" data-name="Path 78" d="M74.594,16H70.25a3.754,3.754,0,0,1-3.75-3.75V3.75A3.754,3.754,0,0,1,70.25,0h4.344a3.754,3.754,0,0,1,3.75,3.75v8.5A3.754,3.754,0,0,1,74.594,16ZM70.25,1.25a2.5,2.5,0,0,0-2.5,2.5v8.5a2.5,2.5,0,0,0,2.5,2.5h4.344a2.5,2.5,0,0,0,2.5-2.5V3.75a2.5,2.5,0,0,0-2.5-2.5Zm5.469,5.125a.781.781,0,0,1-1.562,0A.781.781,0,0,1,75.719,6.375Zm-2.5,0a.781.781,0,0,1-1.562,0A.781.781,0,0,1,73.219,6.375Zm-2.5,0a.781.781,0,0,1-1.562,0A.781.781,0,0,1,70.719,6.375Zm5-2.562a.781.781,0,0,1-1.562,0A.781.781,0,0,1,75.719,3.813Zm-2.5,0a.781.781,0,0,1-1.562,0A.781.781,0,0,1,73.219,3.813Zm-2.5,0a.781.781,0,0,1-1.562,0A.781.781,0,0,1,70.719,3.813Zm5,5.063a.781.781,0,0,1-1.562,0A.781.781,0,0,1,75.719,8.875Zm-2.5,0a.781.781,0,0,1-1.562,0A.781.781,0,0,1,73.219,8.875Zm-2.5,0a.781.781,0,0,1-1.562,0A.781.781,0,0,1,70.719,8.875Zm2.547,3.688a.781.781,0,0,1-1.562,0A.781.781,0,0,1,73.266,12.563Z" fill="#d8a235"/>
  </g>
</svg>
