<svg id="Group_39" data-name="Group 39" xmlns="http://www.w3.org/2000/svg" width="16" height="16" viewBox="0 0 16 16">
  <g id="Group_36" data-name="Group 36">
    <g id="Group_35" data-name="Group 35">
      <path id="Path_43" data-name="Path 43" d="M8,0a8,8,0,1,0,8,8A8.009,8.009,0,0,0,8,0ZM8,14.761A6.761,6.761,0,1,1,14.761,8,6.769,6.769,0,0,1,8,14.761Z" fill="#d8a235"/>
    </g>
  </g>
  <g id="Group_38" data-name="Group 38" transform="translate(4.282 4.226)">
    <g id="Group_37" data-name="Group 37">
      <path id="Path_44" data-name="Path 44" d="M143.838,138.336H141.36v-2.479a.62.62,0,1,0-1.239,0v2.479h-2.479a.62.62,0,1,0,0,1.239h2.479v2.479a.62.62,0,0,0,1.239,0v-2.479h2.479a.62.62,0,1,0,0-1.239Z" transform="translate(-137.022 -135.238)" fill="#d8a235"/>
    </g>
  </g>
</svg>
