<svg id="Group_132" data-name="Group 132" xmlns="http://www.w3.org/2000/svg" width="16" height="16.012" viewBox="0 0 16 16.012">
  <g id="Group_131" data-name="Group 131">
    <path id="Path_135" data-name="Path 135" d="M9.6,13.187A6.594,6.594,0,1,0,3.009,6.594,6.6,6.6,0,0,0,9.6,13.187ZM9.6,1.25A5.344,5.344,0,1,1,4.259,6.594,5.35,5.35,0,0,1,9.6,1.25ZM.379,15.829a.625.625,0,0,1,0-.884l2.8-2.8a.625.625,0,1,1,.884.884l-2.8,2.8a.625.625,0,0,1-.884,0Z" transform="translate(-0.196)" fill="#d8a235"/>
  </g>
</svg>
