<svg xmlns="http://www.w3.org/2000/svg" width="16" height="19.115" viewBox="0 0 16 19.115">
  <g id="Group_1843" data-name="Group 1843" transform="translate(-41.665 0)">
    <path id="Path_55997" data-name="Path 55997" d="M53.179,6.33H47.35V3.8a2.334,2.334,0,1,1,4.669.021.748.748,0,0,0,1.5,0A3.83,3.83,0,0,0,45.855,3.8V6.34a4.492,4.492,0,0,0-4.19,4.476v3.813a4.491,4.491,0,0,0,4.486,4.486h7.028a4.491,4.491,0,0,0,4.486-4.486V10.816A4.491,4.491,0,0,0,53.179,6.33Zm2.991,8.3a2.994,2.994,0,0,1-2.991,2.991H46.151a2.994,2.994,0,0,1-2.991-2.991V10.816a2.994,2.994,0,0,1,2.991-2.991h7.028a2.994,2.994,0,0,1,2.991,2.991Zm-4.262-2.654a2.243,2.243,0,1,0-2.991,2.114v1.1a.748.748,0,0,0,1.5,0v-1.1A2.247,2.247,0,0,0,51.908,11.975Zm-2.243.748a.748.748,0,1,1,.748-.748A.749.749,0,0,1,49.665,12.723Z" transform="translate(0 0)" fill="#d8a235"/>
  </g>
</svg>
