<svg xmlns="http://www.w3.org/2000/svg" width="70.415" height="88" viewBox="0 0 70.415 88">
  <g id="Group_1887" data-name="Group 1887" transform="translate(0.001 0)">
    <g id="Group_1886" data-name="Group 1886" transform="translate(0.866 0.86)">
      <path id="Path_56064" data-name="Path 56064" d="M105.624,13.243c-1.718,1.026-2.906,3.45-1.936,5.424a5.35,5.35,0,0,0,3.019,2.43,11.341,11.341,0,0,0,4.173.779,11.7,11.7,0,0,0,7.128-2.389,7.892,7.892,0,0,0,6.163,3.1h.026a7.889,7.889,0,0,0,6.154-3.045,4.854,4.854,0,0,0,3.425,1.354,5.034,5.034,0,0,0,2.747-.795,5.789,5.789,0,0,0,2.4-5.844A6.8,6.8,0,0,0,132.211,8.9a11.687,11.687,0,0,0-3.828.741,2.4,2.4,0,0,0-.716-2.022A5.886,5.886,0,0,0,125.812,6.4a12.8,12.8,0,0,0-5.4-1.4,8.006,8.006,0,0,0-1.233.094A8.238,8.238,0,0,0,116.369,6.1a9.826,9.826,0,0,0-1.746,1.281,13.247,13.247,0,0,0-2.968,4.189,2.134,2.134,0,0,0-.183.569l-.06.406.277.3a8.754,8.754,0,0,0-2.745-.454,6.45,6.45,0,0,0-3.32.849Zm0,0" transform="translate(-86.446 -5)" fill="#fff"/>
      <path id="Path_56065" data-name="Path 56065" d="M22.764,304.9l-1.431-8.527a3.679,3.679,0,0,1,.242-2.658,2.3,2.3,0,0,1,1.405-.878,7.177,7.177,0,0,1,1.668-.167l1.321-.015-.038-8.186a2.759,2.759,0,0,1,.326-1.59,2.764,2.764,0,0,1,2.138-.812c4.475-.3,9.057-.479,13.618-.536l.619-.008,1.173-3.67-1.39.234a14.5,14.5,0,0,1-2.392.2c-.193,0-.4,0-.617-.013a14.7,14.7,0,0,1-8-2.835l-.775-.572-.48.834a3.955,3.955,0,0,1-.558.754,11.632,11.632,0,0,1-4.164,2.513c-.148.061-.3.121-.446.181l-.148.059a16.794,16.794,0,0,0-3.79,1.9c-2.338,1.714-3.594,4.481-4.426,6.7-.233.622-.457,1.262-.673,1.881l-.013.037a28.153,28.153,0,0,1-2.416,5.6,28.23,28.23,0,0,1-3.469,4.264l-.15.162-.3.32a20.67,20.67,0,0,0-3.648,4.935,7.9,7.9,0,0,0-.549,5.978,5.142,5.142,0,0,0,3.623,3.284l1,.211.042-1.016a10.527,10.527,0,0,1,2.4-6.331A10.959,10.959,0,0,1,17.6,303.71l1.475-.462c.027.034.054.069.08.1l.052.448.4.212a6.587,6.587,0,0,0,1.969.679Zm-7.111-3.314a4.5,4.5,0,0,0-2.745.947,4.418,4.418,0,0,1,2.735-.949,4.314,4.314,0,0,1,.559.036c.058.007.115.017.173.028-.058-.01-.115-.019-.173-.027a4.284,4.284,0,0,0-.55-.036Zm1.136.154c-.06-.016-.12-.032-.181-.046C16.669,301.711,16.729,301.726,16.789,301.742Zm-.232-.056c-.051-.011-.1-.022-.153-.032C16.455,301.664,16.506,301.674,16.557,301.686Zm1.2.452a4.481,4.481,0,0,0-.954-.393,4.419,4.419,0,0,1,1.1.475Zm0,0" transform="translate(-5.046 -228.487)" fill="#fff"/>
      <path id="Path_56066" data-name="Path 56066" d="M265.4,303.938c-.1-.108-.2-.215-.3-.322l-.151-.163a21.105,21.105,0,0,1-5.886-9.863l-.011-.034c-.216-.618-.439-1.258-.673-1.881-.832-2.219-2.087-4.985-4.426-6.7a16.755,16.755,0,0,0-3.792-1.9l-.146-.058c-.149-.06-.3-.12-.451-.183a11.624,11.624,0,0,1-4.138-2.489l-.773-.807-.581.954a17.283,17.283,0,0,0-1.718,3.773l-.353,1.111,1.607.012.881.007c.945.013,2.527.034,3.391,1.029a4.482,4.482,0,0,1,.741,2.894l.145,7.467.821.021c.71.018,1.292.026,1.831.026l.442,0a4.641,4.641,0,0,0,.646-.066,4.365,4.365,0,0,1,.643-.064,1.283,1.283,0,0,1,.784.227c.877.621.749,1.759.559,2.784l-1.762,9.4,2.575-.98.637-.24-.09-.675c.026-.034.052-.069.079-.1l1.476.463A10.954,10.954,0,0,1,262.536,311a10.671,10.671,0,0,1,2.4,6.33l.042,1.017,1-.211a5.138,5.138,0,0,0,3.623-3.284,7.9,7.9,0,0,0-.548-5.977A20.683,20.683,0,0,0,265.4,303.938ZM257.251,306l-.154.086a4.407,4.407,0,0,1,1.307-.529A4.432,4.432,0,0,0,257.251,306Zm2.1-.551a4.274,4.274,0,0,0-.547.035c-.064.009-.13.019-.195.03.063-.011.126-.022.19-.03a4.32,4.32,0,0,1,.56-.036,4.405,4.405,0,0,1,2.734.95A4.427,4.427,0,0,0,259.355,305.45Zm-.926.1c.059-.013.119-.025.179-.036Q258.517,305.532,258.429,305.552Zm0,0" transform="translate(-201.28 -232.35)" fill="#fff"/>
    </g>
    <path id="Path_56067" data-name="Path 56067" d="M135.545,378.576a1.31,1.31,0,0,0-.778-.227,4.561,4.561,0,0,0-.657.066,4.523,4.523,0,0,1-.638.064l-.418,0c-1.425,0-2.862-.053-4.252-.1l-.1,0c-.9-.033-1.823-.068-2.731-.086-4.927-.1-9.975-.152-15.007-.152-2.821,0-5.671.017-8.47.052-1.231.015-2.457.152-3.074,1.045a3.6,3.6,0,0,0-.24,2.661l.3,1.794.042.1a5.386,5.386,0,0,0,5.142,2.892h.086a16.582,16.582,0,0,0,5.111-1.168l.02-.007c.285-.1.571-.2.853-.292a13.61,13.61,0,0,1,4.2-.839,6.468,6.468,0,0,1,1.642.2,12.265,12.265,0,0,1,3.223,1.595,9.432,9.432,0,0,0,4.347,1.791c.1.005.2.008.293.008a10.314,10.314,0,0,0,4.236-1.273c.254-.119.509-.237.761-.35a8.259,8.259,0,0,1,3.248-.831,3.621,3.621,0,0,1,1.509.3l1,.446.92-4.9C136.253,380.572,136.5,379.252,135.545,378.576Zm0,0" transform="translate(-82.024 -313.144)" fill="#f9d889"/>
    <path id="Path_56068" data-name="Path 56068" d="M126.784,318.783a4.7,4.7,0,0,0,3.339,1.582l.128,0a9.194,9.194,0,0,0,4.2-1.425,9.259,9.259,0,0,1,3.86-1.377l.146,0a9.651,9.651,0,0,1,4.073,1.3,9.921,9.921,0,0,0,4.218,1.329,4.753,4.753,0,0,0,.5-.026,8.875,8.875,0,0,0,2.195-.618c.225-.085.45-.17.674-.248a5.615,5.615,0,0,1,1.787-.357c.071,0,.144,0,.216.007l.937.062-.034-1.576a4.4,4.4,0,0,0-.739-2.894c-.8-.919-2.171-1.014-3.4-1.03-1.031-.013-2.078-.019-3.113-.019-5.58,0-11.214.189-16.746.559a2.708,2.708,0,0,0-2.139.814,2.679,2.679,0,0,0-.325,1.6l.011,2.08Zm0,0" transform="translate(-104.81 -259.611)" fill="#f9d889"/>
    <path id="Path_56069" data-name="Path 56069" d="M137.879,464.009l-.243-.458-22.767.064s.275,1.082.276,1.086a4.891,4.891,0,0,1-2.057,3.3l-1.951,1.568,2.5-.039c4.418-.069,8.948-.147,12.944-.217,4.694-.082,9.281-.161,13.784-.23l2.1-.032-1.516-1.449a27.033,27.033,0,0,1-3.069-3.6Zm0,0" transform="translate(-92.036 -383.878)" fill="#d8deec"/>
    <path id="Path_56070" data-name="Path 56070" d="M145.861,99.259a42.636,42.636,0,0,0,8.564-.866,3.972,3.972,0,0,0,2.808-1.527,4.066,4.066,0,0,0,.386-1.823l.2-3.628.146-.7-.636-.281a4.547,4.547,0,0,1-.745-.411l-.6-.418-.507.531a7.942,7.942,0,0,1-5.638,2.439h-.03a7.934,7.934,0,0,1-5.677-2.516l-.5-.537-.609.406a11.849,11.849,0,0,1-6.51,1.938c-.369,0-.741-.017-1.106-.052l-1.107-.1,1.01,6.23.556.134a42.759,42.759,0,0,0,9.994,1.18Zm0,0" transform="translate(-111.219 -74.14)" fill="#d8deec"/>
    <path id="Path_56071" data-name="Path 56071" d="M125.677,150.562l1.026-.6a11.23,11.23,0,0,0,5.318-7.45,8.413,8.413,0,0,0,5.736,2.062,10.154,10.154,0,0,0,1.284-.082,17.809,17.809,0,0,0,6.842-2.69,7.844,7.844,0,0,0,6.034,7.91l.983.235.074-1.008a12.9,12.9,0,0,0-.487-4.46,18.553,18.553,0,0,0-3.363-6.261l-.39-.495-.59.224a8.49,8.49,0,0,1-1.3.359,42.882,42.882,0,0,1-17.946-.172l-.8-.175-.221.784a12.986,12.986,0,0,0-2.455,10.656Zm0,0" transform="translate(-103.643 -114.051)" fill="#935252"/>
    <path id="Path_56072" data-name="Path 56072" d="M283.413,449.422a10.537,10.537,0,0,0-2.194-4.629,10.9,10.9,0,0,0-5.495-3.53l-.6-.162-.342.525-2.944,1.122-.441.1-.169.406a2.578,2.578,0,0,1-.873,1.168,4.2,4.2,0,0,1-2.473.524l-3.308.011,1.069,1.38c1.682,2.172,4.012,4.755,7.12,5.454a14.119,14.119,0,0,0,3.1.342,14.479,14.479,0,0,0,6.825-1.695l.906-.129Zm0,0" transform="translate(-219.098 -365.287)" fill="#ffd2bb"/>
    <path id="Path_56073" data-name="Path 56073" d="M153.9,167.065a9.9,9.9,0,0,0,.343-1.306l.158-.821-.816-.181a7.329,7.329,0,0,1-5.744-6.866l-.062-1.426-1.231.722a16.1,16.1,0,0,1-6.131,2.314,10.014,10.014,0,0,1-1.254.08,8,8,0,0,1-4.958-1.592l-1.039-.82-.326,1.284a10.83,10.83,0,0,1-5.217,6.734l-.728.4.343.687a14.019,14.019,0,0,0,8.655,8.591,14.444,14.444,0,0,0,4.678.762,15.426,15.426,0,0,0,7.563-1.977A12.272,12.272,0,0,0,153.9,167.065Zm0,0" transform="translate(-105.086 -129.572)" fill="#ffd2bb"/>
    <path id="Path_56074" data-name="Path 56074" d="M47.729,444.174a2.881,2.881,0,0,1-.735-1.236l-.218-.663-.709.079a6.663,6.663,0,0,1-2.927-1.061.826.826,0,0,0-.073-.054l-.311-.208-.365.087a10.848,10.848,0,0,0-5.837,3.618,10.55,10.55,0,0,0-2.369,5.834l-.058.656.618.226a15.337,15.337,0,0,0,5.292.92,15.882,15.882,0,0,0,8.265-2.3c1.873-1.164,2.934-2.549,3.069-4.008,0-.007.28-1.084.28-1.084l-1.1-.011a3.952,3.952,0,0,1-2.825-.793Zm0,0" transform="translate(-28.264 -365.228)" fill="#ffd2bb"/>
    <path id="Path_56075" data-name="Path 56075" d="M170.7,257.925l-.163-.352a10.313,10.313,0,0,1-.606-2.018c-.051-.22-.1-.446-.159-.675l-.254-1.038-.959.47a15.547,15.547,0,0,1-6.8,1.574,14.459,14.459,0,0,1-4.676-.76,13.665,13.665,0,0,1-2.522-1.163l-.973-.574-.293,1.091c-.1.362-.18.715-.263,1.074-.1.44-.215.94-.362,1.393l-.185.575.479.369a15.158,15.158,0,0,0,8.517,3.11c.214.009.43.014.645.014a14.972,14.972,0,0,0,3.035-.316l-.971,3.037,1.188-.01q.917-.008,1.835-.007l1.217,0,.182-.619a16.8,16.8,0,0,1,1.2-2.99l.922-1.781.122-.077-.038-.083.214-.412Zm0,0" transform="translate(-126.277 -209.838)" fill="#ed6d66"/>
    <path id="Path_56076" data-name="Path 56076" d="M134.861,412.333a8.6,8.6,0,0,0-3.45.875c-.258.114-.516.234-.787.36a9.749,9.749,0,0,1-4,1.219c-.089,0-.178,0-.26-.007a8.935,8.935,0,0,1-4.1-1.712,12.557,12.557,0,0,0-3.365-1.658,7.011,7.011,0,0,0-1.77-.217,14.241,14.241,0,0,0-4.363.865c-.253.083-.5.171-.758.257l-.119.041a16.254,16.254,0,0,1-4.954,1.141h-.082a5.946,5.946,0,0,1-3.446-1.075l-1.715-1.278.957,5.711a3.288,3.288,0,0,0,4.088,3.361l26.258-.074a3.148,3.148,0,0,0,3.779-3.311l.577-3.082.1-.7-.606-.244a4.122,4.122,0,0,0-1.98-.472Zm0,0" transform="translate(-84.208 -340.479)" fill="#f7b36f"/>
    <path id="Path_56077" data-name="Path 56077" d="M151.947,335.555a6.03,6.03,0,0,0-1.961.387c-.232.08-.461.166-.695.254a8.333,8.333,0,0,1-2.06.585,4.388,4.388,0,0,1-.452.023,9.4,9.4,0,0,1-4-1.284,10.03,10.03,0,0,0-4.283-1.345c-.055,0-.111,0-.167,0a9.639,9.639,0,0,0-4.1,1.442,8.643,8.643,0,0,1-3.944,1.359l-.117,0a4.142,4.142,0,0,1-2.21-.743l-1.356-.938.031,6.471.863-.007c2.152-.02,4.267-.03,6.286-.03,5.121,0,10.17.053,15.007.151.935.02,1.874.054,2.832.089l1.578.06-.123-6.378-.755-.079A3.651,3.651,0,0,0,151.947,335.555Zm0,0" transform="translate(-104.846 -276.739)" fill="#f7b36f"/>
    <path id="Path_56078" data-name="Path 56078" d="M69.411,77.011a21.376,21.376,0,0,0-3.793-5.15l-.448-.484a27.675,27.675,0,0,1-3.368-4.13,27.228,27.228,0,0,1-2.336-5.431c-.222-.635-.451-1.292-.692-1.934-.875-2.33-2.2-5.242-4.723-7.091a17.676,17.676,0,0,0-3.981-2.007c-.2-.079-.394-.158-.591-.238a10.9,10.9,0,0,1-3.86-2.308A5.355,5.355,0,0,1,44.5,45.525c-.085-.369-.173-.749-.282-1.151a12.9,12.9,0,0,0,5.415-6.606,12.817,12.817,0,0,0,.039-7.579,19.262,19.262,0,0,0-3.393-6.4,3.041,3.041,0,0,0,.485-.637,4.849,4.849,0,0,0,.5-2.2l.188-3.405a5.983,5.983,0,0,0,3.964-.867A6.67,6.67,0,0,0,54.19,9.952,7.678,7.678,0,0,0,49.5,4.424a9.026,9.026,0,0,0-5.925-.072,3.6,3.6,0,0,0-.863-1.474A6.822,6.822,0,0,0,40.6,1.485,12.292,12.292,0,0,0,33.463.105a9.063,9.063,0,0,0-3.1,1.108,10.628,10.628,0,0,0-1.9,1.393A14.091,14.091,0,0,0,25.3,7.065a3.2,3.2,0,0,0-.187.495,7.816,7.816,0,0,0-5.509.8c-2.046,1.224-3.444,4.144-2.265,6.541a6.155,6.155,0,0,0,3.474,2.85,11.824,11.824,0,0,0,1.5.477l.927,5.707a.852.852,0,0,0,.181.4,13.844,13.844,0,0,0-2.5,11.1.743.743,0,0,0-.018.079.854.854,0,0,0,.188.651q.1.383.226.76a14.632,14.632,0,0,0,5.05,6.946.856.856,0,0,0-.094.2c-.149.515-.258.988-.363,1.445a5.362,5.362,0,0,1-1.126,2.714,10.892,10.892,0,0,1-3.86,2.308c-.2.081-.393.159-.591.238a17.675,17.675,0,0,0-3.981,2.007c-2.52,1.848-3.848,4.76-4.723,7.091-.241.643-.47,1.3-.692,1.934a27.15,27.15,0,0,1-2.336,5.431,27.711,27.711,0,0,1-3.367,4.13l-.448.484A21.4,21.4,0,0,0,1,77.01,8.64,8.64,0,0,0,.419,83.65a5.826,5.826,0,0,0,5.25,3.94c.089,0,.179,0,.268-.007a.861.861,0,0,0,.679-.4,16.328,16.328,0,0,0,5.15.823,16.932,16.932,0,0,0,6.865-1.448c.028,0,.054.008.083.008h.013c5.246-.077,10.629-.171,15.835-.261s10.586-.183,15.83-.26c.011,0,.021,0,.032,0a9.466,9.466,0,0,0,3.049,1.313,14.985,14.985,0,0,0,3.285.361,15.434,15.434,0,0,0,6.912-1.627c0,.2,0,.4,0,.609a.859.859,0,0,0,.808.891c.089.005.179.008.269.008a5.827,5.827,0,0,0,5.25-3.94,8.638,8.638,0,0,0-.581-6.639ZM53.237,68.059c-.222,1.18-.359,2.4-.547,3.6a8.359,8.359,0,0,0-4.343-.021,15.67,15.67,0,0,0-2.141.8,11.343,11.343,0,0,1-2.308.808,7.5,7.5,0,0,1-4.463-.755c-.575-.271-1.135-.589-1.727-.926a11,11,0,0,0-4.915-1.824,10.908,10.908,0,0,0-4.944,1.329,16.055,16.055,0,0,1-2.759,1.044,7.416,7.416,0,0,1-6.682-1.794.861.861,0,0,0-.138-.107q-.134-.8-.269-1.6a3,3,0,0,1,.1-2.031c.4-.574,1.378-.664,2.379-.676,2.809-.033,5.656-.05,8.46-.051,4.978,0,10.017.05,14.989.152.935.019,1.892.054,2.818.089,1.542.057,3.135.115,4.708.1a5.454,5.454,0,0,0,.768-.075c.45-.067.661-.086.8.015.419.3.391.956.209,1.924Zm-.868,5.3c-.214.941-.476,1.874-.657,2.835a3.524,3.524,0,0,1-.962,2.248,3.5,3.5,0,0,1-1.973.363l-26.2.074a3.741,3.741,0,0,1-2.526-.558,3.708,3.708,0,0,1-.774-2.088c-.2-1.192-.4-2.375-.6-3.559a9.2,9.2,0,0,0,6.808,1.112,17.579,17.579,0,0,0,3.061-1.147,9.529,9.529,0,0,1,4.167-1.18,9.589,9.589,0,0,1,4.14,1.6c.595.338,1.21.687,1.844.986a9.847,9.847,0,0,0,4.169,1.013,7.19,7.19,0,0,0,1.349-.124,12.826,12.826,0,0,0,2.665-.918,14.128,14.128,0,0,1,1.906-.717,6.614,6.614,0,0,1,3.577.06ZM47.481,64.4l-.671-.024c-.932-.035-1.9-.07-2.846-.09-4.763-.1-9.591-.145-14.362-.151h-.663c-2.086,0-4.195.01-6.294.029.052,0,0-1.735-.035-3.632a6,6,0,0,0,3.126.889,5.655,5.655,0,0,0,.986-.086,10.791,10.791,0,0,0,3.48-1.486,8.839,8.839,0,0,1,3.045-1.3,3.921,3.921,0,0,1,1.983.238,8.834,8.834,0,0,1,1.65.965,11.75,11.75,0,0,0,1.691,1.018,6.382,6.382,0,0,0,4.9.176c.369-.14.711-.307,1.041-.47a8.213,8.213,0,0,1,1.065-.466,3.678,3.678,0,0,1,1.848-.106c-.008.174-.014.342-.014.5,0,.316.027,4,.068,4Zm.034-6.226a5.417,5.417,0,0,0-2.467.2,9.793,9.793,0,0,0-1.292.558c-.307.151-.6.294-.889.4a4.715,4.715,0,0,1-3.574-.128,10.252,10.252,0,0,1-1.443-.877,10.253,10.253,0,0,0-1.984-1.143,5.63,5.63,0,0,0-2.857-.342,10.241,10.241,0,0,0-3.664,1.512,9.367,9.367,0,0,1-2.921,1.282,4.193,4.193,0,0,1-3.642-1.147.878.878,0,0,0-.19-.139,9.491,9.491,0,0,1,.189-2.606c.228-.323.852-.407,1.493-.45,6.559-.439,13.218-.62,19.791-.538,1.037.013,2.189.081,2.757.731a3.94,3.94,0,0,1,.692,2.681Zm-8.239-8.441a18.986,18.986,0,0,1-4.976.156c-2.277-.17-5.146-.587-7.147-2.326l0,0a15.529,15.529,0,0,0,.442-1.65c.078-.338.158-.686.254-1.044A14.555,14.555,0,0,0,30.528,46.1a15.337,15.337,0,0,0,4.952.806,16.4,16.4,0,0,0,7.183-1.662c.056.226.107.447.156.665a9.622,9.622,0,0,0,.65,1.962,9.13,9.13,0,0,1-4.194,1.86Zm2.6,2.684a3.187,3.187,0,0,0-.268.669c-.955-.009-1.914-.041-2.87-.059l.528-1.548c.11-.018.22-.037.328-.057a11.816,11.816,0,0,0,3.364-1.149Zm-20.43-36.26a4.532,4.532,0,0,1-2.562-2.01c-.75-1.524.244-3.493,1.6-4.307a6.6,6.6,0,0,1,5.355-.316.859.859,0,0,0,.9-1.4,1.326,1.326,0,0,1,.112-.333,12.385,12.385,0,0,1,2.771-3.92,8.85,8.85,0,0,1,1.592-1.168,7.336,7.336,0,0,1,2.511-.9,10.67,10.67,0,0,1,6.138,1.238,5.2,5.2,0,0,1,1.6,1.022,1.579,1.579,0,0,1,.494,1.281.859.859,0,0,0,1.128.96c2.361-.817,4.2-.907,5.779-.282A5.922,5.922,0,0,1,52.5,10.271a4.915,4.915,0,0,1-2.023,4.963,4.2,4.2,0,0,1-5.1-.446.859.859,0,0,0-1.29.087,7.015,7.015,0,0,1-5.472,2.706h-.026a7.013,7.013,0,0,1-5.476-2.751.857.857,0,0,0-.572-.336.835.835,0,0,0-.115-.008.859.859,0,0,0-.525.179,10.89,10.89,0,0,1-10.461,1.491Zm24.322.928a.877.877,0,0,0-.02.127l-.2,3.644a3.436,3.436,0,0,1-.276,1.446,3.294,3.294,0,0,1-2.236,1.11A41.979,41.979,0,0,1,24.85,23.1l-.742-4.569a12.722,12.722,0,0,0,8.173-2.027,8.791,8.791,0,0,0,6.3,2.792h.033a8.794,8.794,0,0,0,6.26-2.7,5.508,5.508,0,0,0,.888.489ZM24.909,25.233a.845.845,0,0,0,.16-.314,43.662,43.662,0,0,0,9.57,1.059,43.452,43.452,0,0,0,8.738-.884,9.293,9.293,0,0,0,1.429-.4,17.719,17.719,0,0,1,3.211,5.967A12.36,12.36,0,0,1,48.456,33c.028.312.089.671.132,1.027a7.5,7.5,0,0,1-3.991-2.5,6.2,6.2,0,0,1-1.357-4.562.859.859,0,0,0-1.4-.769,15.6,15.6,0,0,1-4.931,2.927,8.07,8.07,0,0,1-5.387.048,3.155,3.155,0,0,1-1.974-1.789.859.859,0,0,0-1.678.1,10.625,10.625,0,0,1-2.939,5.842,4.879,4.879,0,0,1-2.389,1.433,12.623,12.623,0,0,1,2.369-9.523ZM22.88,36.443a6.455,6.455,0,0,0,3.27-1.91A12.366,12.366,0,0,0,29.1,29.705a5.842,5.842,0,0,0,1.811,1.072,9.779,9.779,0,0,0,6.545-.025A15.518,15.518,0,0,0,41.537,28.6a8.032,8.032,0,0,0,1.721,4.008,9.263,9.263,0,0,0,5.158,3.148c.017,0,.035,0,.052.006a11.813,11.813,0,0,1-5.844,7.565,14.388,14.388,0,0,1-11.542,1.149,12.986,12.986,0,0,1-3.078-1.539,13.188,13.188,0,0,1-5.125-6.493ZM5.03,85.8a4.292,4.292,0,0,1-2.994-2.735,7.042,7.042,0,0,1,.515-5.315,19.951,19.951,0,0,1,3.505-4.725l.444-.481a28.962,28.962,0,0,0,3.57-4.4,28.938,28.938,0,0,0,2.5-5.768c.218-.626.443-1.272.677-1.9.791-2.107,1.975-4.728,4.13-6.308a16.174,16.174,0,0,1,3.6-1.8q.3-.12.6-.242a12.367,12.367,0,0,0,4.458-2.716c.1-.107.194-.216.281-.325,2.349,1.866,5.413,2.323,7.853,2.5.811.06,1.55.091,2.238.091.335,0,.657-.008.971-.023l-.438,1.283c-.007.021-.009.043-.015.064q-1.984.015-3.967.087c-2.937.1-5.871.282-8.8.479a3.5,3.5,0,0,0-2.783,1.174,3.5,3.5,0,0,0-.483,2.1l.034,7.325-.467,0c-.914.011-2.814.034-3.772,1.417a4.426,4.426,0,0,0-.381,3.293l1.229,7.325a5.81,5.81,0,0,1-1.713-.593.858.858,0,0,0-.164-.417,5.243,5.243,0,0,0-7.464-.974.859.859,0,1,0,1.068,1.346,3.592,3.592,0,0,1,2.647-.734,3.52,3.52,0,0,1,1.247.416,11.788,11.788,0,0,0-5.53,3.7A11.468,11.468,0,0,0,5.03,85.8ZM19.586,84.11A15.016,15.016,0,0,1,6.779,85.416a9.722,9.722,0,0,1,2.175-5.362,10.049,10.049,0,0,1,5.374-3.329c.015.011.026.024.041.034a7.506,7.506,0,0,0,3.355,1.223.9.9,0,0,0,.095.005.771.771,0,0,0,.1-.009,3.746,3.746,0,0,0,.961,1.594A4.775,4.775,0,0,0,22.282,80.6a.858.858,0,0,0-.028.144c-.133,1.5-1.525,2.66-2.668,3.369Zm14.946.471c-4.253.074-8.624.15-12.942.217a5.748,5.748,0,0,0,2.376-3.9.849.849,0,0,0-.029-.3l21.146-.06c.015.024.026.05.044.073a28.615,28.615,0,0,0,3.191,3.744c-4.592.07-9.256.152-13.786.23ZM63.19,84.4a13.67,13.67,0,0,1-9.34,1.277c-2.666-.6-4.772-2.745-6.63-5.144l1.563,0a4.947,4.947,0,0,0,2.972-.686A3.446,3.446,0,0,0,52.92,78.3a.892.892,0,0,0,.089-.026l2.976-1.133a.855.855,0,0,0,.414-.338,10.04,10.04,0,0,1,5.06,3.248A9.653,9.653,0,0,1,63.473,84.3a.857.857,0,0,0-.283.091Zm5.186-1.328A4.292,4.292,0,0,1,65.382,85.8a11.466,11.466,0,0,0-2.6-6.843,11.784,11.784,0,0,0-5.529-3.7,3.539,3.539,0,0,1,1.247-.416,3.593,3.593,0,0,1,2.647.734.859.859,0,0,0,1.068-1.347,5.243,5.243,0,0,0-7.464.974.859.859,0,0,0-.163.626l-1.143.435,1.479-7.894c.161-.861.5-2.651-.907-3.644a2.637,2.637,0,0,0-2.051-.312,3.991,3.991,0,0,1-.528.057c-.741.006-1.491,0-2.24-.023l-.129-6.645a5.244,5.244,0,0,0-.95-3.44,5.138,5.138,0,0,0-4.14-1.327c-.17.01-.34.015-.51.022L45,50.042a12.539,12.539,0,0,0,3.835,2.1c.2.082.4.162.6.242a16.149,16.149,0,0,1,3.605,1.8c2.154,1.58,3.339,4.2,4.129,6.308.234.624.46,1.271.678,1.9a28.88,28.88,0,0,0,2.5,5.768,29.009,29.009,0,0,0,3.57,4.4l.445.48a19.987,19.987,0,0,1,3.505,4.725,7.042,7.042,0,0,1,.515,5.315Zm0,0" transform="translate(0 0)"/>
  </g>
</svg>
