<svg id="visa-seeklogo.com" xmlns="http://www.w3.org/2000/svg" xmlns:xlink="http://www.w3.org/1999/xlink" width="33" height="10.656" viewBox="0 0 33 10.656">
  <defs>
    <linearGradient id="linear-gradient" x1="0.46" y1="1.02" x2="0.549" gradientUnits="objectBoundingBox">
      <stop offset="0" stop-color="#222357"/>
      <stop offset="1" stop-color="#254aa5"/>
    </linearGradient>
  </defs>
  <path id="Path_8602" data-name="Path 8602" d="M17.067-79.262c-.019,1.484,1.323,2.313,2.334,2.805,1.038.505,1.387.829,1.383,1.281-.008.692-.828,1-1.6,1.009a5.571,5.571,0,0,1-2.738-.651l-.483,2.258a8.028,8.028,0,0,0,2.965.547c2.8,0,4.633-1.382,4.643-3.526.011-2.72-3.763-2.871-3.737-4.087.009-.369.361-.762,1.132-.862a5.02,5.02,0,0,1,2.629.461l.469-2.185a7.147,7.147,0,0,0-2.5-.458c-2.636,0-4.49,1.4-4.5,3.407m11.5-3.219a1.215,1.215,0,0,0-1.135.756l-4,9.552h2.8l.557-1.539h3.42l.323,1.539H33L30.848-82.48H28.571m.391,2.785.808,3.871H27.558l1.4-3.871M13.674-82.48,11.468-72.172h2.667l2.2-10.308H13.674m-3.945,0L6.953-75.464,5.831-81.43A1.243,1.243,0,0,0,4.6-82.48H.063l-.063.3a11.1,11.1,0,0,1,2.631.877,1.128,1.128,0,0,1,.633.906l2.127,8.226H8.209l4.32-10.308h-2.8" transform="translate(0 82.668)" fill="url(#linear-gradient)"/>
</svg>
