<svg xmlns="http://www.w3.org/2000/svg" xmlns:xlink="http://www.w3.org/1999/xlink" width="16" height="16" viewBox="0 0 16 16">
  <defs>
    <clipPath id="clip-path">
      <circle id="Ellipse_198" data-name="Ellipse 198" cx="8" cy="8" r="8" transform="translate(284 242.538)" fill="#fff"/>
    </clipPath>
  </defs>
  <g id="Mask_Group_77" data-name="Mask Group 77" transform="translate(-284 -242.538)" clip-path="url(#clip-path)">
    <g id="Group_3233" data-name="Group 3233" transform="translate(273.387 230.945)">
      <path id="Path_67080" data-name="Path 67080" d="M11.143,25.47H5.97A5.976,5.976,0,0,1,0,19.5V5.97A5.976,5.976,0,0,1,5.97,0H19.5a5.976,5.976,0,0,1,5.97,5.97v4.975a1,1,0,0,1-1.99,0V5.97A3.984,3.984,0,0,0,19.5,1.99H5.97A3.984,3.984,0,0,0,1.99,5.97V19.5a3.984,3.984,0,0,0,3.98,3.98h5.174A1,1,0,0,1,11.143,25.47Zm5.124-20a1,1,0,0,0-.995-.995H10.2a1,1,0,0,0,0,1.99h5.074A1,1,0,0,0,16.267,5.472Zm9.2,13.282a6.716,6.716,0,1,0-6.716,6.716A6.723,6.723,0,0,0,25.47,18.755Zm-1.99,0a4.726,4.726,0,1,1-4.726-4.726A4.731,4.731,0,0,1,23.481,18.755Zm-3.319,0,.789-.789a.995.995,0,0,0-1.407-1.407l-.789.789-.789-.789a.995.995,0,0,0-1.407,1.407l.789.789-.789.789a.995.995,0,0,0,1.407,1.407l.789-.789.789.789a.995.995,0,0,0,1.407-1.407Z" fill="#f11616"/>
    </g>
  </g>
</svg>
